<?xml version="1.0" encoding="UTF-8"?><svg id="Layer_1" xmlns="http://www.w3.org/2000/svg" width="148.02" height="48.66" viewBox="0 0 148.02 48.66"><defs><style>.cls-1{fill:#fff;stroke:#f3abe5;stroke-miterlimit:10;}.cls-2{fill:#ff7bac;stroke-width:0px;}</style></defs><rect class="cls-1" x=".5" y=".5" width="147.02" height="41" rx="17.66" ry="17.66"/><path class="cls-2" d="M55.13,22.91c0,.96-.43,1.45-1.29,1.47.1.46.32,1.08.66,1.86-.02.44-.2.8-.54,1.08-.34.28-.74.42-1.2.42-.36,0-.78-.11-1.26-.33-.26-.52-.39-1.14-.39-1.86,0-.18,0-.44.03-.78.02-.34.03-.59.03-.75,0,.14-.33.21-.99.21-1.12,0-2.45.05-3.99.15-2.2.12-3.4.29-3.58.51-.19.22-.32,1.29-.38,3.21-.26.38-.59.57-.99.57-.42,0-.85-.18-1.29-.53s-.66-.72-.66-1.12c0-.14.18-.7.54-1.68.4-1.42,1.05-3.55,1.95-6.39,2.68-7.34,4.91-11.01,6.69-11.01s3.08,1.94,4.02,5.82c.42,1.74.81,4.41,1.17,8.01.52.12.85.22.99.3.32.18.48.46.48.84ZM50.93,21.77c-.88-6.98-1.67-10.47-2.37-10.47-.56,0-1.54,1.64-2.94,4.92-1,2.36-1.79,4.41-2.37,6.15.64-.14,1.59-.31,2.85-.51,1.14-.14,2.75-.17,4.83-.09Z"/><path class="cls-2" d="M67.86,25.19c0,.94-.4,1.76-1.2,2.46-.88.76-2.06,1.14-3.54,1.14-.64.02-1.33-.11-2.07-.39-2.4-.9-3.6-1.63-3.6-2.19,0-.88.63-1.32,1.89-1.32.18,0,.37.01.57.03.06.6.54,1.08,1.44,1.44.78.32,1.53.45,2.25.39.58-.04.87-.25.87-.63,0-.06-.02-.15-.04-.27-.03-.12-.04-.21-.04-.29s-.38-.22-1.14-.46c-.86-.26-1.34-.41-1.44-.45-2.28-1.36-3.42-3-3.42-4.92,0-1.16.33-2.23.99-3.21.74-1.08,1.66-1.62,2.76-1.62.82,0,1.75.32,2.8.96,1.05.64,1.7,1.33,1.94,2.07.16.52.24.95.24,1.29,0,.36-.05.66-.15.9l-.36.9c-.38.26-.76.39-1.14.39-.2,0-.54-.12-1.01-.38-.47-.25-.71-.47-.71-.65,0-.08.12-.34.36-.78.14-.26.21-.48.21-.66,0-1.2-.47-1.8-1.41-1.8-.56,0-.99.36-1.29,1.08-.22.56-.33,1.16-.33,1.8,0,.8.57,1.52,1.71,2.16,1.04.46,2.09.93,3.15,1.41,1.14.52,1.71,1.05,1.71,1.59Z"/><path class="cls-2" d="M79.05,25.19c0,.94-.4,1.76-1.2,2.46-.88.76-2.06,1.14-3.54,1.14-.64.02-1.33-.11-2.07-.39-2.4-.9-3.6-1.63-3.6-2.19,0-.88.63-1.32,1.89-1.32.18,0,.37.01.57.03.06.6.54,1.08,1.44,1.44.78.32,1.53.45,2.25.39.58-.04.87-.25.87-.63,0-.06-.02-.15-.04-.27-.03-.12-.04-.21-.04-.29s-.38-.22-1.14-.46c-.86-.26-1.34-.41-1.44-.45-2.28-1.36-3.42-3-3.42-4.92,0-1.16.33-2.23.99-3.21.74-1.08,1.66-1.62,2.76-1.62.82,0,1.75.32,2.8.96,1.05.64,1.7,1.33,1.94,2.07.16.52.24.95.24,1.29,0,.36-.05.66-.15.9l-.36.9c-.38.26-.76.39-1.14.39-.2,0-.54-.12-1.01-.38-.47-.25-.71-.47-.71-.65,0-.08.12-.34.36-.78.14-.26.21-.48.21-.66,0-1.2-.47-1.8-1.41-1.8-.56,0-.99.36-1.29,1.08-.22.56-.33,1.16-.33,1.8,0,.8.57,1.52,1.71,2.16,1.04.46,2.09.93,3.15,1.41,1.14.52,1.71,1.05,1.71,1.59Z"/><path class="cls-2" d="M90.31,25.58c0,1-.68,1.78-2.04,2.34-1.06.44-2.17.66-3.33.66-3.08,0-4.62-1.75-4.62-5.25,0-1.44.35-3.04,1.05-4.8.86-2.16,1.9-3.24,3.12-3.24,1.1,0,2.28.49,3.56,1.47,1.27.98,1.9,2,1.9,3.06,0,1.32-.59,2.37-1.77,3.15-1.04.7-2.28,1.05-3.72,1.05-.28,0-.73-.17-1.35-.51.08,1.9.64,2.85,1.68,2.85.88,0,1.74-.25,2.59-.75.85-.5,1.4-.75,1.64-.75.86,0,1.29.24,1.29.72ZM87.04,19.91c0-.5-.15-.98-.44-1.43-.29-.45-.68-.67-1.16-.67-.66,0-1.17.29-1.53.87-.3.5-.45,1.09-.45,1.77,0,.38.13.69.39.93.26.24.59.36.99.36,1.46,0,2.19-.61,2.19-1.83Z"/><path class="cls-2" d="M98.72,17.48c0,.54-.82.92-2.46,1.14-.04.44-.06,1.44-.06,3v1.98c0,.4.06.99.18,1.77.12.78.18,1.36.18,1.74,0,.32-.16.61-.48.86-.32.25-.64.38-.96.38-.5,0-.92-.43-1.26-1.29-.26-.66-.39-1.3-.39-1.92v-6.36c-.92-.14-1.45-.23-1.59-.27-.52-.16-.78-.39-.78-.69,0-.08.02-.17.06-.27.52-.74,1.1-1.11,1.74-1.11h.18c.08.02.14.03.18.03.42,0,.62-.49.6-1.47v-2.19c-.1-.22-.15-.41-.15-.57,0-.26.15-.5.46-.71s.6-.31.88-.31c.42,0,.81.19,1.19.58.38.39.56.8.56,1.25,0,.48-.08.96-.23,1.42s-.22.96-.2,1.46v.12c1.56.16,2.34.64,2.34,1.44Z"/><path class="cls-2" d="M109.55,25.19c0,.94-.4,1.76-1.2,2.46-.88.76-2.06,1.14-3.54,1.14-.64.02-1.33-.11-2.07-.39-2.4-.9-3.6-1.63-3.6-2.19,0-.88.63-1.32,1.89-1.32.18,0,.37.01.57.03.06.6.54,1.08,1.44,1.44.78.32,1.53.45,2.25.39.58-.04.87-.25.87-.63,0-.06-.02-.15-.04-.27-.03-.12-.04-.21-.04-.29s-.38-.22-1.14-.46c-.86-.26-1.34-.41-1.44-.45-2.28-1.36-3.42-3-3.42-4.92,0-1.16.33-2.23.99-3.21.74-1.08,1.66-1.62,2.76-1.62.82,0,1.75.32,2.8.96,1.05.64,1.7,1.33,1.94,2.07.16.52.24.95.24,1.29,0,.36-.05.66-.15.9l-.36.9c-.38.26-.76.39-1.14.39-.2,0-.54-.12-1.01-.38-.47-.25-.71-.47-.71-.65,0-.08.12-.34.36-.78.14-.26.21-.48.21-.66,0-1.2-.47-1.8-1.41-1.8-.56,0-.99.36-1.29,1.08-.22.56-.33,1.16-.33,1.8,0,.8.57,1.52,1.71,2.16,1.04.46,2.09.93,3.15,1.41,1.14.52,1.71,1.05,1.71,1.59Z"/></svg>