<?xml version="1.0" encoding="UTF-8"?><svg id="Layer_1" xmlns="http://www.w3.org/2000/svg" width="1920" height="1080" viewBox="0 0 1920 1080"><defs><style>.cls-1{fill:#fadae8;}.cls-1,.cls-2,.cls-3,.cls-4,.cls-5,.cls-6,.cls-7,.cls-8,.cls-9,.cls-10,.cls-11,.cls-12,.cls-13,.cls-14,.cls-15{stroke-width:0px;}.cls-2{fill:#694c33;}.cls-3{fill:#ff7bac;}.cls-4{fill:#efe4e8;}.cls-5{fill:#f3aee5;}.cls-6{fill:#485a23;}.cls-7{fill:#6a7420;}.cls-16{fill:#f4bec9;stroke:#f4bec9;stroke-miterlimit:10;stroke-width:2px;}.cls-8{fill:#e8ffd6;}.cls-9{fill:#5e763a;}.cls-10{fill:#5f7b32;}.cls-11{fill:#ceeb8f;}.cls-12{fill:#76964b;}.cls-13{fill:#607a36;}.cls-14{fill:#b3ba60;}.cls-15{fill:#d0da87;}</style></defs><polygon class="cls-8" points="1999 867 -80 884 -83 -3 2003 -24 1999 867"/><path class="cls-11" d="M-98.83,836.25c-2.56-21.28,23.84-39.99,59.95-42.46,81.18-5.56,208.98-12.42,208.98-12.42,48.36-3.79,98.49-12.57,147.73-25.91,51.63-13.99,109.65-17.67,165.39-11.06,146.55,17.39,269.97,63.77,396.79,53.83,140.03-6.11,254.54-32.45,403.92-53.26,27.31-3.81,149.45-26.12,198.35-29.58,7.37-.52,14.83-.31,22.09.59l126.82,15.74c3.48.43,7,.7,10.55.81,34.08,1.04,190,10.23,240.11,14.58,8.51.74,16.7,2.42,24.15,4.95l62.88,21.37c21,7.14,33.93,20.3,33.94,34.53l.18,274.1c.01,22.06-30.46,39.94-68.05,39.94H-1.07c-35.73,0-65.37-16.21-67.88-37.12l-29.87-248.63Z"/><path class="cls-1" d="M1703.91,97s-53.79-120.56,55-69.79c0,0,35.4-62.78,72.1,0,0,0,66.1-56.12,86.52,9.33,0,0,77.01,27.19,7.21,42.82,0,0,1.79,41.64-41.46,17.63,0,0,11.44,75.39-73.9,24.19,0,0-35.2,59.3-75.7,1.55,0,0-86.09,23.29-29.77-25.73Z"/><path class="cls-1" d="M1336.68,84.57s-41.31-100.29,42.25-58.05c0,0,27.19-52.23,55.38,0,0,0,50.77-46.69,66.45,7.76,0,0,59.15,22.62,5.54,35.62,0,0,1.37,34.64-31.84,14.67,0,0,8.79,62.71-56.76,20.12,0,0-27.04,49.33-58.14,1.29,0,0-66.12,19.37-22.87-21.41Z"/><path class="cls-1" d="M418.76,121.95S368.21,1.44,470.44,52.2c0,0,33.26-62.75,67.75,0,0,0,62.11-56.1,81.3,9.33,0,0,72.36,27.18,6.77,42.8,0,0,1.68,41.62-38.96,17.62,0,0,10.75,75.35-69.44,24.17,0,0-33.08,59.27-71.14,1.55,0,0-80.89,23.28-27.97-25.72Z"/><path class="cls-1" d="M-34.8,104.88S-72.52,14.94,3.78,52.82c0,0,24.83-46.84,50.57,0,0,0,46.36-41.87,60.68,6.96,0,0,54.01,20.29,5.06,31.95,0,0,1.25,31.07-29.08,13.15,0,0,8.02,56.24-51.83,18.04,0,0-24.69,44.24-53.09,1.15,0,0-60.38,17.38-20.88-19.2Z"/><path class="cls-5" d="M3.22,831.48c1.27,3.95,6.59,2.94,9.61,2.35,2.07-.41,4.13-.88,6.14-1.53,1.83-.6,3.76-1.27,5.09-2.73s-.81-3.55-2.12-2.12c-.98,1.07-2.42,1.52-3.77,1.96-1.57.51-3.18.91-4.8,1.26s-3.18.73-4.78.77c-.61.01-2.24,0-2.48-.75-.59-1.83-3.49-1.05-2.89.8h0Z"/><path class="cls-3" d="M4.86,830.41s5.12-3.61,5.13-7.69,3.22-4.38,3.22-4.38c0,0,1.7-.25,4.45,4.86.37.68.9,1.27,1.55,1.7,1.48.98,4.02,2.85,3.6,3.76-.59,1.28-19.1,7.67-17.94,1.75Z"/><path class="cls-4" d="M13.45,828.72c.18.67.11,1.37-.49,1.7s-1.37.11-1.7-.49-.17-1.6.33-2.07c.73-.68,1.58-.14,1.86.86Z"/><path class="cls-4" d="M16.81,829.63c.08.14.18.35.07.47-.15.16-.5,0-.57-.19-.05-.15-.03-.31.11-.38s.31-.03.38.11Z"/><circle class="cls-4" cx="19.88" cy="828.53" r=".32"/><path class="cls-4" d="M9.19,825.81c-.14.92-.44,1.66-.04,1.86s1.06-.3,1.48-1.13.49-1.88.04-1.86c-.37.01-1.25-.42-1.48,1.13Z"/><path class="cls-4" d="M6.12,830.64c-.16-.29.07-1.05.7-1.08.72-.03,1.12-.31,1.28-.02s-.1.65-.7,1.08c-.51.36-1.12.31-1.28.02Z"/><path class="cls-4" d="M18.45,824.5c-.59-.58-.96-1.2-1.31-1.02s-.34.92.03,1.66,1.09,1.34,1.31,1.02c.19-.27.96-.67-.03-1.66Z"/><path class="cls-4" d="M17.28,826.52c.39.57.01,1.54-.44,1.44-.56-.12-.97-.29-1.18-.95s0-1.31.44-1.44.82.44,1.18.95Z"/><path class="cls-4" d="M13.84,823.34c.14.45.11.92-.26,1.13s-.87.04-1.1-.38-.16-1.08.15-1.39c.45-.44,1.01-.05,1.21.63Z"/><path class="cls-4" d="M11.01,823.33c-.33-.03-.83-.64-.51-1.18.38-.62.36-1.1.7-1.08s.49.45.51,1.18c.02.62-.36,1.1-.7,1.08Z"/><path class="cls-4" d="M14.65,820.02c.08.14.18.35.07.47-.15.16-.5,0-.57-.19-.05-.15-.03-.31.11-.38s.31-.03.38.11Z"/><path class="cls-4" d="M13.38,819.4c.11.2.26.51.08.68-.24.24-.78.04-.86-.25-.07-.21-.02-.45.19-.57s.48-.06.58.14Z"/><path class="cls-4" d="M15.96,821.42c.12.21.28.55.07.74-.29.27-.89.07-.98-.24-.07-.23,0-.49.24-.63s.55-.08.66.13Z"/><path class="cls-16" d="M13.34,832.54l.39,5.09c.03.35-.03.71-.17,1.03l-.1.22c-.14.32-.16.68-.05,1.01l.29.93c.15.47.67.71,1.12.5.52-.24,1.13-.65,1.38-1.27.22-.57.6-.48.92-.24.17.13.4-.04.34-.24l-1.09-3.39.99-.62c.39-.24.26-.84-.19-.9-.24-.03-.53-.02-.9.06-1.36.32-.85-2.52-.85-2.52l-2.08.33Z"/><path class="cls-5" d="M95.48,833.09c-.8,4.29,4.5,6,7.62,7,1.97.63,3.95,1.2,5.98,1.6s4.27.83,6.31.14c1.82-.61,1.04-3.51-.8-2.89-1.53.51-3.18.16-4.72-.14s-3.13-.73-4.66-1.19c-1.46-.44-2.96-.86-4.35-1.48-.62-.28-2.68-1.26-2.49-2.24.35-1.89-2.54-2.7-2.89-.8h0Z"/><path class="cls-3" d="M97.44,832.98s6.51-.71,8.57-4.44,5.16-2.38,5.16-2.38c0,0,1.68.63,1.62,6.69,0,.81.18,1.61.56,2.33.86,1.64,2.24,4.63,1.39,5.26-1.19.87-21.34-2.62-17.29-7.46Z"/><path class="cls-4" d="M106.15,835.77c-.17.7-.58,1.31-1.31,1.31s-1.31-.58-1.31-1.31.65-1.55,1.35-1.73c1.01-.25,1.52.67,1.26,1.73Z"/><path class="cls-4" d="M108.76,838.3c0,.16-.01.41-.17.46-.22.07-.46-.25-.42-.46.03-.16.13-.29.29-.29s.29.13.29.29Z"/><circle class="cls-4" cx="112.13" cy="838.84" r=".34"/><path class="cls-4" d="M103.73,830.96c-.59.77-1.24,1.3-.98,1.68s1.12.26,1.92-.29,1.39-1.47.98-1.68c-.34-.17-.93-1.02-1.92.29Z"/><path class="cls-4" d="M98.48,833.83c0-.35.6-.92,1.18-.63.67.34,1.18.28,1.18.63s-.42.55-1.18.63c-.65.07-1.18-.28-1.18-.63Z"/><path class="cls-4" d="M112.85,834.44c-.24-.83-.27-1.58-.69-1.59s-.78.67-.81,1.53.32,1.78.69,1.59c.31-.15,1.22-.13.81-1.53Z"/><path class="cls-4" d="M110.77,835.7c.07.72-.77,1.42-1.13,1.1-.45-.39-.75-.75-.6-1.46s.65-1.2,1.13-1.1.53.81.6,1.46Z"/><path class="cls-4" d="M109.23,831.05c-.1.48-.36.9-.81.9s-.81-.4-.81-.9.4-1.07.84-1.19c.63-.17.94.46.79,1.19Z"/><path class="cls-4" d="M106.64,829.61c-.29-.19-.44-1.01.13-1.33.65-.37.89-.83,1.18-.63s.22.65-.13,1.33c-.3.58-.89.83-1.18.63Z"/><path class="cls-4" d="M111.64,828.43c0,.16-.01.41-.17.46-.22.07-.46-.25-.42-.46.03-.16.13-.29.29-.29s.29.13.29.29Z"/><path class="cls-4" d="M110.8,827.21c0,.23-.02.59-.27.66-.34.1-.73-.36-.66-.66.05-.23.21-.42.46-.42s.46.19.46.42Z"/><path class="cls-4" d="M112.13,830.36c0,.25-.02.64-.31.71-.4.11-.85-.39-.77-.71.06-.25.24-.45.54-.45s.54.2.54.45Z"/><path class="cls-16" d="M104.13,839.21l-2.21,4.85c-.15.34-.39.63-.68.86l-.2.15c-.29.22-.49.54-.56.9l-.2.99c-.1.5.26.99.77,1.02.6.04,1.36-.02,1.9-.46.49-.41.79-.14.97.25.09.2.39.17.43-.05l.71-3.65,1.22-.06c.48-.02.66-.64.28-.92-.2-.15-.48-.29-.85-.39-1.4-.39.5-2.73.5-2.73l-2.07-.74Z"/><path class="cls-9" d="M39.45,811.64c3.39-14.79,16.41-80.58-8.73-125.97,0,0-23.79,12.19-38.45-40.71l10.09-12.52s25.68,46.62,28.05,41.63c2.37-4.99,5-11.77-12.03-52.72-17.03-40.95,12.04-16.87,12.04-16.87,0,0,16.94,75.18,23.98,70.07,7.04-5.11,12.3-36.05,12.3-36.05l11.61,4.65s-30.03,112.35,23.82,20.22l17.55,2.6s-13.32,36.2-36.21,43.1c0,0-21.03,111.26,19.24,140.62,0,0-15.09.01,0,14,0,0-19.16-19.3-24,11,0,0-24.27-29.39-26-10,0,0-12.99-34.49-23-4,0,0,4.72-34.65-19-5-3.45,4.31,19.82-29.22,26.33-38.6,1.14-1.64,1.95-3.47,2.4-5.42Z"/><path class="cls-2" d="M31.97,616.8c1.09,8.07,4.72,15.66,10.28,21.6.66.71,1.72-.36,1.06-1.06-5.39-5.77-8.84-13.12-9.9-20.94-.13-.95-1.57-.55-1.45.4h0Z"/><path class="cls-14" d="M139.55,614.75c-9.81,8.02,27.37,28.5-17.07,20.44,0,0,0,0,0,0,.24,1.01,8.38,35.76-21.24,10.64,0,0-12.55,28.1-16.57,6.22,0,0-36.46,20.8-26.36-5.81,0,0-10.47,16.55-18.64-5.09,0,0-22.16,32.53-16.89-6.1,0,0-37.89-24.82,3.85-18.6,1.18.18,1.94-1.2,1.14-2.08-5.63-6.15-16.92-20.6,3.47-18.61,3.73.36,7.3-1.72,8.74-5.14,2.43-5.73,7.12-11.85,14.29-.8l11.11,17.13s-3.81-33.15,11.93-22.01l15.74,11.14s16.18-36.88,24.71-7.81c0,0,33.54-7.25,9.84,12.39,0,0,35.31-5.05,11.95,14.06Z"/><path class="cls-15" d="M38.9,599.66c-5.26,10.34,33.3,18.49-6.77,24.03,0,0,0,0,0,0,.57.87,20.09,30.82-13.85,16.13,0,0-.19,29.83-11.57,10.65,0,0-22.84,30.05-24.14,2.33,0,0-2.68,18.47-17.43.73,0,0-6.6,36.77-16.34-.72,0,0-40.74-11.98-3.59-18.43,1.05-.18,1.18-1.69.2-2.27-6.96-4.07-21.68-14.2-3.92-18.33,3.25-.75,5.46-3.74,5.42-7.34-.07-6.04,1.61-13.11,11.65-4.93l15.55,12.68s-15.32-29.73,1.91-23.98l17.23,5.75s.01-39.07,17.78-14.51c0,0,25.36-16.59,12.76,8.65,0,0,27.65-15.05,15.13,9.58Z"/><path class="cls-7" d="M99.2,658.24s-18.44-33.75,21.1-16.25c0,0,11.09-30.26,16.81,1.13,0,0,7.49-12.56,11.09,4.59,0,0,14.35,26.46-6.65,18.15,0,0-1.16,23.57-14.07,6.78,0,0-12.73,22.7-11.34.65,0,0-19.34,13.29-8.97-4.38,0,0-39.32,2.95-7.95-10.68Z"/><path class="cls-6" d="M-27.7,847.47c1.33-5.18,8.7-13.8,45.17-6.1,4.34.92,9.19.69,13.14-.68,8.28-2.85,22.76-6.36,27.13,2.11,1.15,2.23,3.92,4.08,7.68,5.03,3.49.88,7.26,3.1,8.08,8.51,0,0,12.69,13.44-5.75,11.76-4.88-.44-9.75.68-12.65,2.93-2.38,1.85-5.9,3.39-10.64,2.48-6.92-1.32-14.55-1.04-21.19.67-2.34.6-4.44.85-5.71.33-6.68-2.73-14.62-4.34-22.86-4.01s-16.44.18-17.85-1.43c-2.14-2.44-5.73-4.37-10.43-5-10.16-1.37-18.89-4.44-.22-11.27,3.29-1.2,5.52-3.14,6.09-5.33Z"/><path class="cls-10" d="M53.25,855.57c1.24-6.26,8.13-16.7,42.2-7.39,4.05,1.11,8.58.83,12.27-.82,7.73-3.45,21.26-7.69,25.34,2.55,1.08,2.7,3.66,4.93,7.18,6.08,3.26,1.07,6.78,3.76,7.55,10.3,0,0,11.85,16.26-5.37,14.23-4.56-.54-9.11.82-11.82,3.55-2.22,2.24-5.51,4.1-9.94,3.01-6.46-1.6-13.59-1.26-19.8.81-2.18.73-4.15,1.03-5.33.4-6.24-3.3-13.66-5.25-21.35-4.85s-15.36.22-16.67-1.73c-2-2.95-5.35-5.28-9.74-6.05-9.49-1.65-17.64-5.37-.2-13.63,3.08-1.46,5.16-3.8,5.69-6.45Z"/><path class="cls-9" d="M1851.45,751.64c3.39-14.79,16.41-80.58-8.73-125.97,0,0-23.79,12.19-38.45-40.71l10.09-12.52s25.68,46.62,28.05,41.63c2.37-4.99,5-11.77-12.03-52.72-17.03-40.95,12.04-16.87,12.04-16.87,0,0,16.94,75.18,23.98,70.07,7.04-5.11,12.3-36.05,12.3-36.05l11.61,4.65s-30.03,112.35,23.82,20.22l17.55,2.6s-13.32,36.2-36.21,43.1c0,0-21.03,111.26,19.24,140.62,0,0-15.09.01,0,14,0,0-19.16-19.3-24,11,0,0-24.27-29.39-26-10,0,0-12.99-34.49-23-4,0,0,4.72-34.65-19-5-3.45,4.31,19.82-29.22,26.33-38.6,1.14-1.64,1.95-3.47,2.4-5.42Z"/><path class="cls-2" d="M1843.97,556.8c1.09,8.07,4.72,15.66,10.28,21.6.66.71,1.72-.36,1.06-1.06-5.39-5.77-8.84-13.12-9.9-20.94-.13-.95-1.57-.55-1.45.4h0Z"/><path class="cls-14" d="M1951.55,554.75c-9.81,8.02,27.37,28.5-17.07,20.44,0,0,0,0,0,0,.24,1.01,8.38,35.76-21.24,10.64,0,0-12.55,28.1-16.57,6.22,0,0-36.46,20.8-26.36-5.81,0,0-10.47,16.55-18.64-5.09,0,0-22.16,32.53-16.89-6.1,0,0-37.89-24.82,3.85-18.6,1.18.18,1.94-1.2,1.14-2.08-5.63-6.15-16.92-20.6,3.47-18.61,3.73.36,7.3-1.72,8.74-5.14,2.43-5.73,7.12-11.85,14.29-.8l11.11,17.13s-3.81-33.15,11.93-22.01l15.74,11.14s16.18-36.88,24.71-7.81c0,0,33.54-7.25,9.84,12.39,0,0,35.31-5.05,11.95,14.06Z"/><path class="cls-15" d="M1850.9,539.66c-5.26,10.34,33.3,18.49-6.77,24.03,0,0,0,0,0,0,.57.87,20.09,30.82-13.85,16.13,0,0-.19,29.83-11.57,10.65,0,0-22.84,30.05-24.14,2.33,0,0-2.68,18.47-17.43.73,0,0-6.6,36.77-16.34-.72,0,0-40.74-11.98-3.59-18.43,1.05-.18,1.18-1.69.2-2.27-6.96-4.07-21.68-14.2-3.92-18.33,3.25-.75,5.46-3.74,5.42-7.34-.07-6.04,1.61-13.11,11.65-4.93l15.55,12.68s-15.32-29.73,1.91-23.98l17.23,5.75s.01-39.07,17.78-14.51c0,0,25.36-16.59,12.76,8.65,0,0,27.65-15.05,15.13,9.58Z"/><path class="cls-7" d="M1911.2,598.24s-18.44-33.75,21.1-16.25c0,0,11.09-30.26,16.81,1.13,0,0,7.49-12.56,11.09,4.59,0,0,14.35,26.46-6.65,18.15,0,0-1.16,23.57-14.07,6.78,0,0-12.73,22.7-11.34.65,0,0-19.34,13.29-8.97-4.38,0,0-39.32,2.95-7.95-10.68Z"/><path class="cls-6" d="M1784.3,787.47c1.33-5.18,8.7-13.8,45.17-6.1,4.34.92,9.19.69,13.14-.68,8.28-2.85,22.76-6.36,27.13,2.11,1.15,2.23,3.92,4.08,7.68,5.03,3.49.88,7.26,3.1,8.08,8.51,0,0,12.69,13.44-5.75,11.76-4.88-.44-9.75.68-12.65,2.93-2.38,1.85-5.9,3.39-10.64,2.48-6.92-1.32-14.55-1.04-21.19.67-2.34.6-4.44.85-5.71.33-6.68-2.73-14.62-4.34-22.86-4.01s-16.44.18-17.85-1.43c-2.14-2.44-5.73-4.37-10.43-5-10.16-1.37-18.89-4.44-.22-11.27,3.29-1.2,5.52-3.14,6.09-5.33Z"/><path class="cls-10" d="M1865.25,795.57c1.24-6.26,8.13-16.7,42.2-7.39,4.05,1.11,8.58.83,12.27-.82,7.73-3.45,21.26-7.69,25.34,2.55,1.08,2.7,3.66,4.93,7.18,6.08,3.26,1.07,6.78,3.76,7.55,10.3,0,0,11.85,16.26-5.37,14.23-4.56-.54-9.11.82-11.82,3.55-2.22,2.24-5.51,4.1-9.94,3.01-6.46-1.6-13.59-1.26-19.8.81-2.18.73-4.15,1.03-5.33.4-6.24-3.3-13.66-5.25-21.35-4.85s-15.36.22-16.67-1.73c-2-2.95-5.35-5.28-9.74-6.05-9.49-1.65-17.64-5.37-.2-13.63,3.08-1.46,5.16-3.8,5.69-6.45Z"/><path class="cls-9" d="M1492.23,701.53c1.5-6.55,7.27-35.68-3.87-55.79,0,0-10.54,5.4-17.03-18.03l4.47-5.55s11.37,20.64,12.42,18.43,2.22-5.21-5.33-23.34c-7.54-18.13,5.33-7.47,5.33-7.47,0,0,7.5,33.29,10.62,31.03s5.45-15.96,5.45-15.96l5.14,2.06s-13.3,49.75,10.55,8.95l7.77,1.15s-5.9,16.03-16.04,19.09c0,0-9.31,49.27,8.52,62.27,0,0-6.68,0,0,6.2,0,0-8.49-8.55-10.63,4.87,0,0-10.75-13.02-11.51-4.43,0,0-5.75-15.27-10.19-1.77,0,0,2.09-15.35-8.41-2.21-1.53,1.91,8.78-12.94,11.66-17.1.5-.73.86-1.54,1.06-2.4Z"/><path class="cls-2" d="M1488.52,615.36c.49,3.64,2.15,7.07,4.66,9.75.66.71,1.72-.36,1.06-1.06-2.34-2.51-3.82-5.69-4.28-9.09-.05-.4-.57-.62-.92-.52-.43.12-.58.52-.52.92h0Z"/><path class="cls-14" d="M1536.56,614.34c-4.34,3.55,12.12,12.62-7.56,9.05,0,0,0,0,0,0,.11.45,3.71,15.83-9.41,4.71,0,0-5.56,12.44-7.34,2.75,0,0-16.15,9.21-11.67-2.57,0,0-4.63,7.33-8.25-2.25,0,0-9.81,14.41-7.48-2.7,0,0-16.78-10.99,1.71-8.23.52.08.86-.53.51-.92-2.49-2.72-7.49-9.12,1.53-8.24,1.65.16,3.23-.76,3.87-2.27,1.08-2.54,3.16-5.25,6.33-.35l4.92,7.58s-1.69-14.68,5.28-9.75l6.97,4.93s7.17-16.33,10.94-3.46c0,0,14.85-3.21,4.36,5.49,0,0,15.64-2.24,5.29,6.23Z"/><path class="cls-15" d="M1491.99,607.66c-2.33,4.58,14.75,8.19-3,10.64,0,0,0,0,0,0,.25.39,8.9,13.65-6.13,7.14,0,0-.08,13.21-5.12,4.72,0,0-10.12,13.31-10.69,1.03,0,0-1.19,8.18-7.72.33,0,0-2.92,16.28-7.24-.32,0,0-18.04-5.31-1.59-8.16.47-.08.52-.75.09-1-3.08-1.8-9.6-6.29-1.74-8.12,1.44-.33,2.42-1.66,2.4-3.25-.03-2.68.71-5.81,5.16-2.18l6.89,5.61s-6.78-13.17.84-10.62l7.63,2.55s0-17.3,7.87-6.43c0,0,11.23-7.34,5.65,3.83,0,0,12.24-6.67,6.7,4.24Z"/><path class="cls-7" d="M1518.69,633.6s-8.16-14.95,9.34-7.2c0,0,4.91-13.4,7.44.5,0,0,3.32-5.56,4.91,2.03,0,0,6.35,11.72-2.95,8.04,0,0-.51,10.44-6.23,3,0,0-5.64,10.05-5.02.29,0,0-8.56,5.88-3.97-1.94,0,0-17.41,1.3-3.52-4.73Z"/><path class="cls-6" d="M1462.5,717.4c.59-2.29,3.85-6.11,20-2.7,1.92.41,4.07.3,5.82-.3,3.67-1.26,10.08-2.81,12.01.93.51.99,1.74,1.81,3.4,2.23,1.55.39,3.21,1.37,3.58,3.77,0,0,5.62,5.95-2.55,5.21-2.16-.2-4.32.3-5.6,1.3-1.05.82-2.61,1.5-4.71,1.1-3.06-.58-6.44-.46-9.39.29-1.03.27-1.97.38-2.53.15-2.96-1.21-6.48-1.92-10.12-1.78-3.77.15-7.28.08-7.9-.63-.95-1.08-2.54-1.93-4.62-2.21-4.5-.61-8.36-1.96-.1-4.99,1.46-.53,2.45-1.39,2.7-2.36Z"/><path class="cls-10" d="M1498.34,720.98c.55-2.77,3.6-7.39,18.69-3.27,1.79.49,3.8.37,5.44-.36,3.42-1.53,9.42-3.41,11.22,1.13.48,1.2,1.62,2.18,3.18,2.69,1.44.47,3,1.66,3.34,4.56,0,0,5.25,7.2-2.38,6.3-2.02-.24-4.03.36-5.23,1.57-.98.99-2.44,1.82-4.4,1.33-2.86-.71-6.02-.56-8.77.36-.97.32-1.84.45-2.36.18-2.76-1.46-6.05-2.32-9.45-2.15s-6.8.1-7.38-.77c-.88-1.31-2.37-2.34-4.31-2.68-4.2-.73-7.81-2.38-.09-6.04,1.36-.65,2.29-1.68,2.52-2.86Z"/><path class="cls-9" d="M533.23,754.53c1.5-6.55,7.27-35.68-3.87-55.79,0,0-10.54,5.4-17.03-18.03l4.47-5.55s11.37,20.64,12.42,18.43,2.22-5.21-5.33-23.34c-7.54-18.13,5.33-7.47,5.33-7.47,0,0,7.5,33.29,10.62,31.03s5.45-15.96,5.45-15.96l5.14,2.06s-13.3,49.75,10.55,8.95l7.77,1.15s-5.9,16.03-16.04,19.09c0,0-9.31,49.27,8.52,62.27,0,0-6.68,0,0,6.2,0,0-8.49-8.55-10.63,4.87,0,0-10.75-13.02-11.51-4.43,0,0-5.75-15.27-10.19-1.77,0,0,2.09-15.35-8.41-2.21-1.53,1.91,8.78-12.94,11.66-17.1.5-.73.86-1.54,1.06-2.4Z"/><path class="cls-2" d="M529.52,668.36c.49,3.64,2.15,7.07,4.66,9.75.66.71,1.72-.36,1.06-1.06-2.34-2.51-3.82-5.69-4.28-9.09-.05-.4-.57-.62-.92-.52-.43.12-.58.52-.52.92h0Z"/><path class="cls-14" d="M577.56,667.34c-4.34,3.55,12.12,12.62-7.56,9.05,0,0,0,0,0,0,.11.45,3.71,15.83-9.41,4.71,0,0-5.56,12.44-7.34,2.75,0,0-16.15,9.21-11.67-2.57,0,0-4.63,7.33-8.25-2.25,0,0-9.81,14.41-7.48-2.7,0,0-16.78-10.99,1.71-8.23.52.08.86-.53.51-.92-2.49-2.72-7.49-9.12,1.53-8.24,1.65.16,3.23-.76,3.87-2.27,1.08-2.54,3.16-5.25,6.33-.35l4.92,7.58s-1.69-14.68,5.28-9.75l6.97,4.93s7.17-16.33,10.94-3.46c0,0,14.85-3.21,4.36,5.49,0,0,15.64-2.24,5.29,6.23Z"/><path class="cls-15" d="M532.99,660.66c-2.33,4.58,14.75,8.19-3,10.64,0,0,0,0,0,0,.25.39,8.9,13.65-6.13,7.14,0,0-.08,13.21-5.12,4.72,0,0-10.12,13.31-10.69,1.03,0,0-1.19,8.18-7.72.33,0,0-2.92,16.28-7.24-.32,0,0-18.04-5.31-1.59-8.16.47-.08.52-.75.09-1-3.08-1.8-9.6-6.29-1.74-8.12,1.44-.33,2.42-1.66,2.4-3.25-.03-2.68.71-5.81,5.16-2.18l6.89,5.61s-6.78-13.17.84-10.62l7.63,2.55s0-17.3,7.87-6.43c0,0,11.23-7.34,5.65,3.83,0,0,12.24-6.67,6.7,4.24Z"/><path class="cls-7" d="M559.69,686.6s-8.16-14.95,9.34-7.2c0,0,4.91-13.4,7.44.5,0,0,3.32-5.56,4.91,2.03,0,0,6.35,11.72-2.95,8.04,0,0-.51,10.44-6.23,3,0,0-5.64,10.05-5.02.29,0,0-8.56,5.88-3.97-1.94,0,0-17.41,1.3-3.52-4.73Z"/><path class="cls-6" d="M503.5,770.4c.59-2.29,3.85-6.11,20-2.7,1.92.41,4.07.3,5.82-.3,3.67-1.26,10.08-2.81,12.01.93.51.99,1.74,1.81,3.4,2.23,1.55.39,3.21,1.37,3.58,3.77,0,0,5.62,5.95-2.55,5.21-2.16-.2-4.32.3-5.6,1.3-1.05.82-2.61,1.5-4.71,1.1-3.06-.58-6.44-.46-9.39.29-1.03.27-1.97.38-2.53.15-2.96-1.21-6.48-1.92-10.12-1.78-3.77.15-7.28.08-7.9-.63-.95-1.08-2.54-1.93-4.62-2.21-4.5-.61-8.36-1.96-.1-4.99,1.46-.53,2.45-1.39,2.7-2.36Z"/><path class="cls-10" d="M539.34,773.98c.55-2.77,3.6-7.39,18.69-3.27,1.79.49,3.8.37,5.44-.36,3.42-1.53,9.42-3.41,11.22,1.13.48,1.2,1.62,2.18,3.18,2.69,1.44.47,3,1.66,3.34,4.56,0,0,5.25,7.2-2.38,6.3-2.02-.24-4.03.36-5.23,1.57-.98.99-2.44,1.82-4.4,1.33-2.86-.71-6.02-.56-8.77.36-.97.32-1.84.45-2.36.18-2.76-1.46-6.05-2.32-9.45-2.15s-6.8.1-7.38-.77c-.88-1.31-2.37-2.34-4.31-2.68-4.2-.73-7.81-2.38-.09-6.04,1.36-.65,2.29-1.68,2.52-2.86Z"/><path class="cls-12" d="M752.23,832.04c.87-4.69,5.68-12.5,29.47-5.53,2.83.83,5.99.62,8.57-.61,5.4-2.58,14.85-5.76,17.7,1.91.75,2.02,2.56,3.69,5.01,4.55,2.28.8,4.74,2.81,5.27,7.71,0,0,8.28,12.17-3.75,10.65-3.18-.4-6.36.61-8.26,2.66-1.55,1.68-3.85,3.07-6.95,2.25-4.52-1.19-9.49-.94-13.83.6-1.52.54-2.9.77-3.72.3-4.36-2.47-9.54-3.93-14.91-3.63-5.55.3-10.73.16-11.65-1.3-1.39-2.21-3.74-3.96-6.8-4.53-6.63-1.24-12.32-4.02-.14-10.21,2.15-1.09,3.61-2.85,3.97-4.83Z"/><path class="cls-12" d="M821.16,837.76c.87-4.69,5.68-12.5,29.47-5.53,2.83.83,5.99.62,8.57-.61,5.4-2.58,14.85-5.76,17.7,1.91.75,2.02,2.56,3.69,5.01,4.55,2.28.8,4.74,2.81,5.27,7.71,0,0,8.28,12.17-3.75,10.65-3.18-.4-6.36.61-8.26,2.66-1.55,1.68-3.85,3.07-6.95,2.25-4.52-1.19-9.49-.94-13.83.6-1.52.54-2.9.77-3.72.3-4.36-2.47-9.54-3.93-14.91-3.63-5.55.3-10.73.16-11.65-1.3-1.39-2.21-3.74-3.96-6.8-4.53-6.63-1.24-12.32-4.02-.14-10.21,2.15-1.09,3.61-2.85,3.97-4.83Z"/><path class="cls-10" d="M788.31,842.69c.87-4.69,5.68-12.5,29.47-5.53,2.83.83,5.99.62,8.57-.61,5.4-2.58,14.85-5.76,17.7,1.91.75,2.02,2.56,3.69,5.01,4.55,2.28.8,4.74,2.81,5.27,7.71,0,0,8.28,12.17-3.75,10.65-3.18-.4-6.36.61-8.26,2.66-1.55,1.68-3.85,3.07-6.95,2.25-4.52-1.19-9.49-.94-13.83.6-1.52.54-2.9.77-3.72.3-4.36-2.47-9.54-3.93-14.91-3.63-5.55.3-10.73.16-11.65-1.3-1.39-2.21-3.74-3.96-6.8-4.53-6.63-1.24-12.32-4.02-.14-10.21,2.15-1.09,3.61-2.85,3.97-4.83Z"/><path class="cls-9" d="M1677.17,728.76c1.93-8.42,9.35-45.9-4.97-71.77,0,0-13.55,6.94-21.9-23.19l5.75-7.14s14.63,26.56,15.98,23.71,2.85-6.7-6.85-30.03c-9.7-23.33,6.86-9.61,6.86-9.61,0,0,9.65,42.83,13.66,39.92s7.01-20.54,7.01-20.54l6.62,2.65s-17.11,64,13.57,11.52l10,1.48s-7.59,20.62-20.63,24.55c0,0-11.98,63.38,10.96,80.11,0,0-8.6,0,0,7.98,0,0-10.92-10.99-13.67,6.27,0,0-13.83-16.75-14.81-5.7,0,0-7.4-19.65-13.1-2.28,0,0,2.69-19.74-10.82-2.85-1.96,2.45,11.29-16.65,15-21.99.65-.93,1.11-1.98,1.37-3.09Z"/><path class="cls-2" d="M1672.6,617.85c.63,4.65,2.74,9.02,5.94,12.45.66.71,1.72-.36,1.06-1.06-3.04-3.25-4.96-7.38-5.56-11.79-.05-.4-.57-.62-.92-.52-.43.11-.58.52-.52.92h0Z"/><path class="cls-14" d="M1734.2,616.6c-5.59,4.57,15.59,16.24-9.72,11.64,0,0,0,0,0,0,.14.58,4.77,20.37-12.1,6.06,0,0-7.15,16.01-9.44,3.54,0,0-20.77,11.85-15.02-3.31,0,0-5.96,9.43-10.62-2.9,0,0-12.62,18.53-9.62-3.47,0,0-21.58-14.14,2.19-10.59.67.1,1.11-.68.65-1.18-3.21-3.5-9.64-11.73,1.97-10.6,2.12.21,4.16-.98,4.98-2.93,1.38-3.26,4.06-6.75,8.14-.45l6.33,9.76s-2.17-18.89,6.8-12.54l8.97,6.35s9.22-21.01,14.07-4.45c0,0,19.11-4.13,5.61,7.06,0,0,20.12-2.88,6.81,8.01Z"/><path class="cls-15" d="M1676.86,608c-2.99,5.89,18.97,10.54-3.86,13.69,0,0,0,0,0,0,.33.5,11.45,17.56-7.89,9.19,0,0-.11,16.99-6.59,6.07,0,0-13.01,17.12-13.76,1.33,0,0-1.53,10.52-9.93.42,0,0-3.76,20.95-9.31-.41,0,0-23.21-6.83-2.05-10.5.6-.1.67-.96.11-1.29-3.96-2.32-12.35-8.09-2.23-10.45,1.85-.43,3.11-2.13,3.09-4.18-.04-3.44.92-7.47,6.64-2.81l8.86,7.22s-8.73-16.94,1.09-13.66l9.81,3.28s0-22.26,10.13-8.27c0,0,14.45-9.45,7.27,4.93,0,0,15.75-8.58,8.62,5.46Z"/><path class="cls-7" d="M1711.21,641.37s-10.5-19.23,12.02-9.26c0,0,6.32-17.24,9.58.64,0,0,4.26-7.15,6.32,2.61,0,0,8.18,15.07-3.79,10.34,0,0-.66,13.43-8.02,3.86,0,0-7.25,12.93-6.46.37,0,0-11.02,7.57-5.11-2.5,0,0-22.4,1.68-4.53-6.08Z"/><path class="cls-6" d="M1638.92,749.18c.76-2.95,4.96-7.86,25.73-3.48,2.47.52,5.23.39,7.49-.38,4.72-1.63,12.97-3.62,15.46,1.2.66,1.27,2.23,2.32,4.38,2.86,1.99.5,4.14,1.77,4.61,4.85,0,0,7.23,7.66-3.28,6.7-2.78-.25-5.56.39-7.21,1.67-1.36,1.05-3.36,1.93-6.06,1.41-3.94-.75-8.29-.59-12.07.38-1.33.34-2.53.48-3.25.19-3.81-1.56-8.33-2.47-13.02-2.28s-9.37.1-10.17-.82c-1.22-1.39-3.27-2.49-5.94-2.85-5.79-.78-10.76-2.53-.12-6.42,1.88-.69,3.15-1.79,3.47-3.04Z"/><path class="cls-10" d="M1685.03,753.79c.71-3.57,4.63-9.51,24.04-4.21,2.31.63,4.89.47,6.99-.47,4.4-1.97,12.11-4.38,14.44,1.45.61,1.54,2.09,2.81,4.09,3.46,1.86.61,3.86,2.14,4.3,5.87,0,0,6.75,9.27-3.06,8.11-2.6-.31-5.19.47-6.73,2.02-1.27,1.28-3.14,2.34-5.66,1.71-3.68-.91-7.74-.72-11.28.46-1.24.41-2.37.58-3.04.23-3.56-1.88-7.78-2.99-12.16-2.76s-8.75.12-9.5-.99c-1.14-1.68-3.05-3.01-5.55-3.45-5.41-.94-10.05-3.06-.12-7.77,1.75-.83,2.94-2.17,3.24-3.68Z"/><path class="cls-12" d="M1199.37,743.59c.19-3.67,3.52-10.28,25.78-8.61,2.65.2,5.47-.43,7.63-1.75,4.53-2.76,12.62-6.58,16.15-1.23.93,1.41,2.76,2.4,5.08,2.68,2.15.26,4.61,1.41,5.71,5.02,0,0,8.98,7.94-2.02,8.6-2.91.18-5.64,1.42-7.08,3.25-1.18,1.5-3.07,2.9-5.96,2.74-4.21-.22-8.65.72-12.35,2.54-1.3.64-2.51,1.02-3.31.79-4.23-1.21-9.07-1.52-13.86-.49s-9.62,1.74-10.63.78c-1.53-1.46-3.86-2.42-6.69-2.39-6.11.07-11.58-1.17-1.42-7.68,1.79-1.15,2.88-2.69,2.96-4.24Z"/><path class="cls-12" d="M1262.03,737.51c.19-3.67,3.52-10.28,25.78-8.61,2.65.2,5.47-.43,7.63-1.75,4.53-2.76,12.62-6.58,16.15-1.23.93,1.41,2.76,2.4,5.08,2.68,2.15.26,4.61,1.41,5.71,5.02,0,0,8.98,7.94-2.02,8.6-2.91.18-5.64,1.42-7.08,3.25-1.18,1.5-3.07,2.9-5.96,2.74-4.21-.22-8.65.72-12.35,2.54-1.3.64-2.51,1.02-3.31.79-4.23-1.21-9.07-1.52-13.86-.49-4.95,1.07-9.62,1.74-10.63.78-1.53-1.46-3.86-2.42-6.69-2.39-6.11.07-11.58-1.17-1.42-7.68,1.79-1.15,2.88-2.69,2.96-4.24Z"/><path class="cls-10" d="M1233.14,746.18c.19-3.67,3.52-10.28,25.78-8.61,2.65.2,5.47-.43,7.63-1.75,4.53-2.76,12.62-6.58,16.15-1.23.93,1.41,2.76,2.4,5.08,2.68,2.15.26,4.61,1.41,5.71,5.02,0,0,8.98,7.94-2.02,8.6-2.91.18-5.64,1.42-7.08,3.25-1.18,1.5-3.07,2.9-5.96,2.74-4.21-.22-8.65.72-12.35,2.54-1.3.64-2.51,1.02-3.31.79-4.23-1.21-9.07-1.52-13.86-.49s-9.62,1.74-10.63.78c-1.53-1.46-3.86-2.42-6.69-2.39-6.11.07-11.58-1.17-1.42-7.68,1.79-1.15,2.88-2.69,2.96-4.24Z"/><path class="cls-5" d="M1444.3,931.67c-2.44,9.7,3.88,19.02,10.87,25.13,7.96,6.95,18.04,10.97,27.91,14.41,20.98,7.31,42.5,13.76,64.41,17.6,12.09,2.12,25.19,4.22,37.05-.14,2.2-.81,3.93-3.09,3.14-5.54-.7-2.16-3.17-4.01-5.54-3.14s-4.84,1.48-7.36,1.87c.83-.13-.87.1-1.02.11-.6.06-1.19.1-1.79.14-1.27.08-2.55.1-3.83.09-2.5-.03-4.99-.2-7.47-.47-.6-.06-1.2-.13-1.81-.21-.3-.04-.6-.08-.9-.11.78.1-.19-.03-.38-.05-1.31-.19-2.62-.39-3.93-.6-10.57-1.69-21.03-4.06-31.36-6.84s-20.58-5.98-30.76-9.34c-4.78-1.58-9.55-3.19-14.21-5.1-.28-.12-.56-.23-.84-.35.6.26-.1-.05-.19-.08-.56-.25-1.11-.49-1.67-.74-1.24-.57-2.48-1.16-3.69-1.79-2.08-1.07-4.14-2.21-6.08-3.52-.45-.3-.89-.61-1.32-.93-.2-.14-.39-.29-.59-.44.84.62-.16-.14-.26-.22-.94-.76-1.84-1.57-2.71-2.4s-1.73-1.74-2.53-2.67c-.17-.2-.33-.39-.5-.59-.07-.08-.72-.91-.37-.45.33.44-.15-.21-.22-.31-.19-.26-.37-.52-.55-.78-.66-.98-1.27-1.99-1.79-3.05-.11-.22-.2-.44-.31-.66-.25-.49.26.72-.04-.08-.2-.55-.4-1.11-.55-1.67-.14-.5-.22-1.01-.34-1.52-.15-.63.06.83.02.18-.02-.28-.05-.56-.06-.84-.02-.56,0-1.12.04-1.69s-.17-.23-.03.19c-.08-.22.17-.79.22-1,.57-2.28-.74-4.99-3.14-5.54s-4.92.7-5.54,3.14h0Z"/><path class="cls-3" d="M1452.47,929.03s48.49-5.32,63.87-33.12c15.38-27.79,38.44-17.74,38.44-17.74,0,0,12.52,4.69,12.08,49.85-.06,6.05,1.36,12.02,4.16,17.39,6.37,12.25,16.73,34.54,10.37,39.2-8.87,6.5-159.07-19.51-128.91-55.59Z"/><path class="cls-4" d="M1517.42,949.83c-1.25,5.23-4.36,9.74-9.74,9.74s-9.74-4.36-9.74-9.74,4.83-11.57,10.05-12.88c7.54-1.88,11.31,5.03,9.42,12.88Z"/><path class="cls-4" d="M1536.89,968.67c0,1.21-.1,3.09-1.26,3.45-1.63.51-3.44-1.87-3.14-3.45.22-1.19.98-2.2,2.2-2.2s2.2.98,2.2,2.2Z"/><circle class="cls-4" cx="1562.02" cy="972.76" r="2.51"/><path class="cls-4" d="M1499.33,914c-4.38,5.74-9.25,9.66-7.3,12.53s8.37,1.92,14.35-2.13,10.39-10.95,7.3-12.53c-2.54-1.3-6.94-7.58-14.35,2.13Z"/><path class="cls-4" d="M1460.26,935.38c0-2.6,4.45-6.88,8.79-4.71,5.03,2.51,8.79,2.11,8.79,4.71s-3.14,4.08-8.79,4.71c-4.83.54-8.79-2.11-8.79-4.71Z"/><path class="cls-4" d="M1567.37,939.89c-1.8-6.18-2.04-11.75-5.13-11.88s-5.81,4.99-6.07,11.43c-.26,6.44,2.36,13.26,5.13,11.88,2.28-1.14,9.12-.97,6.07-11.43Z"/><path class="cls-4" d="M1551.83,949.29c.54,5.35-5.71,10.58-8.45,8.18-3.35-2.94-5.57-5.62-4.47-10.88,1.1-5.26,4.88-8.93,8.45-8.18s3.98,6.08,4.47,10.88Z"/><path class="cls-4" d="M1540.36,914.64c-.78,3.61-2.71,6.71-6.06,6.71s-6.06-3.01-6.06-6.71,3.01-7.98,6.25-8.88c4.69-1.3,7.03,3.46,5.86,8.88Z"/><path class="cls-4" d="M1521.08,903.93c-2.17-1.44-3.26-7.52.95-9.93,4.88-2.79,6.63-6.15,8.8-4.71s1.66,4.88-.95,9.93c-2.23,4.32-6.63,6.15-8.8,4.71Z"/><path class="cls-4" d="M1558.35,895.09c0,1.21-.1,3.09-1.26,3.45-1.63.51-3.44-1.87-3.14-3.45.22-1.19.98-2.2,2.2-2.2s2.2.98,2.2,2.2Z"/><path class="cls-4" d="M1552.04,886.06c0,1.74-.15,4.42-1.98,4.94-2.56.73-5.42-2.67-4.95-4.94.35-1.71,1.55-3.14,3.47-3.14s3.47,1.41,3.47,3.14Z"/><path class="cls-4" d="M1562.02,909.54c0,1.87-.18,4.76-2.3,5.32-2.98.78-6.31-2.88-5.76-5.32.41-1.84,1.81-3.38,4.03-3.38s4.03,1.52,4.03,3.38Z"/><path class="cls-16" d="M1502.34,975.49l-16.47,36.16c-1.14,2.51-2.89,4.7-5.07,6.39l-1.49,1.14c-2.16,1.66-3.64,4.05-4.18,6.72l-1.48,7.41c-.75,3.75,1.94,7.35,5.76,7.61,4.48.31,10.16-.15,14.14-3.46,3.66-3.05,5.88-1.04,7.2,1.83.69,1.5,2.89,1.25,3.21-.38l5.3-27.21,9.11-.47c3.57-.19,4.93-4.74,2.06-6.86-1.5-1.11-3.55-2.15-6.35-2.94-10.46-2.92,3.69-20.39,3.69-20.39l-15.41-5.55Z"/><path class="cls-12" d="M1096.9,1015.11c3.7-19.97,24.17-53.21,125.49-23.54,12.05,3.53,25.52,2.65,36.5-2.6,22.99-11,63.23-24.51,75.37,8.14,3.2,8.61,10.89,15.72,21.35,19.38,9.7,3.4,20.17,11.97,22.46,32.81,0,0,35.25,51.83-15.97,45.36-13.56-1.71-27.09,2.61-35.15,11.31-6.61,7.14-16.39,13.07-29.57,9.58-19.22-5.09-40.41-4.02-58.88,2.57-6.49,2.31-12.35,3.27-15.85,1.28-18.56-10.53-40.63-16.72-63.5-15.46-23.62,1.3-45.67.69-49.59-5.52-5.94-9.41-15.92-16.84-28.97-19.28-28.23-5.27-52.47-17.11-.6-43.45,9.15-4.65,15.35-12.12,16.91-20.56Z"/><path class="cls-12" d="M1390.39,1039.44c3.7-19.97,24.17-53.21,125.49-23.54,12.05,3.53,25.52,2.65,36.5-2.6,22.99-11,63.23-24.51,75.37,8.14,3.2,8.61,10.89,15.72,21.35,19.38,9.7,3.4,20.17,11.97,22.46,32.81,0,0,35.25,51.83-15.97,45.36-13.56-1.71-27.09,2.61-35.15,11.31-6.61,7.14-16.39,13.07-29.57,9.58-19.22-5.09-40.41-4.02-58.88,2.57-6.49,2.31-12.35,3.27-15.85,1.28-18.56-10.53-40.63-16.72-63.5-15.46-23.62,1.3-45.67.69-49.59-5.52-5.94-9.41-15.92-16.84-28.97-19.28-28.23-5.27-52.47-17.11-.6-43.45,9.15-4.65,15.35-12.12,16.91-20.56Z"/><path class="cls-13" d="M1250.53,1060.42c3.7-19.97,24.17-53.21,125.49-23.54,12.05,3.53,25.52,2.65,36.5-2.6,22.99-11,63.23-24.51,75.37,8.14,3.2,8.61,10.89,15.72,21.35,19.38,9.7,3.4,20.17,11.97,22.46,32.81,0,0,35.25,51.83-15.97,45.36-13.56-1.71-27.09,2.61-35.15,11.31-6.61,7.14-16.39,13.07-29.57,9.58-19.22-5.09-40.41-4.02-58.88,2.57-6.49,2.31-12.35,3.27-15.85,1.28-18.56-10.53-40.63-16.72-63.5-15.46-23.62,1.3-45.67.69-49.59-5.52-5.94-9.41-15.92-16.84-28.97-19.28-28.23-5.27-52.47-17.11-.6-43.45,9.15-4.65,15.35-12.12,16.91-20.56Z"/><path class="cls-5" d="M1655.41,1046.2c-1.18,5.36,2.28,9.93,6.48,12.83,3.95,2.73,8.93,4.08,13.46,5.51s9.39,2.8,14.19,3.74,10.49,2.02,15.45.27c2.22-.78,3.93-3.11,3.14-5.54-.71-2.19-3.16-3.98-5.54-3.14-.57.2-1.13.34-1.71.49-.89.23.44.04-.57.08s-2.09.05-3.15-.03c-.45-.04-.9-.08-1.35-.14.83.1-.67-.1-.85-.13-1.01-.16-2.02-.34-3.03-.54-4.19-.82-8.31-1.93-12.38-3.18-1.95-.6-3.89-1.22-5.82-1.87-.99-.33-1.98-.68-2.96-1.05-.1-.04-1.27-.53-.58-.23-.55-.24-1.09-.49-1.62-.77-.74-.38-1.44-.81-2.14-1.25-.4-.29-.39-.28.04.05-.19-.16-.39-.32-.57-.49-.28-.26-.56-.53-.82-.81-.17-.19-.34-.38-.5-.58.27.36.32.41.14.15-.2-.38-.44-.74-.65-1.12.62,1.17-.17-.24,0-.25.06.64.08.7.05.19.03-.51.02-.45-.03.2.51-2.29-.69-4.98-3.14-5.54-2.28-.52-4.99.68-5.54,3.14h0Z"/><path class="cls-3" d="M1661,1046.14s15.85-1.74,20.88-10.83,12.57-5.8,12.57-5.8c0,0,4.09,1.53,3.95,16.3-.02,1.98.45,3.93,1.36,5.69,2.08,4,5.47,11.29,3.39,12.82-2.9,2.13-52.01-6.38-42.15-18.17Z"/><path class="cls-4" d="M1682.23,1052.94c-.41,1.71-1.43,3.18-3.18,3.18s-3.18-1.43-3.18-3.18,1.58-3.78,3.29-4.21c2.46-.62,3.7,1.64,3.08,4.21Z"/><path class="cls-4" d="M1688.6,1059.1c0,.4-.03,1.01-.41,1.13-.53.17-1.12-.61-1.03-1.13.07-.39.32-.72.72-.72s.72.32.72.72Z"/><circle class="cls-4" cx="1696.82" cy="1060.43" r=".82"/><path class="cls-4" d="M1676.32,1041.22c-1.43,1.88-3.02,3.16-2.39,4.1s2.74.63,4.69-.7,3.4-3.58,2.39-4.1c-.83-.42-2.27-2.48-4.69.7Z"/><path class="cls-4" d="M1663.55,1048.21c0-.85,1.45-2.25,2.88-1.54,1.64.82,2.88.69,2.88,1.54s-1.03,1.33-2.88,1.54c-1.58.18-2.88-.69-2.88-1.54Z"/><path class="cls-4" d="M1698.57,1049.69c-.59-2.02-.67-3.84-1.68-3.88s-1.9,1.63-1.98,3.74.77,4.33,1.68,3.88c.74-.37,2.98-.32,1.98-3.74Z"/><path class="cls-4" d="M1693.48,1052.76c.18,1.75-1.87,3.46-2.76,2.68-1.09-.96-1.82-1.84-1.46-3.56s1.6-2.92,2.76-2.68,1.3,1.99,1.46,3.56Z"/><path class="cls-4" d="M1689.74,1041.43c-.26,1.18-.89,2.19-1.98,2.19s-1.98-.98-1.98-2.19.98-2.61,2.04-2.9c1.53-.42,2.3,1.13,1.92,2.9Z"/><path class="cls-4" d="M1683.43,1037.93c-.71-.47-1.07-2.46.31-3.25,1.59-.91,2.17-2.01,2.88-1.54s.54,1.59-.31,3.25c-.73,1.41-2.17,2.01-2.88,1.54Z"/><path class="cls-4" d="M1695.62,1035.04c0,.4-.03,1.01-.41,1.13-.53.17-1.12-.61-1.03-1.13.07-.39.32-.72.72-.72s.72.32.72.72Z"/><path class="cls-4" d="M1693.55,1032.09c0,.57-.05,1.44-.65,1.61-.84.24-1.77-.87-1.62-1.61.12-.56.51-1.03,1.13-1.03s1.13.46,1.13,1.03Z"/><path class="cls-4" d="M1696.82,1039.76c0,.61-.06,1.56-.75,1.74-.97.26-2.06-.94-1.88-1.74.13-.6.59-1.11,1.32-1.11s1.32.5,1.32,1.11Z"/><path class="cls-16" d="M1677.31,1061.33l-5.39,11.82c-.37.82-.94,1.54-1.66,2.09l-.49.37c-.71.54-1.19,1.32-1.37,2.2l-.48,2.42c-.25,1.23.63,2.4,1.88,2.49,1.46.1,3.32-.05,4.62-1.13,1.2-1,1.92-.34,2.35.6.22.49.95.41,1.05-.12l1.73-8.9,2.98-.15c1.17-.06,1.61-1.55.67-2.24-.49-.36-1.16-.7-2.08-.96-3.42-.96,1.21-6.66,1.21-6.66l-5.04-1.82Z"/><path class="cls-5" d="M1333.82,992.72c1.25,5.92,6.85,9.49,12.16,11.37,6.09,2.16,12.84,1.94,19.18,1.29,14.56-1.49,29.29-3.85,43.36-7.91,7.21-2.08,14.67-4.62,20.04-10.12,1.65-1.69,1.81-4.71,0-6.36s-4.61-1.8-6.36,0c-.47.48-.96.95-1.47,1.39-.08.07-1.13.87-.35.3-.22.16-.43.32-.66.47-1.22.84-2.52,1.58-3.86,2.23-.37.18-.74.35-1.11.52-.8.36-.23.1-.05.03-.63.26-1.27.51-1.91.74-1.43.53-2.89.99-4.35,1.44-6.45,1.97-13.02,3.5-19.64,4.76-3.31.63-6.64,1.19-9.98,1.7-1.59.24-3.18.48-4.77.7-.8.11-1.59.22-2.39.33.69-.09-.31.04-.48.06-.56.07-1.12.15-1.68.22-3.37.43-6.76.82-10.16.92-1.61.05-3.23.03-4.84-.08-.32-.02-.64-.05-.97-.08l-.48-.05c-.49-.06-.39-.04.31.05-.03.08-1.73-.31-1.84-.33-1.18-.26-2.34-.59-3.47-1.01-.22-.08-1.27-.36-.16-.04-.29-.08-.63-.28-.9-.42-.59-.29-1.16-.61-1.71-.95-.27-.17-.53-.36-.8-.54-.75-.5.61.6-.08-.07-.17-.17-1.34-1.08-1.28-1.3,0,0,.52.79.17.2-.2-.33-.4-.67-.59-1-.35-.61.24.22.11.28-.03.01-.29-1.04-.31-1.13-.49-2.31-3.32-3.86-5.54-3.14-2.43.79-3.67,3.06-3.14,5.54h0Z"/><path class="cls-3" d="M1339.24,988.42s25.11-15.69,26.2-34.94c1.08-19.25,16.34-19.83,16.34-19.83,0,0,8.08-.73,19.74,24.07,1.56,3.33,3.91,6.22,6.86,8.42,6.71,5.02,18.25,14.48,16,18.7-3.14,5.89-92.12,31.25-85.14,3.57Z"/><path class="cls-4" d="M1380.24,982.68c.69,3.19.18,6.47-2.76,7.89s-6.47.18-7.89-2.76c-1.42-2.94-.41-7.6,2.1-9.69,3.63-3.02,7.51-.23,8.55,4.56Z"/><path class="cls-4" d="M1395.85,987.85c.32.66.76,1.72.22,2.22-.75.71-2.37-.12-2.63-1.06-.19-.71-.04-1.46.62-1.78s1.46-.04,1.78.62Z"/><circle class="cls-4" cx="1410.67" cy="983.46" r="1.53"/><path class="cls-4" d="M1360.91,967.85c-.88,4.29-2.51,7.72-.69,8.78s5.08-1.16,7.28-4.95,2.8-8.73.69-8.78c-1.73-.04-5.79-2.32-7.28,4.95Z"/><path class="cls-4" d="M1345.17,989.84c-.69-1.42.62-4.94,3.57-4.89,3.41.05,5.36-1.16,6.05.26s-.64,3.06-3.57,4.89c-2.5,1.57-5.36,1.16-6.05-.26Z"/><path class="cls-4" d="M1404.93,964.08c-2.62-2.91-4.21-5.89-5.93-5.14s-1.86,4.26-.31,7.85,4.78,6.63,5.93,5.14c.95-1.22,4.73-2.93.31-7.85Z"/><path class="cls-4" d="M1398.91,973.32c1.71,2.78-.33,7.29-2.46,6.7-2.6-.72-4.52-1.6-5.31-4.77s.32-6.17,2.46-6.7,3.78,2.27,5.31,4.77Z"/><path class="cls-4" d="M1383.51,957.39c.52,2.18.29,4.39-1.54,5.27s-4.1-.05-5.08-2.07-.46-5.16,1.08-6.5c2.22-1.95,4.76.04,5.54,3.31Z"/><path class="cls-4" d="M1370.15,956.62c-1.56-.22-3.77-3.25-2.1-5.68,1.93-2.81,2-5.11,3.57-4.89s2.19,2.23,2.1,5.68c-.08,2.95-2,5.11-3.57,4.89Z"/><path class="cls-4" d="M1388.2,941.96c.32.66.76,1.72.22,2.22-.75.71-2.37-.12-2.63-1.06-.19-.71-.04-1.46.62-1.78s1.46-.04,1.78.62Z"/><path class="cls-4" d="M1382.36,938.68c.46.95,1.08,2.46.22,3.22-1.21,1.07-3.67-.03-4.01-1.4-.26-1.03.02-2.13,1.07-2.63s2.27-.14,2.72.81Z"/><path class="cls-4" d="M1394.01,948.9c.49,1.02,1.16,2.65.14,3.52-1.42,1.21-4.21.09-4.55-1.39-.26-1.11.1-2.33,1.31-2.91s2.6-.23,3.1.79Z"/><path class="cls-16" d="M1378.76,1000.68l.52,24.11c.04,1.67-.34,3.33-1.09,4.83l-.51,1.02c-.74,1.48-.93,3.17-.51,4.78l1.14,4.44c.58,2.25,3,3.51,5.15,2.64,2.53-1.01,5.52-2.76,6.82-5.62,1.2-2.64,2.94-2.12,4.42-.9.77.64,1.91-.08,1.66-1.05l-4.27-16.27,4.85-2.66c1.9-1.04,1.45-3.89-.68-4.29-1.11-.21-2.51-.24-4.25.07-6.49,1.16-3.35-12.12-3.35-12.12l-9.89,1.02Z"/><path class="cls-5" d="M1695.24,989.18c-.05.29-.11.58-.19.87-.29,1.04.04.02.05.03.08.06-.64,1.19-.71,1.29l-.17.25c-.28.39-.23.32.15-.2,0,.05-.41.47-.4.46-.34.36-.89,1.1-1.37,1.27l.41-.31c-.17.13-.35.25-.52.37-.27.18-.54.36-.82.53-.47.29-.95.55-1.44.8-.23.12-1.8.98-.74.37-.55.32-1.26.48-1.87.68-1.11.36-2.25.64-3.39.85-.25.04-.5.07-.74.12-.66.13,1.32-.11-.2.01-.96.08-1.91.17-2.87.21-3.53.16-7.06-.05-10.58-.37s-7.03-.72-10.54-1.14c-.96-.12-1.91-.23-2.87-.36-.32-.04-.64-.08-.96-.12.02,0-1.54-.21-.71-.09-1.75-.24-3.5-.49-5.25-.76-6.98-1.08-13.92-2.43-20.75-4.22-3.46-.91-6.94-1.88-10.25-3.26.78.32-.05-.03-.24-.12-.43-.2-.86-.4-1.29-.62-.73-.37-1.44-.76-2.13-1.18s-1.37-.87-2.02-1.36c.76.58-.29-.26-.35-.32-.41-.36-.81-.73-1.19-1.12-1.67-1.66-4.71-1.8-6.36,0s-1.79,4.59,0,6.36c5.04,4.99,11.73,7.55,18.44,9.46,7.33,2.09,14.82,3.62,22.34,4.83,7.69,1.23,15.43,2.18,23.18,2.93,6.85.66,14.15,1.09,20.82-.96,6.09-1.87,12.98-5.98,14.22-12.79.42-2.31-.63-4.96-3.14-5.54-2.2-.5-5.09.67-5.54,3.14h0Z"/><path class="cls-3" d="M1698.36,987.1s-26.7-16-28.35-36.45c-1.65-20.45-17.64-20.65-17.64-20.65,0,0-8.48-.56-20.02,26.14-1.55,3.58-3.93,6.72-6.95,9.14-6.89,5.52-18.71,15.9-16.24,20.33,3.44,6.18,97.25,30.73,89.2,1.48Z"/><path class="cls-4" d="M1655.3,982.11c-.64,3.41-.02,6.89,3.1,8.32s6.78.02,8.18-3.15.22-8.1-2.46-10.25c-3.87-3.11-7.86-.04-8.82,5.08Z"/><path class="cls-4" d="M1639.1,988.03c-.32.71-.75,1.85-.17,2.37.81.73,2.48-.19,2.72-1.2.18-.76,0-1.56-.7-1.88s-1.53,0-1.85.71Z"/><ellipse class="cls-4" cx="1623.48" cy="983.77" rx="1.6" ry="1.62"/><path class="cls-4" d="M1675.14,965.81c1.04,4.54,2.84,8.14.96,9.32s-5.35-1.09-7.76-5.06c-2.41-3.97-3.16-9.21-.96-9.32,1.81-.09,6-2.62,7.76,5.06Z"/><path class="cls-4" d="M1692.19,988.77c.68-1.53-.78-5.23-3.86-5.11-3.57.15-5.65-1.09-6.32.44s.75,3.24,3.86,5.11c2.66,1.6,5.65,1.09,6.32-.44Z"/><path class="cls-4" d="M1628.96,963c2.66-3.16,4.25-6.38,6.07-5.63s2.06,4.48.53,8.34-4.83,7.18-6.07,5.63c-1.02-1.27-5.03-2.99-.53-8.34Z"/><path class="cls-4" d="M1635.51,972.66c-1.71,3.01.54,7.75,2.76,7.06,2.71-.84,4.69-1.83,5.43-5.22s-.5-6.55-2.76-7.06-3.89,2.52-5.43,5.22Z"/><path class="cls-4" d="M1651.2,955.3c-.49,2.33-.18,4.67,1.76,5.56s4.29-.16,5.26-2.34.34-5.5-1.3-6.89c-2.38-2.01-4.98.17-5.71,3.67Z"/><path class="cls-4" d="M1665.17,954.11c1.63-.27,3.85-3.56,2.04-6.1-2.1-2.94-2.23-5.38-3.87-5.11s-2.23,2.43-2.04,6.1c.16,3.13,2.23,5.38,3.87,5.11Z"/><path class="cls-4" d="M1645.88,939.01c-.32.71-.75,1.85-.17,2.37.81.73,2.48-.19,2.72-1.2.18-.76,0-1.56-.7-1.88s-1.53,0-1.85.71Z"/><path class="cls-4" d="M1651.9,935.37c-.45,1.02-1.06,2.64-.14,3.43,1.29,1.11,3.84-.14,4.16-1.59.24-1.1-.08-2.26-1.19-2.77s-2.38-.09-2.83.93Z"/><path class="cls-4" d="M1639.99,946.55c-.49,1.1-1.14,2.85-.05,3.74,1.52,1.25,4.41-.02,4.73-1.6.24-1.19-.16-2.47-1.45-3.06s-2.73-.18-3.22.92Z"/><path class="cls-16" d="M1657.34,1001.22l.1,25.66c0,1.78.44,3.53,1.27,5.11l.56,1.07c.82,1.55,1.05,3.35.67,5.07l-1.08,4.76c-.54,2.41-3.04,3.81-5.32,2.95-2.68-1.01-5.85-2.78-7.29-5.79-1.33-2.77-3.14-2.18-4.65-.83-.79.7-2-.03-1.76-1.07l4.04-17.43-5.15-2.7c-2.02-1.06-1.62-4.1.6-4.59,1.16-.26,2.62-.33,4.45-.04,6.83,1.06,3.19-12.98,3.19-12.98l10.38.82Z"/><path class="cls-12" d="M2009.35,1022.2c-2.84-16.37-19.29-43.76-102.46-20.42-9.89,2.78-20.91,1.93-29.84-2.47-18.71-9.22-51.51-20.64-61.75,5.97-2.7,7.02-9.05,12.76-17.65,15.66-7.97,2.69-16.61,9.61-18.68,26.64,0,0-29.32,42.09,12.65,37.26,11.11-1.28,22.14,2.39,28.66,9.58,5.34,5.9,13.29,10.84,24.11,8.11,15.78-3.98,33.1-2.91,48.15,2.64,5.29,1.95,10.07,2.79,12.96,1.19,15.29-8.44,33.4-13.31,52.1-12.07,19.32,1.28,37.36.99,40.63-4.06,4.94-7.65,13.18-13.63,23.88-15.51,23.15-4.05,43.09-13.51.89-35.55-7.44-3.89-12.45-10.06-13.65-16.98Z"/><path class="cls-12" d="M1768.98,1039.41c-2.84-16.37-19.29-43.76-102.46-20.42-9.89,2.78-20.91,1.93-29.84-2.47-18.71-9.22-51.51-20.64-61.75,5.97-2.7,7.02-9.05,12.76-17.65,15.66-7.97,2.69-16.61,9.61-18.68,26.64,0,0-29.32,42.09,12.65,37.26,11.11-1.28,22.14,2.39,28.66,9.58,5.34,5.9,13.29,10.84,24.11,8.11,15.78-3.98,33.1-2.91,48.15,2.64,5.29,1.95,10.07,2.79,12.96,1.19,15.29-8.44,33.4-13.31,52.1-12.07,19.32,1.28,37.36.99,40.63-4.06,4.94-7.65,13.18-13.63,23.88-15.51,23.15-4.05,43.09-13.51.89-35.55-7.44-3.89-12.45-10.06-13.65-16.98Z"/><path class="cls-13" d="M1883.22,1057.86c-2.84-16.37-19.29-43.76-102.46-20.42-9.89,2.78-20.91,1.93-29.84-2.47-18.71-9.22-51.51-20.64-61.75,5.97-2.7,7.02-9.05,12.76-17.65,15.66-7.97,2.69-16.61,9.61-18.68,26.64,0,0-29.32,42.09,12.65,37.26,11.11-1.28,22.14,2.39,28.66,9.58,5.34,5.9,13.29,10.84,24.11,8.11,15.78-3.98,33.1-2.91,48.15,2.64,5.29,1.95,10.07,2.79,12.96,1.19,15.29-8.44,33.4-13.31,52.1-12.07,19.32,1.28,37.36.99,40.63-4.06,4.94-7.65,13.18-13.63,23.88-15.51,23.15-4.05,43.09-13.51.89-35.55-7.44-3.89-12.45-10.06-13.65-16.98Z"/><path class="cls-5" d="M1544.16,1044.63c-.23-1.14-.19.41,0-.73-.13.78.28-.34.02.07-.16.25-.32.53-.47.79.42-.76-.08.07-.26.26-.26.28-.55.52-.83.78.44-.4.25-.18-.11.06-.64.43-1.33.79-2.03,1.13-.09.04-1.11.49-.7.32s-.63.24-.73.27c-.78.29-1.57.55-2.36.81-1.67.54-3.35,1.06-5.03,1.55-3.32.97-6.67,1.82-10.07,2.44-.79.14-1.58.27-2.38.39.81-.12-.4.05-.56.07-.43.04-.86.08-1.29.1-.72.04-1.43.03-2.15-.02-1.22-.08.69.24-.48-.1-.41-.12-.82-.23-1.22-.38-2.22-.8-5.02.9-5.54,3.14-.58,2.53.77,4.68,3.14,5.54,4.12,1.49,8.69.69,12.87-.07,4.03-.73,8-1.8,11.92-2.99,7.22-2.2,18.9-5.99,16.94-15.84-.46-2.31-3.34-3.85-5.54-3.14-2.46.8-3.64,3.06-3.14,5.54h0Z"/><path class="cls-3" d="M1547.48,1042.39s-12.96-1.57-16.99-9.05c-4.03-7.48-10.23-4.86-10.23-4.86,0,0-3.36,1.22-3.38,13.3,0,1.62-.4,3.21-1.16,4.64-1.74,3.26-4.58,9.19-2.89,10.46,2.35,1.77,42.61-4.74,34.65-14.48Z"/><path class="cls-4" d="M1530.04,1047.76c.32,1.4,1.14,2.62,2.58,2.63s2.62-1.14,2.63-2.58-1.26-3.11-2.65-3.48c-2.01-.53-3.04,1.31-2.56,3.42Z"/><path class="cls-4" d="M1524.78,1052.74c0,.32.02.83.33.93.43.14.93-.49.85-.91-.06-.32-.26-.59-.58-.59s-.59.26-.59.58Z"/><circle class="cls-4" cx="1518.04" cy="1053.76" r=".67"/><path class="cls-4" d="M1534.99,1038.23c1.15,1.55,2.44,2.61,1.92,3.37s-2.24.49-3.83-.61-2.75-2.96-1.92-3.37c.68-.34,1.88-2.01,3.83.61Z"/><path class="cls-4" d="M1545.38,1044.07c0-.7-1.17-1.85-2.34-1.29-1.35.66-2.36.54-2.37,1.23s.83,1.1,2.34,1.29c1.29.16,2.36-.54,2.37-1.23Z"/><path class="cls-4" d="M1516.71,1044.95c.5-1.65.58-3.14,1.41-3.16s1.54,1.35,1.59,3.08-.67,3.54-1.41,3.16c-.61-.31-2.44-.29-1.59-3.08Z"/><path class="cls-4" d="M1520.84,1047.51c-.16,1.43,1.49,2.85,2.23,2.21.9-.78,1.51-1.49,1.23-2.9s-1.28-2.4-2.23-2.21-1.08,1.61-1.23,2.9Z"/><path class="cls-4" d="M1524.01,1038.28c.2.97.71,1.8,1.6,1.81s1.63-.79,1.64-1.78-.78-2.14-1.65-2.39c-1.25-.36-1.89.91-1.59,2.36Z"/><path class="cls-4" d="M1529.2,1035.47c.58-.38.9-2-.22-2.66-1.3-.76-1.76-1.67-2.34-1.29s-.46,1.3.22,2.66c.58,1.16,1.76,1.67,2.34,1.29Z"/><path class="cls-4" d="M1519.26,1032.99c0,.32.02.83.33.93.43.14.93-.49.85-.91-.06-.32-.26-.59-.58-.59s-.59.26-.59.58Z"/><path class="cls-4" d="M1520.97,1030.6c0,.46.03,1.18.51,1.33.68.2,1.46-.7,1.34-1.31-.09-.46-.41-.85-.92-.85s-.93.37-.94.83Z"/><path class="cls-4" d="M1518.23,1036.85c0,.5.03,1.27.6,1.43.8.22,1.7-.75,1.56-1.41-.1-.49-.47-.91-1.07-.92s-1.08.39-1.09.89Z"/><path class="cls-16" d="M1534,1054.67l4.3,9.72c.3.68.76,1.27,1.34,1.72l.39.31c.57.45.96,1.09,1.1,1.81l.37,1.99c.19,1.01-.54,1.96-1.56,2.02-1.2.07-2.72-.07-3.77-.97-.97-.83-1.57-.3-1.93.47-.19.4-.78.32-.86-.11l-1.34-7.29-2.43-.15c-.95-.06-1.3-1.28-.53-1.84.4-.29.96-.57,1.71-.77,2.81-.75-.93-5.46-.93-5.46l4.14-1.44Z"/><path class="cls-5" d="M1798.67,1004.81c-.04.19-.1.38-.15.56-.12.52.02,0,.01,0-.16-.19.27-.36-.1.1-.02.03-.22.37-.24.37-.15-.05.68-.71.14-.22-.15.13-.28.29-.43.43-.11.1-.25.19-.35.3-.33.38.85-.53.03-.05-.6.35-1.31.94-2,1.09.11-.02.95-.35.15-.08-.16.05-.31.11-.47.17-.42.14-.84.27-1.26.38-.36.1-.73.18-1.1.25-.21.04-.41.07-.62.11-.57.11-.12-.2.3-.04-.33-.13-1.15.09-1.49.11-.64.03-1.27.04-1.91.04-2.32-.01-4.63-.25-6.93-.54.65.08-.15-.02-.23-.03-.32-.04-.63-.09-.95-.13-.56-.08-1.11-.16-1.67-.24-1.19-.17-2.38-.36-3.57-.54-2.38-.38-4.75-.78-7.11-1.24-4.64-.89-9.26-1.96-13.79-3.32-1.14-.34-2.28-.7-3.41-1.09-.58-.2-1.15-.41-1.72-.63-.19-.07-.38-.15-.57-.23-.48-.19.52.26-.23-.11-.96-.48-1.92-.95-2.83-1.53-.22-.14-.44-.3-.66-.45-.68-.45.15.19-.2-.15-.43-.42-.89-.8-1.31-1.24-1.63-1.7-4.74-1.77-6.36,0s-1.74,4.55,0,6.36c3.47,3.61,8.14,5.57,12.83,7.08,4.96,1.6,10.03,2.82,15.14,3.82s10.75,1.87,16.16,2.59c4.87.64,9.97,1.06,14.77-.24s9.61-4.26,10.78-9.29c.53-2.29-.71-4.98-3.14-5.54-2.3-.52-4.97.69-5.54,3.14h0Z"/><path class="cls-3" d="M1802.26,1003.78s-17.79-11.39-18.41-25.13c-.62-13.74-11.5-14.28-11.5-14.28,0,0-5.76-.59-14.28,17.01-1.14,2.36-2.84,4.4-4.96,5.95-4.83,3.53-13.13,10.18-11.56,13.21,2.19,4.23,65.46,23.03,60.7,3.23Z"/><path class="cls-4" d="M1773.07,999.35c-.52,2.27-.18,4.62,1.9,5.65s4.62.18,5.65-1.9.35-5.42-1.42-6.93c-2.56-2.18-5.35-.23-6.13,3.18Z"/><path class="cls-4" d="M1761.89,1002.92c-.23.47-.56,1.22-.18,1.58.53.51,1.69-.06,1.88-.74.14-.51.04-1.04-.43-1.28s-1.04-.04-1.28.43Z"/><circle class="cls-4" cx="1751.35" cy="999.67" r="1.09"/><path class="cls-4" d="M1786.97,988.93c.59,3.07,1.73,5.53.42,6.27s-3.62-.87-5.16-3.59-1.92-6.25-.42-6.27c1.24-.02,4.15-1.61,5.16,3.59Z"/><path class="cls-4" d="M1798.02,1004.75c.5-1.01-.4-3.53-2.51-3.52-2.43,0-3.82-.87-4.32.14s.43,2.19,2.51,3.52c1.77,1.14,3.82.87,4.32-.14Z"/><path class="cls-4" d="M1755.6,985.89c1.89-2.05,3.05-4.17,4.27-3.62s1.29,3.05.16,5.6c-1.14,2.55-3.47,4.69-4.27,3.62-.67-.88-3.35-2.13-.16-5.6Z"/><path class="cls-4" d="M1759.82,992.53c-1.24,1.97.18,5.2,1.7,4.8,1.86-.49,3.24-1.11,3.83-3.36s-.18-4.4-1.7-4.8-2.71,1.59-3.83,3.36Z"/><path class="cls-4" d="M1770.93,981.29c-.39,1.55-.24,3.13,1.06,3.77s2.93,0,3.64-1.44.37-3.67-.72-4.65c-1.57-1.41-3.4,0-3.98,2.32Z"/><path class="cls-4" d="M1780.47,980.85c1.12-.14,2.71-2.29,1.54-4.04-1.36-2.02-1.39-3.66-2.51-3.52s-1.58,1.57-1.54,4.04c.03,2.1,1.39,3.66,2.51,3.52Z"/><path class="cls-4" d="M1767.72,970.24c-.23.47-.56,1.22-.18,1.58.53.51,1.69-.06,1.88-.74.14-.51.04-1.04-.43-1.28s-1.04-.04-1.28.43Z"/><path class="cls-4" d="M1771.9,967.96c-.33.67-.79,1.74-.18,2.3.85.78,2.62,0,2.87-.96.19-.73,0-1.52-.74-1.89s-1.62-.12-1.95.55Z"/><path class="cls-4" d="M1763.51,975.15c-.36.73-.85,1.88-.13,2.51,1.01.88,3,.1,3.26-.95.19-.79-.05-1.66-.91-2.09s-1.86-.19-2.22.54Z"/><path class="cls-16" d="M1773.98,1012.21l-.56,17.19c-.04,1.19.21,2.38.74,3.45l.36.73c.52,1.06.63,2.27.33,3.41l-.85,3.16c-.43,1.6-2.17,2.48-3.7,1.84-1.8-.74-3.91-2.01-4.82-4.06-.83-1.89-2.08-1.54-3.14-.67-.56.45-1.36-.07-1.17-.76l3.18-11.57-3.44-1.94c-1.35-.76-1-2.79.52-3.06.79-.14,1.79-.15,3.03.08,4.62.88,2.49-8.62,2.49-8.62l7.05.81Z"/><path class="cls-5" d="M1085.19,986.98c-.04.17-.12.42.01.12-.07.17-.28.29-.08.12-.22.19-.36.32-.85.56-.35.17-1.4.45-2.08.49-2.71.13-5.45-.25-8.14-.61-2.44-.32-4.88-.76-7.27-1.34-2.01-.49-4.38-.94-5.92-2.41-2.79-2.66-7.04,1.57-4.24,4.24,2.3,2.19,5.31,3.15,8.34,3.9,3.3.82,6.66,1.31,10.02,1.72s6.55.89,9.73.16c2.74-.63,5.61-2.44,6.26-5.35.35-1.58-.48-3.25-2.1-3.69-1.51-.41-3.34.51-3.69,2.1h0Z"/><path class="cls-3" d="M1087.69,986.73s-8.56-5.13-9.09-11.69-5.66-6.62-5.66-6.62c0,0-2.72-.18-6.42,8.38-.5,1.15-1.26,2.15-2.23,2.93-2.21,1.77-6,5.1-5.21,6.52,1.1,1.98,31.19,9.85,28.6.48Z"/><path class="cls-4" d="M1073.88,985.13c-.2,1.09,0,2.21.99,2.67s2.17,0,2.62-1.01.07-2.6-.79-3.29c-1.24-1-2.52-.01-2.83,1.63Z"/><path class="cls-4" d="M1068.69,987.03c-.1.23-.24.59-.06.76.26.23.8-.06.87-.39.06-.24,0-.5-.22-.6s-.49,0-.59.23Z"/><ellipse class="cls-4" cx="1063.68" cy="985.66" rx=".51" ry=".52"/><path class="cls-4" d="M1080.24,979.9c.33,1.46.91,2.61.31,2.99s-1.72-.35-2.49-1.62-1.01-2.95-.31-2.99c.58-.03,1.92-.84,2.49,1.62Z"/><path class="cls-4" d="M1085.71,987.27c.22-.49-.25-1.68-1.24-1.64-1.14.05-1.81-.35-2.03.14s.24,1.04,1.24,1.64c.85.51,1.81.35,2.03-.14Z"/><path class="cls-4" d="M1065.44,979c.85-1.01,1.36-2.05,1.95-1.81s.66,1.44.17,2.67-1.55,2.3-1.95,1.81c-.33-.41-1.61-.96-.17-2.67Z"/><path class="cls-4" d="M1067.54,982.1c-.55.96.17,2.48.88,2.26.87-.27,1.5-.59,1.74-1.67s-.16-2.1-.88-2.26-1.25.81-1.74,1.67Z"/><path class="cls-4" d="M1072.57,976.53c-.16.75-.06,1.5.56,1.78s1.38-.05,1.69-.75.11-1.76-.42-2.21c-.76-.64-1.6.06-1.83,1.18Z"/><path class="cls-4" d="M1077.05,976.15c.52-.09,1.24-1.14.65-1.96-.67-.94-.72-1.73-1.24-1.64s-.72.78-.65,1.96c.05,1,.72,1.73,1.24,1.64Z"/><path class="cls-4" d="M1070.86,971.31c-.1.23-.24.59-.06.76.26.23.8-.06.87-.39.06-.24,0-.5-.22-.6s-.49,0-.59.23Z"/><path class="cls-4" d="M1072.79,970.14c-.15.33-.34.85-.05,1.1.41.36,1.23-.04,1.33-.51.08-.35-.03-.73-.38-.89s-.76-.03-.91.3Z"/><path class="cls-4" d="M1068.97,973.73c-.16.35-.37.91-.02,1.2.49.4,1.41,0,1.52-.51.08-.38-.05-.79-.47-.98s-.88-.06-1.03.3Z"/><path class="cls-16" d="M1074.53,991.26l.03,8.23c0,.57.14,1.13.41,1.64l.18.34c.26.5.34,1.07.21,1.62l-.35,1.53c-.17.77-.98,1.22-1.71.95-.86-.32-1.88-.89-2.34-1.86-.43-.89-1.01-.7-1.49-.27-.25.23-.64-.01-.56-.34l1.29-5.59-1.65-.86c-.65-.34-.52-1.31.19-1.47.37-.08.84-.1,1.43-.01,2.19.34,1.02-4.16,1.02-4.16l3.33.26Z"/><path class="cls-5" d="M865.33,1000.94c.5,2.53-2.92,4.63-4.78,5.55-2.94,1.45-6.22,2.31-9.36,3.23s-6.41,1.77-9.68,2.38-6.78,1.3-9.99.15c-1.82-.65-2.6,2.24-.8,2.89,3.64,1.31,7.65.57,11.35-.11,3.97-.73,7.87-1.79,11.73-2.97,3.44-1.05,7.2-2.03,10.2-4.1,2.54-1.76,4.86-4.55,4.21-7.83-.38-1.89-3.27-1.09-2.89.8h0Z"/><path class="cls-3" d="M865.78,999.51s-12.76-1.55-16.73-8.91c-3.97-7.37-10.07-4.79-10.07-4.79,0,0-3.31,1.2-3.33,13.1,0,1.59-.39,3.16-1.15,4.57-1.72,3.21-4.51,9.05-2.85,10.3,2.32,1.74,41.97-4.67,34.13-14.26Z"/><path class="cls-4" d="M848.61,1004.8c.32,1.38,1.12,2.58,2.54,2.59s2.58-1.12,2.59-2.54-1.24-3.06-2.61-3.42c-1.98-.52-2.99,1.29-2.52,3.36Z"/><path class="cls-4" d="M843.42,1009.71c0,.32.02.81.32.91.43.14.91-.48.84-.9-.06-.32-.25-.58-.57-.59s-.58.25-.59.57Z"/><circle class="cls-4" cx="836.79" cy="1010.71" r=".66"/><path class="cls-4" d="M853.48,995.42c1.14,1.53,2.41,2.57,1.89,3.32s-2.21.48-3.77-.6-2.71-2.92-1.89-3.32c.67-.33,1.85-1.98,3.77.6Z"/><path class="cls-4" d="M863.71,1001.16c0-.69-1.15-1.83-2.3-1.27-1.33.65-2.32.53-2.33,1.22s.82,1.08,2.3,1.27c1.27.16,2.32-.53,2.33-1.22Z"/><path class="cls-4" d="M835.48,1002.03c.49-1.62.57-3.09,1.39-3.11s1.52,1.33,1.56,3.03-.66,3.49-1.39,3.11c-.6-.31-2.4-.28-1.56-3.03Z"/><path class="cls-4" d="M839.54,1004.56c-.16,1.41,1.47,2.81,2.2,2.18.89-.76,1.48-1.46,1.21-2.85s-1.26-2.37-2.2-2.18-1.07,1.59-1.21,2.85Z"/><path class="cls-4" d="M842.67,995.46c.19.95.69,1.78,1.58,1.79s1.6-.77,1.62-1.75-.77-2.11-1.62-2.36c-1.23-.36-1.86.89-1.57,2.32Z"/><path class="cls-4" d="M847.78,992.7c.57-.37.88-1.97-.22-2.62-1.28-.75-1.73-1.64-2.3-1.27s-.45,1.28.22,2.62c.57,1.14,1.73,1.64,2.3,1.27Z"/><path class="cls-4" d="M837.99,990.26c0,.32.02.81.32.91.43.14.91-.48.84-.9-.06-.32-.25-.58-.57-.59s-.58.25-.59.57Z"/><path class="cls-4" d="M839.68,987.9c0,.46.03,1.16.51,1.31.67.2,1.44-.69,1.32-1.29-.09-.45-.4-.83-.9-.84s-.92.36-.92.82Z"/><path class="cls-4" d="M836.98,994.05c0,.49.03,1.25.59,1.41.78.22,1.67-.74,1.53-1.38-.1-.49-.47-.9-1.05-.9s-1.07.39-1.07.88Z"/><path class="cls-16" d="M852.5,1011.61l4.23,9.57c.29.66.75,1.25,1.32,1.7l.39.31c.56.44.95,1.08,1.08,1.78l.37,1.96c.19.99-.53,1.93-1.54,1.99-1.18.07-2.68-.07-3.72-.95-.96-.82-1.55-.29-1.9.46-.19.39-.77.32-.84-.11l-1.31-7.18-2.4-.15c-.94-.06-1.28-1.26-.52-1.81.4-.29.94-.56,1.68-.75,2.77-.74-.91-5.38-.91-5.38l4.08-1.42Z"/><path class="cls-5" d="M744.2,1004.56c.07.41-.51.93-.77,1.17-.52.47-1.16.8-1.8,1.08-1.42.61-2.94,1.02-4.42,1.44-1.56.45-3.13.85-4.72,1.15s-3.23.62-4.78.08c-1.83-.63-2.61,2.26-.8,2.89,2,.7,4.17.32,6.2-.05s4.18-.95,6.23-1.58c3.18-.98,8.51-2.64,7.75-6.98-.14-.8-1.12-1.25-1.85-1.05-.84.23-1.19,1.04-1.05,1.85h0Z"/><path class="cls-3" d="M745.13,1003.64s-6.56-.8-8.61-4.59-5.18-2.46-5.18-2.46c0,0-1.7.62-1.71,6.74,0,.82-.2,1.63-.59,2.35-.88,1.65-2.32,4.66-1.47,5.3,1.19.9,21.59-2.4,17.56-7.34Z"/><path class="cls-4" d="M736.29,1006.36c.16.71.58,1.33,1.3,1.33s1.33-.58,1.33-1.3-.64-1.58-1.34-1.76c-1.02-.27-1.54.66-1.3,1.73Z"/><path class="cls-4" d="M733.63,1008.88c0,.16,0,.42.17.47.22.07.47-.25.43-.46-.03-.16-.13-.3-.29-.3s-.3.13-.3.29Z"/><circle class="cls-4" cx="730.21" cy="1009.4" r=".34"/><path class="cls-4" d="M738.8,1001.53c.58.78,1.24,1.32.97,1.71s-1.14.25-1.94-.31-1.39-1.5-.97-1.71c.35-.17.95-1.02,1.94.31Z"/><path class="cls-4" d="M744.06,1004.49c0-.35-.59-.94-1.18-.65-.68.33-1.2.27-1.2.63s.42.56,1.18.65c.65.08,1.2-.27,1.2-.63Z"/><path class="cls-4" d="M729.54,1004.93c.25-.84.29-1.59.71-1.6s.78.69.8,1.56-.34,1.79-.71,1.6c-.31-.16-1.23-.15-.8-1.56Z"/><path class="cls-4" d="M731.63,1006.23c-.08.72.76,1.44,1.13,1.12.46-.39.76-.75.62-1.47s-.65-1.22-1.13-1.12-.55.82-.62,1.47Z"/><path class="cls-4" d="M733.24,1001.55c.1.49.36.91.81.92s.83-.4.83-.9-.4-1.09-.83-1.21c-.63-.18-.96.46-.81,1.19Z"/><path class="cls-4" d="M735.87,1000.13c.3-.19.45-1.01-.11-1.35-.66-.39-.89-.84-1.18-.65s-.23.66.11,1.35c.3.59.89.84,1.18.65Z"/><path class="cls-4" d="M730.83,998.88c0,.16,0,.42.17.47.22.07.47-.25.43-.46-.03-.16-.13-.3-.29-.3s-.3.13-.3.29Z"/><path class="cls-4" d="M731.7,997.66c0,.24.01.6.26.67.35.1.74-.35.68-.66-.05-.23-.21-.43-.46-.43s-.47.19-.47.42Z"/><path class="cls-4" d="M730.31,1000.83c0,.25.02.65.3.72.4.11.86-.38.79-.71-.05-.25-.24-.46-.54-.46s-.55.2-.55.45Z"/><path class="cls-16" d="M738.3,1009.86l2.18,4.93c.15.34.38.64.68.87l.2.16c.29.23.49.55.56.92l.19,1.01c.1.51-.27.99-.79,1.02-.61.04-1.38-.04-1.91-.49-.49-.42-.8-.15-.98.24-.1.2-.39.16-.43-.06l-.68-3.7-1.23-.08c-.48-.03-.66-.65-.27-.93.2-.15.48-.29.87-.39,1.42-.38-.47-2.77-.47-2.77l2.1-.73Z"/><path class="cls-5" d="M992.33,983.45c-.03.14-.09.29-.11.43-.08.56.46-.71.13-.26-.08.11-.15.27-.21.38-.11.23-.09.44.01.03.11-.47.12-.12-.13.12-.11.11-.21.22-.32.32s-.24.2-.35.31c-.34.35.73-.43.02-.04-.29.16-.55.35-.84.5-.13.07-1.24.59-.66.34s-.58.2-.72.25c-.37.12-.74.23-1.12.32s-.74.18-1.11.25c-.15.03-.31.05-.47.08-.61.14.9-.05.29-.04-1.1.02-2.2.14-3.31.13s-2.11-.07-3.17-.16c-.57-.05-1.14-.11-1.7-.17-.24-.03-.49-.06-.73-.09-.11-.01-1.23-.16-.86-.11-8.09-1.1-17.14-2.67-25.34-5.12-1.14-.34-2.27-.7-3.4-1.09-.45-.16-.9-.32-1.34-.49-.25-.1-.51-.2-.76-.3.42.17.29.13-.05-.03-.98-.46-1.94-.95-2.84-1.54-.17-.11-.33-.24-.5-.34-.57-.33.44.41-.05-.03-.45-.41-.9-.8-1.32-1.24-1.64-1.7-4.74-1.77-6.36,0s-1.75,4.55,0,6.36c3.3,3.43,7.73,5.29,12.18,6.73s9.32,2.63,14.07,3.56c5.08,1,10.21,1.78,15.35,2.46,4.61.61,9.41,1.01,13.96-.19s9.29-4.1,10.42-8.95c.54-2.29-.71-4.98-3.14-5.54-2.3-.52-4.96.69-5.54,3.14h0Z"/><path class="cls-3" d="M995.96,982.55s-16.73-10.72-17.31-23.64c-.58-12.92-10.82-13.43-10.82-13.43,0,0-5.42-.55-13.43,16-1.07,2.22-2.67,4.14-4.66,5.59-4.54,3.32-12.35,9.58-10.88,12.43,2.06,3.98,61.58,21.66,57.1,3.04Z"/><path class="cls-4" d="M968.5,978.39c-.49,2.14-.17,4.34,1.79,5.31,1.96.97,4.34.17,5.31-1.79s.33-5.1-1.34-6.52c-2.41-2.05-5.04-.21-5.77,2.99Z"/><path class="cls-4" d="M957.98,981.74c-.22.44-.52,1.15-.17,1.49.5.48,1.59-.06,1.77-.69.13-.48.04-.98-.4-1.2s-.98-.04-1.2.4Z"/><circle class="cls-4" cx="948.08" cy="978.69" r="1.02"/><path class="cls-4" d="M981.58,968.59c.56,2.89,1.63,5.2.4,5.89s-3.4-.81-4.85-3.37c-1.45-2.56-1.81-5.88-.4-5.89,1.16-.01,3.9-1.51,4.85,3.37Z"/><path class="cls-4" d="M991.97,983.46c.47-.95-.38-3.32-2.36-3.31-2.29,0-3.59-.82-4.06.13s.41,2.06,2.36,3.31c1.66,1.07,3.59.82,4.06-.13Z"/><path class="cls-4" d="M952.07,965.73c1.78-1.93,2.87-3.92,4.02-3.41s1.22,2.87.15,5.27-3.26,4.41-4.02,3.41c-.63-.83-3.15-2-.15-5.27Z"/><path class="cls-4" d="M956.04,971.97c-1.17,1.85.17,4.89,1.6,4.51,1.75-.47,3.05-1.04,3.6-3.16s-.17-4.14-1.6-4.51c-1.44-.37-2.55,1.5-3.6,3.16Z"/><path class="cls-4" d="M966.49,961.4c-.37,1.46-.22,2.94,1,3.55s2.75,0,3.42-1.35.35-3.46-.68-4.37c-1.48-1.32-3.19,0-3.75,2.18Z"/><path class="cls-4" d="M975.47,960.98c1.05-.13,2.55-2.15,1.45-3.8-1.27-1.9-1.31-3.44-2.36-3.31s-1.49,1.48-1.45,3.8c.03,1.98,1.31,3.44,2.36,3.31Z"/><path class="cls-4" d="M963.46,951.01c-.22.44-.52,1.15-.17,1.49.5.48,1.59-.06,1.77-.69.13-.48.04-.98-.4-1.2s-.98-.04-1.2.4Z"/><path class="cls-4" d="M967.4,948.86c-.31.63-.74,1.64-.17,2.16.8.73,2.46,0,2.7-.91.18-.69,0-1.43-.7-1.77s-1.52-.11-1.83.52Z"/><path class="cls-4" d="M959.51,955.62c-.34.68-.8,1.77-.12,2.36.95.83,2.82.09,3.06-.9.18-.74-.05-1.56-.86-1.96s-1.75-.18-2.08.51Z"/><path class="cls-16" d="M969.36,990.48l-.53,16.17c-.04,1.12.2,2.24.7,3.25l.34.69c.49,1,.6,2.14.31,3.21l-.8,2.97c-.4,1.5-2.04,2.33-3.48,1.74-1.69-.7-3.68-1.89-4.53-3.82-.78-1.78-1.96-1.44-2.96-.63-.52.42-1.28-.07-1.1-.72l2.99-10.89-3.24-1.82c-1.27-.71-.94-2.62.49-2.88.75-.13,1.68-.14,2.85.08,4.35.83,2.34-8.11,2.34-8.11l6.63.76Z"/><path class="cls-5" d="M669.09,1002.25c-.03.2-.08.39-.14.58.1-.21.1-.23,0-.04-.07.13-.15.26-.24.38.12-.17.12-.18-.02-.02-.51.53-.6.57-1.34.96-.56.3-.76.37-1.46.57-.47.14-1.14.29-1.52.34-3.95.54-8.18-.23-12.1-.72s-7.73-1.14-11.53-2.06c-3.18-.77-6.83-1.51-9.26-3.86-2.77-2.69-7.02,1.55-4.24,4.24,3.17,3.08,7.49,4.32,11.67,5.35,4.71,1.15,9.51,1.87,14.32,2.45,4.42.53,9.07,1.25,13.47.25,3.49-.79,7.41-3.05,8.18-6.84.32-1.59-.46-3.24-2.1-3.69-1.48-.41-3.36.5-3.69,2.1h0Z"/><path class="cls-3" d="M671.42,1001.52s-12.44-7.46-13.21-16.98c-.77-9.53-8.22-9.62-8.22-9.62,0,0-3.95-.26-9.33,12.18-.72,1.67-1.83,3.13-3.24,4.26-3.21,2.57-8.72,7.41-7.57,9.47,1.6,2.88,45.31,14.32,41.56.69Z"/><path class="cls-4" d="M651.35,999.2c-.3,1.59,0,3.21,1.44,3.88s3.16,0,3.81-1.47.1-3.77-1.15-4.78c-1.81-1.45-3.66-.02-4.11,2.37Z"/><path class="cls-4" d="M643.81,1001.96c-.15.33-.35.86-.08,1.1.38.34,1.16-.09,1.27-.56.08-.36,0-.72-.33-.88s-.71,0-.86.33Z"/><ellipse class="cls-4" cx="636.53" cy="999.97" rx=".74" ry=".76"/><path class="cls-4" d="M660.6,991.61c.48,2.12,1.32,3.79.45,4.34s-2.49-.51-3.61-2.36-1.47-4.29-.45-4.34c.84-.04,2.8-1.22,3.61,2.36Z"/><path class="cls-4" d="M668.54,1002.3c.32-.71-.36-2.44-1.8-2.38-1.66.07-2.63-.51-2.95.21s.35,1.51,1.8,2.38c1.24.74,2.63.51,2.95-.21Z"/><path class="cls-4" d="M639.08,990.3c1.24-1.47,1.98-2.97,2.83-2.62s.96,2.09.25,3.89-2.25,3.35-2.83,2.62c-.48-.59-2.34-1.39-.25-3.89Z"/><path class="cls-4" d="M642.13,994.8c-.8,1.4.25,3.61,1.28,3.29,1.26-.39,2.19-.85,2.53-2.43s-.23-3.05-1.28-3.29-1.81,1.18-2.53,2.43Z"/><path class="cls-4" d="M649.44,986.71c-.23,1.09-.08,2.18.82,2.59s2-.08,2.45-1.09.16-2.56-.61-3.21c-1.11-.94-2.32.08-2.66,1.71Z"/><path class="cls-4" d="M655.95,986.15c.76-.13,1.8-1.66.95-2.84-.98-1.37-1.04-2.51-1.8-2.38s-1.04,1.13-.95,2.84c.08,1.46,1.04,2.51,1.8,2.38Z"/><path class="cls-4" d="M646.97,979.12c-.15.33-.35.86-.08,1.1.38.34,1.16-.09,1.27-.56.08-.36,0-.72-.33-.88s-.71,0-.86.33Z"/><path class="cls-4" d="M649.77,977.42c-.21.48-.5,1.23-.07,1.6.6.52,1.79-.06,1.94-.74.11-.51-.04-1.05-.55-1.29s-1.11-.04-1.32.43Z"/><path class="cls-4" d="M644.22,982.63c-.23.51-.53,1.33-.02,1.74.71.58,2.05,0,2.2-.75.11-.55-.08-1.15-.68-1.43s-1.27-.08-1.5.43Z"/><path class="cls-16" d="M652.3,1008.1l.05,11.96c0,.83.21,1.65.59,2.38l.26.5c.38.72.49,1.56.31,2.36l-.5,2.22c-.25,1.12-1.42,1.78-2.48,1.38-1.25-.47-2.73-1.3-3.4-2.7-.62-1.29-1.46-1.01-2.17-.39-.37.33-.93-.02-.82-.5l1.88-8.12-2.4-1.26c-.94-.49-.75-1.91.28-2.14.54-.12,1.22-.15,2.07-.02,3.18.49,1.48-6.05,1.48-6.05l4.84.38Z"/><path class="cls-12" d="M1097.88,1032.97c-3.42-19.71-23.23-52.7-123.39-24.59-11.92,3.34-25.18,2.33-35.94-2.97-22.53-11.1-62.03-24.85-74.36,7.18-3.25,8.45-10.9,15.37-21.25,18.86-9.6,3.24-20,11.57-22.49,32.08,0,0-35.31,50.68,15.24,44.87,13.38-1.54,26.66,2.87,34.51,11.53,6.43,7.1,16,13.06,29.03,9.77,19-4.8,39.86-3.51,57.99,3.18,6.37,2.35,12.13,3.36,15.6,1.44,18.41-10.17,40.22-16.02,62.74-14.53,23.26,1.54,44.99,1.19,48.92-4.89,5.95-9.21,15.88-16.42,28.76-18.67,27.87-4.88,51.89-16.27,1.08-42.81-8.96-4.68-14.99-12.11-16.44-20.45Z"/><path class="cls-12" d="M808.42,1053.7c-3.42-19.71-23.23-52.7-123.39-24.59-11.92,3.34-25.18,2.33-35.94-2.97-22.53-11.1-62.03-24.85-74.36,7.18-3.25,8.45-10.9,15.37-21.25,18.86-9.6,3.24-20,11.57-22.49,32.08,0,0-35.31,50.68,15.24,44.87,13.38-1.54,26.66,2.87,34.51,11.53,6.43,7.1,16,13.06,29.03,9.77,19-4.8,39.86-3.51,57.99,3.18,6.37,2.35,12.13,3.36,15.6,1.44,18.41-10.17,40.22-16.02,62.74-14.53,23.26,1.54,44.99,1.19,48.92-4.89,5.95-9.21,15.88-16.42,28.76-18.67,27.87-4.88,51.89-16.27,1.08-42.81-8.96-4.68-14.99-12.11-16.44-20.45Z"/><path class="cls-13" d="M945.99,1075.92c-3.42-19.71-23.23-52.7-123.39-24.59-11.92,3.34-25.18,2.33-35.94-2.97-22.53-11.1-62.03-24.85-74.36,7.18-3.25,8.45-10.9,15.37-21.25,18.86-9.6,3.24-20,11.57-22.49,32.08,0,0-35.31,50.68,15.24,44.87,13.38-1.54,26.66,2.87,34.51,11.53,6.43,7.1,16,13.06,29.03,9.77,19-4.8,39.86-3.51,57.99,3.18,6.37,2.35,12.13,3.36,15.6,1.44,18.41-10.17,40.22-16.02,62.74-14.53,23.26,1.54,44.99,1.19,48.92-4.89,5.95-9.21,15.88-16.42,28.76-18.67,27.87-4.88,51.89-16.27,1.08-42.81-8.96-4.68-14.99-12.11-16.44-20.45Z"/><path class="cls-5" d="M324.92,944.67c-2.44,9.7,3.88,19.02,10.87,25.13,7.96,6.95,18.04,10.97,27.91,14.41,20.98,7.31,42.5,13.76,64.41,17.6,12.09,2.12,25.19,4.22,37.05-.14,2.2-.81,3.93-3.09,3.14-5.54-.7-2.16-3.17-4.01-5.54-3.14s-4.84,1.48-7.36,1.87c.83-.13-.87.1-1.02.11-.6.06-1.19.1-1.79.14-1.27.08-2.55.1-3.83.09-2.5-.03-4.99-.2-7.47-.47-.6-.06-1.2-.13-1.81-.21-.3-.04-.6-.08-.9-.11.78.1-.19-.03-.38-.05-1.31-.19-2.62-.39-3.93-.6-10.57-1.69-21.03-4.06-31.36-6.84s-20.58-5.98-30.76-9.34c-4.78-1.58-9.55-3.19-14.21-5.1-.28-.12-.56-.23-.84-.35.6.26-.1-.05-.19-.08-.56-.25-1.11-.49-1.67-.74-1.24-.57-2.48-1.16-3.69-1.79-2.08-1.07-4.14-2.21-6.08-3.52-.45-.3-.89-.61-1.32-.93-.2-.14-.39-.29-.59-.44.84.62-.16-.14-.26-.22-.94-.76-1.84-1.57-2.71-2.4s-1.73-1.74-2.53-2.67c-.17-.2-.33-.39-.5-.59-.07-.08-.72-.91-.37-.45.33.44-.15-.21-.22-.31-.19-.26-.37-.52-.55-.78-.66-.98-1.27-1.99-1.79-3.05-.11-.22-.2-.44-.31-.66-.25-.49.26.72-.04-.08-.2-.55-.4-1.11-.55-1.67-.14-.5-.22-1.01-.34-1.52-.15-.63.06.83.02.18-.02-.28-.05-.56-.06-.84-.02-.56,0-1.12.04-1.69s-.17-.23-.03.19c-.08-.22.17-.79.22-1,.57-2.28-.74-4.99-3.14-5.54s-4.92.7-5.54,3.14h0Z"/><path class="cls-3" d="M333.1,942.03s48.49-5.32,63.87-33.12c15.38-27.79,38.44-17.74,38.44-17.74,0,0,12.52,4.69,12.08,49.85-.06,6.05,1.36,12.02,4.16,17.39,6.37,12.25,16.73,34.54,10.37,39.2-8.87,6.5-159.07-19.51-128.91-55.59Z"/><path class="cls-4" d="M398.04,962.83c-1.25,5.23-4.36,9.74-9.74,9.74s-9.74-4.36-9.74-9.74,4.83-11.57,10.05-12.88c7.54-1.88,11.31,5.03,9.42,12.88Z"/><path class="cls-4" d="M417.52,981.67c0,1.21-.1,3.09-1.26,3.45-1.63.51-3.44-1.87-3.14-3.45.22-1.19.98-2.2,2.2-2.2s2.2.98,2.2,2.2Z"/><circle class="cls-4" cx="442.64" cy="985.76" r="2.51"/><path class="cls-4" d="M379.96,927c-4.38,5.74-9.25,9.66-7.3,12.53s8.37,1.92,14.35-2.13,10.39-10.95,7.3-12.53c-2.54-1.3-6.94-7.58-14.35,2.13Z"/><path class="cls-4" d="M340.88,948.38c0-2.6,4.45-6.88,8.79-4.71,5.03,2.51,8.79,2.11,8.79,4.71s-3.14,4.08-8.79,4.71c-4.83.54-8.79-2.11-8.79-4.71Z"/><path class="cls-4" d="M447.99,952.89c-1.8-6.18-2.04-11.75-5.13-11.88s-5.81,4.99-6.07,11.43,2.36,13.26,5.13,11.88c2.28-1.14,9.12-.97,6.07-11.43Z"/><path class="cls-4" d="M432.45,962.29c.54,5.35-5.71,10.58-8.45,8.18-3.35-2.94-5.57-5.62-4.47-10.88,1.1-5.26,4.88-8.93,8.45-8.18s3.98,6.08,4.47,10.88Z"/><path class="cls-4" d="M420.99,927.64c-.78,3.61-2.71,6.71-6.06,6.71s-6.06-3.01-6.06-6.71,3.01-7.98,6.25-8.88c4.69-1.3,7.03,3.46,5.86,8.88Z"/><path class="cls-4" d="M401.7,916.93c-2.17-1.44-3.26-7.52.95-9.93,4.88-2.79,6.63-6.15,8.8-4.71s1.66,4.88-.95,9.93c-2.23,4.32-6.63,6.15-8.8,4.71Z"/><path class="cls-4" d="M438.98,908.09c0,1.21-.1,3.09-1.26,3.45-1.63.51-3.44-1.87-3.14-3.45.22-1.19.98-2.2,2.2-2.2s2.2.98,2.2,2.2Z"/><path class="cls-4" d="M432.67,899.06c0,1.74-.15,4.42-1.98,4.94-2.56.73-5.42-2.67-4.95-4.94.35-1.71,1.55-3.14,3.47-3.14s3.47,1.41,3.47,3.14Z"/><path class="cls-4" d="M442.64,922.54c0,1.87-.18,4.76-2.3,5.32-2.98.78-6.31-2.88-5.76-5.32.41-1.84,1.81-3.38,4.03-3.38s4.03,1.52,4.03,3.38Z"/><path class="cls-16" d="M382.97,988.49l-16.47,36.16c-1.14,2.51-2.89,4.7-5.07,6.39l-1.49,1.14c-2.16,1.66-3.64,4.05-4.18,6.72l-1.48,7.41c-.75,3.75,1.94,7.35,5.76,7.61,4.48.31,10.16-.15,14.14-3.46,3.66-3.05,5.88-1.04,7.2,1.83.69,1.5,2.89,1.25,3.21-.38l5.3-27.21,9.11-.47c3.57-.19,4.93-4.74,2.06-6.86-1.5-1.11-3.55-2.15-6.35-2.94-10.46-2.92,3.69-20.39,3.69-20.39l-15.41-5.55Z"/><path class="cls-12" d="M-22.47,1028.11c3.7-19.97,24.17-53.21,125.49-23.54,12.05,3.53,25.52,2.65,36.5-2.6,22.99-11,63.23-24.51,75.37,8.14,3.2,8.61,10.89,15.72,21.35,19.38,9.7,3.4,20.17,11.97,22.46,32.81,0,0,35.25,51.83-15.97,45.36-13.56-1.71-27.09,2.61-35.15,11.31-6.61,7.14-16.39,13.07-29.57,9.58-19.22-5.09-40.41-4.02-58.88,2.57-6.49,2.31-12.35,3.27-15.85,1.28-18.56-10.53-40.63-16.72-63.5-15.46-23.62,1.3-45.67.69-49.59-5.52-5.94-9.41-15.92-16.84-28.97-19.28-28.23-5.27-52.47-17.11-.6-43.45,9.15-4.65,15.35-12.12,16.91-20.56Z"/><path class="cls-12" d="M271.01,1052.44c3.7-19.97,24.17-53.21,125.49-23.54,12.05,3.53,25.52,2.65,36.5-2.6,22.99-11,63.23-24.51,75.37,8.14,3.2,8.61,10.89,15.72,21.35,19.38,9.7,3.4,20.17,11.97,22.46,32.81,0,0,35.25,51.83-15.97,45.36-13.56-1.71-27.09,2.61-35.15,11.31-6.61,7.14-16.39,13.07-29.57,9.58-19.22-5.09-40.41-4.02-58.88,2.57-6.49,2.31-12.35,3.27-15.85,1.28-18.56-10.53-40.63-16.72-63.5-15.46-23.62,1.3-45.67.69-49.59-5.52-5.94-9.41-15.92-16.84-28.97-19.28-28.23-5.27-52.47-17.11-.6-43.45,9.15-4.65,15.35-12.12,16.91-20.56Z"/><path class="cls-13" d="M131.16,1073.42c3.7-19.97,24.17-53.21,125.49-23.54,12.05,3.53,25.52,2.65,36.5-2.6,22.99-11,63.23-24.51,75.37,8.14,3.2,8.61,10.89,15.72,21.35,19.38,9.7,3.4,20.17,11.97,22.46,32.81,0,0,35.25,51.83-15.97,45.36-13.56-1.71-27.09,2.61-35.15,11.31-6.61,7.14-16.39,13.07-29.57,9.58-19.22-5.09-40.41-4.02-58.88,2.57-6.49,2.31-12.35,3.27-15.85,1.28-18.56-10.53-40.63-16.72-63.5-15.46-23.62,1.3-45.67.69-49.59-5.52-5.94-9.41-15.92-16.84-28.97-19.28-28.23-5.27-52.47-17.11-.6-43.45,9.15-4.65,15.35-12.12,16.91-20.56Z"/><path class="cls-5" d="M523.03,1050.19c-1.18,5.36,2.28,9.93,6.48,12.83,3.95,2.73,8.93,4.08,13.46,5.51s9.39,2.8,14.19,3.74,10.49,2.02,15.45.27c2.22-.78,3.93-3.11,3.14-5.54-.71-2.19-3.16-3.98-5.54-3.14-.57.2-1.13.34-1.71.49-.89.23.44.04-.57.08s-2.09.05-3.15-.03c-.45-.04-.9-.08-1.35-.14.83.1-.67-.1-.85-.13-1.01-.16-2.02-.34-3.03-.54-4.19-.82-8.31-1.93-12.38-3.18-1.95-.6-3.89-1.22-5.82-1.87-.99-.33-1.98-.68-2.96-1.05-.1-.04-1.27-.53-.58-.23-.55-.24-1.09-.49-1.62-.77-.74-.38-1.44-.81-2.14-1.25-.4-.29-.39-.28.04.05-.19-.16-.39-.32-.57-.49-.28-.26-.56-.53-.82-.81-.17-.19-.34-.38-.5-.58.27.36.32.41.14.15-.2-.38-.44-.74-.65-1.12.62,1.17-.17-.24,0-.25.06.64.08.7.05.19.03-.51.02-.45-.03.2.51-2.29-.69-4.98-3.14-5.54-2.28-.52-4.99.68-5.54,3.14h0Z"/><path class="cls-3" d="M528.63,1050.14s15.85-1.74,20.88-10.83c5.03-9.09,12.57-5.8,12.57-5.8,0,0,4.09,1.53,3.95,16.3-.02,1.98.45,3.93,1.36,5.69,2.08,4,5.47,11.29,3.39,12.82-2.9,2.13-52.01-6.38-42.15-18.17Z"/><path class="cls-4" d="M549.86,1056.93c-.41,1.71-1.43,3.18-3.18,3.18s-3.18-1.43-3.18-3.18,1.58-3.78,3.29-4.21c2.46-.62,3.7,1.64,3.08,4.21Z"/><path class="cls-4" d="M556.23,1063.1c0,.4-.03,1.01-.41,1.13-.53.17-1.12-.61-1.03-1.13.07-.39.32-.72.72-.72s.72.32.72.72Z"/><circle class="cls-4" cx="564.44" cy="1064.43" r=".82"/><path class="cls-4" d="M543.95,1045.22c-1.43,1.88-3.02,3.16-2.39,4.1s2.74.63,4.69-.7,3.4-3.58,2.39-4.1c-.83-.42-2.27-2.48-4.69.7Z"/><path class="cls-4" d="M531.17,1052.21c0-.85,1.45-2.25,2.88-1.54,1.64.82,2.88.69,2.88,1.54s-1.03,1.33-2.88,1.54c-1.58.18-2.88-.69-2.88-1.54Z"/><path class="cls-4" d="M566.19,1053.69c-.59-2.02-.67-3.84-1.68-3.88s-1.9,1.63-1.98,3.74.77,4.33,1.68,3.88c.74-.37,2.98-.32,1.98-3.74Z"/><path class="cls-4" d="M561.11,1056.76c.18,1.75-1.87,3.46-2.76,2.68-1.09-.96-1.82-1.84-1.46-3.56s1.6-2.92,2.76-2.68,1.3,1.99,1.46,3.56Z"/><path class="cls-4" d="M557.36,1045.43c-.26,1.18-.89,2.19-1.98,2.19s-1.98-.98-1.98-2.19.98-2.61,2.04-2.9c1.53-.42,2.3,1.13,1.92,2.9Z"/><path class="cls-4" d="M551.06,1041.93c-.71-.47-1.07-2.46.31-3.25,1.59-.91,2.17-2.01,2.88-1.54s.54,1.59-.31,3.25c-.73,1.41-2.17,2.01-2.88,1.54Z"/><path class="cls-4" d="M563.24,1039.04c0,.4-.03,1.01-.41,1.13-.53.17-1.12-.61-1.03-1.13.07-.39.32-.72.72-.72s.72.32.72.72Z"/><path class="cls-4" d="M561.18,1036.09c0,.57-.05,1.44-.65,1.61-.84.24-1.77-.87-1.62-1.61.12-.56.51-1.03,1.13-1.03s1.13.46,1.13,1.03Z"/><path class="cls-4" d="M564.44,1043.76c0,.61-.06,1.56-.75,1.74-.97.26-2.06-.94-1.88-1.74.13-.6.59-1.11,1.32-1.11s1.32.5,1.32,1.11Z"/><path class="cls-16" d="M544.93,1065.33l-5.39,11.82c-.37.82-.94,1.54-1.66,2.09l-.49.37c-.71.54-1.19,1.32-1.37,2.2l-.48,2.42c-.25,1.23.63,2.4,1.88,2.49,1.46.1,3.32-.05,4.62-1.13,1.2-1,1.92-.34,2.35.6.22.49.95.41,1.05-.12l1.73-8.9,2.98-.15c1.17-.06,1.61-1.55.67-2.24-.49-.36-1.16-.7-2.08-.96-3.42-.96,1.21-6.66,1.21-6.66l-5.04-1.82Z"/><path class="cls-5" d="M214.45,1005.72c1.25,5.92,6.85,9.49,12.16,11.37,6.09,2.16,12.84,1.94,19.18,1.29,14.56-1.49,29.29-3.85,43.36-7.91,7.21-2.08,14.67-4.62,20.04-10.12,1.65-1.69,1.81-4.71,0-6.36s-4.61-1.8-6.36,0c-.47.48-.96.95-1.47,1.39-.08.07-1.13.87-.35.3-.22.16-.43.32-.66.47-1.22.84-2.52,1.58-3.86,2.23-.37.18-.74.35-1.11.52-.8.36-.23.1-.05.03-.63.26-1.27.51-1.91.74-1.43.53-2.89.99-4.35,1.44-6.45,1.97-13.02,3.5-19.64,4.76-3.31.63-6.64,1.19-9.98,1.7-1.59.24-3.18.48-4.77.7-.8.11-1.59.22-2.39.33.69-.09-.31.04-.48.06-.56.07-1.12.15-1.68.22-3.37.43-6.76.82-10.16.92-1.61.05-3.23.03-4.84-.08-.32-.02-.64-.05-.97-.08l-.48-.05c-.49-.06-.39-.04.31.05-.03.08-1.73-.31-1.84-.33-1.18-.26-2.34-.59-3.47-1.01-.22-.08-1.27-.36-.16-.04-.29-.08-.63-.28-.9-.42-.59-.29-1.16-.61-1.71-.95-.27-.17-.53-.36-.8-.54-.75-.5.61.6-.08-.07-.17-.17-1.34-1.08-1.28-1.3,0,0,.52.79.17.2-.2-.33-.4-.67-.59-1-.35-.61.24.22.11.28-.03.01-.29-1.04-.31-1.13-.49-2.31-3.32-3.86-5.54-3.14-2.43.79-3.67,3.06-3.14,5.54h0Z"/><path class="cls-3" d="M219.87,1001.42s25.11-15.69,26.2-34.94c1.08-19.25,16.34-19.83,16.34-19.83,0,0,8.08-.73,19.74,24.07,1.56,3.33,3.91,6.22,6.86,8.42,6.71,5.02,18.25,14.48,16,18.7-3.14,5.89-92.12,31.25-85.14,3.57Z"/><path class="cls-4" d="M260.86,995.68c.69,3.19.18,6.47-2.76,7.89s-6.47.18-7.89-2.76-.41-7.6,2.1-9.69c3.63-3.02,7.51-.23,8.55,4.56Z"/><path class="cls-4" d="M276.48,1000.85c.32.66.76,1.72.22,2.22-.75.71-2.37-.12-2.63-1.06-.19-.71-.04-1.46.62-1.78s1.46-.04,1.78.62Z"/><circle class="cls-4" cx="291.29" cy="996.46" r="1.53"/><path class="cls-4" d="M241.53,980.85c-.88,4.29-2.51,7.72-.69,8.78s5.08-1.16,7.28-4.95,2.8-8.73.69-8.78c-1.73-.04-5.79-2.32-7.28,4.95Z"/><path class="cls-4" d="M225.8,1002.84c-.69-1.42.62-4.94,3.57-4.89,3.41.05,5.36-1.16,6.05.26s-.64,3.06-3.57,4.89c-2.5,1.57-5.36,1.16-6.05-.26Z"/><path class="cls-4" d="M285.56,977.08c-2.62-2.91-4.21-5.89-5.93-5.14s-1.86,4.26-.31,7.85,4.78,6.63,5.93,5.14c.95-1.22,4.73-2.93.31-7.85Z"/><path class="cls-4" d="M279.54,986.32c1.71,2.78-.33,7.29-2.46,6.7-2.6-.72-4.52-1.6-5.31-4.77s.32-6.17,2.46-6.7,3.78,2.27,5.31,4.77Z"/><path class="cls-4" d="M264.14,970.39c.52,2.18.29,4.39-1.54,5.27s-4.1-.05-5.08-2.07-.46-5.16,1.08-6.5c2.22-1.95,4.76.04,5.54,3.31Z"/><path class="cls-4" d="M250.77,969.61c-1.56-.22-3.77-3.25-2.1-5.68,1.93-2.81,2-5.11,3.57-4.89s2.19,2.23,2.1,5.68c-.08,2.95-2,5.11-3.57,4.89Z"/><path class="cls-4" d="M268.82,954.96c.32.66.76,1.72.22,2.22-.75.71-2.37-.12-2.63-1.06-.19-.71-.04-1.46.62-1.78s1.46-.04,1.78.62Z"/><path class="cls-4" d="M262.99,951.68c.46.95,1.08,2.46.22,3.22-1.21,1.07-3.67-.03-4.01-1.4-.26-1.03.02-2.13,1.07-2.63s2.27-.14,2.72.81Z"/><path class="cls-4" d="M274.63,961.89c.49,1.02,1.16,2.65.14,3.52-1.42,1.21-4.21.09-4.55-1.39-.26-1.11.1-2.33,1.31-2.91s2.6-.23,3.1.79Z"/><path class="cls-16" d="M259.38,1013.68l.52,24.11c.04,1.67-.34,3.33-1.09,4.83l-.51,1.02c-.74,1.48-.93,3.17-.51,4.78l1.14,4.44c.58,2.25,3,3.51,5.15,2.64,2.53-1.01,5.52-2.76,6.82-5.62,1.2-2.64,2.94-2.12,4.42-.9.77.64,1.91-.08,1.66-1.05l-4.27-16.27,4.85-2.66c1.9-1.04,1.45-3.89-.68-4.29-1.11-.21-2.51-.24-4.25.07-6.49,1.16-3.35-12.12-3.35-12.12l-9.89,1.02Z"/><path class="cls-1" d="M1097.22,26.11s51.6,120.05-51.07,70.2c0,0-32.71,63.04-67.75.6,0,0-61.62,56.64-81.38-8.61,0,0-72.6-26.54-7.15-42.74,0,0-2.04-41.61,38.8-17.96,0,0-11.41-75.25,69.23-24.78,0,0,32.56-59.56,71.12-2.17,0,0,80.68-23.99,28.2,25.47Z"/></svg>