<?xml version="1.0" encoding="UTF-8"?><svg id="Layer_2" xmlns="http://www.w3.org/2000/svg" width="94.5" height="121" viewBox="0 0 94.5 121"><defs><style>.cls-1{fill:none;}.cls-1,.cls-2,.cls-3,.cls-4,.cls-5,.cls-6{stroke-width:0px;}.cls-2{fill:#f2636f;}.cls-3{fill:#8c583a;}.cls-4{fill:#facbc3;}.cls-5{fill:#f49e93;}.cls-6{fill:#ffd9cb;}</style></defs><path class="cls-1" d="M31.12,21.55c.48-.38.86-.77,1.19-1.19-.43.45-.83.85-1.19,1.19Z"/><polygon class="cls-1" points="22.85 86.46 19.74 67.45 19.58 67.47 22.85 86.46"/><polygon class="cls-1" points="67.5 68 67.51 67.98 67.48 67.98 67.5 68"/><path class="cls-2" d="M5.25,67.5c-1.47,0-2.91.43-4.13,1.25l-1.13.75,18.3,51h3.7L5.73,67.5h-.48Z"/><polygon class="cls-6" points="22.5 121 25.5 121 12.05 68.19 6.27 67.48 22.5 121"/><path class="cls-2" d="M19.58,67.47l-7.53.72,13.41,52.64c.03.1.12.17.22.17h2.82l-5.65-34.54-3.27-19Z"/><polygon class="cls-6" points="19.74 67.45 22.85 86.46 28.5 121 28.52 121 32.5 121 24.5 67 19.74 67.45"/><polygon class="cls-2" points="24.5 67 32.5 121 37.68 121 31.72 67 24.5 67"/><polygon class="cls-6" points="31.72 67 37.68 121 42.89 121 38.55 67 31.72 67"/><polygon class="cls-2" points="38.55 67 42.89 121 47.12 121 46.4 67 38.55 67"/><polygon class="cls-6" points="46.4 67 47.12 121 51.52 121 52.5 67 46.4 67"/><polygon class="cls-2" points="52.5 67 51.52 121 55.32 121 60.25 67.51 52.5 67"/><polygon class="cls-6" points="67.48 67.98 60.25 67.51 55.32 121 61.5 121 67.5 68 67.48 67.98"/><polygon class="cls-2" points="67.51 67.98 67.5 68 61.5 121 65.34 121 73.06 68.35 67.51 67.98"/><polygon class="cls-6" points="73.06 68.35 65.34 121 68.65 121 80.91 68.86 73.06 68.35"/><polygon class="cls-2" points="80.91 68.86 68.65 121 72.41 121 88.39 69.35 80.91 68.86"/><polygon class="cls-6" points="93.05 67.5 92.15 67.35 93.97 69.72 88.39 69.35 72.41 121 75.96 121 94.5 71 93.05 67.5"/><path class="cls-3" d="M19.74,67.45l4.76-.45h28l7.75.51,7.22.47h.03s5.54.37,5.54.37l7.86.52,7.48.49,5.58.37-1.82-2.37-8.02-10.42c-.26.96-.5,1.69-.64,2.07h-17l-26.71.92c-3.35,2.56-17.8,4.77-26.1-2.76l-4.19-.16-7.15,10,3.92.48,5.78.71h0l7.53-.72h.16Z"/><path class="cls-5" d="M48.5,0c-2.19.91-4.06,2.22-5.64,3.67.17,1.06-.27,2.97-.36,3.33-.57,2.35-1.75,4.44-7,10-1.31,1.39-2.34,2.48-3.19,3.36-.32.42-.71.81-1.19,1.19-.61.59-1.13,1.06-1.62,1.45-4.04,3.2-6.25,3.52-7,6-.78,2.56,1.09,3.77,0,6-.95,1.95-2.77,1.82-5,4-1.73,1.69-2.57,3.65-3,5l-2.61,11.33c.68.79,1.28,1.36,1.61,1.67.06.06.13.11.19.16,8.3,7.53,22.75,5.32,26.1,2.76l-2.29.08c-1.52-1.41-3.87-4.05-5-8-.55-1.92-1.46-5.11,0-8,1.2-2.37,2.57-1.74,4-4,2.42-3.84-.6-7.16,2-11,1.3-1.92,2.23-1.36,3-3,1.64-3.51-2.49-6.37-2-11,.34-3.24,2.8-5.9,4.73-7.2.25-.87.65-1.53,1.27-1.8.99-.43,2.52.14,3.41,1.1.77-.45,1.62-.84,2.59-1.1,3.54-.97,5.31.51,7-1,1.35-1.21,1.88-3.63,1-5"/><path class="cls-6" d="M17.5,39c2.23-2.18,4.05-2.05,5-4,1.09-2.23-.78-3.44,0-6,.75-2.48,2.96-2.8,7-6,.49-.39,1.01-.86,1.62-1.45.36-.35.75-.75,1.19-1.19.86-.88,1.88-1.97,3.19-3.36,5.25-5.56,6.43-7.65,7-10,.09-.36.53-2.27.36-3.33-.05-.33-.16-.57-.36-.67-.47-.22-1.54.35-8,9-5.38,7.2-5.21,7.56-7,9-4.58,3.68-7.63,2.86-9,6-1.43,3.29.76,6.82-1,8-.85.57-1.63-.08-3,0-3.75.22-7.67,5.68-8,11-.39,6.29,4.37,10.47,5,11l.39-1.67,2.61-11.33c.43-1.35,1.27-3.31,3-5Z"/><path class="cls-4" d="M66.5,43c-1.71-1.99-4.04-1.39-6-4-2.48-3.3.03-5.85-2-10-1.56-3.19-3.38-2.37-9-8-3.99-4-4.73-6.07-5-7-.58-1.98-.75-4.49-.27-6.2-1.94,1.3-4.39,3.96-4.73,7.2-.49,4.63,3.64,7.49,2,11-.77,1.64-1.7,1.08-3,3-2.6,3.84.42,7.16-2,11-1.43,2.26-2.8,1.63-4,4-1.46,2.89-.55,6.08,0,8,1.13,3.95,3.48,6.59,5,8l2.29-.08,26.71-.92h-2c4.54-9.93,3.66-14.07,2-16Z"/><path class="cls-5" d="M45.5,6c-.61.27-1.02.93-1.27,1.8-.48,1.71-.32,4.22.27,6.2.27.93,1.01,3,5,7,5.62,5.63,7.44,4.81,9,8,2.03,4.15-.48,6.7,2,10,1.96,2.61,4.29,2.01,6,4,1.66,1.93,2.54,6.07-2,16h19c.13-.38.37-1.11.64-2.07.86-3.13,1.95-8.76.36-12.93-1.49-3.92-4.13-6.25-5-7-3.25-2.8-4.36-1.69-7-4-4.47-3.92-2.73-8.38-7-11-2.66-1.64-3.77-.17-6-2-3.21-2.64-2.05-6.61-5-8-2.08-.98-4.28.23-5-1-.52-.88.47-1.74,0-3-.12-.32-.33-.62-.59-.9-.89-.96-2.43-1.53-3.41-1.1Z"/></svg>