<?xml version="1.0" encoding="UTF-8"?><svg id="Layer_1" xmlns="http://www.w3.org/2000/svg" width="684" height="666" viewBox="0 0 684 666"><defs><style>.cls-1{fill:#815b4a;}.cls-1,.cls-2,.cls-3,.cls-4,.cls-5,.cls-6,.cls-7,.cls-8,.cls-9,.cls-10,.cls-11,.cls-12,.cls-13{stroke-width:0px;}.cls-2,.cls-14{fill:#fde3d0;}.cls-3{fill:#8590d9;}.cls-4{fill:#c69c6d;}.cls-5{fill:#f36a68;}.cls-6{fill:#000;}.cls-7{fill:#ffeef6;}.cls-8{fill:#fd556a;}.cls-9{fill:#f08988;}.cls-10{fill:#f2d7d9;}.cls-11{fill:#29abe2;}.cls-12{fill:#fff;}.cls-14{stroke:#f7c3c2;stroke-miterlimit:10;stroke-width:.25px;}.cls-13{fill:#a6705b;}</style></defs><path class="cls-7" d="M70.58,3.5h542.84c37.02,0,67.08,30.06,67.08,67.08v524.84c0,37.02-30.06,67.08-67.08,67.08H70.58c-37.02,0-67.08-30.06-67.08-67.08V70.58C3.5,33.56,33.56,3.5,70.58,3.5Z"/><path class="cls-8" d="M613.42,7c35.06,0,63.58,28.52,63.58,63.58v524.84c0,35.06-28.52,63.58-63.58,63.58H70.58c-35.06,0-63.58-28.52-63.58-63.58V70.58C7,35.52,35.52,7,70.58,7h542.84M613.42,0H70.58C31.6,0,0,31.6,0,70.58v524.84c0,38.98,31.6,70.58,70.58,70.58h542.84c38.98,0,70.58-31.6,70.58-70.58V70.58c0-38.98-31.6-70.58-70.58-70.58h0Z"/><path class="cls-6" d="M147.86,122.79c.03.27-.11.47-.4.59-.3.12-.58.24-.85.36-.42.24-.8,1.59-1.12,4.06-.27,1.95-.41,3.52-.41,4.69l-.13,13.66c-.03,1.2-.29,2.51-.77,3.92-.63,1.8-1.43,2.7-2.38,2.7-1.47,0-2.84-1.37-4.1-4.1-.51-1.08-1.22-3.13-2.14-6.14-.92-3.01-2.27-7.54-4.07-13.57-.33.06-.51.36-.54.9-.06.81-.3,2.91-.72,6.3-.33,2.58-.49,4.68-.49,6.3,0,4.83.3,7.62.9,8.37.33.48.5.75.5.81,0,.33-.22.65-.66.94-.44.3-.83.45-1.16.45-1.21,0-1.82-1.96-1.82-5.89,0-.54-.02-1.31-.07-2.29-.04-.99-.07-1.76-.07-2.29,0-1.29.19-3.26.58-5.92.39-2.66.58-4.64.58-5.96v-5.8c0-.06-.02-.16-.07-.29-.04-.14-.07-.23-.07-.29,0-.78.77-1.17,2.29-1.17,1.26,0,2.13.39,2.61,1.17.12.21.24.87.36,1.98.09.72.18,1.46.27,2.2.39,2.4,1.47,6.35,3.24,11.84,2.07,6.36,3.57,9.54,4.5,9.54.81,0,1.2-1.61,1.17-4.82l-.13-13.52c0-1.59.28-3.37.85-5.32.75-2.55,1.72-3.83,2.92-3.83.45,0,.92.15,1.4.45Z"/><path class="cls-6" d="M162.35,144.2c0,2.58-.57,4.83-1.71,6.75-1.35,2.31-3.23,3.47-5.62,3.47s-4.25-.95-5.45-2.83c-.99-1.56-1.48-3.63-1.48-6.21s.57-5.06,1.71-7.52c1.44-3.03,3.27-4.54,5.49-4.54.57,0,1.38.33,2.43.99,3.09,1.92,4.64,5.22,4.64,9.9ZM160.19,144.16c0-1.92-.26-3.64-.77-5.17-.75-2.13-1.91-3.19-3.46-3.19-1.8,0-3.21,1.18-4.23,3.55-.78,1.83-1.17,3.79-1.17,5.89,0,1.89.27,3.48.81,4.77.78,1.77,1.99,2.66,3.65,2.66,1.8,0,3.16-1.02,4.09-3.06.72-1.59,1.08-3.4,1.08-5.45Z"/><path class="cls-6" d="M183.5,138.9c-.24.18-.81.33-1.71.45-.99.12-1.56.22-1.71.31-.03.33-.04,2-.04,5,0,2.34.03,3.92.09,4.73,0,.33.07.85.23,1.57.15.72.23,1.28.23,1.67,0,.24-.15.48-.45.72-.3.24-.57.36-.81.36-.6,0-1.08-.62-1.44-1.84-.24-.9-.36-1.75-.36-2.56v-9.36c-.18-.15-.85-.15-2.02,0-.94.12-1.4-.23-1.4-1.04,0-1.14,1.21-1.67,3.65-1.58l.58-8.14c0-.09-.04-.23-.11-.43-.08-.19-.11-.34-.11-.43,0-.18.12-.35.36-.52.24-.16.52-.23.85-.2,1.05.09,1.57.62,1.57,1.58,0,.75-.11,1.88-.31,3.38-.21,1.5-.31,2.61-.31,3.33,0,.36.03.71.09,1.04l2.48-.14c.84,0,1.26.33,1.26.99,0,.48-.2.86-.59,1.12Z"/><path class="cls-6" d="M197.86,148.61c0,1.32-.89,2.51-2.66,3.56-1.59.96-3.09,1.44-4.5,1.44-4.02,0-6.03-2.55-6.03-7.65,0-2.25.4-4.67,1.21-7.25,1.08-3.36,2.46-5.04,4.14-5.04,1.44,0,3.02.73,4.73,2.18s2.56,2.9,2.56,4.34c0,1.86-.75,3.48-2.25,4.86-1.5,1.38-3.19,2.07-5.08,2.07-.18,0-.56-.15-1.15-.45s-.98-.45-1.19-.45c-.39,0-.59.12-.59.36,0,3.45,1.14,5.17,3.42,5.17,1.17,0,2.25-.39,3.24-1.17.6-.45,1.26-1.15,1.98-2.12.57-.75.95-1.12,1.12-1.12.69,0,1.04.42,1.04,1.26ZM194.75,140.34c0-1.05-.3-2.03-.9-2.95-.6-.91-1.4-1.37-2.39-1.37-1.2,0-2.18.75-2.92,2.25-.63,1.26-.95,2.56-.95,3.92,0,.87.28,1.6.83,2.18s1.27.88,2.14.88c1.23,0,2.25-.52,3.06-1.57.75-.96,1.12-2.07,1.12-3.33Z"/><path class="cls-6" d="M213.52,154.38c0,.42-.33.63-.99.63-.72,0-1.16-.3-1.3-.9-.03-.09-.05-.67-.05-1.75,0-.3-.04-.54-.13-.72-1.68,1.23-3.5,1.84-5.44,1.84-1.35,0-2.66-.38-3.92-1.12-1.44-.84-2.16-1.89-2.16-3.15s.85-2.43,2.56-3.6c1.56-1.08,3-1.62,4.32-1.62h4.46c.18-.18.27-.5.27-.95,0-2.01-.17-3.52-.49-4.54-.54-1.71-1.61-2.56-3.2-2.56-1.14,0-2.19.72-3.15,2.16-.87,1.32-1.31,2.58-1.31,3.78v.5c0,.24-.12.36-.36.36-.3,0-.63-.18-.99-.54-.36-.36-.54-.67-.54-.95,0-.84.25-1.9.76-3.17.51-1.28,1.06-2.24,1.67-2.9.75-.81,1.68-1.21,2.79-1.21,1.71,0,3.29.54,4.73,1.62,1.53,1.17,2.31,2.58,2.34,4.23l.14,14.58ZM211.13,147.22c0-1.2-.93-1.8-2.79-1.8-1.47,0-2.76.25-3.87.76-1.41.66-2.12,1.65-2.12,2.97,0,.81.38,1.44,1.12,1.89.63.39,1.38.58,2.25.58,1.29,0,2.51-.42,3.67-1.26,1.15-.84,1.73-1.89,1.73-3.15Z"/><path class="cls-6" d="M238.76,142.05c0,2.97-.44,5.46-1.31,7.47-1.17,2.79-3.01,4.18-5.53,4.18-1.65,0-3.09-.76-4.32-2.29-.21.09-.31,1.02-.31,2.79,0,3.9.19,6.66.58,8.28.03.15.17.51.43,1.08.25.57.38.92.38,1.04,0,.48-.3.72-.9.72-.72,0-1.22-.11-1.51-.32-.29-.21-.53-.9-.74-2.07-.18-.99-.27-1.77-.27-2.34v-11.43c0-1.05.05-2.46.16-4.23.11-2.07.17-3.48.2-4.23.03-.81.03-1.86,0-3.15v-3.2c0-2.07.54-3.11,1.62-3.11.54,0,.81.2.81.58,0,.75-.06,1.85-.18,3.29-.12,1.44-.18,2.52-.18,3.24h.18c.69-.93,1.38-1.87,2.07-2.83.81-1.05,1.81-1.58,3.01-1.58,2.01,0,3.52.9,4.55,2.7.84,1.44,1.26,3.24,1.26,5.4ZM236.51,142.23c0-1.59-.17-2.95-.5-4.09-.51-1.68-1.33-2.52-2.48-2.52-.84,0-1.86.74-3.06,2.21-1.05,1.29-1.79,2.61-2.21,3.96-.33,1.02-.6,2.52-.81,4.5-.12,1.44-.18,2.13-.18,2.07,0,.09.13.24.4.45.18.12.36.25.54.4.48.69.96,1.39,1.46,2.09.49.71,1.23,1.06,2.22,1.06,1.64,0,2.88-1.35,3.72-4.05.6-1.92.9-3.94.9-6.08Z"/><path class="cls-6" d="M253.97,154.38c0,.42-.33.63-.99.63-.72,0-1.16-.3-1.3-.9-.03-.09-.05-.67-.05-1.75,0-.3-.04-.54-.13-.72-1.68,1.23-3.5,1.84-5.44,1.84-1.35,0-2.66-.38-3.92-1.12-1.44-.84-2.16-1.89-2.16-3.15s.85-2.43,2.56-3.6c1.56-1.08,3-1.62,4.32-1.62h4.46c.18-.18.27-.5.27-.95,0-2.01-.17-3.52-.49-4.54-.54-1.71-1.61-2.56-3.2-2.56-1.14,0-2.19.72-3.15,2.16-.87,1.32-1.31,2.58-1.31,3.78v.5c0,.24-.12.36-.36.36-.3,0-.63-.18-.99-.54-.36-.36-.54-.67-.54-.95,0-.84.25-1.9.76-3.17.51-1.28,1.06-2.24,1.67-2.9.75-.81,1.68-1.21,2.79-1.21,1.71,0,3.29.54,4.73,1.62,1.53,1.17,2.31,2.58,2.34,4.23l.14,14.58ZM251.59,147.22c0-1.2-.93-1.8-2.79-1.8-1.47,0-2.76.25-3.87.76-1.41.66-2.12,1.65-2.12,2.97,0,.81.38,1.44,1.12,1.89.63.39,1.38.58,2.25.58,1.29,0,2.51-.42,3.67-1.26,1.15-.84,1.73-1.89,1.73-3.15Z"/><path class="cls-6" d="M267.16,137.05c0,.12-.02.38-.05.76-.39.6-.76.9-1.12.9-.24,0-.45-.15-.63-.45-.09-1.89-.87-2.83-2.34-2.83-.96,0-1.91,1.77-2.83,5.31-.36,1.29-.54,3.02-.54,5.18,0,2.76.07,4.45.23,5.08.03.09.1.28.22.56.12.29.18.5.18.65,0,.66-.45.99-1.35.99-1.02,0-1.53-.52-1.53-1.57,0-.15.04-.37.11-.65.07-.29.11-.5.11-.65,0-1.65-.08-4.12-.23-7.42-.15-3.3-.23-5.77-.23-7.42,0-.6.1-.97.31-1.1.21-.13.61-.2,1.21-.2.75,0,1.19.27,1.31.81.03.6.06,1.19.09,1.75.78-1.2,1.23-1.87,1.35-2.02.66-.75,1.35-1.12,2.07-1.12.54,0,1.08.17,1.62.49.3.18.71.65,1.24,1.4.52.75.79,1.28.79,1.58Z"/><path class="cls-6" d="M276.65,138.9c-.24.18-.81.33-1.71.45-.99.12-1.56.22-1.71.31-.03.33-.04,2-.04,5,0,2.34.03,3.92.09,4.73,0,.33.07.85.23,1.57.15.72.23,1.28.23,1.67,0,.24-.15.48-.45.72-.3.24-.57.36-.81.36-.6,0-1.08-.62-1.44-1.84-.24-.9-.36-1.75-.36-2.56v-9.36c-.18-.15-.85-.15-2.02,0-.94.12-1.4-.23-1.4-1.04,0-1.14,1.21-1.67,3.65-1.58l.58-8.14c0-.09-.04-.23-.11-.43-.08-.19-.11-.34-.11-.43,0-.18.12-.35.36-.52.24-.16.52-.23.85-.2,1.05.09,1.57.62,1.57,1.58,0,.75-.11,1.88-.31,3.38-.21,1.5-.31,2.61-.31,3.33,0,.36.03.71.09,1.04l2.48-.14c.84,0,1.26.33,1.26.99,0,.48-.2.86-.59,1.12Z"/><path class="cls-6" d="M292.13,135.43c-.25,1.32-.48,2.64-.7,3.96-.28,1.41-.42,2.73-.42,3.96v14.08c0,2.01-.61,3.61-1.82,4.79-1.21,1.18-2.84,1.78-4.88,1.78-1.11,0-2.36-.3-3.74-.9-1.59-.66-2.69-1.49-3.28-2.47-.15-.27-.23-.54-.23-.81,0-.87.42-1.3,1.26-1.3.18,0,.38.06.58.18.51.54,1.02,1.06,1.53,1.58,1.02.93,2.31,1.4,3.87,1.4,1.98,0,3.3-.69,3.96-2.07.39-.87.58-2.45.58-4.73,0-.3-.06-.9-.18-1.8-.12-.75-.15-1.41-.09-1.98-.84.78-1.44,1.28-1.8,1.48-.66.42-1.38.63-2.16.63-2.04,0-3.59-.79-4.64-2.38-.93-1.38-1.4-3.13-1.4-5.26,0-4.05.06-7.47.18-10.26.12-.96.64-1.44,1.57-1.44,1.14,0,1.65.2,1.53.58-.57,1.56-.85,5.06-.85,10.49,0,4.2,1.19,6.3,3.58,6.3,1.46,0,2.63-1.12,3.49-3.38.66-1.74.97-3.49.94-5.26v-5.13c.03-.51.07-1.15.11-1.93.04-.78.53-1.14,1.46-1.08,1.08.09,1.59.42,1.53.99Z"/><path class="cls-6" d="M318.32,125.31c0,.6-.45.9-1.35.9-.18,0-.31-.03-.41-.09-.12-1.29-.96-1.93-2.52-1.93-1.47,0-2.61,1.69-3.42,5.06-.54,2.38-.81,4.65-.81,6.82.21-.03.48-.03.81,0h1.22c1.11,0,1.67.33,1.67.99,0,.21-.03.51-.09.9-.49.27-1.24.41-2.28.41-.79,0-1.27.06-1.46.18-.09,1.17-.14,3.29-.14,6.35v3.24c0,1.44.18,2.9.53,4.37.06.15.1.29.1.41,0,.72-.51,1.08-1.53,1.08-.9,0-1.35-1.21-1.35-3.65,0-6.6.06-10.5.18-11.7.06,0-.71,0-2.29,0-.69,0-1.04-.33-1.04-.99,0-.87.6-1.31,1.8-1.31h1.62c.06-.6.12-1.36.18-2.29.45-7.98,2.68-11.97,6.71-11.97,2.58,0,3.87,1.08,3.87,3.24Z"/><path class="cls-6" d="M327.86,144.2c0,2.58-.57,4.83-1.71,6.75-1.35,2.31-3.23,3.47-5.62,3.47s-4.25-.95-5.45-2.83c-.99-1.56-1.48-3.63-1.48-6.21s.57-5.06,1.71-7.52c1.44-3.03,3.27-4.54,5.49-4.54.57,0,1.38.33,2.43.99,3.09,1.92,4.64,5.22,4.64,9.9ZM325.7,144.16c0-1.92-.26-3.64-.77-5.17-.75-2.13-1.91-3.19-3.46-3.19-1.8,0-3.21,1.18-4.23,3.55-.78,1.83-1.17,3.79-1.17,5.89,0,1.89.27,3.48.81,4.77.78,1.77,1.99,2.66,3.65,2.66,1.8,0,3.16-1.02,4.09-3.06.72-1.59,1.08-3.4,1.08-5.45Z"/><path class="cls-6" d="M340.1,137.05c0,.12-.02.38-.05.76-.39.6-.76.9-1.12.9-.24,0-.45-.15-.63-.45-.09-1.89-.87-2.83-2.34-2.83-.96,0-1.91,1.77-2.83,5.31-.36,1.29-.54,3.02-.54,5.18,0,2.76.07,4.45.23,5.08.03.09.1.28.22.56.12.29.18.5.18.65,0,.66-.45.99-1.35.99-1.02,0-1.53-.52-1.53-1.57,0-.15.04-.37.11-.65.07-.29.11-.5.11-.65,0-1.65-.08-4.12-.23-7.42-.15-3.3-.23-5.77-.23-7.42,0-.6.1-.97.31-1.1.21-.13.61-.2,1.21-.2.75,0,1.19.27,1.31.81.03.6.06,1.19.09,1.75.78-1.2,1.23-1.87,1.35-2.02.66-.75,1.35-1.12,2.07-1.12.54,0,1.08.17,1.62.49.3.18.71.65,1.24,1.4.52.75.79,1.28.79,1.58Z"/><path class="cls-6" d="M361.25,138.9c-.24.18-.81.33-1.71.45-.99.12-1.56.22-1.71.31-.03.33-.04,2-.04,5,0,2.34.03,3.92.09,4.73,0,.33.07.85.23,1.57.15.72.23,1.28.23,1.67,0,.24-.15.48-.45.72-.3.24-.57.36-.81.36-.6,0-1.08-.62-1.44-1.84-.24-.9-.36-1.75-.36-2.56v-9.36c-.18-.15-.85-.15-2.02,0-.94.12-1.4-.23-1.4-1.04,0-1.14,1.21-1.67,3.65-1.58l.58-8.14c0-.09-.04-.23-.11-.43-.08-.19-.11-.34-.11-.43,0-.18.12-.35.36-.52.24-.16.52-.23.85-.2,1.05.09,1.57.62,1.57,1.58,0,.75-.11,1.88-.31,3.38-.21,1.5-.31,2.61-.31,3.33,0,.36.03.71.09,1.04l2.48-.14c.84,0,1.26.33,1.26.99,0,.48-.2.86-.59,1.12Z"/><path class="cls-6" d="M375.52,154.28c-.24.24-.69.36-1.35.36-.33,0-.67-.21-1.03-.63v-6.17c0-7.62-1.27-11.43-3.8-11.43-1.07,0-1.97.63-2.68,1.89-.63,1.08-.94,2.19-.94,3.33,0,.12-.04.31-.11.56-.08.25-.11.44-.11.56v5.76c0,.51.07,1.25.22,2.21.15.96.23,1.68.23,2.16s-.36.72-1.08.72c-.51,0-.94-.24-1.28-.72-.35-.48-.52-.98-.52-1.49l.27-27.71c-.06-.18-.09-.36-.09-.54,0-.54.3-.81.9-.81.3,0,.74.2,1.33.61.59.41.88.75.88,1.02,0,.72-.14,1.76-.43,3.12-.29,1.35-.43,2.38-.43,3.07,0,.06.03,2.06.09,6,1.11-.99,1.96-1.48,2.56-1.48.96,0,2.11.29,3.46.85,2.61,1.08,3.92,3.93,3.92,8.55v10.21Z"/><path class="cls-6" d="M391.27,148.61c0,1.32-.89,2.51-2.66,3.56-1.59.96-3.09,1.44-4.5,1.44-4.02,0-6.03-2.55-6.03-7.65,0-2.25.4-4.67,1.21-7.25,1.08-3.36,2.46-5.04,4.14-5.04,1.44,0,3.02.73,4.73,2.18s2.56,2.9,2.56,4.34c0,1.86-.75,3.48-2.25,4.86-1.5,1.38-3.19,2.07-5.08,2.07-.18,0-.56-.15-1.15-.45s-.98-.45-1.19-.45c-.39,0-.59.12-.59.36,0,3.45,1.14,5.17,3.42,5.17,1.17,0,2.25-.39,3.24-1.17.6-.45,1.26-1.15,1.98-2.12.57-.75.95-1.12,1.12-1.12.69,0,1.04.42,1.04,1.26ZM388.16,140.34c0-1.05-.3-2.03-.9-2.95-.6-.91-1.4-1.37-2.39-1.37-1.2,0-2.18.75-2.92,2.25-.63,1.26-.95,2.56-.95,3.92,0,.87.28,1.6.83,2.18s1.27.88,2.14.88c1.23,0,2.25-.52,3.06-1.57.75-.96,1.12-2.07,1.12-3.33Z"/><path class="cls-6" d="M406.11,152.62c0,.78-.42,1.17-1.26,1.17-1.32,0-1.96-2.71-1.94-8.15l.14-20.21c0-.33-.04-.8-.14-1.42-.09-.62-.13-1.07-.13-1.37.57-.42,1.05-.63,1.44-.63.42,0,.84.15,1.26.45.42.3.63.66.63,1.08,0,.3-.08.69-.23,1.17-.18.6-.29.97-.31,1.12-.36,2.04-.54,4.89-.54,8.55,0,5.91-.02,8.76-.04,8.55.09,3.69.33,6.47.72,8.33,0,.09.07.29.2.61.14.32.2.56.2.74Z"/><path class="cls-6" d="M411.96,135.48c0,.54-.13,1.35-.38,2.43-.26,1.08-.38,1.89-.38,2.43v9.94c0,.66.15,1.56.45,2.7-.12.24-.29.36-.49.36-1.47,0-2.21-.71-2.21-2.12v-16.51c.39-.21.77-.32,1.12-.32s.73.11,1.12.32c.51.21.77.46.77.76ZM412.82,128.73c0,1.02-.48,1.53-1.44,1.53-.57,0-1.1-.21-1.57-.63-.48-.42-.72-.9-.72-1.44,0-1.02.51-1.53,1.53-1.53.6,0,1.12.2,1.55.58.43.39.65.89.65,1.49Z"/><path class="cls-6" d="M422.63,138.9c-.24.18-.81.33-1.71.45-.99.12-1.56.22-1.71.31-.03.33-.04,2-.04,5,0,2.34.03,3.92.09,4.73,0,.33.07.85.23,1.57.15.72.23,1.28.23,1.67,0,.24-.15.48-.45.72-.3.24-.57.36-.81.36-.6,0-1.08-.62-1.44-1.84-.24-.9-.36-1.75-.36-2.56v-9.36c-.18-.15-.85-.15-2.02,0-.94.12-1.4-.23-1.4-1.04,0-1.14,1.21-1.67,3.65-1.58l.58-8.14c0-.09-.04-.23-.11-.43-.08-.19-.11-.34-.11-.43,0-.18.12-.35.36-.52.24-.16.52-.23.85-.2,1.05.09,1.57.62,1.57,1.58,0,.75-.11,1.88-.31,3.38-.21,1.5-.31,2.61-.31,3.33,0,.36.03.71.09,1.04l2.48-.14c.84,0,1.26.33,1.26.99,0,.48-.2.86-.59,1.12Z"/><path class="cls-6" d="M431.81,138.9c-.24.18-.81.33-1.71.45-.99.12-1.56.22-1.71.31-.03.33-.04,2-.04,5,0,2.34.03,3.92.09,4.73,0,.33.07.85.23,1.57.15.72.23,1.28.23,1.67,0,.24-.15.48-.45.72-.3.24-.57.36-.81.36-.6,0-1.08-.62-1.44-1.84-.24-.9-.36-1.75-.36-2.56v-9.36c-.18-.15-.85-.15-2.02,0-.94.12-1.4-.23-1.4-1.04,0-1.14,1.21-1.67,3.65-1.58l.58-8.14c0-.09-.04-.23-.11-.43-.08-.19-.11-.34-.11-.43,0-.18.12-.35.36-.52.24-.16.52-.23.85-.2,1.05.09,1.57.62,1.57,1.58,0,.75-.11,1.88-.31,3.38-.21,1.5-.31,2.61-.31,3.33,0,.36.03.71.09,1.04l2.48-.14c.84,0,1.26.33,1.26.99,0,.48-.2.86-.59,1.12Z"/><path class="cls-6" d="M437.66,152.62c0,.78-.42,1.17-1.26,1.17-1.32,0-1.96-2.71-1.94-8.15l.14-20.21c0-.33-.04-.8-.14-1.42-.09-.62-.13-1.07-.13-1.37.57-.42,1.05-.63,1.44-.63.42,0,.84.15,1.26.45.42.3.63.66.63,1.08,0,.3-.08.69-.23,1.17-.18.6-.29.97-.31,1.12-.36,2.04-.54,4.89-.54,8.55,0,5.91-.02,8.76-.04,8.55.09,3.69.33,6.47.72,8.33,0,.09.07.29.2.61.14.32.2.56.2.74Z"/><path class="cls-6" d="M453.09,148.61c0,1.32-.89,2.51-2.66,3.56-1.59.96-3.09,1.44-4.5,1.44-4.02,0-6.03-2.55-6.03-7.65,0-2.25.4-4.67,1.21-7.25,1.08-3.36,2.46-5.04,4.14-5.04,1.44,0,3.02.73,4.73,2.18s2.56,2.9,2.56,4.34c0,1.86-.75,3.48-2.25,4.86-1.5,1.38-3.19,2.07-5.08,2.07-.18,0-.56-.15-1.15-.45s-.98-.45-1.19-.45c-.39,0-.59.12-.59.36,0,3.45,1.14,5.17,3.42,5.17,1.17,0,2.25-.39,3.24-1.17.6-.45,1.26-1.15,1.98-2.12.57-.75.95-1.12,1.12-1.12.69,0,1.04.42,1.04,1.26ZM449.99,140.34c0-1.05-.3-2.03-.9-2.95-.6-.91-1.4-1.37-2.39-1.37-1.2,0-2.18.75-2.92,2.25-.63,1.26-.95,2.56-.95,3.92,0,.87.28,1.6.83,2.18s1.27.88,2.14.88c1.23,0,2.25-.52,3.06-1.57.75-.96,1.12-2.07,1.12-3.33Z"/><path class="cls-6" d="M479.15,125.31c0,.6-.45.9-1.35.9-.18,0-.31-.03-.41-.09-.12-1.29-.96-1.93-2.52-1.93-1.47,0-2.61,1.69-3.42,5.06-.54,2.38-.81,4.65-.81,6.82.21-.03.48-.03.81,0h1.22c1.11,0,1.67.33,1.67.99,0,.21-.03.51-.09.9-.49.27-1.24.41-2.28.41-.79,0-1.27.06-1.46.18-.09,1.17-.14,3.29-.14,6.35v3.24c0,1.44.18,2.9.53,4.37.06.15.1.29.1.41,0,.72-.51,1.08-1.53,1.08-.9,0-1.35-1.21-1.35-3.65,0-6.6.06-10.5.18-11.7.06,0-.71,0-2.29,0-.69,0-1.04-.33-1.04-.99,0-.87.6-1.31,1.8-1.31h1.62c.06-.6.12-1.36.18-2.29.45-7.98,2.68-11.97,6.71-11.97,2.58,0,3.87,1.08,3.87,3.24Z"/><path class="cls-6" d="M488.37,154.38c0,.42-.33.63-.99.63-.72,0-1.16-.3-1.3-.9-.03-.09-.05-.67-.05-1.75,0-.3-.04-.54-.13-.72-1.68,1.23-3.5,1.84-5.44,1.84-1.35,0-2.66-.38-3.92-1.12-1.44-.84-2.16-1.89-2.16-3.15s.85-2.43,2.56-3.6c1.56-1.08,3-1.62,4.32-1.62h4.46c.18-.18.27-.5.27-.95,0-2.01-.17-3.52-.49-4.54-.54-1.71-1.61-2.56-3.2-2.56-1.14,0-2.19.72-3.15,2.16-.87,1.32-1.31,2.58-1.31,3.78v.5c0,.24-.12.36-.36.36-.3,0-.63-.18-.99-.54-.36-.36-.54-.67-.54-.95,0-.84.25-1.9.76-3.17.51-1.28,1.06-2.24,1.67-2.9.75-.81,1.68-1.21,2.79-1.21,1.71,0,3.29.54,4.73,1.62,1.53,1.17,2.31,2.58,2.34,4.23l.14,14.58ZM485.99,147.22c0-1.2-.93-1.8-2.79-1.8-1.47,0-2.76.25-3.87.76-1.41.66-2.12,1.65-2.12,2.97,0,.81.38,1.44,1.12,1.89.63.39,1.38.58,2.25.58,1.29,0,2.51-.42,3.67-1.26,1.15-.84,1.73-1.89,1.73-3.15Z"/><path class="cls-6" d="M495.12,135.48c0,.54-.13,1.35-.38,2.43-.26,1.08-.38,1.89-.38,2.43v9.94c0,.66.15,1.56.45,2.7-.12.24-.29.36-.49.36-1.47,0-2.21-.71-2.21-2.12v-16.51c.39-.21.77-.32,1.12-.32s.73.11,1.12.32c.51.21.77.46.77.76ZM495.98,128.73c0,1.02-.48,1.53-1.44,1.53-.57,0-1.1-.21-1.57-.63-.48-.42-.72-.9-.72-1.44,0-1.02.51-1.53,1.53-1.53.6,0,1.12.2,1.55.58.43.39.65.89.65,1.49Z"/><path class="cls-6" d="M508.22,137.05c0,.12-.02.38-.05.76-.39.6-.76.9-1.12.9-.24,0-.45-.15-.63-.45-.09-1.89-.87-2.83-2.34-2.83-.96,0-1.91,1.77-2.83,5.31-.36,1.29-.54,3.02-.54,5.18,0,2.76.07,4.45.23,5.08.03.09.1.28.22.56.12.29.18.5.18.65,0,.66-.45.99-1.35.99-1.02,0-1.53-.52-1.53-1.57,0-.15.04-.37.11-.65.07-.29.11-.5.11-.65,0-1.65-.08-4.12-.23-7.42-.15-3.3-.23-5.77-.23-7.42,0-.6.1-.97.31-1.1.21-.13.61-.2,1.21-.2.75,0,1.19.27,1.31.81.03.6.06,1.19.09,1.75.78-1.2,1.23-1.87,1.35-2.02.66-.75,1.35-1.12,2.07-1.12.54,0,1.08.17,1.62.49.3.18.71.65,1.24,1.4.52.75.79,1.28.79,1.58Z"/><path class="cls-6" d="M524.19,135.43c-.25,1.32-.48,2.64-.7,3.96-.28,1.41-.42,2.73-.42,3.96v14.08c0,2.01-.61,3.61-1.82,4.79-1.21,1.18-2.84,1.78-4.88,1.78-1.11,0-2.36-.3-3.74-.9-1.59-.66-2.69-1.49-3.28-2.47-.15-.27-.23-.54-.23-.81,0-.87.42-1.3,1.26-1.3.18,0,.38.06.58.18.51.54,1.02,1.06,1.53,1.58,1.02.93,2.31,1.4,3.87,1.4,1.98,0,3.3-.69,3.96-2.07.39-.87.58-2.45.58-4.73,0-.3-.06-.9-.18-1.8-.12-.75-.15-1.41-.09-1.98-.84.78-1.44,1.28-1.8,1.48-.66.42-1.38.63-2.16.63-2.04,0-3.59-.79-4.64-2.38-.93-1.38-1.4-3.13-1.4-5.26,0-4.05.06-7.47.18-10.26.12-.96.64-1.44,1.57-1.44,1.14,0,1.65.2,1.53.58-.57,1.56-.85,5.06-.85,10.49,0,4.2,1.19,6.3,3.58,6.3,1.46,0,2.63-1.12,3.49-3.38.66-1.74.97-3.49.94-5.26v-5.13c.03-.51.07-1.15.11-1.93.04-.78.53-1.14,1.46-1.08,1.08.09,1.59.42,1.53.99Z"/><path class="cls-6" d="M539.09,150.45c0,1.05-.8,1.94-2.38,2.66-1.32.57-2.6.86-3.83.86-.81,0-1.74-.2-2.79-.59-.57-.24-1.48-.88-2.75-1.9-1.38-1.12-2.07-1.89-2.07-2.31,0-.94.55-1.36,1.67-1.27h.27c.06.91,1.02,1.89,2.88,2.96,1.68.97,3.03,1.46,4.05,1.46,1.32,0,1.98-.45,1.98-1.35,0-.54-.81-1.29-2.43-2.25-2.22-1.29-3.73-2.33-4.54-3.11-1.65-1.59-2.48-3.43-2.48-5.5,0-1.56.4-3.05,1.21-4.47.93-1.68,2.1-2.53,3.51-2.53,1.02,0,2.25.47,3.69,1.42,1.44.95,2.28,1.9,2.52,2.86.24.81.36,1.75.36,2.83,0,1.17-.21,2.45-.63,3.83-.27.21-.58.32-.94.32-.21,0-.54-.08-.99-.25-.45-.16-.67-.34-.67-.52,0,.12.16-.21.49-.99.24-.51.36-1.44.36-2.79,0-3.21-1.01-4.82-3.02-4.82-1.05,0-1.89.71-2.52,2.12-.54,1.14-.81,2.3-.81,3.47,0,1.47.85,2.9,2.56,4.28.57.48,2.14,1.52,4.73,3.11,1.71,1.05,2.56,1.88,2.56,2.48Z"/><path class="cls-14" d="M346.36,510.12c.35,4.22,1.32,9.45,4.64,10.84,1.75.73,3.74.23,4.64,0,.86-.22,4.78-1.33,6.19-4.64,1.41-3.32-.46-7.09-1.55-9.29-1.69-3.42-3.37-4.15-3.1-6.19.25-1.83,1.69-1.83,3.1-4.64,1.15-2.29.7-3.31,1.55-6.19.8-2.71,1.97-4.84,2.32-6.97,1.55-9.29-.07-31.74-1.55-37.15-.31-1.13.56-2.06-2.32-5.42-6.2-7.22-13.17-19.34-14.71-19.35-9.23-.04-.52,73.63.77,89Z"/><path class="cls-14" d="M320.04,445.11c2.86,2.96,14.7,25.12,17.03,32.51,1.4,4.46,3.24,10.31,1.55,17.03-1.06,4.18-3.08,7.11-1.55,9.29,1.14,1.63,2.95.94,6.19,3.1,2.23,1.48,1.9,2.15,4.64,4.64,2.59,2.36,6.16,5.61,9.29,4.64,1.36-.42,2.63-1.64,3.1-3.1.71-2.23-.83-3.92-4.64-10.84-1.8-3.26-2.71-4.92-3.1-6.19-1.19-3.89-.47-6.63,0-10.84,1.05-9.3-.99-8.9,0-18.57.59-5.82-6.32-23.84-6.19-29.41.14-5.76.23-9.7-1.55-10.84-2.2-1.41-7.97,1.05-23.22,17.03"/><path class="cls-10" d="M361.84,375.46c-5.17,2.54-4.75,12.82-4.64,15.48.45,11.06,11.46,18.09,18.57,27.86,12.38,17.03,41.1,13.35,43.34,7.74,3.1-7.74-20.12-38.7-30.96-40.25-10.28-1.47-19.81-14.03-26.31-10.84Z"/><path class="cls-10" d="M323.89,382.7c4.84,3.13,3.22,13.29,2.8,15.92-1.74,10.93-13.5,16.62-21.71,25.5-14.29,15.46-42.38,8.45-43.95,2.61-2.17-8.05,24.52-36.08,35.46-36.34,10.38-.25,21.31-11.62,27.4-7.68Z"/><path class="cls-5" d="M316.95,377c2.87-5.7,7.1-9.65,10.84-9.29,1.16.11,3.02.71,4.64,1.55,2.15,1.11,4.43,2.93,4.63,3.08.02.02,0,0,.01.01,1.68,1.35,3.86,2.81,4.64,3.1,2.82,1.01,5.66-6.81,10.84-7.74,4.66-.84,10.23,4.08,12.38,9.29,0,0,.91,2.93-3.1,17.03h-40.25l-4.64-17.03Z"/><path class="cls-10" d="M405.18,311.99c3.01-7.98,7.74-10.84,13.93-17.03,23.23-23.23,58.82,1.55,61.92,4.64,11.79,11.79-32.35,64.39-49.53,75.85-4.64,3.1-34.96,14.95-47.13,11.54-3.68-1.03-3.31-3.37-12.59-12.37-9.72-9.42-14.5-11.1-13.95-14.08.78-4.22,10.56-1.86,21.24-8.45,13.32-8.23,21.63-28.16,26.13-40.11Z"/><path class="cls-10" d="M284.57,309.12c-2.2-8.24-6.63-11.55-12.18-18.32-20.82-25.41-58.69-4.28-62.07-1.5-12.9,10.56,25.82,67.28,41.79,80.37,4.31,3.54,33.31,18.33,45.76,16.14,3.76-.66,3.63-3.03,13.75-11.06,10.6-8.41,15.53-9.61,15.28-12.63-.36-4.28-10.33-2.89-20.3-10.51-12.44-9.51-18.74-30.16-22.03-42.49Z"/><path class="cls-2" d="M315.26,364.2l-21.07,18.59c-.31.27-.64.5-1.01.68l-9.23,4.62c-1.59.8-2.6,2.43-2.6,4.21h0c0,3.29,3.29,5.56,6.37,4.4l26.14-11.95c1.83-.69,4.64-1.01,4.64-2.96v-5.77c0-1.96,1.22-3.71,3.05-4.4l4.46-1.67c1.14-.43,2.4-.4,3.52.09l10.2,4.41c1.71.74,3.69.4,5.05-.86l3.79-3.49c.58-.53,1.28-.91,2.05-1.1l2.67-.67c1.48-.37,3.05,0,4.2.99l9.08,7.79,8.92,7.43c.19.15.38.29.59.42l14.47,8.68c.46.28.97.47,1.5.58l1.31.26c2.91.58,5.63-1.64,5.63-4.61v-2.16c0-1.45-.66-2.81-1.8-3.7l-30.08-23.58c-.36-.28-.75-.51-1.17-.67l-6.18-2.44c-.67-.26-1.39-.37-2.1-.31l-31.25,2.5c-4.13.33-8.04,1.99-11.14,4.73Z"/><path class="cls-5" d="M305.48,440.78l10.74-3.33c.15-.05.3-.11.44-.2l12.46-7.49c.14-.08.27-.19.39-.3l13.74-13.74c.84-.84,2.22-.78,2.98.14l6.16,7.39c.11.13.24.25.38.35l10.62,7.59,9.23,6.12c.07.04.14.09.21.12l8.86,4.45c.19.09.38.16.59.19h0c3.68.59,6.88-2.57,6.33-6.26l-.33-2.21c-.08-.57-.26-1.13-.52-1.64l-2.56-5.12c-.1-.19-.22-.37-.38-.52l-8.91-8.91c-.09-.09-.18-.2-.25-.31l-5.99-8.98c-.06-.1-.12-.2-.17-.3l-5.59-12.58c-.32-.73-1.05-1.2-1.85-1.2h-37.81c-.7,0-1.35.36-1.72.96l-11.76,19.1s-.05.08-.08.12l-7.51,10.51c-.13.18-.23.38-.29.59l-3,9.95c-1.03,3.4,2.17,6.57,5.56,5.51Z"/><path class="cls-12" d="M341.71,414.15c-1.31.48-1.41,3.05-1.55,6.19-.32,7.5,2.52,18.69,9.29,20.12,1.66.35,4.74.36,6.19-1.55,4.48-5.92-9.78-26.28-13.93-24.77Z"/><path class="cls-9" d="M340.17,414.15c-1.37-.7-3.97,8.52-13.93,13.93-4.93,2.68-8.1,2.49-10.84,6.19-2.64,3.56-3.64,9.07-1.55,10.84,2.65,2.23,9.46-2.2,10.84-3.1,3.61-2.35,5.94-5.17,7.74-7.74,6.1-8.74,9.22-19.37,7.74-20.12Z"/><path class="cls-9" d="M344.81,418.8c-1.51,1.43,3.68,8.63,10.84,18.57,4.82,6.7,7.51,9.21,10.84,9.29,2.24.05,5.37-1,6.19-3.1,2.96-7.58-24.91-27.57-27.86-24.77Z"/><path class="cls-12" d="M341.71,414.15c-1.01-.23-1.51,5.16-6.19,12.38-4.08,6.29-7.37,8.63-7.74,13.93-.18,2.55.31,5.92,1.55,6.19.97.21,2.13-1.56,3.1-3.1,5.49-8.74,8.24-13.11,9.29-18.57.92-4.78,1.05-10.6,0-10.84Z"/><rect class="cls-2" x="285.67" y="258.22" width="117.64" height="103.71" rx="41.91" ry="41.91"/><path class="cls-1" d="M282.57,242.74c-.56.31-1.6.86-2.64,1.95-1.67,1.76-2.46,4.06-3.55,7.33-.94,2.82-2,5.34-3.1,10.84-.41,2.06-1.21,6.12-1.55,10.84-.82,11.32,1.11,24.72,3.1,24.77,2.45.05,4.2-20.27,6.19-20.12,1.07.08.62,5.97,3.1,13.93,2.43,7.79,7.19,16.04,9.29,15.48,3.75-1.01-2.46-29.88,1.55-30.96,1.49-.4,3.01,3.39,7.74,9.29,6.34,7.9,16.73,17.44,20.12,15.48,3.9-2.26-3-18.8,0-20.12,1.61-.71,4.09,3.82,10.84,9.29,1.35,1.09,13.04,10.57,17.03,7.74,3.25-2.31-.82-11.23,1.55-12.38,2.2-1.07,6.03,6.5,15.48,12.38,3.76,2.34,11.89,7.4,17.03,4.64,7-3.75,5.02-20.14,6.19-20.12.82.01,1.23,8.08,4.64,18.57,1.76,5.43,2.91,7.12,4.64,7.74,3.33,1.18,7.51-2.07,10.84-4.64,3.54-2.75,5.71-5.53,6.19-6.19,5-6.83,7.86-30.35-3.1-49.53-21.23-37.18-78.18-32.5-97.52-24.77-6.39,2.55-8.23,4.46-8.65,6.08-.46,1.77.49,3.88,0,4.08-.44.17-.99-1.55-2.18-2.42-3.87-2.81-12.47,4.85-23.22,10.84Z"/><path class="cls-3" d="M391.93,220.07c1.24-1.24,3.15-1.52,4.7-.69l14.9,8.02c1.58.85,2.47,2.58,2.25,4.35l-.58,4.67c-.26,2.08-2.7,3.08-4.34,1.76l-16.65-13.32c-1.5-1.2-1.63-3.44-.27-4.8Z"/><path class="cls-1" d="M398.66,216.43c-.89-4.56,1.34-8.33,4.64-13.93,1.51-2.56,5.42-8.68,13.93-15.48,8.01-6.41,12.22-9.77,18.57-10.84,11.15-1.87,25.08,3.97,30.96,15.48,7.06,13.82.04,30.97-3.1,30.96-3.54-.01-6.35-21.91-7.74-21.67-1,.17,2.14,11.16-3.1,21.67-2.81,5.64-7.51,10.12-9.29,9.29-2.19-1.02,1.92-9.28-1.55-20.12-1.19-3.71-2.33-7.27-4.64-7.74-6.45-1.31-11.09,23.53-23.22,24.77-4.91.5-9.64-3.38-9.99-3.66-.93-.76-4.54-3.82-5.49-8.72Z"/><path class="cls-3" d="M298.84,230.77c-1.3-1.18-3.22-1.38-4.73-.47l-14.51,8.71c-1.53.92-2.35,2.69-2.04,4.45l.8,4.64c.36,2.07,2.84,2.95,4.42,1.56l16.02-14.08c1.45-1.27,1.47-3.51.04-4.81Z"/><path class="cls-1" d="M291.94,227.44c.67-4.59-1.73-8.26-5.28-13.7-1.63-2.49-5.82-8.41-14.63-14.82-8.3-6.03-12.66-9.19-19.06-9.96-11.23-1.35-24.87,5.13-30.21,16.9-6.41,14.13,1.4,30.94,4.53,30.78,3.53-.18,5.32-22.18,6.73-22.01,1.01.13-1.62,11.25,4.1,21.5,3.07,5.5,7.98,9.76,9.71,8.85,2.14-1.12-2.35-9.18.61-20.17,1.02-3.76,1.99-7.37,4.28-7.95,6.38-1.61,12.17,22.99,24.34,23.66,4.93.27,9.48-3.82,9.81-4.12.9-.8,4.35-4.03,5.08-8.97Z"/><path class="cls-13" d="M305.79,231.91c-.93-4.37,7.11-9.46,9.29-10.84,20.87-13.2,57.27-10.84,82.04,7.74,5.74,4.31,12.02,7.88,17.03,15.48,11.92,18.09,10.75,45.32,1.55,49.53-1.92.88-4.76,1.43-6.19,0-3.1-3.1,1.55-6.19-1.55-21.67-.58-2.88.08-8.92-9.29-17.03-13.31-11.52-12.21-10.92-17.03-13.93-10.24-6.4-32.73-3.18-40.25-3.1-9.19.1-13.56,1.95-23.22,0-4.14-.84-11.56-2.33-12.38-6.19Z"/><path class="cls-2" d="M285.67,303.11c-2.84-1.28-7.44.06-9.29,3.1-1.64,2.69-.61,5.86,0,7.74,1.95,6.02,7.79,12.01,10.84,10.84,4.37-1.69,4.83-18.78-1.55-21.67Z"/><path class="cls-2" d="M397.12,309.3c.46-.5,7.74-8.19,12.38-6.19,4.85,2.08,5.83,14.27,0,20.12-2.1,2.1-6.12,4.44-9.29,3.1-3.9-1.66-6.06-8.72-3.1-17.03Z"/><ellipse class="cls-6" cx="322.63" cy="322.38" rx="3.87" ry="7.74"/><ellipse class="cls-6" cx="359.78" cy="322.38" rx="3.87" ry="7.74"/><path class="cls-6" d="M334.1,347.75c-.36.17-.8-.04-.86-.44-.14-1.04.39-2.78,1.44-4.06,2.67-3.22,8.6-3.35,12.34-1.06,2.31,1.42,3.88,3.83,3.48,4.36-.32.43-5-.84-8.12-2.3-.26-.12-.55-.12-.82,0l-7.47,3.51Z"/><path class="cls-4" d="M373.63,308.82c.4,0,.7.4.57.78-.34.99-1.59,2.32-3.1,2.98-3.83,1.69-9.2-.84-11.51-4.56-1.44-2.3-1.76-5.16-1.17-5.46.48-.24,4.1,2.98,6.23,5.69.18.23.44.36.73.37l8.25.2Z"/><path class="cls-4" d="M322.87,302.4c.23-.33.72-.37.96-.05.65.83,1.07,2.6.8,4.23-.67,4.13-5.73,7.24-10.11,7.15-2.71-.06-5.29-1.35-5.21-2,.06-.53,4.74-1.81,8.17-2.11.29-.03.54-.17.71-.41l4.68-6.8Z"/><path class="cls-11" d="M323.41,337.64c0,2.56-1.19,3.32-2.65,3.32s-2.65-.75-2.65-3.32,2.65-5.97,2.65-5.97c0,0,2.65,3.41,2.65,5.97Z"/><path class="cls-11" d="M323.41,346.96c0,1.5-.69,1.93-1.55,1.93s-1.55-.44-1.55-1.93,1.55-3.48,1.55-3.48c0,0,1.55,1.99,1.55,3.48Z"/><path class="cls-11" d="M365.08,335.9c0,2.56-1.19,3.32-2.65,3.32s-2.65-.75-2.65-3.32,2.65-5.97,2.65-5.97c0,0,2.65,3.41,2.65,5.97Z"/><path class="cls-11" d="M362.43,346.19c0,1.5-.69,1.93-1.55,1.93s-1.55-.44-1.55-1.93,1.55-3.48,1.55-3.48c0,0,1.55,1.99,1.55,3.48Z"/><path class="cls-6" d="M265.33,68.24c0,7.2-1.78,13.3-5.33,18.3-3.95,5.65-9.38,8.47-16.27,8.47-1.95,0-4.05-.38-6.3-1.12-5-1.6-8.58-4.37-10.73-8.32-1.85-3.4-2.77-7.95-2.77-13.65,0-7.4,1.77-13.92,5.32-19.58,4.1-6.65,9.65-9.97,16.65-9.97,6.15,0,11.05,2.88,14.7,8.62,3.15,4.95,4.73,10.7,4.73,17.25ZM258.13,67.57c0-10.4-3.35-16.62-10.05-18.68-.7-.2-1.5-.3-2.4-.3-2.8,0-5.6,1.25-8.4,3.75-4.45,4.05-6.67,11.28-6.67,21.67,0,.95.2,2.28.6,3.98.85,3.85,2.12,6.63,3.82,8.33,1.95,2,4.8,3,8.55,3,5.1,0,8.95-2.48,11.55-7.43,2-3.9,3-8.67,3-14.32Z"/><path class="cls-6" d="M312.73,47.39c0,.45-.35.95-1.05,1.5-.7.55-1.1.95-1.2,1.2-1.3,2.45-1.9,7.28-1.8,14.48l.08,2.92c.15-.05.32-.08.52-.08.75,0,1.46.43,2.14,1.28.67.85,1.01,1.68,1.01,2.47,0,.6-.48,1.03-1.42,1.28-.75.15-1.5.3-2.25.45.05,2.35.1,4.73.15,7.12.1,3.05.42,5.33.98,6.83.4,1.25.6,2.08.6,2.48,0,1-.38,1.91-1.12,2.74s-1.63,1.24-2.62,1.24c-1.9,0-3.15-1-3.75-3-.1-.4-.33-2.15-.68-5.25-.1-1.1-.15-2.42-.15-3.97v-3.08c-.05-2.05-.18-3.72-.38-5.03-2.9.1-6.35.53-10.35,1.28-3.45.65-6.88,1.3-10.27,1.95.2.65.3,3.35.3,8.1,0,3.8.57,6.3,1.73,7.5.15.25.23.5.23.75,0,1.3-1,1.95-3,1.95-1.85,0-3.3-.58-4.35-1.73-.65-.7-1.27-5.9-1.88-15.6-.95-.2-1.7-.77-2.25-1.72-.55-.95-.82-1.95-.82-3,0-.6.32-1.01.97-1.24.65-.22,1.28-.44,1.88-.64.05-.65.15-1.83.3-3.53.15-1.45.23-2.6.23-3.45,0-8.8.47-14.4,1.42-16.8.8-1.95,2.17-2.92,4.12-2.92,1.2,0,2.33.39,3.38,1.16,1.05.78,1.58,1.74,1.58,2.89,0,.6-.2,1.35-.6,2.25-.55,1.2-.85,1.9-.9,2.1-1.35,4.2-2.03,9.2-2.03,15v1.73c.45-.05,1.62-.25,3.53-.6,5.9-1.2,11.45-1.8,16.65-1.8.15-7.35.35-12.1.6-14.25.85-7.2,2.57-10.8,5.17-10.8,1.55,0,2.82.59,3.83,1.76,1,1.17,1.5,2.54,1.5,4.09Z"/><path class="cls-6" d="M360.13,47.39c0,.45-.35.95-1.05,1.5-.7.55-1.1.95-1.2,1.2-1.3,2.45-1.9,7.28-1.8,14.48l.08,2.92c.15-.05.32-.08.52-.08.75,0,1.46.43,2.14,1.28.67.85,1.01,1.68,1.01,2.47,0,.6-.48,1.03-1.42,1.28-.75.15-1.5.3-2.25.45.05,2.35.1,4.73.15,7.12.1,3.05.42,5.33.98,6.83.4,1.25.6,2.08.6,2.48,0,1-.38,1.91-1.12,2.74s-1.63,1.24-2.62,1.24c-1.9,0-3.15-1-3.75-3-.1-.4-.33-2.15-.68-5.25-.1-1.1-.15-2.42-.15-3.97v-3.08c-.05-2.05-.18-3.72-.38-5.03-2.9.1-6.35.53-10.35,1.28-3.45.65-6.88,1.3-10.27,1.95.2.65.3,3.35.3,8.1,0,3.8.57,6.3,1.73,7.5.15.25.23.5.23.75,0,1.3-1,1.95-3,1.95-1.85,0-3.3-.58-4.35-1.73-.65-.7-1.27-5.9-1.88-15.6-.95-.2-1.7-.77-2.25-1.72-.55-.95-.82-1.95-.82-3,0-.6.32-1.01.97-1.24.65-.22,1.28-.44,1.88-.64.05-.65.15-1.83.3-3.53.15-1.45.23-2.6.23-3.45,0-8.8.47-14.4,1.42-16.8.8-1.95,2.17-2.92,4.12-2.92,1.2,0,2.33.39,3.38,1.16,1.05.78,1.58,1.74,1.58,2.89,0,.6-.2,1.35-.6,2.25-.55,1.2-.85,1.9-.9,2.1-1.35,4.2-2.03,9.2-2.03,15v1.73c.45-.05,1.62-.25,3.53-.6,5.9-1.2,11.45-1.8,16.65-1.8.15-7.35.35-12.1.6-14.25.85-7.2,2.57-10.8,5.17-10.8,1.55,0,2.82.59,3.83,1.76,1,1.17,1.5,2.54,1.5,4.09Z"/><path class="cls-6" d="M407.53,47.39c0,.45-.35.95-1.05,1.5-.7.55-1.1.95-1.2,1.2-1.3,2.45-1.9,7.28-1.8,14.48l.08,2.92c.15-.05.32-.08.52-.08.75,0,1.46.43,2.14,1.28.67.85,1.01,1.68,1.01,2.47,0,.6-.48,1.03-1.42,1.28-.75.15-1.5.3-2.25.45.05,2.35.1,4.73.15,7.12.1,3.05.42,5.33.98,6.83.4,1.25.6,2.08.6,2.48,0,1-.38,1.91-1.12,2.74s-1.63,1.24-2.62,1.24c-1.9,0-3.15-1-3.75-3-.1-.4-.33-2.15-.68-5.25-.1-1.1-.15-2.42-.15-3.97v-3.08c-.05-2.05-.18-3.72-.38-5.03-2.9.1-6.35.53-10.35,1.28-3.45.65-6.88,1.3-10.27,1.95.2.65.3,3.35.3,8.1,0,3.8.57,6.3,1.73,7.5.15.25.23.5.23.75,0,1.3-1,1.95-3,1.95-1.85,0-3.3-.58-4.35-1.73-.65-.7-1.27-5.9-1.88-15.6-.95-.2-1.7-.77-2.25-1.72-.55-.95-.82-1.95-.82-3,0-.6.32-1.01.97-1.24.65-.22,1.28-.44,1.88-.64.05-.65.15-1.83.3-3.53.15-1.45.23-2.6.23-3.45,0-8.8.47-14.4,1.42-16.8.8-1.95,2.17-2.92,4.12-2.92,1.2,0,2.33.39,3.38,1.16,1.05.78,1.58,1.74,1.58,2.89,0,.6-.2,1.35-.6,2.25-.55,1.2-.85,1.9-.9,2.1-1.35,4.2-2.03,9.2-2.03,15v1.73c.45-.05,1.62-.25,3.53-.6,5.9-1.2,11.45-1.8,16.65-1.8.15-7.35.35-12.1.6-14.25.85-7.2,2.57-10.8,5.17-10.8,1.55,0,2.82.59,3.83,1.76,1,1.17,1.5,2.54,1.5,4.09Z"/><path class="cls-6" d="M454.93,47.39c0,.45-.35.95-1.05,1.5-.7.55-1.1.95-1.2,1.2-1.3,2.45-1.9,7.28-1.8,14.48l.08,2.92c.15-.05.32-.08.52-.08.75,0,1.46.43,2.14,1.28.67.85,1.01,1.68,1.01,2.47,0,.6-.48,1.03-1.42,1.28-.75.15-1.5.3-2.25.45.05,2.35.1,4.73.15,7.12.1,3.05.42,5.33.98,6.83.4,1.25.6,2.08.6,2.48,0,1-.38,1.91-1.12,2.74s-1.63,1.24-2.62,1.24c-1.9,0-3.15-1-3.75-3-.1-.4-.33-2.15-.68-5.25-.1-1.1-.15-2.42-.15-3.97v-3.08c-.05-2.05-.18-3.72-.38-5.03-2.9.1-6.35.53-10.35,1.28-3.45.65-6.88,1.3-10.27,1.95.2.65.3,3.35.3,8.1,0,3.8.57,6.3,1.73,7.5.15.25.23.5.23.75,0,1.3-1,1.95-3,1.95-1.85,0-3.3-.58-4.35-1.73-.65-.7-1.27-5.9-1.88-15.6-.95-.2-1.7-.77-2.25-1.72-.55-.95-.82-1.95-.82-3,0-.6.32-1.01.97-1.24.65-.22,1.28-.44,1.88-.64.05-.65.15-1.83.3-3.53.15-1.45.23-2.6.23-3.45,0-8.8.47-14.4,1.42-16.8.8-1.95,2.17-2.92,4.12-2.92,1.2,0,2.33.39,3.38,1.16,1.05.78,1.58,1.74,1.58,2.89,0,.6-.2,1.35-.6,2.25-.55,1.2-.85,1.9-.9,2.1-1.35,4.2-2.03,9.2-2.03,15v1.73c.45-.05,1.62-.25,3.53-.6,5.9-1.2,11.45-1.8,16.65-1.8.15-7.35.35-12.1.6-14.25.85-7.2,2.57-10.8,5.17-10.8,1.55,0,2.82.59,3.83,1.76,1,1.17,1.5,2.54,1.5,4.09Z"/><path class="cls-6" d="M471.5,90.59c0,.85-.75,1.69-2.25,2.51s-2.75,1.24-3.75,1.24c-1.1,0-2.28-.42-3.52-1.27-1.25-.85-1.88-1.85-1.88-3,0-1,.51-1.89,1.54-2.66,1.02-.77,2.09-1.16,3.19-1.16,1.35,0,2.75.4,4.2,1.2,1.65.95,2.48,2,2.48,3.15Z"/><path class="cls-6" d="M485.83,90.59c0,.85-.75,1.69-2.25,2.51s-2.75,1.24-3.75,1.24c-1.1,0-2.28-.42-3.52-1.27-1.25-.85-1.88-1.85-1.88-3,0-1,.51-1.89,1.54-2.66,1.02-.77,2.09-1.16,3.19-1.16,1.35,0,2.75.4,4.2,1.2,1.65.95,2.48,2,2.48,3.15Z"/><path class="cls-6" d="M500.15,90.59c0,.85-.75,1.69-2.25,2.51s-2.75,1.24-3.75,1.24c-1.1,0-2.28-.42-3.52-1.27-1.25-.85-1.88-1.85-1.88-3,0-1,.51-1.89,1.54-2.66,1.02-.77,2.09-1.16,3.19-1.16,1.35,0,2.75.4,4.2,1.2,1.65.95,2.48,2,2.48,3.15Z"/><path class="cls-6" d="M514.48,90.59c0,.85-.75,1.69-2.25,2.51s-2.75,1.24-3.75,1.24c-1.1,0-2.28-.42-3.52-1.27-1.25-.85-1.88-1.85-1.88-3,0-1,.51-1.89,1.54-2.66,1.02-.77,2.09-1.16,3.19-1.16,1.35,0,2.75.4,4.2,1.2,1.65.95,2.48,2,2.48,3.15Z"/><path class="cls-6" d="M528.8,90.59c0,.85-.75,1.69-2.25,2.51s-2.75,1.24-3.75,1.24c-1.1,0-2.28-.42-3.52-1.27-1.25-.85-1.88-1.85-1.88-3,0-1,.51-1.89,1.54-2.66,1.02-.77,2.09-1.16,3.19-1.16,1.35,0,2.75.4,4.2,1.2,1.65.95,2.48,2,2.48,3.15Z"/></svg>