<?xml version="1.0" encoding="UTF-8"?><svg id="Layer_1" xmlns="http://www.w3.org/2000/svg" width="148.02" height="48.66" viewBox="0 0 148.02 48.66"><defs><style>.cls-1{fill:#fff;stroke:#f3abe5;stroke-miterlimit:10;}.cls-2{fill:#ff7bac;stroke-width:0px;}</style></defs><rect class="cls-1" x=".5" y=".5" width="147.02" height="41" rx="17.66" ry="17.66"/><path class="cls-2" d="M57.13,22.16c0,1.74-.76,3.29-2.28,4.65-1.52,1.36-3.16,2.04-4.92,2.04-2.54,0-4.42-.99-5.64-2.97-.98-1.62-1.47-3.8-1.47-6.52s.59-5.27,1.77-7.51c1.42-2.74,3.38-4.12,5.88-4.12,1.24,0,2.32.29,3.24.87,1.02.66,1.65,1.57,1.89,2.71.2.94.3,1.39.3,1.35,0,2.65-.6,3.97-1.8,3.97-.36,0-.69-.12-.99-.36-.3-.24-.45-.54-.45-.9,0-.2.1-.49.31-.88.21-.38.31-.68.31-.9,0-1.15-.14-1.93-.42-2.35-.36-.58-1.07-.87-2.12-.87s-2.07.67-2.99,2.01c-.76,1.12-1.25,2.29-1.49,3.52-.24,1.3-.36,2.5-.36,3.61,0,1.88.15,3.25.45,4.09.48,1.36,1.44,2.25,2.9,2.67.44.12.8.18,1.08.18.72,0,1.48-.3,2.27-.9.7-.56,1.24-1.19,1.61-1.89.22-.42.35-.95.39-1.59l-.12-.09c-1.42,0-2.52.17-3.3.51-.24.12-.48.25-.72.39-.32.14-.57.21-.75.21-.5,0-.89-.21-1.17-.63s-.42-.89-.42-1.41c0-.44.23-.8.69-1.08.3-.16,1.24-.35,2.82-.57,1.44-.18,2.45-.27,3.03-.27,1.64,0,2.46,1.01,2.46,3.03Z"/><path class="cls-2" d="M67.39,17.9c0,.14-.02.36-.06.66-.42.6-.86.9-1.32.9-.38,0-.72-.22-1.02-.66-.04-.9-.36-1.35-.96-1.35-.36,0-.8.95-1.32,2.85-.24.84-.36,2.01-.36,3.51,0,1.42.06,2.28.2,2.58.15.38.22.64.22.78,0,.34-.15.62-.46.83s-.65.31-1.02.31c-1.07,0-1.6-.5-1.6-1.5,0-.1.02-.24.08-.42.05-.18.08-.31.08-.39,0-1.02-.05-2.54-.15-4.54-.1-2.01-.15-3.51-.15-4.52,0-.9.54-1.35,1.62-1.35.64,0,1.08.19,1.32.57.56-.62,1.19-.93,1.89-.93.48,0,.94.13,1.38.39.3.16.65.5,1.05,1.03.4.53.6.95.6,1.25Z"/><path class="cls-2" d="M78.77,23.12c0,2.58-.08,4.4-.24,5.46-.1.62-.52.93-1.26.93-1.12,0-1.62-.56-1.5-1.68-1,.48-2.04.72-3.12.72s-2.03-.26-2.97-.78c-1.12-.62-1.68-1.41-1.68-2.37s.64-1.82,1.92-2.64c1.16-.74,2.25-1.11,3.27-1.11h2.55v-.71c.02-2.08-.6-3.13-1.86-3.13-1.58,0-2.37.73-2.37,2.2,0,.5-.28.74-.84.74-.34,0-.7-.16-1.07-.46-.37-.31-.55-.63-.55-.98,0-1.12.4-2.04,1.2-2.76s1.76-1.08,2.88-1.08c3.76,0,5.64,2.55,5.64,7.65ZM75.74,24.2c0-.4-.3-.6-.9-.6-2.5,0-3.75.59-3.75,1.77,0,.64.55.96,1.65.96.68,0,1.32-.19,1.92-.57.72-.42,1.08-.94,1.08-1.56Z"/><path class="cls-2" d="M90.5,10.31c0,.34-.17.62-.49.84-.33.22-.67.33-1.01.33-.26,0-.54-.12-.84-.36-.02-.4-.1-.66-.24-.77-.14-.11-.43-.17-.87-.17-.86,0-1.48,1.07-1.86,3.21-.2,1.23-.31,2.65-.33,4.26h.75c.84,0,1.44.33,1.8.99l-.27,1.14c-.38.2-1.04.3-1.98.3-.16,0-.29,0-.39.03-.06.66-.09,1.38-.09,2.16v2.73c0,1.06.16,2.15.48,3.27-.78.44-1.35.66-1.71.66-.48,0-.86-.37-1.14-1.11-.24-.58-.36-1.16-.36-1.74,0-.36.04-2.28.12-5.76-.66.06-.97.09-.93.09-.34,0-.64-.11-.9-.33-.26-.22-.39-.51-.39-.87,0-.62.26-1.02.78-1.2.28-.08.8-.12,1.56-.12.06-.2.09-.81.09-1.83,0-2.05.33-3.84.99-5.36.9-2,2.25-2.99,4.05-2.99.9,0,1.64.2,2.22.6.64.48.96,1.14.96,1.98Z"/><path class="cls-2" d="M93.15,16.67c0,.36-.08.87-.24,1.53-.16.66-.24,1.17-.24,1.53v6.18c0,.38.12.98.36,1.8-.3.46-.64.69-1,.69-1.27,0-1.97-.63-2.09-1.89-.2-2.34-.3-4.1-.3-5.28,0-1.98.08-3.64.24-4.98v-.3c0-.36.28-.54.83-.54.49,0,.99.1,1.49.3.63.22.95.54.95.96ZM93.42,12.47c0,.44-.15.8-.45,1.08-.3.28-.67.42-1.11.42-.52,0-1.01-.18-1.46-.54-.45-.36-.68-.8-.68-1.32,0-.44.15-.8.47-1.08.31-.28.69-.42,1.15-.42.54,0,1.02.18,1.44.53.42.35.63.79.63,1.33Z"/><path class="cls-2" d="M106.72,29.15c-.76.56-1.36.84-1.8.84-.58,0-1.42-.6-2.52-1.8-.78-.84-1.55-1.69-2.31-2.55-.44-.52-1.14-1.25-2.1-2.19l-.09.06v2.64c0,.16.06.4.2.71.13.31.19.56.19.74,0,.28-.15.52-.44.74-.29.21-.58.31-.88.31-.52,0-.95-.17-1.29-.51-.34-.34-.51-.77-.51-1.29v-3.96c0-.24.03-.6.09-1.09s.09-.86.09-1.1v-8.07c0-1.22-.08-2.2-.25-2.94-.07-.34-.11-.6-.11-.78,0-.38.23-.72.69-1.02.4-.28.8-.42,1.2-.42.3,0,.62.12.97.34.35.23.53.49.53.76,0,.08-.06.36-.19.84-.13.48-.19,1.22-.19,2.22,0,.32-.03,2.99-.1,8.01.08-.08,1.16-1.07,3.25-2.97,1.73-1.6,2.74-2.4,3.04-2.4,1.06,0,1.58.65,1.54,1.95v.3c-.86.5-1.98,1.29-3.35,2.37-1.73,1.34-2.59,2.23-2.59,2.67,0,.04.54.67,1.63,1.89,1.02,1.16,1.67,1.88,1.93,2.16,1.21,1.26,2.33,2.12,3.37,2.58v.96Z"/></svg>