<?xml version="1.0" encoding="UTF-8"?><svg id="Layer_1" xmlns="http://www.w3.org/2000/svg" width="278.02" height="37" viewBox="0 0 278.02 37"><defs><style>.cls-1{fill:#f4ace6;stroke:#f3abe5;stroke-miterlimit:10;}.cls-2{fill:#fff;stroke-width:0px;}</style></defs><rect class="cls-1" x=".5" y=".5" width="277.02" height="36" rx="17.66" ry="17.66"/><path class="cls-2" d="M38.97,21.02c0,.27-.17.49-.5.65-.27.12-.55.18-.86.18-1.39,0-2.79-1.3-4.2-3.9-.84.97-1.26,1.63-1.26,1.98,0,.92.12,1.58.35,1.96l.04.42c-.22.25-.44.38-.66.38-.33,0-.61-.26-.83-.79-.22-.53-.34-2.38-.34-5.56,0-1.82.06-3.08.19-3.79.08-.42.31-.63.69-.63.24,0,.51.09.81.29.3.19.45.39.45.61,0,.15-.04.25-.13.3-.09.05-.17.1-.24.14-.07.08-.15.77-.24,2.08-.06,1.02-.1,1.8-.12,2.34,2.69-3.69,4.38-5.54,5.07-5.54.11,0,.24.03.38.09.11.14.21.29.32.44.13.18.2.34.2.48,0,.13-.05.24-.14.34-.1.09-.21.14-.34.14-.08,0-.19-.03-.32-.09l-.04-.05c-.24.03-.73.49-1.46,1.37-.74.88-1.1,1.46-1.1,1.73,0,.58.33,1.41,1,2.49.7,1.15,1.31,1.73,1.84,1.73.07,0,.2-.04.4-.13.2-.08.36-.13.49-.13.37,0,.56.16.56.48Z"/><path class="cls-2" d="M44.76,20.9c0,.5-.34.89-1.02,1.17-.53.22-1.08.33-1.67.33-1.54,0-2.31-.88-2.31-2.62,0-.72.17-1.52.52-2.4.43-1.08.95-1.62,1.56-1.62.55,0,1.14.25,1.78.73.63.49.95,1,.95,1.53,0,.66-.29,1.19-.88,1.58-.52.35-1.14.53-1.86.53-.14,0-.37-.08-.67-.26.04.95.32,1.43.84,1.43.44,0,.87-.12,1.3-.38.42-.25.7-.38.82-.38.43,0,.64.12.64.36ZM43.13,18.07c0-.25-.07-.49-.22-.71-.14-.23-.34-.34-.58-.34-.33,0-.58.15-.76.44-.15.25-.23.54-.23.88,0,.19.07.34.2.46s.29.18.5.18c.73,0,1.09-.3,1.09-.92Z"/><path class="cls-2" d="M50.81,16.46c-.09.5-.17,1-.25,1.48-.1.58-.15,1.08-.15,1.49v4.08c0,.74-.21,1.3-.64,1.7-.42.39-1.01.58-1.75.58-.48,0-1.01-.12-1.59-.38-.69-.29-1.04-.64-1.04-1.05,0-.14.06-.26.17-.35.11-.1.24-.14.38-.14.09,0,.31.13.65.4.34.27.73.41,1.17.41.56,0,.93-.21,1.12-.62.14-.28.21-.73.21-1.35,0-.23,0-.42-.01-.57-.33.22-.7.33-1.11.33-.75,0-1.33-.27-1.74-.81-.37-.49-.55-1.12-.55-1.88,0-.08.05-1.34.15-3.78.3-.13.54-.2.72-.2.2,0,.5.12.88.36-.24.6-.36,1.8-.36,3.6,0,1.15.29,1.73.87,1.73.43,0,.76-.36.99-1.08.17-.52.25-1.06.25-1.62v-1.83s-.01-.16-.04-.5c.41-.2.71-.3.92-.3s.46.09.75.29Z"/><path class="cls-2" d="M59.32,17.57c0,.9-.17,1.83-.5,2.79-.43,1.26-1,1.89-1.71,1.89-.67,0-1.22-.42-1.67-1.25-.3.88-.78,1.32-1.42,1.32-.83,0-1.44-.57-1.82-1.71-.26-.78-.39-1.69-.39-2.74,0-.66.02-1.2.08-1.61.14-.22.32-.33.55-.33.2,0,.4.07.61.2s.31.29.31.46c0,.13-.03.32-.09.58-.06.25-.09.45-.09.58,0,2.2.23,3.3.69,3.3s.8-.61.94-1.83c.05-.46.07-1.26.07-2.42,0-.38.22-.57.66-.57.49,0,.73.28.73.83,0,.05,0,.12-.01.21s-.01.16-.01.2v1.7c0,1.26.23,1.89.69,1.89.39,0,.68-.46.88-1.38.15-.64.23-1.26.23-1.88,0-.52-.03-.83-.08-.92,0-.02-.07-.08-.17-.18-.06-.08-.09-.16-.09-.23,0-.18.08-.34.24-.49.16-.14.33-.22.51-.22.27,0,.48.24.64.72.13.37.2.73.2,1.08Z"/><path class="cls-2" d="M65.61,19.27c0,.9-.23,1.67-.67,2.31-.52.73-1.21,1.09-2.07,1.09s-1.54-.3-2-.9c-.41-.53-.62-1.25-.62-2.16s.23-1.75.68-2.55c.52-.95,1.19-1.42,2.02-1.42.26,0,.58.12.98.34,1.12.67,1.68,1.77,1.68,3.29ZM64.29,19.24c0-1.53-.37-2.29-1.11-2.29-.53,0-.93.33-1.2.98-.2.49-.3,1.04-.3,1.67,0,1.33.39,2,1.18,2,.51,0,.89-.28,1.14-.83.19-.42.29-.92.29-1.52Z"/><path class="cls-2" d="M70.58,17.06c0,.07-.01.18-.03.33-.21.3-.43.45-.66.45-.19,0-.36-.11-.51-.33-.02-.45-.18-.67-.48-.67-.18,0-.4.47-.66,1.42-.12.42-.18,1-.18,1.75,0,.71.03,1.14.1,1.29.08.19.11.32.11.39,0,.17-.08.31-.23.41-.15.1-.32.16-.51.16-.54,0-.8-.25-.8-.75,0-.05.01-.12.04-.21.02-.09.04-.16.04-.2,0-.51-.03-1.27-.08-2.27s-.08-1.76-.08-2.26c0-.45.27-.68.81-.68.32,0,.54.1.66.29.28-.31.59-.46.94-.46.24,0,.47.07.69.2.15.08.32.25.52.52s.3.47.3.62Z"/><path class="cls-2" d="M76.54,13.1c0,.22-.03.5-.09.86-.08.47-.13.75-.15.84-.03.31-.08,1.22-.14,2.75-.07,1.52-.1,2.36-.1,2.52,0,.96.11,1.68.32,2.16-.17.28-.37.42-.58.42-.23,0-.44-.09-.62-.26-.18-.17-.28-.38-.3-.61-.47.43-.95.65-1.44.65-.73,0-1.29-.25-1.7-.77-.37-.46-.55-1.06-.55-1.81,0-.88.18-1.78.54-2.69.46-1.15,1.06-1.72,1.8-1.72.44,0,.89.2,1.35.58.05-.47.07-1.67.07-3.6,0-.18.14-.27.41-.27.32,0,.6.08.83.24.23.16.35.4.35.72ZM74.8,18.19c0-.34-.08-.65-.23-.93-.19-.34-.44-.51-.75-.51-.45,0-.79.44-1.03,1.33-.18.64-.27,1.27-.27,1.89,0,.93.27,1.39.81,1.39s.97-.41,1.22-1.24c.17-.56.25-1.21.25-1.94Z"/><path class="cls-2" d="M82.37,20.71c0,.47-.2.88-.6,1.23-.44.38-1.03.57-1.77.57-.32,0-.67-.06-1.04-.2-1.2-.45-1.8-.81-1.8-1.09,0-.44.32-.66.95-.66.09,0,.18,0,.29.01.03.3.27.54.72.72.39.16.76.22,1.12.19.29-.02.43-.12.43-.31,0-.03,0-.08-.02-.13-.01-.06-.02-.11-.02-.14s-.19-.11-.57-.23c-.43-.13-.67-.21-.72-.23-1.14-.68-1.71-1.5-1.71-2.46,0-.58.17-1.12.5-1.6.37-.54.83-.81,1.38-.81.41,0,.88.16,1.4.48.53.32.85.67.97,1.04.08.26.12.47.12.64,0,.18-.03.33-.08.45-.06.15-.12.3-.18.45-.19.13-.38.19-.57.19-.1,0-.27-.06-.5-.19-.24-.12-.35-.23-.35-.32,0-.04.06-.17.18-.39.07-.13.1-.24.1-.33,0-.6-.23-.9-.7-.9-.28,0-.5.18-.65.54-.11.28-.17.58-.17.9,0,.4.29.76.86,1.08.52.23,1.04.46,1.57.71.57.26.86.52.86.79Z"/><path class="cls-2" d="M85.38,21.58c0,.2-.09.38-.26.55s-.36.25-.56.25c-.24,0-.5-.1-.77-.3-.27-.2-.4-.42-.4-.65,0-.19.09-.37.27-.55.18-.17.37-.26.56-.26.28,0,.54.09.79.26.25.17.38.4.38.68ZM85.48,16.78c0,.26-.12.47-.36.62-.24.16-.5.23-.78.23-.59,0-.88-.29-.88-.86,0-.51.29-.76.87-.76.27,0,.52.06.75.18.27.14.41.33.41.58Z"/><path class="cls-2" d="M94.31,18.82c0,.9-.16,1.67-.46,2.29-.4.81-1,1.22-1.82,1.22-.26,0-.67-.1-1.23-.29,0,.07.01.13.01.19,0,.33-.19.5-.55.5-.27,0-.49-.1-.66-.3-.08-.09-.15-.4-.2-.93-.05-.44-.08-.79-.08-1.04v-.06l.23-8.47c.16-.25.35-.35.57-.32.05-.02.1-.03.15-.03.18,0,.35.11.5.32.15.21.23.42.23.61,0,.43-.04,1-.12,1.72-.1.83-.16,1.4-.17,1.71.29-.35.67-.53,1.12-.53.55,0,1.04.2,1.49.59.44.39.72.87.85,1.43.08.34.12.79.12,1.36ZM92.91,18.71c0-1.36-.28-2.04-.85-2.04-.48,0-.84.34-1.09,1.04-.19.52-.28,1.08-.28,1.67,0,1.26.38,1.89,1.13,1.89s1.09-.85,1.09-2.55Z"/><path class="cls-2" d="M100.73,19.67c0,1.29-.04,2.2-.12,2.73-.05.31-.26.46-.63.46-.56,0-.81-.28-.75-.84-.5.24-1.02.36-1.56.36s-1.02-.13-1.49-.39c-.56-.31-.84-.71-.84-1.19s.32-.91.96-1.32c.58-.37,1.12-.55,1.63-.55h1.28v-.36c0-1.04-.3-1.56-.93-1.56-.79,0-1.19.37-1.19,1.1,0,.25-.14.37-.42.37-.17,0-.35-.08-.53-.23-.19-.15-.28-.32-.28-.49,0-.56.2-1.02.6-1.38s.88-.54,1.44-.54c1.88,0,2.82,1.28,2.82,3.83ZM99.22,20.21c0-.2-.15-.3-.45-.3-1.25,0-1.88.29-1.88.88,0,.32.28.48.83.48.34,0,.66-.09.96-.29.36-.21.54-.47.54-.78Z"/><path class="cls-2" d="M106.01,17.06c0,.07-.01.18-.03.33-.21.3-.43.45-.66.45-.19,0-.36-.11-.51-.33-.02-.45-.18-.67-.48-.67-.18,0-.4.47-.66,1.42-.12.42-.18,1-.18,1.75,0,.71.03,1.14.1,1.29.08.19.11.32.11.39,0,.17-.08.31-.23.41-.15.1-.32.16-.51.16-.54,0-.8-.25-.8-.75,0-.05.01-.12.04-.21.02-.09.04-.16.04-.2,0-.51-.03-1.27-.08-2.27s-.08-1.76-.08-2.26c0-.45.27-.68.81-.68.32,0,.54.1.66.29.28-.31.59-.46.94-.46.24,0,.47.07.69.2.15.08.32.25.52.52s.3.47.3.62Z"/><path class="cls-2" d="M112.48,22.12c-.15.23-.34.35-.56.35-.17,0-.45-.1-.84-.3v-.18c0-.22,0-.54.02-.97,0-.43.01-.75.01-.95,0-2.14-.32-3.21-.96-3.21-.18,0-.38.14-.61.42-.71.86-1.06,1.9-1.06,3.11,0,.17.03.42.1.76.06.34.1.59.1.76,0,.14-.07.25-.2.34-.13.09-.27.14-.42.14-.6,0-.9-.38-.9-1.14v-3.13c0-.08,0-.2.03-.35.02-.16.03-.27.03-.35,0-.12-.02-.29-.05-.53-.04-.23-.05-.4-.05-.51,0-.16.09-.31.28-.46.19-.15.35-.22.5-.22.22,0,.44.12.67.38l-.04.6c.37-.59.83-.88,1.37-.88.35,0,.72.12,1.11.36.39.24.68.51.86.81.41.76.62,1.76.62,3v2.17Z"/><path class="cls-2" d="M115.56,21.82c0,.18-.07.33-.22.46-.15.12-.31.19-.5.19-.63,0-.95-.83-.95-2.48,0-.75,0-1.88.02-3.38.02-1.5.02-2.62.02-3.38,0-.12-.01-.29-.04-.52-.03-.23-.04-.4-.04-.51.33-.22.59-.33.78-.33.22,0,.43.07.63.22.2.15.3.33.3.55,0,.11-.02.24-.07.39-.07.24-.11.37-.12.39-.13.62-.2,1.5-.2,2.64v2.79c.03,1.26.13,2.14.32,2.64.05.14.07.25.07.33Z"/><path class="cls-2" d="M118.23,16.45c0,.18-.04.44-.12.77s-.12.58-.12.76v3.09c0,.19.06.49.18.9-.15.23-.32.34-.5.34-.64,0-.98-.31-1.04-.95-.1-1.17-.15-2.05-.15-2.64,0-.99.04-1.82.12-2.49v-.15c0-.18.14-.27.42-.27.25,0,.5.05.74.15.32.11.48.27.48.48ZM118.37,14.35c0,.22-.08.4-.23.54-.15.14-.33.21-.55.21-.26,0-.5-.09-.73-.27-.22-.18-.34-.4-.34-.66,0-.22.08-.4.23-.54.15-.14.35-.21.58-.21.27,0,.51.09.72.26.21.18.32.4.32.67Z"/><path class="cls-2" d="M124.17,17.77c-.02.25-.08.69-.2,1.32-.1.55-.15.99-.15,1.32,0,.3.01.75.04,1.35.03.6.04,1.05.04,1.35,0,.62-.06,1.08-.18,1.38-.14.38-.4.69-.79.92-.39.23-.79.35-1.21.35-.44,0-.99-.12-1.63-.36-.78-.28-1.17-.59-1.17-.93,0-.44.21-.66.62-.66.19,0,.32.05.39.17.13.2.22.32.26.36s.21.09.49.14c.28.05.47.08.58.08.9,0,1.35-.56,1.35-1.7,0-.33-.01-.61-.04-.84-.43.37-.94.56-1.54.56-.25,0-.53-.07-.84-.21-.31-.14-.54-.31-.71-.5-.31-.36-.46-.9-.46-1.61,0-.85.2-1.79.58-2.8.48-1.25,1.07-1.88,1.75-1.88.42,0,.82.2,1.2.58.28.37.56.74.84,1.09.08.1.21.19.38.27.21.1.34.17.41.22ZM122.66,18.67c0-.15-.07-.28-.21-.38-.06-.92-.38-1.38-.96-1.38-.33,0-.6.46-.82,1.39-.16.71-.24,1.33-.24,1.84,0,.98.25,1.47.76,1.47.48,0,.86-.39,1.14-1.17.22-.6.33-1.2.33-1.79Z"/><path class="cls-2" d="M128.33,16.85c0,.27-.41.46-1.23.57-.02.22-.03.72-.03,1.5v.99c0,.2.03.49.09.88.06.39.09.68.09.87,0,.16-.08.3-.24.43-.16.13-.32.19-.48.19-.25,0-.46-.21-.63-.64-.13-.33-.2-.65-.2-.96v-3.18c-.46-.07-.73-.12-.79-.14-.26-.08-.39-.19-.39-.34,0-.04,0-.08.03-.13.26-.37.55-.55.87-.55h.09s.07.01.09.01c.21,0,.31-.25.3-.74v-1.09c-.05-.11-.08-.21-.08-.29,0-.13.08-.25.23-.35.15-.1.3-.16.44-.16.21,0,.41.1.59.29.19.2.28.4.28.62,0,.24-.04.48-.11.71-.08.24-.11.48-.1.73v.06c.78.08,1.17.32,1.17.72Z"/><path class="cls-2" d="M128.22,21.53c0-.23.1-.43.31-.61.21-.18.44-.27.71-.27.29,0,.54.13.75.39.21.26.31.58.31.97,0,.42-.04.76-.12,1.04-.08.27-.22.53-.42.78-.2.26-.42.48-.67.67-.25.18-.48.28-.67.28-.16-.02-.28-.08-.35-.19-.08-.1-.06-.23.05-.37.2-.11.39-.25.56-.41.17-.16.3-.37.38-.62.05-.14.07-.29.05-.46s-.11-.3-.28-.41c-.17-.11-.32-.22-.44-.33-.12-.11-.18-.27-.18-.47Z"/><path class="cls-2" d="M137.46,16.85c0,.27-.41.46-1.23.57-.02.22-.03.72-.03,1.5v.99c0,.2.03.49.09.88.06.39.09.68.09.87,0,.16-.08.3-.24.43-.16.13-.32.19-.48.19-.25,0-.46-.21-.63-.64-.13-.33-.2-.65-.2-.96v-3.18c-.46-.07-.73-.12-.79-.14-.26-.08-.39-.19-.39-.34,0-.04,0-.08.03-.13.26-.37.55-.55.87-.55h.09s.07.01.09.01c.21,0,.31-.25.3-.74v-1.09c-.05-.11-.08-.21-.08-.29,0-.13.08-.25.23-.35.15-.1.3-.16.44-.16.21,0,.41.1.59.29.19.2.28.4.28.62,0,.24-.04.48-.11.71-.08.24-.11.48-.1.73v.06c.78.08,1.17.32,1.17.72Z"/><path class="cls-2" d="M143.78,15.41c-.19.28-.45.71-.78,1.29.52.65.78,1.5.78,2.56,0,.91-.22,1.69-.67,2.34-.51.73-1.2,1.1-2.07,1.1-.36,0-.69-.05-.99-.15-.31.5-.64.75-1,.75s-.52-.16-.52-.46c.1-.25.28-.58.54-1-.42-.53-.63-1.27-.63-2.21s.22-1.77.66-2.58c.53-.97,1.2-1.46,2.03-1.46.22,0,.51.1.87.3.24-.57.61-.85,1.12-.85.2,0,.43.12.69.38ZM141.59,16.96c-.08-.02-.16-.03-.24-.03-.53,0-.93.33-1.2.97-.2.5-.3,1.06-.3,1.68,0,.26.01.5.04.71.77-1.46,1.34-2.57,1.7-3.33ZM142.46,19.24c0-.41-.04-.79-.13-1.14-.71,1.48-1.28,2.62-1.71,3.42.13.06.27.09.42.09.52,0,.91-.28,1.16-.84.18-.42.27-.93.27-1.53Z"/><path class="cls-2" d="M150.05,20.71c0,.47-.2.88-.6,1.23-.44.38-1.03.57-1.77.57-.32,0-.67-.06-1.04-.2-1.2-.45-1.8-.81-1.8-1.09,0-.44.32-.66.95-.66.09,0,.18,0,.29.01.03.3.27.54.72.72.39.16.76.22,1.12.19.29-.02.43-.12.43-.31,0-.03,0-.08-.02-.13-.01-.06-.02-.11-.02-.14s-.19-.11-.57-.23c-.43-.13-.67-.21-.72-.23-1.14-.68-1.71-1.5-1.71-2.46,0-.58.17-1.12.5-1.6.37-.54.83-.81,1.38-.81.41,0,.88.16,1.4.48.53.32.85.67.97,1.04.08.26.12.47.12.64,0,.18-.03.33-.08.45-.06.15-.12.3-.18.45-.19.13-.38.19-.57.19-.1,0-.27-.06-.5-.19-.24-.12-.35-.23-.35-.32,0-.04.06-.17.18-.39.07-.13.1-.24.1-.33,0-.6-.23-.9-.7-.9-.28,0-.5.18-.65.54-.11.28-.17.58-.17.9,0,.4.29.76.86,1.08.52.23,1.04.46,1.57.71.57.26.86.52.86.79Z"/><path class="cls-2" d="M155.68,20.9c0,.5-.34.89-1.02,1.17-.53.22-1.08.33-1.67.33-1.54,0-2.31-.88-2.31-2.62,0-.72.17-1.52.53-2.4.43-1.08.95-1.62,1.56-1.62.55,0,1.14.25,1.78.73.63.49.95,1,.95,1.53,0,.66-.3,1.19-.89,1.58-.52.35-1.14.53-1.86.53-.14,0-.37-.08-.68-.26.04.95.32,1.43.84,1.43.44,0,.87-.12,1.3-.38s.7-.38.82-.38c.43,0,.65.12.65.36ZM154.05,18.07c0-.25-.07-.49-.22-.71-.15-.23-.34-.34-.58-.34-.33,0-.58.15-.77.44-.15.25-.22.54-.22.88,0,.19.06.34.19.46s.29.18.5.18c.73,0,1.1-.3,1.1-.92Z"/><path class="cls-2" d="M159.88,16.85c0,.27-.41.46-1.23.57-.02.22-.03.72-.03,1.5v.99c0,.2.03.49.09.88.06.39.09.68.09.87,0,.16-.08.3-.24.43-.16.13-.32.19-.48.19-.25,0-.46-.21-.63-.64-.13-.33-.2-.65-.2-.96v-3.18c-.46-.07-.73-.12-.79-.14-.26-.08-.39-.19-.39-.34,0-.04,0-.08.03-.13.26-.37.55-.55.87-.55h.09s.07.01.09.01c.21,0,.31-.25.3-.74v-1.09c-.05-.11-.08-.21-.08-.29,0-.13.08-.25.23-.35.15-.1.3-.16.44-.16.21,0,.41.1.59.29.19.2.28.4.28.62,0,.24-.04.48-.11.71-.08.24-.11.48-.1.73v.06c.78.08,1.17.32,1.17.72Z"/><path class="cls-2" d="M159.77,21.53c0-.23.1-.43.31-.61.21-.18.44-.27.71-.27.29,0,.54.13.75.39.21.26.31.58.31.97,0,.42-.04.76-.12,1.04-.08.27-.22.53-.42.78-.2.26-.42.48-.67.67-.25.18-.48.28-.67.28-.16-.02-.28-.08-.35-.19-.08-.1-.06-.23.05-.37.2-.11.39-.25.56-.41.17-.16.3-.37.38-.62.05-.14.07-.29.05-.46s-.11-.3-.28-.41c-.17-.11-.32-.22-.44-.33-.12-.11-.18-.27-.18-.47Z"/><path class="cls-2" d="M170.71,22.12c-.15.23-.33.35-.55.35-.17,0-.45-.1-.84-.3v-.18c0-.22,0-.54.01-.97s.01-.75.01-.95c0-2.14-.32-3.21-.95-3.21-.18,0-.38.14-.61.42-.71.86-1.06,1.9-1.06,3.11,0,.17.03.42.1.76.07.34.1.59.1.76,0,.14-.07.25-.2.34-.13.09-.27.14-.42.14-.6,0-.9-.38-.9-1.14v-3.13c0-.08,0-.2.03-.35.02-.16.03-.27.03-.35,0-.12-.02-.29-.05-.53-.04-.23-.05-.4-.05-.51,0-.16.09-.31.28-.46.18-.15.35-.22.5-.22.22,0,.45.12.68.38l-.05.6c.37-.59.83-.88,1.37-.88.35,0,.72.12,1.11.36.39.24.67.51.85.81.41.76.62,1.76.62,3v2.17Z"/><path class="cls-2" d="M176.57,16.87c0,.31-.04.78-.11,1.4-.08.62-.11,1.1-.11,1.42,0,.28.01.7.04,1.25s.04.97.04,1.23c0,.23-.19.34-.58.34s-.65-.19-.76-.57c-.38.25-.75.38-1.11.38-.29,0-.62-.08-.99-.23-.37-.16-.63-.34-.78-.56-.29-.42-.43-1.09-.43-2.03,0-.32,0-.88.03-1.68.03-.71.04-1.26.03-1.67.3-.22.55-.33.76-.33.48,0,.73.24.73.71,0,.16-.03.4-.08.72-.05.32-.08.56-.08.72v2.12c0,.24.06.49.2.75.16.3.35.45.57.45.43,0,.75-.27.96-.82.14-.38.21-.84.21-1.38v-1.8c0-.23-.06-.51-.18-.85.25-.23.49-.35.72-.35s.46.08.65.22c.19.15.29.34.29.57Z"/><path class="cls-2" d="M181.12,16.85c0,.27-.41.46-1.23.57-.02.22-.03.72-.03,1.5v.99c0,.2.03.49.09.88.06.39.09.68.09.87,0,.16-.08.3-.24.43-.16.13-.32.19-.48.19-.25,0-.46-.21-.63-.64-.13-.33-.2-.65-.2-.96v-3.18c-.46-.07-.73-.12-.79-.14-.26-.08-.39-.19-.39-.34,0-.04,0-.08.03-.13.26-.37.55-.55.87-.55h.09s.07.01.09.01c.21,0,.31-.25.3-.74v-1.09c-.05-.11-.08-.21-.08-.29,0-.13.08-.25.23-.35.15-.1.3-.16.44-.16.21,0,.41.1.59.29.19.2.28.4.28.62,0,.24-.04.48-.11.71-.08.24-.11.48-.1.73v.06c.78.08,1.17.32,1.17.72Z"/><path class="cls-2" d="M185.01,16.85c0,.27-.41.46-1.23.57-.02.22-.03.72-.03,1.5v.99c0,.2.03.49.09.88.06.39.09.68.09.87,0,.16-.08.3-.24.43-.16.13-.32.19-.48.19-.25,0-.46-.21-.63-.64-.13-.33-.2-.65-.2-.96v-3.18c-.46-.07-.72-.12-.79-.14-.26-.08-.39-.19-.39-.34,0-.04,0-.08.03-.13.26-.37.55-.55.87-.55h.09s.07.01.09.01c.21,0,.31-.25.3-.74v-1.09c-.05-.11-.08-.21-.08-.29,0-.13.08-.25.23-.35.15-.1.3-.16.44-.16.21,0,.41.1.59.29.19.2.28.4.28.62,0,.24-.04.48-.11.71-.08.24-.11.48-.1.73v.06c.78.08,1.17.32,1.17.72Z"/><path class="cls-2" d="M190.46,20.9c0,.5-.34.89-1.02,1.17-.53.22-1.08.33-1.67.33-1.54,0-2.31-.88-2.31-2.62,0-.72.17-1.52.53-2.4.43-1.08.95-1.62,1.56-1.62.55,0,1.14.25,1.78.73.63.49.95,1,.95,1.53,0,.66-.3,1.19-.89,1.58-.52.35-1.14.53-1.86.53-.14,0-.37-.08-.68-.26.04.95.32,1.43.84,1.43.44,0,.87-.12,1.3-.38s.7-.38.82-.38c.43,0,.65.12.65.36ZM188.82,18.07c0-.25-.07-.49-.22-.71-.15-.23-.34-.34-.58-.34-.33,0-.58.15-.77.44-.15.25-.22.54-.22.88,0,.19.06.34.19.46s.29.18.5.18c.73,0,1.1-.3,1.1-.92Z"/><path class="cls-2" d="M194.66,16.85c0,.27-.41.46-1.23.57-.02.22-.03.72-.03,1.5v.99c0,.2.03.49.09.88.06.39.09.68.09.87,0,.16-.08.3-.24.43-.16.13-.32.19-.48.19-.25,0-.46-.21-.63-.64-.13-.33-.2-.65-.2-.96v-3.18c-.46-.07-.73-.12-.79-.14-.26-.08-.39-.19-.39-.34,0-.04,0-.08.03-.13.26-.37.55-.55.87-.55h.09s.07.01.09.01c.21,0,.31-.25.3-.74v-1.09c-.05-.11-.08-.21-.08-.29,0-.13.08-.25.23-.35.15-.1.3-.16.44-.16.21,0,.41.1.59.29.19.2.28.4.28.62,0,.24-.04.48-.11.71-.08.24-.11.48-.1.73v.06c.78.08,1.17.32,1.17.72Z"/><path class="cls-2" d="M207.55,21.71c0,.25-.15.48-.46.69s-.59.32-.85.32c-.39,0-.75-.1-1.09-.29-.34-.19-.68-.38-1.01-.55-1.19.47-2.23.71-3.13.71-.75,0-1.37-.16-1.86-.47-.57-.37-.86-.91-.86-1.63,0-.43.21-.92.63-1.46.14-.19.51-.59,1.11-1.21-.62-1.16-.93-2.08-.93-2.77,0-.88.27-1.59.81-2.14s1.25-.82,2.13-.82c.64,0,1.16.17,1.57.51.43.37.65.87.65,1.5s-.3,1.35-.9,2.13c-.32.41-.87,1-1.65,1.75.14.22.56.67,1.24,1.33.72.71,1.15,1.07,1.29,1.07.09,0,.34-.14.76-.42.41-.28.62-.45.62-.5,0-.25-.32-.38-.97-.38-.22,0-.46.07-.73.21-.35-.14-.53-.33-.53-.58,0-.47.31-.71.93-.71.54,0,1.11.08,1.71.22.83.19,1.24.46,1.24.83,0,.66-.63,1.38-1.89,2.15.36.27.68.4.97.4.08,0,.2-.03.37-.09.16-.06.29-.09.38-.09.29,0,.43.09.43.29ZM202.99,21.04c-.76-.62-1.49-1.34-2.21-2.16-.37.4-.62.68-.73.84-.24.35-.36.69-.36,1.02,0,.49.41.74,1.23.74.25,0,.61-.05,1.06-.14.45-.09.79-.19,1.01-.29ZM202.99,13.93c0-.23-.08-.42-.23-.56-.16-.14-.35-.22-.59-.22-.46,0-.87.19-1.21.58-.35.38-.53.81-.53,1.27,0,.34.05.69.17,1.04.12.43.29.73.5.9.44-.33.86-.78,1.25-1.35.44-.64.66-1.19.66-1.65Z"/><path class="cls-2" d="M216.35,22.46c-.19.19-.44.29-.75.29-.21,0-.42-.13-.64-.39v-2.04c0-2.22-.32-3.33-.96-3.33s-.99.9-.99,2.69v.87c0,.15.03.38.08.68.05.3.08.53.08.68,0,.13-.08.25-.23.35-.16.11-.3.16-.43.16-.25,0-.46-.1-.64-.31-.17-.21-.26-.43-.26-.68l.06-8.68v-.23c0-.36.2-.54.6-.54.19,0,.41.09.66.26s.38.35.38.53c0,.22-.05.55-.14.98s-.14.76-.14.98c0,.28,0,.73.03,1.34.22-.13.41-.19.55-.19.39,0,.82.09,1.28.29.59.25,1,.65,1.23,1.21.17.42.25,1,.25,1.74v3.35Z"/><path class="cls-2" d="M222.5,16.46c-.09.5-.18,1-.25,1.48-.1.58-.15,1.08-.15,1.49v4.08c0,.74-.21,1.3-.64,1.7-.42.39-1.01.58-1.75.58-.48,0-1.01-.12-1.59-.38-.69-.29-1.04-.64-1.04-1.05,0-.14.06-.26.17-.35.12-.1.24-.14.38-.14.09,0,.3.13.65.4.34.27.73.41,1.17.41.56,0,.93-.21,1.12-.62.14-.28.21-.73.21-1.35,0-.23,0-.42-.02-.57-.33.22-.7.33-1.11.33-.75,0-1.33-.27-1.74-.81-.37-.49-.55-1.12-.55-1.88,0-.08.05-1.34.15-3.78.3-.13.54-.2.72-.2.2,0,.5.12.89.36-.24.6-.36,1.8-.36,3.6,0,1.15.29,1.73.87,1.73.43,0,.76-.36.99-1.08.17-.52.25-1.06.25-1.62v-1.83s-.02-.16-.04-.5c.41-.2.71-.3.92-.3s.46.09.75.29Z"/><path class="cls-2" d="M228.59,17.77c-.02.25-.09.69-.2,1.32-.1.55-.15.99-.15,1.32,0,.3.02.75.04,1.35.03.6.04,1.05.04,1.35,0,.62-.06,1.08-.18,1.38-.14.38-.41.69-.79.92-.39.23-.79.35-1.21.35-.44,0-.99-.12-1.63-.36-.78-.28-1.17-.59-1.17-.93,0-.44.2-.66.61-.66.19,0,.32.05.39.17.13.2.22.32.26.36.05.04.21.09.49.14.28.05.47.08.58.08.9,0,1.35-.56,1.35-1.7,0-.33-.01-.61-.04-.84-.43.37-.95.56-1.54.56-.25,0-.53-.07-.84-.21-.31-.14-.54-.31-.71-.5-.31-.36-.46-.9-.46-1.61,0-.85.19-1.79.58-2.8.48-1.25,1.06-1.88,1.75-1.88.42,0,.82.2,1.2.58.28.37.56.74.84,1.09.08.1.21.19.38.27.21.1.34.17.41.22ZM227.08,18.67c0-.15-.07-.28-.21-.38-.06-.92-.38-1.38-.96-1.38-.33,0-.61.46-.83,1.39-.16.71-.24,1.33-.24,1.84,0,.98.25,1.47.76,1.47.48,0,.86-.39,1.14-1.17.22-.6.33-1.2.33-1.79Z"/><path class="cls-2" d="M234.87,17.77c-.02.25-.09.69-.2,1.32-.1.55-.15.99-.15,1.32,0,.3.02.75.04,1.35.03.6.04,1.05.04,1.35,0,.62-.06,1.08-.18,1.38-.14.38-.41.69-.79.92-.39.23-.79.35-1.21.35-.44,0-.99-.12-1.63-.36-.78-.28-1.17-.59-1.17-.93,0-.44.2-.66.61-.66.19,0,.32.05.39.17.13.2.22.32.26.36.05.04.21.09.49.14.28.05.47.08.58.08.9,0,1.35-.56,1.35-1.7,0-.33-.01-.61-.04-.84-.43.37-.95.56-1.54.56-.25,0-.53-.07-.84-.21-.31-.14-.54-.31-.71-.5-.31-.36-.46-.9-.46-1.61,0-.85.19-1.79.58-2.8.48-1.25,1.06-1.88,1.75-1.88.42,0,.82.2,1.2.58.28.37.56.74.84,1.09.08.1.21.19.38.27.21.1.34.17.41.22ZM233.35,18.67c0-.15-.07-.28-.21-.38-.06-.92-.38-1.38-.96-1.38-.33,0-.61.46-.83,1.39-.16.71-.24,1.33-.24,1.84,0,.98.25,1.47.76,1.47.48,0,.86-.39,1.14-1.17.22-.6.33-1.2.33-1.79Z"/><path class="cls-2" d="M240.81,20.9c0,.5-.34.89-1.02,1.17-.53.22-1.08.33-1.67.33-1.54,0-2.31-.88-2.31-2.62,0-.72.17-1.52.52-2.4.43-1.08.95-1.62,1.56-1.62.55,0,1.14.25,1.78.73.63.49.95,1,.95,1.53,0,.66-.29,1.19-.88,1.58-.52.35-1.14.53-1.86.53-.14,0-.36-.08-.67-.26.04.95.32,1.43.84,1.43.44,0,.87-.12,1.3-.38s.7-.38.82-.38c.43,0,.65.12.65.36ZM239.17,18.07c0-.25-.07-.49-.22-.71-.15-.23-.34-.34-.58-.34-.33,0-.58.15-.76.44-.15.25-.22.54-.22.88,0,.19.06.34.19.46s.29.18.5.18c.73,0,1.09-.3,1.09-.92Z"/><path class="cls-2" d="M243.47,21.82c0,.18-.07.33-.22.46-.15.12-.31.19-.5.19-.63,0-.94-.83-.94-2.48,0-.75,0-1.88.02-3.38.01-1.5.02-2.62.02-3.38,0-.12-.02-.29-.04-.52-.03-.23-.04-.4-.04-.51.33-.22.59-.33.78-.33.22,0,.43.07.63.22.2.15.3.33.3.55,0,.11-.03.24-.08.39-.07.24-.11.37-.12.39-.13.62-.2,1.5-.2,2.64v2.79c.03,1.26.13,2.14.32,2.64.05.14.08.25.08.33Z"/><path class="cls-2" d="M246.14,16.45c0,.18-.04.44-.12.77s-.12.58-.12.76v3.09c0,.19.06.49.18.9-.15.23-.32.34-.5.34-.64,0-.99-.31-1.05-.95-.1-1.17-.15-2.05-.15-2.64,0-.99.04-1.82.12-2.49v-.15c0-.18.14-.27.42-.27.25,0,.5.05.74.15.32.11.48.27.48.48ZM246.28,14.35c0,.22-.08.4-.22.54-.15.14-.33.21-.56.21-.26,0-.5-.09-.73-.27-.22-.18-.34-.4-.34-.66,0-.22.08-.4.23-.54.16-.14.35-.21.58-.21.27,0,.51.09.72.26.21.18.31.4.31.67Z"/><path class="cls-2" d="M252.08,17.77c-.02.25-.09.69-.2,1.32-.1.55-.15.99-.15,1.32,0,.3.02.75.04,1.35.03.6.04,1.05.04,1.35,0,.62-.06,1.08-.18,1.38-.14.38-.41.69-.79.92-.39.23-.79.35-1.21.35-.44,0-.99-.12-1.63-.36-.78-.28-1.17-.59-1.17-.93,0-.44.2-.66.61-.66.19,0,.32.05.39.17.13.2.22.32.26.36.05.04.21.09.49.14.28.05.47.08.58.08.9,0,1.35-.56,1.35-1.7,0-.33-.01-.61-.04-.84-.43.37-.95.56-1.54.56-.25,0-.53-.07-.84-.21-.31-.14-.54-.31-.71-.5-.31-.36-.46-.9-.46-1.61,0-.85.19-1.79.58-2.8.48-1.25,1.06-1.88,1.75-1.88.42,0,.82.2,1.2.58.28.37.56.74.84,1.09.08.1.21.19.38.27.21.1.34.17.41.22ZM250.57,18.67c0-.15-.07-.28-.21-.38-.06-.92-.38-1.38-.96-1.38-.33,0-.61.46-.83,1.39-.16.71-.24,1.33-.24,1.84,0,.98.25,1.47.76,1.47.48,0,.86-.39,1.14-1.17.22-.6.33-1.2.33-1.79Z"/><path class="cls-2" d="M256.24,16.85c0,.27-.41.46-1.23.57-.02.22-.03.72-.03,1.5v.99c0,.2.03.49.09.88.06.39.09.68.09.87,0,.16-.08.3-.24.43-.16.13-.32.19-.48.19-.25,0-.46-.21-.63-.64-.13-.33-.2-.65-.2-.96v-3.18c-.46-.07-.72-.12-.79-.14-.26-.08-.39-.19-.39-.34,0-.04,0-.08.03-.13.26-.37.55-.55.87-.55h.09s.07.01.09.01c.21,0,.31-.25.3-.74v-1.09c-.05-.11-.08-.21-.08-.29,0-.13.08-.25.23-.35.15-.1.3-.16.44-.16.21,0,.41.1.59.29.19.2.28.4.28.62,0,.24-.04.48-.11.71-.08.24-.11.48-.1.73v.06c.78.08,1.17.32,1.17.72Z"/></svg>