<?xml version="1.0" encoding="UTF-8"?><svg id="Layer_2" xmlns="http://www.w3.org/2000/svg" width="112.46" height="107.05" viewBox="0 0 112.46 107.05"><defs><style>.cls-1{fill:#77954f;}.cls-1,.cls-2,.cls-3,.cls-4,.cls-5,.cls-6,.cls-7{stroke-width:0px;}.cls-2{fill:#3d3b3b;}.cls-3{fill:#8c8888;}.cls-4{fill:#bed984;}.cls-5{fill:#b26262;}.cls-6{fill:#074030;}.cls-7{fill:#231f20;}</style></defs><g id="Layer_3"><path class="cls-5" d="M.46,85.02c-.86.67-.3,2.49,0,4.61.56,3.91-.21,5.62,0,6.95.83,5.3,17.66,9.17,40,9.44,2.85.04,7.65,1.24,16,1,4.07-.12,5.35.11,12,0,17.48-.28,20.14-2.67,22-3,13.8-2.44,15.62-6.42,16-8,.14-.59.08-.84,0-3-.27-7.36.99-9.12,0-10-1.59-1.42-5.72,1.77-11,4-1.79.76-5.44,2.14-19,3-12.26.78-14.62,0-34,0-19.52,0-21.19.81-25-1-4.67-2.22-10.12-2.28-15-4-.33-.11-1.37-.49-2,0Z"/><polygon class="cls-1" points=".46 64.02 0 87.18 6.46 88.02 16.46 91.02 36.46 92.02 52.46 93.02 68.06 93.02 82.46 91.02 93.08 89.66 101.46 86.02 106.84 84.3 106.46 78.02 106.46 64.02 98.46 67.02 88.46 69.02 80.46 71.02 68.46 72.02 53.46 73.02 35.46 73.02 21.46 73.02 .46 64.02"/><path class="cls-6" d="M.46,68.02c3.51,5.31,6.76,6.68,9,7,4.27.61,6.09-2.42,11-2,5.02.43,5.09,3.78,10,5,7.68,1.91,10.93-5.45,19-4,6.36,1.14,6.66,6.13,12,6,6.23-.15,7.64-6.99,14-7,5.2,0,6.15,4.57,11,4,4.9-.58,5.61-5.46,11-6,4.13-.41,6.21,2.21,8,1,2.61-1.77.8-9.15,0-11-2.68-6.23-20.28-11.22-105,7Z"/><path class="cls-6" d="M.86,56.18l-.79,11.83h106.39l-.02-8.12c0-1.7-.81-3.3-2.18-4.31l-1.27-.94c-3.24-2.39-6.97-4.04-10.92-4.83l-4-.8-10-2-6.33-1.81c-.45-.13-.91-.21-1.37-.24l-14.3-.95h-18.43c-3.07,0-6.13.41-9.09,1.22l-6.48,1.78-12,3-5.99,2c-1.82.61-3.09,2.25-3.22,4.17Z"/><path class="cls-4" d="M58.46,13.33v37.24c0,.53-.32,1.01-.81,1.22-1.46.62-3.06.82-4.63.6l-1.44-.21c-.65-.09-1.13-.65-1.13-1.31V13.33c0-.73.59-1.32,1.32-1.32h5.36c.73,0,1.32.59,1.32,1.32Z"/><path class="cls-7" d="M53.46.02c-1,.24-2,3.45-2,5s1,4.76,2,5c.98.24,3-2.32,3-5S54.43-.22,53.46.02Z"/><polyline class="cls-7" points="50.46 43.45 58.46 46.49 58.46 43.45 50.46 40.42 50.46 35.68 58.46 38.6 58.46 34.71 50.46 32.25 50.46 27.67 58.46 29.98 58.46 26.94 50.46 24.15 50.46 20.5 58.46 22.69 58.46 19.17 50.46 16.38 50.46 13.33"/><path class="cls-2" d="M31.54,32.42c.62.15,1.26.28,1.91.29.9.02,1.99-.2,2.47-1.05.29-.5.3-1.12.01-1.62-.21-.37-.6-.7-1.03-.79-.37-.08-.77-.11-1.15-.13-.56-.04-1.11-.02-1.67.03-.21,0-.4.04-.58.13-.19.06-.35.16-.48.31-.26.26-.46.69-.44,1.06s.14.79.44,1.06c.28.25.67.48,1.06.44.78-.07,1.56-.06,2.34.04l-.4-.05s.07.01.11.02l-.36-.15s.04.02.06.03l-.3-.23.02.03-.23-.3.02.03-.15-.36v.03c-.01-.13-.03-.27-.05-.4v.03c.02-.13.03-.27.05-.4v.03c.04-.12.09-.24.14-.36,0,.02-.02.04-.04.06l.23-.3s-.04.04-.06.05l.3-.23s-.06.04-.1.06l.36-.15c-.16.06-.33.1-.51.12l.4-.05c-.32.04-.65.03-.97-.02l.4.05c-.34-.05-.68-.12-1.02-.2-.39-.09-.81-.05-1.16.15-.31.18-.61.54-.69.9-.09.38-.07.81.15,1.16.21.32.51.6.9.69h0Z"/><path class="cls-3" d="M33.89,30.24c.06-.47-.14-.96-.46-1.3s-.79-.53-1.27-.58c-.15-.02-.33.13-.36.28-.04.18-.01.34.07.5.06.11.14.2.22.3.12.15.24.29.37.43.29.31.63.56,1.04.7.19.06.42-.07.46-.26.05-.21-.06-.4-.26-.46-.04-.01-.07-.03-.11-.04.1.03.03.01,0,0-.02,0-.03-.02-.05-.03-.07-.04-.14-.08-.21-.13-.01,0-.03-.02-.04-.03-.07-.05.07.05,0,0-.03-.03-.06-.05-.09-.08-.06-.06-.12-.11-.18-.17-.11-.12-.22-.24-.33-.37-.03-.03-.05-.06-.08-.09-.01-.02-.02-.03-.04-.05-.04-.05,0-.02,0,0,0-.02-.04-.05-.04-.06-.01-.02-.02-.04-.03-.06-.02-.04.02.08,0,0v.05s0-.03,0,.03l-.36.28c.09,0-.09-.02,0,0,.02,0,.04,0,.06.01.04,0,.09.02.13.03s.08.03.13.04c0,0,.05.02.06.02-.05-.02-.06-.03-.03-.01.01,0,.02,0,.03.01.08.04.16.08.23.13h.02s.03.03,0,.01c-.03-.02-.03-.02,0,0,0,0,.02.02.03.02.03.03.07.06.1.09,0,0,.08.08.08.09-.03-.04-.04-.05-.02-.02v.02s.04.04.05.06c.02.03.04.07.06.11,0,.01.01.02.02.03.01.03,0,.01-.01-.03,0,0,.02.06.03.07.01.04.02.08.03.12,0,.02,0,.05.01.07.01.07,0-.06,0-.02,0,.09,0,.18,0,.28s.05.21.11.27c.07.07.17.11.27.11s.2-.04.27-.11c.07-.08.1-.16.11-.27h0Z"/><path class="cls-3" d="M34.18,30.27c-.02-.52-.24-.98-.51-1.41-.13-.22-.27-.47-.5-.6-.25-.14-.59-.13-.87-.1-.19.02-.38.16-.38.38,0,.18.17.4.38.38.11-.01.22-.02.34-.01.03,0,.06,0,.08,0,.02,0,.03,0,.05,0h-.04s.05,0,.08.01c.04,0-.04-.03,0,0-.1-.07.05.05.04.05-.01,0-.05-.06,0,0,.01.02.02.04.04.06.05.09.11.17.16.26s.1.17.15.26c.02.04.05.09.07.14,0,.02.02.04.03.05.04.09-.02-.05,0,0,.04.09.07.19.09.28.01.05.02.1.03.15,0,.05,0-.07,0,0,0,.03,0,.06,0,.09,0,.2.17.38.38.38.2,0,.38-.17.38-.38h0Z"/><path class="cls-2" d="M71.4,23.91c.62.15,1.26.28,1.91.29.9.02,1.99-.2,2.47-1.05.29-.5.3-1.12.01-1.62-.21-.37-.6-.7-1.03-.79-.37-.08-.77-.11-1.15-.13-.56-.04-1.11-.02-1.67.03-.21,0-.4.04-.58.13-.19.06-.35.16-.48.31-.26.26-.46.69-.44,1.06s.14.79.44,1.06c.28.25.67.48,1.06.44.78-.07,1.56-.06,2.34.04l-.4-.05s.07.01.11.02l-.36-.15s.04.02.06.03l-.3-.23.02.03-.23-.3.02.03-.15-.36v.03c-.01-.13-.03-.27-.05-.4v.03c.02-.13.03-.27.05-.4v.03c.04-.12.09-.24.14-.36,0,.02-.02.04-.04.06l.23-.3s-.04.04-.06.05l.3-.23s-.06.04-.1.06l.36-.15c-.16.06-.33.1-.51.12l.4-.05c-.32.04-.65.03-.97-.02l.4.05c-.34-.05-.68-.12-1.02-.2-.39-.09-.81-.05-1.16.15-.31.18-.61.54-.69.9-.09.38-.07.81.15,1.16.21.32.51.6.9.69h0Z"/><path class="cls-3" d="M73.75,21.73c.06-.47-.14-.96-.46-1.3s-.79-.53-1.27-.58c-.15-.02-.33.13-.36.28-.04.18-.01.34.07.5.06.11.14.2.22.3.12.15.24.29.37.43.29.31.63.56,1.04.7.19.06.42-.07.46-.26.05-.21-.06-.4-.26-.46-.04-.01-.07-.03-.11-.04.1.03.03.01,0,0-.02,0-.03-.02-.05-.03-.07-.04-.14-.08-.21-.13-.01,0-.03-.02-.04-.03-.07-.05.07.05,0,0-.03-.03-.06-.05-.09-.08-.06-.06-.12-.11-.18-.17-.11-.12-.22-.24-.33-.37-.03-.03-.05-.06-.08-.09-.01-.02-.02-.03-.04-.05-.04-.05,0-.02,0,0,0-.02-.04-.05-.04-.06-.01-.02-.02-.04-.03-.06-.02-.04.02.08,0,0v.05s0-.03,0,.03l-.36.28c.09,0-.09-.02,0,0,.02,0,.04,0,.06.01.04,0,.09.02.13.03s.08.03.13.04c0,0,.05.02.06.02-.05-.02-.06-.03-.03-.01.01,0,.02,0,.03.01.08.04.16.08.23.13h.02s.03.03,0,.01c-.03-.02-.03-.02,0,0,0,0,.02.02.03.02.03.03.07.06.1.09,0,0,.08.08.08.09-.03-.04-.04-.05-.02-.02v.02s.04.04.05.06c.02.03.04.07.06.11,0,.01.01.02.02.03.01.03,0,.01-.01-.03,0,0,.02.06.03.07.01.04.02.08.03.12,0,.02,0,.05.01.07.01.07,0-.06,0-.02,0,.09,0,.18,0,.28s.05.21.11.27c.07.07.17.11.27.11s.2-.04.27-.11c.07-.08.1-.16.11-.27h0Z"/><path class="cls-3" d="M74.04,21.76c-.02-.52-.24-.98-.51-1.41-.13-.22-.27-.47-.5-.6-.25-.14-.59-.13-.87-.1-.19.02-.38.16-.38.38,0,.18.17.4.38.38.11-.01.22-.02.34-.01.03,0,.06,0,.08,0,.02,0,.03,0,.05,0h-.04s.05,0,.08.01c.04,0-.04-.03,0,0-.1-.07.05.05.04.05-.01,0-.05-.06,0,0,.01.02.02.04.04.06.05.09.11.17.16.26s.1.17.15.26c.02.04.05.09.07.14,0,.02.02.04.03.05.04.09-.02-.05,0,0,.04.09.07.19.09.28.01.05.02.1.03.15,0,.05,0-.07,0,0,0,.03,0,.06,0,.09,0,.2.17.38.38.38.2,0,.38-.17.38-.38h0Z"/><path class="cls-2" d="M68.4,38.91c.62.15,1.26.28,1.91.29.9.02,1.99-.2,2.47-1.05.29-.5.3-1.12.01-1.62-.21-.37-.6-.7-1.03-.79-.37-.08-.77-.11-1.15-.13-.56-.04-1.11-.02-1.67.03-.21,0-.4.04-.58.13-.19.06-.35.16-.48.31-.26.26-.46.69-.44,1.06s.14.79.44,1.06c.28.25.67.48,1.06.44.78-.07,1.56-.06,2.34.04l-.4-.05s.07.01.11.02l-.36-.15s.04.02.06.03l-.3-.23.02.03-.23-.3.02.03-.15-.36v.03c-.01-.13-.03-.27-.05-.4v.03c.02-.13.03-.27.05-.4v.03c.04-.12.09-.24.14-.36,0,.02-.02.04-.04.06l.23-.3s-.04.04-.06.05l.3-.23s-.06.04-.1.06l.36-.15c-.16.06-.33.1-.51.12l.4-.05c-.32.04-.65.03-.97-.02l.4.05c-.34-.05-.68-.12-1.02-.2-.39-.09-.81-.05-1.16.15-.31.18-.61.54-.69.9-.09.38-.07.81.15,1.16.21.32.51.6.9.69h0Z"/><path class="cls-3" d="M70.75,36.73c.06-.47-.14-.96-.46-1.3s-.79-.53-1.27-.58c-.15-.02-.33.13-.36.28-.04.18-.01.34.07.5.06.11.14.2.22.3.12.15.24.29.37.43.29.31.63.56,1.04.7.19.06.42-.07.46-.26.05-.21-.06-.4-.26-.46-.04-.01-.07-.03-.11-.04.1.03.03.01,0,0-.02,0-.03-.02-.05-.03-.07-.04-.14-.08-.21-.13-.01,0-.03-.02-.04-.03-.07-.05.07.05,0,0-.03-.03-.06-.05-.09-.08-.06-.06-.12-.11-.18-.17-.11-.12-.22-.24-.33-.37-.03-.03-.05-.06-.08-.09-.01-.02-.02-.03-.04-.05-.04-.05,0-.02,0,0,0-.02-.04-.05-.04-.06-.01-.02-.02-.04-.03-.06-.02-.04.02.08,0,0v.05s0-.03,0,.03l-.36.28c.09,0-.09-.02,0,0,.02,0,.04,0,.06.01.04,0,.09.02.13.03s.08.03.13.04c0,0,.05.02.06.02-.05-.02-.06-.03-.03-.01.01,0,.02,0,.03.01.08.04.16.08.23.13h.02s.03.03,0,.01c-.03-.02-.03-.02,0,0,0,0,.02.02.03.02.03.03.07.06.1.09,0,0,.08.08.08.09-.03-.04-.04-.05-.02-.02v.02s.04.04.05.06c.02.03.04.07.06.11,0,.01.01.02.02.03.01.03,0,.01-.01-.03,0,0,.02.06.03.07.01.04.02.08.03.12,0,.02,0,.05.01.07.01.07,0-.06,0-.02,0,.09,0,.18,0,.28s.05.21.11.27c.07.07.17.11.27.11s.2-.04.27-.11c.07-.08.1-.16.11-.27h0Z"/><path class="cls-3" d="M71.04,36.76c-.02-.52-.24-.98-.51-1.41-.13-.22-.27-.47-.5-.6-.25-.14-.59-.13-.87-.1-.19.02-.38.16-.38.38,0,.18.17.4.38.38.11-.01.22-.02.34-.01.03,0,.06,0,.08,0,.02,0,.03,0,.05,0h-.04s.05,0,.08.01c.04,0-.04-.03,0,0-.1-.07.05.05.04.05-.01,0-.05-.06,0,0,.01.02.02.04.04.06.05.09.11.17.16.26s.1.17.15.26c.02.04.05.09.07.14,0,.02.02.04.03.05.04.09-.02-.05,0,0,.04.09.07.19.09.28.01.05.02.1.03.15,0,.05,0-.07,0,0,0,.03,0,.06,0,.09,0,.2.17.38.38.38.2,0,.38-.17.38-.38h0Z"/><path class="cls-2" d="M19.62,42.17c.62.15,1.26.28,1.91.29.9.02,1.99-.2,2.47-1.05.29-.5.3-1.12.01-1.62-.21-.37-.6-.7-1.03-.79-.37-.08-.77-.11-1.15-.13-.56-.04-1.11-.02-1.67.03-.21,0-.4.04-.58.13-.19.06-.35.16-.48.31-.26.26-.46.69-.44,1.06s.14.79.44,1.06c.28.25.67.48,1.06.44.78-.07,1.56-.06,2.34.04l-.4-.05s.07.01.11.02l-.36-.15s.04.02.06.03l-.3-.23.02.03-.23-.3.02.03-.15-.36v.03c-.01-.13-.03-.27-.05-.4v.03c.02-.13.03-.27.05-.4v.03c.04-.12.09-.24.14-.36,0,.02-.02.04-.04.06l.23-.3s-.04.04-.06.05l.3-.23s-.06.04-.1.06l.36-.15c-.16.06-.33.1-.51.12l.4-.05c-.32.04-.65.03-.97-.02l.4.05c-.34-.05-.68-.12-1.02-.2-.39-.09-.81-.05-1.16.15-.31.18-.61.54-.69.9-.09.38-.07.81.15,1.16.21.32.51.6.9.69h0Z"/><path class="cls-3" d="M21.97,39.99c.06-.47-.14-.96-.46-1.3s-.79-.53-1.27-.58c-.15-.02-.33.13-.36.28-.04.18-.01.34.07.5.06.11.14.2.22.3.12.15.24.29.37.43.29.31.63.56,1.04.7.19.06.42-.07.46-.26.05-.21-.06-.4-.26-.46-.04-.01-.07-.03-.11-.04.1.03.03.01,0,0-.02,0-.03-.02-.05-.03-.07-.04-.14-.08-.21-.13-.01,0-.03-.02-.04-.03-.07-.05.07.05,0,0-.03-.03-.06-.05-.09-.08-.06-.06-.12-.11-.18-.17-.11-.12-.22-.24-.33-.37-.03-.03-.05-.06-.08-.09-.01-.02-.02-.03-.04-.05-.04-.05,0-.02,0,0,0-.02-.04-.05-.04-.06-.01-.02-.02-.04-.03-.06-.02-.04.02.08,0,0v.05s0-.03,0,.03l-.36.28c.09,0-.09-.02,0,0,.02,0,.04,0,.06.01.04,0,.09.02.13.03s.08.03.13.04c0,0,.05.02.06.02-.05-.02-.06-.03-.03-.01.01,0,.02,0,.03.01.08.04.16.08.23.13h.02s.03.03,0,.01c-.03-.02-.03-.02,0,0,0,0,.02.02.03.02.03.03.07.06.1.09,0,0,.08.08.08.09-.03-.04-.04-.05-.02-.02v.02s.04.04.05.06c.02.03.04.07.06.11,0,.01.01.02.02.03.01.03,0,.01-.01-.03,0,0,.02.06.03.07.01.04.02.08.03.12,0,.02,0,.05.01.07.01.07,0-.06,0-.02,0,.09,0,.18,0,.28s.05.21.11.27c.07.07.17.11.27.11s.2-.04.27-.11c.07-.08.1-.16.11-.27h0Z"/><path class="cls-3" d="M22.26,40.02c-.02-.52-.24-.98-.51-1.41-.13-.22-.27-.47-.5-.6-.25-.14-.59-.13-.87-.1-.19.02-.38.16-.38.38,0,.18.17.4.38.38.11-.01.22-.02.34-.01.03,0,.06,0,.08,0,.02,0,.03,0,.05,0h-.04s.05,0,.08.01c.04,0-.04-.03,0,0-.1-.07.05.05.04.05-.01,0-.05-.06,0,0,.01.02.02.04.04.06.05.09.11.17.16.26s.1.17.15.26c.02.04.05.09.07.14,0,.02.02.04.03.05.04.09-.02-.05,0,0,.04.09.07.19.09.28.01.05.02.1.03.15,0,.05,0-.07,0,0,0,.03,0,.06,0,.09,0,.2.17.38.38.38.2,0,.38-.17.38-.38h0Z"/><path class="cls-2" d="M25.62,21.17c.62.15,1.26.28,1.91.29.9.02,1.99-.2,2.47-1.05.29-.5.3-1.12.01-1.62-.21-.37-.6-.7-1.03-.79-.37-.08-.77-.11-1.15-.13-.56-.04-1.11-.02-1.67.03-.21,0-.4.04-.58.13-.19.06-.35.16-.48.31-.26.26-.46.69-.44,1.06s.14.79.44,1.06c.28.25.67.48,1.06.44.78-.07,1.56-.06,2.34.04l-.4-.05s.07.01.11.02l-.36-.15s.04.02.06.03l-.3-.23.02.03-.23-.3.02.03-.15-.36v.03c-.01-.13-.03-.27-.05-.4v.03c.02-.13.03-.27.05-.4v.03c.04-.12.09-.24.14-.36,0,.02-.02.04-.04.06l.23-.3s-.04.04-.06.05l.3-.23s-.06.04-.1.06l.36-.15c-.16.06-.33.1-.51.12l.4-.05c-.32.04-.65.03-.97-.02l.4.05c-.34-.05-.68-.12-1.02-.2-.39-.09-.81-.05-1.16.15-.31.18-.61.54-.69.9-.09.38-.07.81.15,1.16.21.32.51.6.9.69h0Z"/><path class="cls-3" d="M27.97,18.99c.06-.47-.14-.96-.46-1.3s-.79-.53-1.27-.58c-.15-.02-.33.13-.36.28-.04.18-.01.34.07.5.06.11.14.2.22.3.12.15.24.29.37.43.29.31.63.56,1.04.7.19.06.42-.07.46-.26.05-.21-.06-.4-.26-.46-.04-.01-.07-.03-.11-.04.1.03.03.01,0,0-.02,0-.03-.02-.05-.03-.07-.04-.14-.08-.21-.13-.01,0-.03-.02-.04-.03-.07-.05.07.05,0,0-.03-.03-.06-.05-.09-.08-.06-.06-.12-.11-.18-.17-.11-.12-.22-.24-.33-.37-.03-.03-.05-.06-.08-.09-.01-.02-.02-.03-.04-.05-.04-.05,0-.02,0,0,0-.02-.04-.05-.04-.06-.01-.02-.02-.04-.03-.06-.02-.04.02.08,0,0v.05s0-.03,0,.03l-.36.28c.09,0-.09-.02,0,0,.02,0,.04,0,.06.01.04,0,.09.02.13.03s.08.03.13.04c0,0,.05.02.06.02-.05-.02-.06-.03-.03-.01.01,0,.02,0,.03.01.08.04.16.08.23.13h.02s.03.03,0,.01c-.03-.02-.03-.02,0,0,0,0,.02.02.03.02.03.03.07.06.1.09,0,0,.08.08.08.09-.03-.04-.04-.05-.02-.02v.02s.04.04.05.06c.02.03.04.07.06.11,0,.01.01.02.02.03.01.03,0,.01-.01-.03,0,0,.02.06.03.07.01.04.02.08.03.12,0,.02,0,.05.01.07.01.07,0-.06,0-.02,0,.09,0,.18,0,.28s.05.21.11.27c.07.07.17.11.27.11s.2-.04.27-.11c.07-.08.1-.16.11-.27h0Z"/><path class="cls-3" d="M28.26,19.02c-.02-.52-.24-.98-.51-1.41-.13-.22-.27-.47-.5-.6-.25-.14-.59-.13-.87-.1-.19.02-.38.16-.38.38,0,.18.17.4.38.38.11-.01.22-.02.34-.01.03,0,.06,0,.08,0,.02,0,.03,0,.05,0h-.04s.05,0,.08.01c.04,0-.04-.03,0,0-.1-.07.05.05.04.05-.01,0-.05-.06,0,0,.01.02.02.04.04.06.05.09.11.17.16.26s.1.17.15.26c.02.04.05.09.07.14,0,.02.02.04.03.05.04.09-.02-.05,0,0,.04.09.07.19.09.28.01.05.02.1.03.15,0,.05,0-.07,0,0,0,.03,0,.06,0,.09,0,.2.17.38.38.38.2,0,.38-.17.38-.38h0Z"/><path class="cls-2" d="M38.05,58.2c.62.15,1.26.28,1.91.29.9.02,1.99-.2,2.47-1.05.29-.5.3-1.12.01-1.62-.21-.37-.6-.7-1.03-.79-.37-.08-.77-.11-1.15-.13-.56-.04-1.11-.02-1.67.03-.21,0-.4.04-.58.13-.19.06-.35.16-.48.31-.26.26-.46.69-.44,1.06s.14.79.44,1.06c.28.25.67.48,1.06.44.78-.07,1.56-.06,2.34.04l-.4-.05s.07.01.11.02l-.36-.15s.04.02.06.03l-.3-.23.02.03-.23-.3.02.03-.15-.36v.03c-.01-.13-.03-.27-.05-.4v.03c.02-.13.03-.27.05-.4v.03c.04-.12.09-.24.14-.36,0,.02-.02.04-.04.06l.23-.3s-.04.04-.06.05l.3-.23s-.06.04-.1.06l.36-.15c-.16.06-.33.1-.51.12l.4-.05c-.32.04-.65.03-.97-.02l.4.05c-.34-.05-.68-.12-1.02-.2-.39-.09-.81-.05-1.16.15-.31.18-.61.54-.69.9-.09.38-.07.81.15,1.16.21.32.51.6.9.69h0Z"/><path class="cls-3" d="M40.4,56.02c.06-.47-.14-.96-.46-1.3s-.79-.53-1.27-.58c-.15-.02-.33.13-.36.28-.04.18-.01.34.07.5.06.11.14.2.22.3.12.15.24.29.37.43.29.31.63.56,1.04.7.19.06.42-.07.46-.26.05-.21-.06-.4-.26-.46-.04-.01-.07-.03-.11-.04.1.03.03.01,0,0-.02,0-.03-.02-.05-.03-.07-.04-.14-.08-.21-.13-.01,0-.03-.02-.04-.03-.07-.05.07.05,0,0-.03-.03-.06-.05-.09-.08-.06-.06-.12-.11-.18-.17-.11-.12-.22-.24-.33-.37-.03-.03-.05-.06-.08-.09-.01-.02-.02-.03-.04-.05-.04-.05,0-.02,0,0,0-.02-.04-.05-.04-.06-.01-.02-.02-.04-.03-.06-.02-.04.02.08,0,0v.05s0-.03,0,.03l-.36.28c.09,0-.09-.02,0,0,.02,0,.04,0,.06.01.04,0,.09.02.13.03s.08.03.13.04c0,0,.05.02.06.02-.05-.02-.06-.03-.03-.01.01,0,.02,0,.03.01.08.04.16.08.23.13h.02s.03.03,0,.01c-.03-.02-.03-.02,0,0,0,0,.02.02.03.02.03.03.07.06.1.09,0,0,.08.08.08.09-.03-.04-.04-.05-.02-.02v.02s.04.04.05.06c.02.03.04.07.06.11,0,.01.01.02.02.03.01.03,0,.01-.01-.03,0,0,.02.06.03.07.01.04.02.08.03.12,0,.02,0,.05.01.07.01.07,0-.06,0-.02,0,.09,0,.18,0,.28s.05.21.11.27c.07.07.17.11.27.11s.2-.04.27-.11c.07-.08.1-.16.11-.27h0Z"/><path class="cls-3" d="M40.69,56.05c-.02-.52-.24-.98-.51-1.41-.13-.22-.27-.47-.5-.6-.25-.14-.59-.13-.87-.1-.19.02-.38.16-.38.38,0,.18.17.4.38.38.11-.01.22-.02.34-.01.03,0,.06,0,.08,0,.02,0,.03,0,.05,0h-.04s.05,0,.08.01c.04,0-.04-.03,0,0-.1-.07.05.05.04.05-.01,0-.05-.06,0,0,.01.02.02.04.04.06.05.09.11.17.16.26s.1.17.15.26c.02.04.05.09.07.14,0,.02.02.04.03.05.04.09-.02-.05,0,0,.04.09.07.19.09.28.01.05.02.1.03.15,0,.05,0-.07,0,0,0,.03,0,.06,0,.09,0,.2.17.38.38.38.2,0,.38-.17.38-.38h0Z"/><path class="cls-2" d="M89.05,34.2c.62.15,1.26.28,1.91.29.9.02,1.99-.2,2.47-1.05.29-.5.3-1.12.01-1.62-.21-.37-.6-.7-1.03-.79-.37-.08-.77-.11-1.15-.13-.56-.04-1.11-.02-1.67.03-.21,0-.4.04-.58.13-.19.06-.35.16-.48.31-.26.26-.46.69-.44,1.06s.14.79.44,1.06c.28.25.67.48,1.06.44.78-.07,1.56-.06,2.34.04l-.4-.05s.07.01.11.02l-.36-.15s.04.02.06.03l-.3-.23.02.03-.23-.3.02.03-.15-.36v.03c-.01-.13-.03-.27-.05-.4v.03c.02-.13.03-.27.05-.4v.03c.04-.12.09-.24.14-.36,0,.02-.02.04-.04.06l.23-.3s-.04.04-.06.05l.3-.23s-.06.04-.1.06l.36-.15c-.16.06-.33.1-.51.12l.4-.05c-.32.04-.65.03-.97-.02l.4.05c-.34-.05-.68-.12-1.02-.2-.39-.09-.81-.05-1.16.15-.31.18-.61.54-.69.9-.09.38-.07.81.15,1.16.21.32.51.6.9.69h0Z"/><path class="cls-3" d="M91.4,32.02c.06-.47-.14-.96-.46-1.3s-.79-.53-1.27-.58c-.15-.02-.33.13-.36.28-.04.18-.01.34.07.5.06.11.14.2.22.3.12.15.24.29.37.43.29.31.63.56,1.04.7.19.06.42-.07.46-.26.05-.21-.06-.4-.26-.46-.04-.01-.07-.03-.11-.04.1.03.03.01,0,0-.02,0-.03-.02-.05-.03-.07-.04-.14-.08-.21-.13-.01,0-.03-.02-.04-.03-.07-.05.07.05,0,0-.03-.03-.06-.05-.09-.08-.06-.06-.12-.11-.18-.17-.11-.12-.22-.24-.33-.37-.03-.03-.05-.06-.08-.09-.01-.02-.02-.03-.04-.05-.04-.05,0-.02,0,0,0-.02-.04-.05-.04-.06-.01-.02-.02-.04-.03-.06-.02-.04.02.08,0,0v.05s0-.03,0,.03l-.36.28c.09,0-.09-.02,0,0,.02,0,.04,0,.06.01.04,0,.09.02.13.03s.08.03.13.04c0,0,.05.02.06.02-.05-.02-.06-.03-.03-.01.01,0,.02,0,.03.01.08.04.16.08.23.13h.02s.03.03,0,.01c-.03-.02-.03-.02,0,0,0,0,.02.02.03.02.03.03.07.06.1.09,0,0,.08.08.08.09-.03-.04-.04-.05-.02-.02v.02s.04.04.05.06c.02.03.04.07.06.11,0,.01.01.02.02.03.01.03,0,.01-.01-.03,0,0,.02.06.03.07.01.04.02.08.03.12,0,.02,0,.05.01.07.01.07,0-.06,0-.02,0,.09,0,.18,0,.28s.05.21.11.27c.07.07.17.11.27.11s.2-.04.27-.11c.07-.08.1-.16.11-.27h0Z"/><path class="cls-3" d="M91.69,32.05c-.02-.52-.24-.98-.51-1.41-.13-.22-.27-.47-.5-.6-.25-.14-.59-.13-.87-.1-.19.02-.38.16-.38.38,0,.18.17.4.38.38.11-.01.22-.02.34-.01.03,0,.06,0,.08,0,.02,0,.03,0,.05,0h-.04s.05,0,.08.01c.04,0-.04-.03,0,0-.1-.07.05.05.04.05-.01,0-.05-.06,0,0,.01.02.02.04.04.06.05.09.11.17.16.26s.1.17.15.26c.02.04.05.09.07.14,0,.02.02.04.03.05.04.09-.02-.05,0,0,.04.09.07.19.09.28.01.05.02.1.03.15,0,.05,0-.07,0,0,0,.03,0,.06,0,.09,0,.2.17.38.38.38.2,0,.38-.17.38-.38h0Z"/></g></svg>