<?xml version="1.0" encoding="UTF-8"?><svg id="Layer_2" xmlns="http://www.w3.org/2000/svg" width="112.46" height="108.13" viewBox="0 0 112.46 108.13"><defs><style>.cls-1{fill:#fde4d2;}.cls-1,.cls-2,.cls-3,.cls-4,.cls-5,.cls-6,.cls-7,.cls-8{stroke-width:0px;}.cls-2{fill:#bed984;}.cls-3{fill:#f2d8da;}.cls-4{fill:#e5d216;}.cls-5{fill:#f28d52;}.cls-6{fill:#ef8b8b;}.cls-7{fill:#fff933;}.cls-8{fill:#f29999;}</style></defs><g id="Layer_3"><path class="cls-8" d="M.46,86.1c-.86.67-.3,2.49,0,4.61.56,3.91-.21,5.62,0,6.95.83,5.3,17.66,9.17,40,9.44,2.85.04,7.65,1.24,16,1,4.07-.12,5.35.11,12,0,17.48-.28,20.14-2.67,22-3,13.8-2.44,15.62-6.42,16-8,.14-.59.08-.84,0-3-.27-7.36.99-9.12,0-10-1.59-1.42-5.72,1.77-11,4-1.79.76-5.44,2.14-19,3-12.26.78-14.62,0-34,0-19.52,0-21.19.81-25-1-4.67-2.22-10.12-2.28-15-4-.33-.11-1.37-.49-2,0Z"/><polygon class="cls-3" points=".46 65.1 0 88.27 6.46 89.1 16.46 92.1 36.46 93.1 52.46 94.1 68.06 94.1 82.46 92.1 93.08 90.75 101.46 87.1 106.84 85.38 106.46 79.1 106.46 65.1 98.46 68.1 88.46 70.1 80.46 72.1 68.46 73.1 53.46 74.1 35.46 74.1 21.46 74.1 .46 65.1"/><path class="cls-6" d="M.46,69.1c3.51,5.31,6.76,6.68,9,7,4.27.61,6.09-2.42,11-2,5.02.43,5.09,3.78,10,5,7.68,1.91,10.93-5.45,19-4,6.36,1.14,6.66,6.13,12,6,6.23-.15,7.64-6.99,14-7,5.2,0,6.15,4.57,11,4,4.9-.58,5.61-5.46,11-6,4.13-.41,6.21,2.21,8,1,2.61-1.77.8-9.15,0-11-2.68-6.23-20.28-11.22-105,7Z"/><path class="cls-6" d="M.86,57.26l-.79,11.83h106.39l-.02-8.12c0-1.7-.81-3.3-2.18-4.31l-1.27-.94c-3.24-2.39-6.97-4.04-10.92-4.83l-4-.8-10-2-6.33-1.81c-.45-.13-.91-.21-1.37-.24l-14.3-.95h-18.43c-3.07,0-6.13.41-9.09,1.22l-6.48,1.78-12,3-5.99,2c-1.82.61-3.09,2.25-3.22,4.17Z"/><path class="cls-2" d="M58.46,14.42v37.24c0,.53-.32,1.01-.81,1.22-1.46.62-3.06.82-4.63.6l-1.44-.21c-.65-.09-1.13-.65-1.13-1.31V14.42c0-.73.59-1.32,1.32-1.32h5.36c.73,0,1.32.59,1.32,1.32Z"/><path class="cls-5" d="M53.46,1.1c-1,.24-2,3.45-2,5s1,4.76,2,5c.98.24,3-2.32,3-5s-2.02-5.24-3-5Z"/><polyline class="cls-1" points="50.46 44.54 58.46 47.57 58.46 44.54 50.46 41.5 50.46 36.76 58.46 39.68 58.46 35.79 50.46 33.33 50.46 28.75 58.46 31.06 58.46 28.02 50.46 25.23 50.46 21.59 58.46 23.77 58.46 20.25 50.46 17.46 50.46 14.42"/><path class="cls-7" d="M35.38,14.94v1.72c0,.21.04.4.13.58.06.19.16.35.31.48.14.15.3.25.48.31.18.09.37.14.58.13.39-.02.79-.14,1.06-.44s.44-.65.44-1.06v-1.72c0-.21-.04-.4-.13-.58-.06-.19-.16-.35-.31-.48-.14-.15-.3-.25-.48-.31-.18-.09-.37-.14-.58-.13-.39.02-.79.14-1.06.44s-.44.65-.44,1.06h0Z"/><path class="cls-4" d="M33.14,19.38h1.19"/><path class="cls-7" d="M33.14,20.88h1.19c.21,0,.4-.04.58-.13.19-.06.35-.16.48-.31.15-.14.25-.3.31-.48.09-.18.14-.37.13-.58l-.05-.4c-.07-.25-.2-.47-.39-.66l-.3-.23c-.23-.14-.49-.2-.76-.2h-1.19c-.21,0-.4.04-.58.13-.19.06-.35.16-.48.31-.15.14-.25.3-.31.48-.09.18-.14.37-.13.58l.05.4c.07.25.2.47.39.66l.3.23c.23.14.49.2.76.2h0Z"/><path class="cls-4" d="M36.88,22.55v2.54"/><path class="cls-7" d="M35.38,22.55v2.54c0,.38.17.79.44,1.06s.69.46,1.06.44.79-.14,1.06-.44.44-.65.44-1.06v-2.54c0-.38-.17-.79-.44-1.06s-.69-.46-1.06-.44-.79.14-1.06.44-.44.65-.44,1.06h0Z"/><path class="cls-4" d="M39.27,19.49h1.19"/><path class="cls-7" d="M39.27,20.99h1.19c.21,0,.4-.04.58-.13.19-.06.35-.16.48-.31.15-.14.25-.3.31-.48.09-.18.14-.37.13-.58l-.05-.4c-.07-.25-.2-.47-.39-.66l-.3-.23c-.23-.14-.49-.2-.76-.2h-1.19c-.21,0-.4.04-.58.13-.19.06-.35.16-.48.31-.15.14-.25.3-.31.48-.09.18-.14.37-.13.58l.05.4c.07.25.2.47.39.66l.3.23c.23.14.49.2.76.2h0Z"/><path class="cls-7" d="M72.27,28.5v1.72c0,.21.04.4.13.58.06.19.16.35.31.48.14.15.3.25.48.31.18.09.37.14.58.13.39-.02.79-.14,1.06-.44s.44-.65.44-1.06v-1.72c0-.21-.04-.4-.13-.58-.06-.19-.16-.35-.31-.48-.14-.15-.3-.25-.48-.31-.18-.09-.37-.14-.58-.13-.39.02-.79.14-1.06.44s-.44.65-.44,1.06h0Z"/><path class="cls-4" d="M70.03,32.94h1.19"/><path class="cls-7" d="M70.03,34.44h1.19c.21,0,.4-.04.58-.13.19-.06.35-.16.48-.31.15-.14.25-.3.31-.48.09-.18.14-.37.13-.58l-.05-.4c-.07-.25-.2-.47-.39-.66l-.3-.23c-.23-.14-.49-.2-.76-.2h-1.19c-.21,0-.4.04-.58.13-.19.06-.35.16-.48.31-.15.14-.25.3-.31.48-.09.18-.14.37-.13.58l.05.4c.07.25.2.47.39.66l.3.23c.23.14.49.2.76.2h0Z"/><path class="cls-4" d="M73.77,36.11v2.54"/><path class="cls-7" d="M72.27,36.11v2.54c0,.38.17.79.44,1.06s.69.46,1.06.44.79-.14,1.06-.44.44-.65.44-1.06v-2.54c0-.38-.17-.79-.44-1.06s-.69-.46-1.06-.44-.79.14-1.06.44-.44.65-.44,1.06h0Z"/><path class="cls-4" d="M76.15,33.04h1.19"/><path class="cls-7" d="M76.15,34.54h1.19c.21,0,.4-.04.58-.13.19-.06.35-.16.48-.31.15-.14.25-.3.31-.48.09-.18.14-.37.13-.58l-.05-.4c-.07-.25-.2-.47-.39-.66l-.3-.23c-.23-.14-.49-.2-.76-.2h-1.19c-.21,0-.4.04-.58.13-.19.06-.35.16-.48.31-.15.14-.25.3-.31.48-.09.18-.14.37-.13.58l.05.4c.07.25.2.47.39.66l.3.23c.23.14.49.2.76.2h0Z"/><path class="cls-7" d="M76.27,1.5v1.72c0,.21.04.4.13.58.06.19.16.35.31.48.14.15.3.25.48.31.18.09.37.14.58.13.39-.02.79-.14,1.06-.44s.44-.65.44-1.06v-1.72c0-.21-.04-.4-.13-.58-.06-.19-.16-.35-.31-.48-.14-.15-.3-.25-.48-.31-.18-.09-.37-.14-.58-.13-.39.02-.79.14-1.06.44s-.44.65-.44,1.06h0Z"/><path class="cls-4" d="M74.03,5.94h1.19"/><path class="cls-7" d="M74.03,7.44h1.19c.21,0,.4-.04.58-.13.19-.06.35-.16.48-.31.15-.14.25-.3.31-.48.09-.18.14-.37.13-.58l-.05-.4c-.07-.25-.2-.47-.39-.66l-.3-.23c-.23-.14-.49-.2-.76-.2h-1.19c-.21,0-.4.04-.58.13-.19.06-.35.16-.48.31-.15.14-.25.3-.31.48-.09.18-.14.37-.13.58l.05.4c.07.25.2.47.39.66l.3.23c.23.14.49.2.76.2h0Z"/><path class="cls-4" d="M77.77,9.11v2.54"/><path class="cls-7" d="M76.27,9.11v2.54c0,.38.17.79.44,1.06s.69.46,1.06.44.79-.14,1.06-.44.44-.65.44-1.06v-2.54c0-.38-.17-.79-.44-1.06s-.69-.46-1.06-.44-.79.14-1.06.44-.44.65-.44,1.06h0Z"/><path class="cls-4" d="M80.15,6.04h1.19"/><path class="cls-7" d="M80.15,7.54h1.19c.21,0,.4-.04.58-.13.19-.06.35-.16.48-.31.15-.14.25-.3.31-.48.09-.18.14-.37.13-.58l-.05-.4c-.07-.25-.2-.47-.39-.66l-.3-.23c-.23-.14-.49-.2-.76-.2h-1.19c-.21,0-.4.04-.58.13-.19.06-.35.16-.48.31-.15.14-.25.3-.31.48-.09.18-.14.37-.13.58l.05.4c.07.25.2.47.39.66l.3.23c.23.14.49.2.76.2h0Z"/></g></svg>