<?xml version="1.0" encoding="UTF-8"?><svg id="Layer_1" xmlns="http://www.w3.org/2000/svg" width="684" height="666" viewBox="0 0 684 666"><defs><style>.cls-1{fill:#815b4a;}.cls-1,.cls-2,.cls-3,.cls-4,.cls-5,.cls-6,.cls-7,.cls-8,.cls-9,.cls-10,.cls-11{stroke-width:0px;}.cls-2,.cls-12{fill:#fde3d0;}.cls-3{fill:#8590d9;}.cls-4{fill:#f36a68;}.cls-5{fill:#000;}.cls-6{fill:#ffeef6;}.cls-7{fill:#fd556a;}.cls-8{fill:#f08988;}.cls-9{fill:#f5bec9;}.cls-10{fill:#fff;}.cls-12{stroke:#f7c3c2;stroke-miterlimit:10;stroke-width:.25px;}.cls-11{fill:#a6705b;}</style></defs><path class="cls-6" d="M70.58,3.5h542.84c37.02,0,67.08,30.06,67.08,67.08v524.84c0,37.02-30.06,67.08-67.08,67.08H70.58c-37.02,0-67.08-30.06-67.08-67.08V70.58C3.5,33.56,33.56,3.5,70.58,3.5Z"/><path class="cls-7" d="M613.42,7c35.06,0,63.58,28.52,63.58,63.58v524.84c0,35.06-28.52,63.58-63.58,63.58H70.58c-35.06,0-63.58-28.52-63.58-63.58V70.58C7,35.52,35.52,7,70.58,7h542.84M613.42,0H70.58C31.6,0,0,31.6,0,70.58v524.84C0,634.4,31.6,666,70.58,666h542.84c38.98,0,70.58-31.6,70.58-70.58V70.58c0-38.98-31.6-70.58-70.58-70.58h0Z"/><path class="cls-5" d="M147.42,124.62c-.3.54-.85,1.28-1.67,2.23-.81.95-1.35,1.7-1.62,2.27-2.19,4.29-4.09,8.51-5.71,12.65-2.37,6.06-3.44,10.37-3.2,12.92-.54.39-1.05.58-1.53.58-.96,0-1.73-.84-2.29-2.52.18-.15.47-.43.88-.83s1.04-1.84,1.91-4.3c.54-1.65,1.09-3.3,1.66-4.95-1.92-1.5-3.58-3.85-4.99-7.07-2.34-5.37-3.51-9.01-3.51-10.93,0-1.23.48-1.85,1.44-1.85.63,0,1.14.33,1.53.99.3.6.45,1.23.45,1.89,0,.21-.07.48-.2.81s-.2.58-.2.76c0,1.38.75,3.74,2.25,7.07,1.65,3.6,3.03,5.38,4.14,5.35.51-.54,1.94-3.54,4.28-9,2.07-4.89,3.61-7.33,4.63-7.33,1.08,0,1.67.42,1.75,1.26Z"/><path class="cls-5" d="M158.62,144.6c0,2.58-.57,4.83-1.71,6.75-1.35,2.31-3.23,3.46-5.62,3.46s-4.25-.95-5.45-2.83c-.99-1.56-1.49-3.63-1.49-6.21s.57-5.05,1.71-7.51c1.44-3.03,3.27-4.54,5.49-4.54.57,0,1.38.33,2.43.99,3.09,1.92,4.64,5.22,4.64,9.9ZM156.46,144.55c0-1.92-.26-3.65-.77-5.17-.75-2.13-1.91-3.2-3.46-3.2-1.8,0-3.21,1.19-4.23,3.55-.78,1.83-1.17,3.8-1.17,5.9,0,1.89.27,3.48.81,4.77.78,1.77,2,2.66,3.65,2.66,1.8,0,3.16-1.02,4.09-3.06.72-1.59,1.08-3.41,1.08-5.45Z"/><path class="cls-5" d="M173.74,136.63c0,.93-.1,2.32-.29,4.16-.2,1.85-.29,3.44-.29,4.79,0,.54.05,1.57.16,3.08.11,1.52.16,2.6.16,3.26,0,1.32-.15,2.12-.45,2.38-.18.12-.44.18-.77.18-.66,0-1.11-.29-1.35-.86-.12-.57-.24-1.12-.36-1.67-.87,1.34-2.36,2.18-4.45,2.52-.78.12-1.68-.23-2.7-1.04-.93-.72-1.55-1.45-1.85-2.17-.42-1-.63-2.91-.63-5.74v-9.81c-.18-.9.33-1.36,1.53-1.36.84,0,1.26.48,1.26,1.44,0,1.44-.04,3.32-.13,5.62-.09,2.94-.13,4.82-.13,5.62-.03,1.08.21,2.16.72,3.24.6,1.29,1.37,1.94,2.29,1.94,1.53,0,2.71-1.02,3.55-3.06.6-1.53.9-3.21.9-5.04v-5.89c0-.24-.08-.58-.25-1.01-.17-.43-.25-.79-.25-1.06,0-.15.01-.32.04-.5.42-.39.84-.6,1.26-.63,1.35-.12,2.02.41,2.02,1.58Z"/><path class="cls-5" d="M199.17,139.96c0,.18-.02.43-.04.76-.63,3-.95,5.42-.95,7.25,0,.93.04,2.36.13,4.28.09,1.92.14,3.36.14,4.32,0,1.86-.15,3.21-.45,4.05-.36.99-1.05,1.82-2.07,2.48-1.02.66-2.07.99-3.15.99-1.26,0-2.72-.27-4.37-.81-2.1-.66-3.15-1.46-3.15-2.38,0-.81.32-1.21.95-1.21.27,0,.51.18.72.54.3.51.5.79.58.85.24.24.86.46,1.85.67.9.24,1.57.36,2.02.36,1.68,0,2.96-.66,3.83-1.98.75-1.11,1.12-2.57,1.12-4.37,0-1.92-.17-3.45-.5-4.59-1.44,1.89-3.17,2.83-5.17,2.83-.6,0-1.3-.2-2.12-.61-.81-.41-1.41-.85-1.8-1.33-.81-.96-1.21-2.47-1.21-4.54,0-2.55.46-5.29,1.39-8.23,1.2-3.81,2.77-5.72,4.73-5.72,1.56,0,3.21,1.41,4.95,4.23.18.33.46.76.86,1.3.39.12.96.41,1.71.86ZM196.47,142.44c0-.63-.22-1.15-.67-1.58-.09-1.26-.41-2.34-.95-3.24-.69-1.11-1.62-1.67-2.79-1.67-.81,0-1.62.92-2.43,2.75-.6,1.38-1.01,2.67-1.21,3.87-.3,1.8-.45,3.33-.45,4.59,0,3.69,1.06,5.53,3.2,5.53,1.62,0,2.97-1.35,4.05-4.05.84-2.19,1.26-4.26,1.26-6.21Z"/><path class="cls-5" d="M215.68,144.6c0,2.58-.57,4.83-1.71,6.75-1.35,2.31-3.23,3.46-5.62,3.46s-4.25-.95-5.45-2.83c-.99-1.56-1.48-3.63-1.48-6.21s.57-5.05,1.71-7.51c1.44-3.03,3.27-4.54,5.49-4.54.57,0,1.38.33,2.43.99,3.09,1.92,4.63,5.22,4.63,9.9ZM213.52,144.55c0-1.92-.25-3.65-.76-5.17-.75-2.13-1.91-3.2-3.46-3.2-1.8,0-3.21,1.19-4.23,3.55-.78,1.83-1.17,3.8-1.17,5.9,0,1.89.27,3.48.81,4.77.78,1.77,1.99,2.66,3.64,2.66,1.8,0,3.17-1.02,4.09-3.06.72-1.59,1.08-3.41,1.08-5.45Z"/><path class="cls-5" d="M225.49,139.29c-.24.18-.81.33-1.71.45-.99.12-1.56.23-1.71.32-.03.33-.04,2-.04,5,0,2.34.03,3.92.09,4.72,0,.33.08.86.23,1.58.15.72.22,1.28.22,1.67,0,.24-.15.48-.45.72s-.57.36-.81.36c-.6,0-1.08-.62-1.44-1.84-.24-.9-.36-1.76-.36-2.57v-9.36c-.18-.15-.85-.15-2.02,0-.93.12-1.4-.22-1.4-1.03,0-1.14,1.21-1.67,3.64-1.58l.58-8.15c0-.09-.04-.23-.11-.43-.08-.2-.11-.34-.11-.43,0-.18.12-.35.36-.52.24-.17.52-.23.85-.2,1.05.09,1.58.62,1.58,1.58,0,.75-.11,1.88-.32,3.38-.21,1.5-.31,2.61-.31,3.33,0,.36.03.71.09,1.04l2.47-.13c.84,0,1.26.33,1.26.99,0,.48-.2.85-.59,1.12Z"/><path class="cls-5" d="M308.29,142.44c0,2.97-.43,5.46-1.3,7.47-1.17,2.79-3.01,4.19-5.54,4.19-1.65,0-3.09-.76-4.32-2.29-.21.09-.31,1.02-.31,2.79,0,3.9.19,6.66.58,8.28.03.15.17.51.43,1.08.25.57.38.92.38,1.04,0,.48-.3.72-.9.72-.72,0-1.22-.11-1.51-.32s-.53-.9-.74-2.07c-.18-.99-.27-1.77-.27-2.34v-11.43c0-1.05.05-2.46.16-4.23.11-2.07.17-3.48.2-4.23.03-.81.03-1.86,0-3.15v-3.2c0-2.07.54-3.1,1.62-3.1.54,0,.81.2.81.58,0,.75-.06,1.84-.18,3.29-.12,1.44-.18,2.52-.18,3.24h.18c.69-.93,1.38-1.88,2.07-2.83.81-1.05,1.81-1.58,3.01-1.58,2.01,0,3.52.9,4.54,2.7.84,1.44,1.26,3.24,1.26,5.4ZM306.04,142.62c0-1.59-.17-2.95-.5-4.09-.51-1.68-1.33-2.52-2.47-2.52-.84,0-1.86.74-3.06,2.21-1.05,1.29-1.79,2.61-2.21,3.96-.33,1.02-.6,2.52-.81,4.5-.12,1.44-.18,2.13-.18,2.07,0,.09.13.24.4.45.18.12.36.26.54.41.48.69.96,1.39,1.46,2.09s1.23,1.06,2.22,1.06c1.64,0,2.88-1.35,3.72-4.05.6-1.92.9-3.94.9-6.08Z"/><path class="cls-5" d="M324.81,144.6c0,2.58-.57,4.83-1.71,6.75-1.35,2.31-3.23,3.46-5.62,3.46s-4.25-.95-5.45-2.83c-.99-1.56-1.49-3.63-1.49-6.21s.57-5.05,1.71-7.51c1.44-3.03,3.27-4.54,5.49-4.54.57,0,1.38.33,2.43.99,3.09,1.92,4.64,5.22,4.64,9.9ZM322.65,144.55c0-1.92-.26-3.65-.77-5.17-.75-2.13-1.91-3.2-3.46-3.2-1.8,0-3.21,1.19-4.23,3.55-.78,1.83-1.17,3.8-1.17,5.9,0,1.89.27,3.48.81,4.77.78,1.77,2,2.66,3.65,2.66,1.8,0,3.16-1.02,4.09-3.06.72-1.59,1.08-3.41,1.08-5.45Z"/><path class="cls-5" d="M331.01,135.87c0,.54-.13,1.35-.38,2.43-.26,1.08-.38,1.89-.38,2.43v9.95c0,.66.15,1.56.45,2.7-.12.24-.29.36-.5.36-1.47,0-2.21-.7-2.21-2.12v-16.51c.39-.21.77-.31,1.12-.31s.74.11,1.12.31c.51.21.77.47.77.76ZM331.87,129.12c0,1.02-.48,1.53-1.44,1.53-.57,0-1.09-.21-1.57-.63-.48-.42-.72-.9-.72-1.44,0-1.02.51-1.53,1.53-1.53.6,0,1.12.2,1.55.58.43.39.65.88.65,1.48Z"/><path class="cls-5" d="M348.38,153.69c-.17.33-.41.5-.72.5s-.82-.21-1.53-.63v-2.75c0-9.96-1.24-14.94-3.72-14.94-.78,0-1.61.57-2.51,1.71-2.27,2.82-3.4,6.38-3.4,10.66,0,.57.08,1.4.25,2.5.17,1.1.25,1.93.25,2.5,0,.45-.31.68-.91.68-1.16,0-1.74-.95-1.74-2.83v-10.22c0-.27.01-.66.04-1.17.03-.51.04-.9.04-1.17,0-.39-.05-.96-.16-1.71-.11-.75-.16-1.3-.16-1.67,0-.24.19-.52.56-.83.38-.32.67-.47.88-.47.39,0,.75.21,1.08.63-.09,1.95-.13,3.09-.13,3.42,0,.45.01.89.04,1.3.27-.09.63-.58,1.08-1.48.57-1.14,1.05-1.92,1.44-2.34.72-.84,1.54-1.26,2.47-1.26.36,0,.9.14,1.62.41,1.62.6,2.77,1.59,3.46,2.97,1.17,2.37,1.75,5.51,1.75,9.41v6.79Z"/><path class="cls-5" d="M358.82,139.29c-.24.18-.81.33-1.71.45-.99.12-1.56.23-1.71.32-.03.33-.04,2-.04,5,0,2.34.03,3.92.09,4.72,0,.33.07.86.22,1.58s.23,1.28.23,1.67c0,.24-.15.48-.45.72s-.57.36-.81.36c-.6,0-1.08-.62-1.44-1.84-.24-.9-.36-1.76-.36-2.57v-9.36c-.18-.15-.85-.15-2.02,0-.94.12-1.4-.22-1.4-1.03,0-1.14,1.21-1.67,3.65-1.58l.58-8.15c0-.09-.04-.23-.11-.43-.08-.2-.11-.34-.11-.43,0-.18.12-.35.36-.52s.52-.23.86-.2c1.05.09,1.57.62,1.57,1.58,0,.75-.11,1.88-.31,3.38-.21,1.5-.32,2.61-.32,3.33,0,.36.03.71.09,1.04l2.48-.13c.84,0,1.26.33,1.26.99,0,.48-.2.85-.58,1.12Z"/><path class="cls-5" d="M385.69,125.7c0,.6-.45.9-1.35.9-.18,0-.31-.03-.41-.09-.12-1.29-.96-1.93-2.52-1.93-1.47,0-2.61,1.69-3.42,5.06-.54,2.38-.81,4.65-.81,6.82.21-.03.48-.03.81,0h1.21c1.11,0,1.67.33,1.67.99,0,.21-.03.51-.09.9-.49.27-1.24.41-2.28.41-.79,0-1.28.06-1.46.18-.09,1.17-.14,3.29-.14,6.34v3.24c0,1.44.18,2.9.53,4.37.06.15.1.29.1.4,0,.72-.51,1.08-1.53,1.08-.9,0-1.35-1.21-1.35-3.64,0-6.6.06-10.5.18-11.7.06,0-.71,0-2.29,0-.69,0-1.04-.33-1.04-.99,0-.87.6-1.3,1.8-1.3h1.62c.06-.6.12-1.37.18-2.29.45-7.98,2.68-11.97,6.71-11.97,2.58,0,3.87,1.08,3.87,3.24Z"/><path class="cls-5" d="M395.23,144.6c0,2.58-.57,4.83-1.71,6.75-1.35,2.31-3.23,3.46-5.62,3.46s-4.25-.95-5.45-2.83c-.99-1.56-1.48-3.63-1.48-6.21s.57-5.05,1.71-7.51c1.44-3.03,3.27-4.54,5.49-4.54.57,0,1.38.33,2.43.99,3.09,1.92,4.63,5.22,4.63,9.9ZM393.07,144.55c0-1.92-.25-3.65-.76-5.17-.75-2.13-1.91-3.2-3.46-3.2-1.8,0-3.21,1.19-4.23,3.55-.78,1.83-1.17,3.8-1.17,5.9,0,1.89.27,3.48.81,4.77.78,1.77,1.99,2.66,3.64,2.66,1.8,0,3.17-1.02,4.09-3.06.72-1.59,1.08-3.41,1.08-5.45Z"/><path class="cls-5" d="M407.47,137.44c0,.12-.02.38-.05.77-.39.6-.76.9-1.12.9-.24,0-.45-.15-.63-.45-.09-1.89-.87-2.83-2.34-2.83-.96,0-1.91,1.77-2.83,5.31-.36,1.29-.54,3.01-.54,5.17,0,2.76.07,4.46.23,5.08.03.09.1.28.22.56.12.29.18.5.18.65,0,.66-.45.99-1.35.99-1.02,0-1.53-.52-1.53-1.58,0-.15.04-.37.11-.65s.11-.5.11-.65c0-1.65-.08-4.12-.23-7.42s-.22-5.78-.22-7.43c0-.6.1-.97.31-1.1.21-.14.62-.2,1.21-.2.75,0,1.19.27,1.31.81.03.6.06,1.19.09,1.75.78-1.2,1.23-1.88,1.35-2.03.66-.75,1.35-1.12,2.07-1.12.54,0,1.08.17,1.62.5.3.18.71.65,1.24,1.39.52.75.79,1.28.79,1.58Z"/><path class="cls-5" d="M428.62,139.29c-.24.18-.81.33-1.71.45-.99.12-1.56.23-1.71.32-.03.33-.04,2-.04,5,0,2.34.03,3.92.09,4.72,0,.33.07.86.22,1.58s.23,1.28.23,1.67c0,.24-.15.48-.45.72s-.57.36-.81.36c-.6,0-1.08-.62-1.44-1.84-.24-.9-.36-1.76-.36-2.57v-9.36c-.18-.15-.85-.15-2.02,0-.94.12-1.4-.22-1.4-1.03,0-1.14,1.21-1.67,3.65-1.58l.58-8.15c0-.09-.04-.23-.11-.43-.08-.2-.11-.34-.11-.43,0-.18.12-.35.36-.52s.52-.23.86-.2c1.05.09,1.57.62,1.57,1.58,0,.75-.11,1.88-.31,3.38-.21,1.5-.32,2.61-.32,3.33,0,.36.03.71.09,1.04l2.48-.13c.84,0,1.26.33,1.26.99,0,.48-.2.85-.58,1.12Z"/><path class="cls-5" d="M442.88,154.68c-.24.24-.69.36-1.35.36-.33,0-.67-.21-1.04-.63v-6.17c0-7.62-1.27-11.43-3.8-11.43-1.07,0-1.97.63-2.68,1.89-.63,1.08-.94,2.19-.94,3.33,0,.12-.04.31-.11.56-.08.26-.11.44-.11.56v5.76c0,.51.07,1.25.22,2.21.15.96.22,1.68.22,2.16s-.36.72-1.08.72c-.51,0-.94-.24-1.28-.72-.34-.48-.52-.98-.52-1.49l.27-27.71c-.06-.18-.09-.36-.09-.54,0-.54.3-.81.9-.81.3,0,.74.2,1.33.61.59.41.88.75.88,1.02,0,.72-.14,1.76-.43,3.11-.29,1.35-.43,2.38-.43,3.07,0,.06.03,2.06.09,6,1.11-.99,1.96-1.49,2.56-1.49.96,0,2.12.29,3.46.86,2.61,1.08,3.92,3.93,3.92,8.55v10.21Z"/><path class="cls-5" d="M458.63,149.01c0,1.32-.88,2.5-2.66,3.55-1.59.96-3.09,1.44-4.5,1.44-4.02,0-6.03-2.55-6.03-7.65,0-2.25.4-4.66,1.21-7.25,1.08-3.36,2.46-5.04,4.14-5.04,1.44,0,3.02.73,4.73,2.18,1.71,1.46,2.56,2.9,2.56,4.34,0,1.86-.75,3.48-2.25,4.86s-3.19,2.07-5.08,2.07c-.18,0-.56-.15-1.15-.45-.58-.3-.98-.45-1.19-.45-.39,0-.58.12-.58.36,0,3.45,1.14,5.17,3.42,5.17,1.17,0,2.25-.39,3.24-1.17.6-.45,1.26-1.15,1.98-2.11.57-.75.95-1.12,1.12-1.12.69,0,1.04.42,1.04,1.26ZM455.53,140.73c0-1.05-.3-2.03-.9-2.95-.6-.92-1.39-1.37-2.38-1.37-1.2,0-2.18.75-2.92,2.25-.63,1.26-.95,2.57-.95,3.92,0,.87.28,1.6.83,2.18.56.58,1.27.88,2.14.88,1.23,0,2.25-.52,3.06-1.58.75-.96,1.12-2.07,1.12-3.33Z"/><path class="cls-5" d="M479.56,139.29c-.24.18-.81.33-1.71.45-.99.12-1.56.23-1.71.32-.03.33-.04,2-.04,5,0,2.34.03,3.92.09,4.72,0,.33.08.86.23,1.58.15.72.22,1.28.22,1.67,0,.24-.15.48-.45.72s-.57.36-.81.36c-.6,0-1.08-.62-1.44-1.84-.24-.9-.36-1.76-.36-2.57v-9.36c-.18-.15-.85-.15-2.02,0-.93.12-1.4-.22-1.4-1.03,0-1.14,1.21-1.67,3.64-1.58l.58-8.15c0-.09-.04-.23-.11-.43-.08-.2-.11-.34-.11-.43,0-.18.12-.35.36-.52.24-.17.52-.23.85-.2,1.05.09,1.58.62,1.58,1.58,0,.75-.11,1.88-.32,3.38-.21,1.5-.31,2.61-.31,3.33,0,.36.03.71.09,1.04l2.47-.13c.84,0,1.26.33,1.26.99,0,.48-.2.85-.59,1.12Z"/><path class="cls-5" d="M493.91,149.01c0,1.32-.88,2.5-2.66,3.55-1.59.96-3.09,1.44-4.5,1.44-4.02,0-6.03-2.55-6.03-7.65,0-2.25.4-4.66,1.21-7.25,1.08-3.36,2.46-5.04,4.14-5.04,1.44,0,3.02.73,4.73,2.18,1.71,1.46,2.56,2.9,2.56,4.34,0,1.86-.75,3.48-2.25,4.86s-3.19,2.07-5.08,2.07c-.18,0-.56-.15-1.15-.45-.58-.3-.98-.45-1.19-.45-.39,0-.58.12-.58.36,0,3.45,1.14,5.17,3.42,5.17,1.17,0,2.25-.39,3.24-1.17.6-.45,1.26-1.15,1.98-2.11.57-.75.95-1.12,1.12-1.12.69,0,1.04.42,1.04,1.26ZM490.81,140.73c0-1.05-.3-2.03-.9-2.95-.6-.92-1.39-1.37-2.38-1.37-1.2,0-2.18.75-2.92,2.25-.63,1.26-.95,2.57-.95,3.92,0,.87.28,1.6.83,2.18.56.58,1.27.88,2.14.88,1.23,0,2.25-.52,3.06-1.58.75-.96,1.12-2.07,1.12-3.33Z"/><path class="cls-5" d="M509.57,154.77c0,.42-.33.63-.99.63-.72,0-1.16-.3-1.3-.9-.03-.09-.05-.68-.05-1.76,0-.3-.04-.54-.13-.72-1.68,1.23-3.5,1.84-5.44,1.84-1.35,0-2.66-.38-3.92-1.12-1.44-.84-2.16-1.89-2.16-3.15s.85-2.43,2.56-3.6c1.56-1.08,3-1.62,4.32-1.62h4.46c.18-.18.27-.5.27-.95,0-2.01-.17-3.52-.49-4.54-.54-1.71-1.61-2.57-3.2-2.57-1.14,0-2.19.72-3.15,2.16-.87,1.32-1.3,2.58-1.3,3.78v.5c0,.24-.12.36-.36.36-.3,0-.63-.18-.99-.54-.36-.36-.54-.67-.54-.94,0-.84.25-1.9.76-3.17.51-1.27,1.06-2.24,1.67-2.9.75-.81,1.68-1.21,2.79-1.21,1.71,0,3.29.54,4.72,1.62,1.53,1.17,2.31,2.58,2.34,4.23l.14,14.58ZM507.19,147.61c0-1.2-.93-1.8-2.79-1.8-1.47,0-2.76.26-3.87.77-1.41.66-2.12,1.65-2.12,2.97,0,.81.38,1.44,1.12,1.89.63.39,1.38.58,2.25.58,1.29,0,2.51-.42,3.67-1.26s1.73-1.89,1.73-3.15Z"/><path class="cls-5" d="M526,142.44c0,2.97-.43,5.46-1.3,7.47-1.17,2.79-3.01,4.19-5.54,4.19-1.65,0-3.09-.76-4.32-2.29-.21.09-.31,1.02-.31,2.79,0,3.9.19,6.66.58,8.28.03.15.17.51.43,1.08.25.57.38.92.38,1.04,0,.48-.3.72-.9.72-.72,0-1.22-.11-1.51-.32s-.53-.9-.74-2.07c-.18-.99-.27-1.77-.27-2.34v-11.43c0-1.05.05-2.46.16-4.23.11-2.07.17-3.48.2-4.23.03-.81.03-1.86,0-3.15v-3.2c0-2.07.54-3.1,1.62-3.1.54,0,.81.2.81.58,0,.75-.06,1.84-.18,3.29-.12,1.44-.18,2.52-.18,3.24h.18c.69-.93,1.38-1.88,2.07-2.83.81-1.05,1.81-1.58,3.01-1.58,2.01,0,3.52.9,4.54,2.7.84,1.44,1.26,3.24,1.26,5.4ZM523.75,142.62c0-1.59-.17-2.95-.5-4.09-.51-1.68-1.33-2.52-2.47-2.52-.84,0-1.86.74-3.06,2.21-1.05,1.29-1.79,2.61-2.21,3.96-.33,1.02-.6,2.52-.81,4.5-.12,1.44-.18,2.13-.18,2.07,0,.09.13.24.4.45.18.12.36.26.54.41.48.69.96,1.39,1.46,2.09s1.23,1.06,2.22,1.06c1.64,0,2.88-1.35,3.72-4.05.6-1.92.9-3.94.9-6.08Z"/><path class="cls-5" d="M541.21,154.77c0,.42-.33.63-.99.63-.72,0-1.16-.3-1.3-.9-.03-.09-.04-.68-.04-1.76,0-.3-.04-.54-.13-.72-1.68,1.23-3.5,1.84-5.45,1.84-1.35,0-2.66-.38-3.92-1.12-1.44-.84-2.16-1.89-2.16-3.15s.86-2.43,2.57-3.6c1.56-1.08,3-1.62,4.32-1.62h4.46c.18-.18.27-.5.27-.95,0-2.01-.17-3.52-.5-4.54-.54-1.71-1.61-2.57-3.2-2.57-1.14,0-2.19.72-3.15,2.16-.87,1.32-1.31,2.58-1.31,3.78v.5c0,.24-.12.36-.36.36-.3,0-.63-.18-.99-.54-.36-.36-.54-.67-.54-.94,0-.84.25-1.9.76-3.17.51-1.27,1.06-2.24,1.67-2.9.75-.81,1.68-1.21,2.79-1.21,1.71,0,3.29.54,4.73,1.62,1.53,1.17,2.31,2.58,2.34,4.23l.13,14.58ZM538.82,147.61c0-1.2-.93-1.8-2.79-1.8-1.47,0-2.76.26-3.87.77-1.41.66-2.12,1.65-2.12,2.97,0,.81.38,1.44,1.12,1.89.63.39,1.38.58,2.25.58,1.29,0,2.51-.42,3.67-1.26,1.15-.84,1.73-1.89,1.73-3.15Z"/><path class="cls-5" d="M554.39,137.44c0,.12-.02.38-.05.77-.39.6-.76.9-1.12.9-.24,0-.45-.15-.63-.45-.09-1.89-.87-2.83-2.34-2.83-.96,0-1.91,1.77-2.83,5.31-.36,1.29-.54,3.01-.54,5.17,0,2.76.07,4.46.23,5.08.03.09.1.28.22.56.12.29.18.5.18.65,0,.66-.45.99-1.35.99-1.02,0-1.53-.52-1.53-1.58,0-.15.04-.37.11-.65s.11-.5.11-.65c0-1.65-.08-4.12-.23-7.42s-.22-5.78-.22-7.43c0-.6.1-.97.31-1.1.21-.14.62-.2,1.21-.2.75,0,1.19.27,1.31.81.03.6.06,1.19.09,1.75.78-1.2,1.23-1.88,1.35-2.03.66-.75,1.35-1.12,2.07-1.12.54,0,1.08.17,1.62.5.3.18.71.65,1.24,1.39.52.75.79,1.28.79,1.58Z"/><path class="cls-5" d="M563.89,139.29c-.24.18-.81.33-1.71.45-.99.12-1.56.23-1.71.32-.03.33-.04,2-.04,5,0,2.34.03,3.92.09,4.72,0,.33.08.86.23,1.58.15.72.22,1.28.22,1.67,0,.24-.15.48-.45.72s-.57.36-.81.36c-.6,0-1.08-.62-1.44-1.84-.24-.9-.36-1.76-.36-2.57v-9.36c-.18-.15-.85-.15-2.02,0-.93.12-1.4-.22-1.4-1.03,0-1.14,1.21-1.67,3.64-1.58l.58-8.15c0-.09-.04-.23-.11-.43-.08-.2-.11-.34-.11-.43,0-.18.12-.35.36-.52.24-.17.52-.23.85-.2,1.05.09,1.58.62,1.58,1.58,0,.75-.11,1.88-.32,3.38-.21,1.5-.31,2.61-.31,3.33,0,.36.03.71.09,1.04l2.47-.13c.84,0,1.26.33,1.26.99,0,.48-.2.85-.59,1.12Z"/><path class="cls-5" d="M579.37,135.82c-.25,1.32-.48,2.64-.7,3.96-.28,1.41-.42,2.73-.42,3.96v14.09c0,2.01-.61,3.61-1.82,4.79-1.21,1.18-2.84,1.78-4.88,1.78-1.11,0-2.36-.3-3.74-.9-1.59-.66-2.68-1.49-3.28-2.48-.15-.27-.23-.54-.23-.81,0-.87.42-1.31,1.26-1.31.18,0,.38.06.58.18.51.54,1.02,1.06,1.53,1.58,1.02.93,2.31,1.39,3.87,1.39,1.98,0,3.3-.69,3.96-2.07.39-.87.58-2.45.58-4.72,0-.3-.06-.9-.18-1.8-.12-.75-.15-1.41-.09-1.98-.84.78-1.44,1.28-1.8,1.49-.66.42-1.38.63-2.16.63-2.04,0-3.59-.79-4.64-2.38-.93-1.38-1.39-3.13-1.39-5.27,0-4.05.06-7.47.18-10.26.12-.96.64-1.44,1.58-1.44,1.14,0,1.65.2,1.53.58-.57,1.56-.86,5.05-.86,10.48,0,4.2,1.19,6.3,3.58,6.3,1.46,0,2.62-1.12,3.49-3.38.66-1.74.97-3.49.94-5.26v-5.13c.03-.51.07-1.15.11-1.93s.53-1.14,1.46-1.08c1.08.09,1.59.42,1.53.99Z"/><path class="cls-5" d="M260.38,47.41c-.55.95-1.51,2.21-2.89,3.79-1.38,1.58-2.3,2.79-2.78,3.64-.48.85-3.49,8.58-9.04,23.17-4.7,12.45-7.83,18.68-9.38,18.68-1.35,0-2.53-.38-3.53-1.12-1.15-.8-1.72-1.85-1.72-3.15,0-.8.45-1.8,1.35-3s1.9-3.32,3-6.38c.8-2.3,1.6-4.6,2.4-6.9-3-2.4-5.65-6.07-7.95-11.02-4-8.45-6-14.4-6-17.85,0-2.9,1.3-4.35,3.9-4.35,3,0,4.5,1.72,4.5,5.17,0,.35-.06.89-.19,1.61-.12.73-.19,1.29-.19,1.69,0,2.1.98,5.4,2.93,9.9,2.05,4.75,3.9,7.48,5.55,8.17.65-.95,2.07-3.83,4.27-8.62,2.4-5.3,4.28-9.1,5.62-11.4,2.25-3.75,4.12-5.62,5.62-5.62,1.1,0,2.09.34,2.96,1.01.87.68,1.39,1.54,1.54,2.59Z"/><path class="cls-5" d="M294.73,80.71c0,2.4-1.08,3.63-3.22,3.67.25,1.15.8,2.7,1.65,4.65-.05,1.1-.5,2-1.35,2.7-.85.7-1.85,1.05-3,1.05-.9,0-1.95-.27-3.15-.83-.65-1.3-.97-2.85-.97-4.65,0-.45.02-1.1.08-1.95.05-.85.07-1.47.07-1.88,0,.35-.82.52-2.47.52-2.8,0-6.12.13-9.97.38-5.5.3-8.49.73-8.96,1.28-.48.55-.79,3.22-.94,8.03-.65.95-1.48,1.42-2.47,1.42-1.05,0-2.13-.44-3.23-1.31-1.1-.87-1.65-1.81-1.65-2.81,0-.35.45-1.75,1.35-4.2,1-3.55,2.62-8.88,4.88-15.97,6.7-18.35,12.27-27.53,16.72-27.53s7.7,4.85,10.05,14.55c1.05,4.35,2.02,11.03,2.92,20.03,1.3.3,2.12.55,2.47.75.8.45,1.2,1.15,1.2,2.1ZM284.23,77.86c-2.2-17.45-4.18-26.17-5.92-26.17-1.4,0-3.85,4.1-7.35,12.3-2.5,5.9-4.47,11.02-5.92,15.38,1.6-.35,3.98-.77,7.12-1.28,2.85-.35,6.87-.42,12.08-.22Z"/><path class="cls-5" d="M340.03,80.71c0,2.4-1.08,3.63-3.22,3.67.25,1.15.8,2.7,1.65,4.65-.05,1.1-.5,2-1.35,2.7-.85.7-1.85,1.05-3,1.05-.9,0-1.95-.27-3.15-.83-.65-1.3-.98-2.85-.98-4.65,0-.45.02-1.1.08-1.95.05-.85.08-1.47.08-1.88,0,.35-.83.52-2.48.52-2.8,0-6.12.13-9.97.38-5.5.3-8.49.73-8.96,1.28-.48.55-.79,3.22-.94,8.03-.65.95-1.47,1.42-2.47,1.42-1.05,0-2.13-.44-3.22-1.31-1.1-.87-1.65-1.81-1.65-2.81,0-.35.45-1.75,1.35-4.2,1-3.55,2.62-8.88,4.88-15.97,6.7-18.35,12.27-27.53,16.73-27.53s7.7,4.85,10.05,14.55c1.05,4.35,2.03,11.03,2.92,20.03,1.3.3,2.12.55,2.48.75.8.45,1.2,1.15,1.2,2.1ZM329.53,77.86c-2.2-17.45-4.17-26.17-5.92-26.17-1.4,0-3.85,4.1-7.35,12.3-2.5,5.9-4.48,11.02-5.92,15.38,1.6-.35,3.97-.77,7.12-1.28,2.85-.35,6.87-.42,12.07-.22Z"/><path class="cls-5" d="M385.33,80.71c0,2.4-1.08,3.63-3.22,3.67.25,1.15.8,2.7,1.65,4.65-.05,1.1-.5,2-1.35,2.7-.85.7-1.85,1.05-3,1.05-.9,0-1.95-.27-3.15-.83-.65-1.3-.97-2.85-.97-4.65,0-.45.02-1.1.08-1.95.05-.85.07-1.47.07-1.88,0,.35-.82.52-2.47.52-2.8,0-6.12.13-9.97.38-5.5.3-8.49.73-8.96,1.28-.48.55-.79,3.22-.94,8.03-.65.95-1.48,1.42-2.47,1.42-1.05,0-2.13-.44-3.23-1.31-1.1-.87-1.65-1.81-1.65-2.81,0-.35.45-1.75,1.35-4.2,1-3.55,2.62-8.88,4.88-15.97,6.7-18.35,12.27-27.53,16.72-27.53s7.7,4.85,10.05,14.55c1.05,4.35,2.02,11.03,2.92,20.03,1.3.3,2.12.55,2.47.75.8.45,1.2,1.15,1.2,2.1ZM374.83,77.86c-2.2-17.45-4.18-26.17-5.92-26.17-1.4,0-3.85,4.1-7.35,12.3-2.5,5.9-4.47,11.02-5.92,15.38,1.6-.35,3.98-.77,7.12-1.28,2.85-.35,6.87-.42,12.08-.22Z"/><path class="cls-5" d="M425.61,47.41c-.55.95-1.51,2.21-2.89,3.79-1.38,1.58-2.3,2.79-2.78,3.64-.48.85-3.49,8.58-9.04,23.17-4.7,12.45-7.83,18.68-9.38,18.68-1.35,0-2.53-.38-3.53-1.12-1.15-.8-1.72-1.85-1.72-3.15,0-.8.45-1.8,1.35-3,.9-1.2,1.9-3.32,3-6.38.8-2.3,1.6-4.6,2.4-6.9-3-2.4-5.65-6.07-7.95-11.02-4-8.45-6-14.4-6-17.85,0-2.9,1.3-4.35,3.9-4.35,3,0,4.5,1.72,4.5,5.17,0,.35-.06.89-.19,1.61-.13.73-.19,1.29-.19,1.69,0,2.1.97,5.4,2.92,9.9,2.05,4.75,3.9,7.48,5.55,8.17.65-.95,2.07-3.83,4.28-8.62,2.4-5.3,4.27-9.1,5.62-11.4,2.25-3.75,4.12-5.62,5.62-5.62,1.1,0,2.09.34,2.96,1.01.88.68,1.39,1.54,1.54,2.59Z"/><path class="cls-5" d="M442.56,89.11c0,3.8-2.18,5.7-6.53,5.7-.8,0-2.33-.48-4.58-1.43-.6-1.1-.9-2.15-.9-3.15,0-2.9,1.77-4.35,5.32-4.35,1.3,0,2.62.25,3.98.75,1.8.65,2.7,1.48,2.7,2.48ZM444.73,46.44c0,.35-.13.72-.38,1.12-.35.55-.58.9-.67,1.05-1.15,2.85-2,6.48-2.55,10.88-.25,1.55-.62,5.3-1.12,11.25,0,.25-.06.74-.19,1.46-.12.73-.19,1.29-.19,1.69,0,1.3.27,3.03.83,5.18-.3.4-.8.95-1.5,1.65-.55.15-1.15.23-1.8.23-1,0-1.93-.25-2.78-.75-.75-1.4-1.12-3.2-1.12-5.4s.46-5.71,1.39-10.24c.92-4.52,1.39-7.94,1.39-10.24,0-.9-.16-2.26-.49-4.09-.33-1.82-.49-3.19-.49-4.09,0-.5.05-.92.15-1.27,1.25-1.05,2.78-1.58,4.58-1.58,1.05,0,2.1.25,3.15.75,1.2.65,1.8,1.45,1.8,2.4Z"/><path class="cls-12" d="M339.41,508.44c.34,4.09,1.28,9.17,4.51,10.51,1.7.71,3.63.22,4.51,0,.83-.21,4.64-1.29,6.01-4.51,1.37-3.23-.45-6.88-1.5-9.01-1.64-3.31-3.27-4.03-3-6.01.24-1.78,1.64-1.78,3-4.51,1.12-2.23.68-3.21,1.5-6.01.78-2.63,1.91-4.69,2.25-6.76,1.5-9.01-.07-30.8-1.5-36.05-.3-1.09.55-2-2.25-5.26-6.02-7.01-12.78-18.77-14.27-18.78-8.96-.04-.5,71.45.75,86.37Z"/><path class="cls-12" d="M313.87,445.36c2.77,2.88,14.27,24.38,16.52,31.54,1.36,4.33,3.15,10,1.5,16.52-1.02,4.06-2.99,6.9-1.5,9.01,1.11,1.58,2.86.91,6.01,3,2.16,1.43,1.85,2.09,4.51,4.51,2.51,2.29,5.98,5.44,9.01,4.51,1.32-.41,2.55-1.59,3-3,.69-2.17-.81-3.8-4.51-10.51-1.75-3.17-2.63-4.78-3-6.01-1.15-3.77-.46-6.44,0-10.51,1.02-9.02-.96-8.64,0-18.02.57-5.65-6.14-23.14-6.01-28.54.13-5.59.23-9.41-1.5-10.51-2.14-1.37-7.73,1.01-22.53,16.52"/><path class="cls-9" d="M354.43,377.77c-5.02,2.47-4.61,12.44-4.51,15.02.44,10.73,11.12,17.55,18.02,27.04,12.02,16.52,39.88,12.96,42.06,7.51,3-7.51-19.53-37.55-30.04-39.05-9.97-1.42-19.22-13.62-25.53-10.51Z"/><path class="cls-9" d="M317.6,384.79c4.7,3.04,3.12,12.89,2.72,15.44-1.69,10.6-13.1,16.13-21.07,24.74-13.87,15-41.12,8.2-42.65,2.53-2.1-7.81,23.79-35.01,34.41-35.27s20.68-11.27,26.59-7.45Z"/><path class="cls-4" d="M310.87,379.27c2.78-5.53,6.89-9.37,10.51-9.01,1.12.11,2.93.69,4.51,1.5,2.08,1.07,4.3,2.84,4.49,2.99.02.02,0,0,.01.01,1.63,1.31,3.75,2.73,4.51,3,2.73.98,5.49-6.61,10.51-7.51,4.52-.81,9.92,3.96,12.02,9.01,0,0,.89,2.84-3,16.52h-39.05l-4.51-16.52Z"/><path class="cls-9" d="M396.48,316.18c2.92-7.75,7.51-10.51,13.52-16.52,22.54-22.54,57.08,1.5,60.08,4.51,11.44,11.44-31.39,62.48-48.07,73.6-4.51,3-33.92,14.5-45.74,11.2-3.57-1-3.22-3.27-12.22-12-9.43-9.14-14.07-10.77-13.54-13.66.76-4.1,10.25-1.8,20.61-8.2,12.92-7.98,20.99-27.33,25.35-38.92Z"/><path class="cls-9" d="M279.45,313.4c-2.14-8-6.43-11.21-11.82-17.78-20.2-24.66-56.95-4.15-60.23-1.46-12.51,10.25,25.06,65.28,40.55,77.99,4.19,3.44,32.32,17.79,44.4,15.67,3.65-.64,3.52-2.94,13.35-10.73,10.29-8.16,15.07-9.33,14.82-12.26-.35-4.15-10.02-2.81-19.69-10.2-12.07-9.22-18.18-29.27-21.38-41.24Z"/><path class="cls-2" d="M309.23,366.84l-20.45,18.04c-.3.26-.63.48-.98.66l-8.96,4.48c-1.55.77-2.52,2.35-2.52,4.08h0c0,3.19,3.2,5.4,6.18,4.27l25.36-11.6c1.77-.67,4.51-.98,4.51-2.88v-5.6c0-1.9,1.18-3.6,2.96-4.27l4.33-1.62c1.11-.42,2.33-.39,3.41.08l9.9,4.28c1.66.72,3.58.39,4.9-.83l3.68-3.39c.56-.52,1.24-.89,1.99-1.07l2.59-.65c1.44-.36,2.95,0,4.08.96l8.81,7.55,8.65,7.21c.18.15.37.29.57.41l14.04,8.42c.45.27.94.46,1.45.56l1.28.26c2.82.56,5.46-1.6,5.46-4.48v-2.1c0-1.4-.64-2.73-1.75-3.59l-29.19-22.88c-.35-.27-.73-.49-1.14-.65l-6-2.37c-.65-.26-1.35-.36-2.04-.31l-30.33,2.43c-4,.32-7.8,1.93-10.81,4.59Z"/><path class="cls-4" d="M299.74,441.15l10.42-3.23c.15-.05.29-.11.43-.19l12.09-7.26c.14-.08.26-.18.38-.29l13.33-13.33c.81-.81,2.15-.75,2.89.13l5.98,7.17c.11.13.23.24.37.34l10.31,7.36,8.95,5.94c.07.04.13.08.2.12l8.59,4.32c.18.09.37.15.57.18h0c3.57.57,6.67-2.5,6.15-6.08l-.32-2.15c-.08-.56-.25-1.09-.5-1.6l-2.48-4.97c-.09-.19-.22-.36-.37-.51l-8.65-8.65c-.09-.09-.17-.19-.24-.3l-5.81-8.71c-.06-.09-.12-.19-.16-.29l-5.42-12.2c-.31-.71-1.02-1.16-1.79-1.16h-36.68c-.68,0-1.31.35-1.67.93l-11.41,18.54s-.05.08-.07.11l-7.28,10.2c-.12.17-.22.37-.28.57l-2.91,9.66c-.99,3.3,2.1,6.37,5.39,5.35Z"/><path class="cls-10" d="M334.9,415.32c-1.27.46-1.37,2.96-1.5,6.01-.31,7.28,2.44,18.14,9.01,19.53,1.61.34,4.6.35,6.01-1.5,4.35-5.75-9.49-25.5-13.52-24.03Z"/><path class="cls-8" d="M333.4,415.32c-1.33-.68-3.85,8.26-13.52,13.52-4.78,2.6-7.86,2.42-10.51,6.01-2.56,3.46-3.54,8.8-1.5,10.51,2.57,2.17,9.18-2.14,10.51-3,3.5-2.28,5.77-5.01,7.51-7.51,5.92-8.49,8.94-18.8,7.51-19.53Z"/><path class="cls-8" d="M337.9,419.82c-1.46,1.39,3.57,8.38,10.51,18.02,4.68,6.5,7.29,8.94,10.51,9.01,2.17.05,5.21-.97,6.01-3,2.87-7.36-24.18-26.75-27.04-24.03Z"/><path class="cls-10" d="M334.9,415.32c-.98-.22-1.47,5.01-6.01,12.02-3.96,6.1-7.15,8.38-7.51,13.52-.17,2.47.3,5.74,1.5,6.01.94.21,2.07-1.51,3-3,5.33-8.48,7.99-12.72,9.01-18.02.89-4.64,1.02-10.29,0-10.51Z"/><rect class="cls-2" x="280.51" y="264" width="114.16" height="100.64" rx="40.18" ry="40.18"/><path class="cls-1" d="M277.51,248.98c-.55.3-1.55.83-2.56,1.9-1.62,1.71-2.39,3.94-3.45,7.12-.91,2.74-1.94,5.18-3,10.51-.4,1.99-1.17,5.94-1.5,10.51-.79,10.99,1.08,23.99,3,24.03,2.38.05,4.08-19.67,6.01-19.53,1.04.08.6,5.8,3,13.52,2.36,7.56,6.98,15.57,9.01,15.02,3.63-.98-2.39-29,1.5-30.04,1.44-.39,2.92,3.29,7.51,9.01,6.15,7.67,16.23,16.92,19.53,15.02,3.79-2.19-2.91-18.25,0-19.53,1.56-.69,3.96,3.71,10.51,9.01,1.31,1.06,12.66,10.25,16.52,7.51,3.15-2.24-.79-10.9,1.5-12.02,2.14-1.04,5.85,6.31,15.02,12.02,3.64,2.27,11.53,7.18,16.52,4.51,6.79-3.64,4.87-19.54,6.01-19.53.8.01,1.2,7.84,4.51,18.02,1.71,5.27,2.82,6.91,4.51,7.51,3.23,1.15,7.29-2,10.51-4.51,3.44-2.67,5.54-5.37,6.01-6.01,4.85-6.63,7.63-29.45-3-48.07-20.6-36.08-75.86-31.54-94.63-24.03-6.2,2.48-7.99,4.33-8.4,5.9-.45,1.71.48,3.77,0,3.96-.43.17-.96-1.51-2.12-2.35-3.76-2.72-12.1,4.71-22.53,10.51Z"/><path class="cls-3" d="M383.63,226.98c1.21-1.21,3.06-1.48,4.56-.67l14.46,7.79c1.53.82,2.39,2.5,2.18,4.23l-.57,4.54c-.25,2.02-2.62,2.99-4.21,1.71l-16.16-12.93c-1.46-1.17-1.58-3.34-.26-4.66Z"/><path class="cls-1" d="M390.16,223.45c-.86-4.42,1.3-8.08,4.51-13.52,1.46-2.48,5.26-8.42,13.52-15.02,7.78-6.22,11.86-9.48,18.02-10.51,10.82-1.82,24.34,3.85,30.04,15.02,6.85,13.41.04,30.05-3,30.04-3.43-.01-6.16-21.26-7.51-21.03-.97.17,2.07,10.83-3,21.03-2.72,5.47-7.29,9.82-9.01,9.01-2.12-.99,1.87-9.01-1.5-19.53-1.15-3.6-2.26-7.05-4.51-7.51-6.26-1.27-10.76,22.83-22.53,24.03-4.77.49-9.36-3.28-9.69-3.55-.9-.73-4.4-3.71-5.33-8.46Z"/><path class="cls-3" d="M293.3,237.37c-1.26-1.15-3.12-1.33-4.59-.46l-14.08,8.45c-1.49.89-2.28,2.61-1.98,4.32l.78,4.5c.35,2.01,2.76,2.86,4.29,1.52l15.54-13.66c1.4-1.23,1.42-3.41.04-4.67Z"/><path class="cls-1" d="M286.6,234.14c.65-4.46-1.67-8.02-5.13-13.3-1.58-2.41-5.65-8.17-14.2-14.38-8.06-5.85-12.28-8.92-18.49-9.67-10.9-1.31-24.13,4.98-29.31,16.4-6.22,13.71,1.35,30.02,4.39,29.87,3.43-.17,5.17-21.53,6.53-21.35.98.12-1.57,10.91,3.98,20.87,2.98,5.34,7.74,9.47,9.42,8.59,2.08-1.09-2.28-8.91.6-19.58.99-3.65,1.93-7.15,4.15-7.71,6.19-1.56,11.81,22.31,23.62,22.96,4.78.27,9.2-3.71,9.52-4,.87-.77,4.22-3.91,4.93-8.7Z"/><path class="cls-11" d="M300.04,238.47c-.9-4.24,6.9-9.18,9.01-10.51,20.25-12.81,55.58-10.51,79.61,7.51,5.57,4.18,11.66,7.64,16.52,15.02,11.57,17.55,10.43,43.98,1.5,48.07-1.86.85-4.62,1.39-6.01,0-3-3,1.5-6.01-1.5-21.03-.56-2.79.08-8.66-9.01-16.52-12.92-11.18-11.85-10.6-16.52-13.52-9.94-6.21-31.76-3.08-39.05-3-8.92.1-13.15,1.89-22.53,0-4.02-.81-11.22-2.26-12.02-6.01Z"/><path class="cls-2" d="M280.51,307.56c-2.76-1.25-7.22.06-9.01,3-1.59,2.61-.59,5.69,0,7.51,1.89,5.84,7.56,11.66,10.51,10.51,4.24-1.64,4.69-18.23-1.5-21.03Z"/><path class="cls-2" d="M388.66,313.57c.45-.49,7.51-7.94,12.02-6.01,4.7,2.02,5.66,13.85,0,19.53-2.04,2.04-5.94,4.31-9.01,3-3.78-1.61-5.88-8.46-3-16.52Z"/><path class="cls-5" d="M321.49,322.63c0,4.15-1.61,7.47-3.68,7.47s-3.76-3.36-3.76-7.51,1.68-7.51,3.76-7.51,3.68,3.4,3.68,7.55Z"/><ellipse class="cls-5" cx="353.37" cy="322.59" rx="3.76" ry="7.51"/><path class="cls-5" d="M324.49,348.63c-.43.48,1.88,4.43,4,6,3.42,2.53,8.15,2.89,11,0,1.45-1.48,3.68-5.33,3-6-.68-.67-2.25,2.35-6,3-1.18.2-4.4.57-6.77-.62-3-1.5-4.87-2.79-5.23-2.38Z"/></svg>