<?xml version="1.0" encoding="UTF-8"?><svg id="Layer_1" xmlns="http://www.w3.org/2000/svg" width="125.16" height="123.89" viewBox="0 0 125.16 123.89"><defs><style>.cls-1,.cls-2{fill:#ff79ab;}.cls-1,.cls-3{stroke:#ff79ab;stroke-miterlimit:10;stroke-width:.5px;}.cls-4,.cls-2,.cls-5{stroke-width:0px;}.cls-4,.cls-3{fill:#f2caec;}.cls-5{fill:#fff;}</style></defs><path class="cls-2" d="M36.4,27.26v1.97c0,.38.17.79.44,1.06.14.15.3.25.48.31.18.09.37.14.58.13.39-.02.79-.14,1.06-.44s.44-.65.44-1.06v-1.97c0-.38-.17-.79-.44-1.06-.14-.15-.3-.25-.48-.31-.18-.09-.37-.14-.58-.13-.39.02-.79.14-1.06.44s-.44.65-.44,1.06h0Z"/><path class="cls-2" d="M33.61,32.36h1.37"/><path class="cls-2" d="M33.61,33.86h1.37c.21,0,.4-.04.58-.13.19-.06.35-.16.48-.31.15-.14.25-.3.31-.48.09-.18.14-.37.13-.58l-.05-.4c-.07-.25-.2-.47-.39-.66l-.3-.23c-.23-.14-.49-.2-.76-.2h-1.37c-.21,0-.4.04-.58.13-.19.06-.35.16-.48.31-.15.14-.25.3-.31.48-.09.18-.14.37-.13.58l.05.4c.07.25.2.47.39.66l.3.23c.23.14.49.2.76.2h0Z"/><path class="cls-2" d="M37.9,36v2.92"/><path class="cls-2" d="M36.4,36v2.92c0,.38.17.79.44,1.06s.69.46,1.06.44.79-.14,1.06-.44.44-.65.44-1.06v-2.92c0-.38-.17-.79-.44-1.06s-.69-.46-1.06-.44-.79.14-1.06.44-.44.65-.44,1.06h0Z"/><path class="cls-2" d="M40.63,32.48h1.37"/><path class="cls-2" d="M40.63,33.98h1.37c.21,0,.4-.04.58-.13.19-.06.35-.16.48-.31.15-.14.25-.3.31-.48.09-.18.14-.37.13-.58l-.05-.4c-.07-.25-.2-.47-.39-.66l-.3-.23c-.23-.14-.49-.2-.76-.2h-1.37c-.21,0-.4.04-.58.13-.19.06-.35.16-.48.31-.15.14-.25.3-.31.48-.09.18-.14.37-.13.58l.05.4c.07.25.2.47.39.66l.3.23c.23.14.49.2.76.2h0Z"/><path class="cls-2" d="M82.17,37.08v1.97c0,.38.17.79.44,1.06.14.15.3.25.48.31.18.09.37.14.58.13.39-.02.79-.14,1.06-.44s.44-.65.44-1.06v-1.97c0-.38-.17-.79-.44-1.06-.14-.15-.3-.25-.48-.31-.18-.09-.37-.14-.58-.13-.39.02-.79.14-1.06.44s-.44.65-.44,1.06h0Z"/><path class="cls-4" d="M79.38,42.18h1.37"/><path class="cls-2" d="M79.38,43.68c.46,0,.91,0,1.37,0,.21,0,.4-.04.58-.13.19-.06.35-.16.48-.31.15-.14.25-.3.31-.48.09-.18.14-.37.13-.58l-.05-.4c-.07-.25-.2-.47-.39-.66l-.3-.23c-.23-.14-.49-.2-.76-.2-.46,0-.91,0-1.37,0-.21,0-.4.04-.58.13-.19.06-.35.16-.48.31-.15.14-.25.3-.31.48-.09.18-.14.37-.13.58l.05.4c.07.25.2.47.39.66l.3.23c.23.14.49.2.76.2h0Z"/><path class="cls-4" d="M83.67,45.82v2.92"/><path class="cls-2" d="M82.17,45.82v2.92c0,.38.17.79.44,1.06s.69.46,1.06.44.79-.14,1.06-.44.44-.65.44-1.06v-2.92c0-.38-.17-.79-.44-1.06s-.69-.46-1.06-.44-.79.14-1.06.44-.44.65-.44,1.06h0Z"/><path class="cls-4" d="M86.4,42.3h1.37"/><path class="cls-2" d="M86.4,43.8h1.37c.21,0,.4-.04.58-.13.19-.06.35-.16.48-.31.15-.14.25-.3.31-.48.09-.18.14-.37.13-.58l-.05-.4c-.07-.25-.2-.47-.39-.66l-.3-.23c-.23-.14-.49-.2-.76-.2h-1.37c-.21,0-.4.04-.58.13-.19.06-.35.16-.48.31-.15.14-.25.3-.31.48-.09.18-.14.37-.13.58l.05.4c.07.25.2.47.39.66l.3.23c.23.14.49.2.76.2h0Z"/><path class="cls-2" d="M86.76,6.1v1.97c0,.38.17.79.44,1.06.14.15.3.25.48.31.18.09.37.14.58.13.39-.02.79-.14,1.06-.44s.44-.65.44-1.06v-1.97c0-.38-.17-.79-.44-1.06-.14-.15-.3-.25-.48-.31-.18-.09-.37-.14-.58-.13-.39.02-.79.14-1.06.44s-.44.65-.44,1.06h0Z"/><path class="cls-4" d="M83.97,11.19h1.37"/><path class="cls-2" d="M83.97,12.69h1.37c.21,0,.4-.04.58-.13.19-.06.35-.16.48-.31.15-.14.25-.3.31-.48.09-.18.14-.37.13-.58l-.05-.4c-.07-.25-.2-.47-.39-.66l-.3-.23c-.23-.14-.49-.2-.76-.2h-1.37c-.21,0-.4.04-.58.13-.19.06-.35.16-.48.31-.15.14-.25.3-.31.48-.09.18-.14.37-.13.58l.05.4c.07.25.2.47.39.66l.3.23c.23.14.49.2.76.2h0Z"/><path class="cls-4" d="M88.26,14.83v2.92"/><path class="cls-2" d="M86.76,14.83v2.92c0,.38.17.79.44,1.06s.69.46,1.06.44.79-.14,1.06-.44.44-.65.44-1.06v-2.92c0-.38-.17-.79-.44-1.06s-.69-.46-1.06-.44-.79.14-1.06.44-.44.65-.44,1.06h0Z"/><path class="cls-4" d="M90.99,11.31h1.37"/><path class="cls-2" d="M90.99,12.81h1.37c.21,0,.4-.04.58-.13.19-.06.35-.16.48-.31.15-.14.25-.3.31-.48.09-.18.14-.37.13-.58l-.05-.4c-.07-.25-.2-.47-.39-.66l-.3-.23c-.23-.14-.49-.2-.76-.2h-1.37c-.21,0-.4.04-.58.13-.19.06-.35.16-.48.31-.15.14-.25.3-.31.48-.09.18-.14.37-.13.58l.05.4c.07.25.2.47.39.66l.3.23c.23.14.49.2.76.2h0Z"/><path class="cls-3" d="M1.53,62.53L.26,111.37s-2.29,9.67,55.05,12.02,66.59-12.66,66.59-12.66l-.02-41.45s6.91-4.95-55.06-18.22V17.11c0-1.53-1.24-2.78-2.78-2.78h-4.57c-1.5,0-2.71,1.24-2.67,2.74l-.31,33.99s-37.55-.09-54.96,11.48Z"/><path class="cls-1" d="M60.38.27c-1.15.28-2.3,3.95-2.3,5.74s1.15,5.46,2.3,5.74c1.12.27,3.44-2.66,3.44-5.74S61.5,0,60.38.27Z"/><path class="cls-5" d="M40.66,76.36c0,.33-.11.61-.32.82-.36.41-.55.62-.57.65-.14.24-.29.86-.43,1.86-.6,4.88-.9,9.7-.9,14.45,0,2.68.48,4.18,1.43,4.52v.97c-.29.6-.73.9-1.33.9-1.22,0-2.14-1.06-2.76-3.19-.45-1.51-.68-3.08-.68-4.73,0-3.61.1-6.62.29-9.04-.72,2.8-1.44,5.61-2.18,8.43-1.33,4.35-2.62,6.53-3.86,6.53-1.41,0-2.65-1.28-3.72-3.84-1-2.32-2.23-6.21-3.68-11.69-.14,1.62-.21,3.29-.21,4.98,0,3.51.09,6.06.28,7.64.02.29.16.75.4,1.38.24.63.36,1.13.36,1.49,0,.79-.66,1.18-1.97,1.18-1.55,0-2.33-2.09-2.33-6.28,0-1.7.1-4.23.29-7.6.19-3.37.29-5.89.29-7.57,0-.19-.1-.39-.29-.61-.19-.21-.29-.42-.29-.61,0-1.34,1.19-2.01,3.59-2.01.55,0,1.21.35,1.97,1.04.07.74.19,1.86.36,3.37.24,2.11.8,4.89,1.69,8.36,1.17,4.47,2.19,6.71,3.05,6.71.19,0,.44-.37.75-1.11.6-1.44,1.18-3.46,1.76-6.06.43-2.08.86-4.16,1.29-6.24.19-.98.54-2.39,1.04-4.23.5-1.36,1.55-2.04,3.16-2.04.57,0,1.27.13,2.08.39.98.33,1.47.73,1.47,1.18Z"/><path class="cls-5" d="M60.17,96.89c0,.4-.08.76-.25,1.06-.21.4-.5.6-.86.6-.1,0-.23-.02-.41-.05-.18-.04-.32-.05-.41-.05-1.03,0-2.52.31-4.46.93-1.95.62-3.44.93-4.46.93-3.85,0-5.77-2.92-5.77-8.75,0-4.59.12-8.22.36-10.9.02-.36.04-.55.04-.57,0-.17-.02-.41-.07-.73-.05-.32-.07-.56-.07-.7,0-1.1.6-1.75,1.79-1.94,1.84-.33,3.68-.68,5.52-1.04,2.41-.45,4.22-.68,5.42-.68.69,0,1.3.12,1.83.36.72.33,1.08.8,1.08,1.4,0,.88-.59,1.33-1.76,1.33-.14,0-.36-.02-.66-.05-.3-.04-.52-.05-.66-.05-1.94,0-4.58.43-7.93,1.29-.19.02-.37.06-.54.11-.17.05-.29.23-.36.54-.26,1.15-.39,3.4-.39,6.74,0,.5.23.75.68.75.62,0,1.52-.16,2.69-.47,1.17-.31,2.07-.46,2.69-.46.69,0,1.49.21,2.4.64.24.77.36,1.23.36,1.4,0,.6-.18.92-.54.97-.36.05-.74.1-1.15.14-.19-.12-.45-.18-.79-.18-.84,0-1.84.11-3.01.32-.98.21-1.97.42-2.98.61-.14.02-.27.05-.38.07s-.19.17-.23.43c-.05.43-.07.78-.07,1.04,0,1.84.04,2.94.11,3.3.24,1.39.9,2.08,1.97,2.08.91,0,2.23-.28,3.98-.83,1.74-.55,3.13-.82,4.16-.82,1.63,0,2.68.41,3.16,1.24Z"/><path class="cls-5" d="M80.07,76.03c0,.26-.11.6-.32,1.01-.26.53-.42.85-.47.97-.69,2.18-1.04,3.96-1.04,5.35l-.11,10.31c-.02,1.05-.26,2.13-.72,3.23-.6,1.39-1.34,2.08-2.22,2.08-1.32,0-2.62-1.1-3.91-3.3-.93-1.62-1.88-3.87-2.83-6.74-.55-1.86-1.11-3.73-1.69-5.59-.5,4.06-.75,6.79-.75,8.18,0,3.06.19,4.82.56,5.27.37.46.56.79.56,1.01,0,.45-.24.85-.72,1.2-.48.35-.96.52-1.43.52-.67,0-1.22-.71-1.65-2.12-.33-1.1-.5-2.1-.5-3.01,0-.41.01-1.01.04-1.81.02-.8.04-1.4.04-1.81,0-.98.12-2.44.36-4.38.24-1.94.36-3.39.36-4.38v-4.38s-.02-.12-.05-.21c-.04-.1-.05-.17-.05-.22,0-.48.32-.87.97-1.18.53-.26,1.05-.39,1.58-.39,1.22,0,2.09.39,2.62,1.18.14.26.27.81.39,1.65.07.57.14,1.16.21,1.76.29,1.7,1.04,4.42,2.26,8.18,1.46,4.42,2.55,6.63,3.26,6.63.26,0,.39-.34.39-1.01,0-.19-.03-.5-.09-.93-.06-.43-.09-.77-.09-1.01l.36-9.74c.07-1.46.32-2.9.75-4.31.62-1.99,1.46-2.98,2.51-2.98.33,0,.8.21,1.4.65.02.12.04.23.04.32Z"/><path class="cls-5" d="M97.97,86.4c0,1.98-.24,4.09-.72,6.31-.57,2.75-1.36,4.65-2.37,5.7-1.24,1.31-2.77,1.97-4.59,1.97-1.63,0-3.05-.49-4.27-1.47-1.34-1.1-2.26-2.59-2.76-4.48-.36-1.34-.54-3.13-.54-5.38,0-1.1.07-2.76.21-4.97.14-2.21.22-3.87.22-4.97,0-.19-.07-.47-.22-.84s-.21-.65-.21-.84c0-.6.48-1.09,1.43-1.47.74-.31,1.47-.47,2.19-.47.81,0,1.22.25,1.22.75,0,.26-.12.64-.36,1.15-.24.5-.36.9-.36,1.18,0,.96-.12,2.4-.36,4.34-.24,1.94-.36,3.39-.36,4.38v4.45c0,1.36.26,2.57.79,3.62.65,1.34,1.59,2.01,2.83,2.01,2.39,0,3.98-2.2,4.77-6.6.36-2.06.54-5.25.54-9.58,0-1.58-.24-2.86-.72-3.84-.14-.29-.21-.51-.21-.68,0-.43.16-.85.48-1.26.32-.41.7-.61,1.13-.61.45,0,.94.17,1.45.5.51.34.77.72.77,1.15v9.93Z"/></svg>