<?xml version="1.0" encoding="UTF-8"?><svg id="Layer_1" xmlns="http://www.w3.org/2000/svg" width="249" height="102" viewBox="0 0 249 102"><defs><style>.cls-1{fill:#ff7bac;stroke:#f3aee5;stroke-miterlimit:10;stroke-width:4px;}.cls-2{fill:#fff;stroke-width:0px;}</style></defs><rect class="cls-1" x="2" y="2" width="245" height="98" rx="44.7" ry="44.7"/><path class="cls-2" d="M90.59,45.27c0,.88-.06,1.66-.18,2.34-1.56,9.24-5.94,13.86-13.14,13.86-3.68,0-6.98-.94-9.9-2.82v1.26c-.04,2.68.2,4.52.72,5.52.76,1.4,1.14,2.2,1.14,2.4,0,.8-.31,1.5-.93,2.1-.62.6-1.33.9-2.13.9-1.8,0-3.02-.64-3.66-1.92-.36-.76-.6-2.18-.72-4.26-.08-1.36-.12-2.92-.12-4.68,0-.68.09-1.7.27-3.06.18-1.36.27-2.4.27-3.12v-4.08c-.04-1.2.04-2.97.24-5.31.2-2.34.3-4.07.3-5.19v-5.4c0-.08-.18-1.16-.54-3.24,1.03-.96,2-1.44,2.91-1.44,1.07,0,1.92.39,2.56,1.17.63.78.95,1.73.95,2.85v.84c2.64-3.48,5.98-5.22,10.02-5.22,3.8,0,6.8,1.42,9,4.26,1.96,2.56,2.94,5.8,2.94,9.72v2.52ZM85.13,44.31c0-2.76-.42-5.12-1.26-7.08-1.16-2.64-2.94-3.96-5.34-3.96-3.08,0-5.72,1.88-7.92,5.64-1.96,3.28-2.94,6.58-2.94,9.9,0,5.56,2.8,8.34,8.4,8.34,3,0,5.2-1.3,6.6-3.9.8-1.44,1.56-4.06,2.28-7.86.12-.76.18-1.12.18-1.08Z"/><path class="cls-2" d="M119.81,68.55c-4.32,1.56-8.88,2.34-13.68,2.34-3.76,0-6.4-1.32-7.92-3.96-1.16-2.04-1.74-5.08-1.74-9.12,0-2.36.18-5.86.54-10.5.36-4.64.54-8.14.54-10.5,0-.44-.03-1.14-.09-2.1-.06-.96-.09-1.68-.09-2.16s.04-1.02.12-1.62c.8-.96,1.78-1.44,2.94-1.44s1.98.72,2.58,2.16c.48,1.12.72,2.32.72,3.6,0,2.72-.26,6.76-.78,12.12-.52,5.36-.78,9.38-.78,12.06,0,4.72,1.34,7.08,4.02,7.08,1.2,0,2.92-.41,5.16-1.23,2.24-.82,3.96-1.23,5.16-1.23,1.12,0,1.98.5,2.58,1.5.48.8.72,1.8.72,3Z"/><path class="cls-2" d="M155.69,59.49c0,1.92-.86,2.9-2.58,2.94.2.92.64,2.16,1.32,3.72-.04.88-.4,1.6-1.08,2.16-.68.56-1.48.84-2.4.84-.72,0-1.56-.22-2.52-.66-.52-1.04-.78-2.28-.78-3.72,0-.36.02-.88.06-1.56.04-.68.06-1.18.06-1.5,0,.28-.66.42-1.98.42-2.24,0-4.9.1-7.98.3-4.4.24-6.79.58-7.17,1.02-.38.44-.63,2.58-.75,6.42-.52.76-1.18,1.14-1.98,1.14-.84,0-1.7-.35-2.58-1.05-.88-.7-1.32-1.45-1.32-2.25,0-.28.36-1.4,1.08-3.36.8-2.84,2.1-7.1,3.9-12.78,5.36-14.68,9.82-22.02,13.38-22.02s6.16,3.88,8.04,11.64c.84,3.48,1.62,8.82,2.34,16.02,1.04.24,1.7.44,1.98.6.64.36.96.92.96,1.68ZM147.29,57.21c-1.76-13.96-3.34-20.94-4.74-20.94-1.12,0-3.08,3.28-5.88,9.84-2,4.72-3.58,8.82-4.74,12.3,1.28-.28,3.18-.62,5.7-1.02,2.28-.28,5.5-.34,9.66-.18Z"/><path class="cls-2" d="M187.91,32.85c-.44.76-1.21,1.77-2.31,3.03-1.1,1.26-1.84,2.23-2.22,2.91-.38.68-2.79,6.86-7.23,18.54-3.76,9.96-6.26,14.94-7.5,14.94-1.08,0-2.02-.3-2.82-.9-.92-.64-1.38-1.48-1.38-2.52,0-.64.36-1.44,1.08-2.4s1.52-2.66,2.4-5.1c.64-1.84,1.28-3.68,1.92-5.52-2.4-1.92-4.52-4.86-6.36-8.82-3.2-6.76-4.8-11.52-4.8-14.28,0-2.32,1.04-3.48,3.12-3.48,2.4,0,3.6,1.38,3.6,4.14,0,.28-.05.71-.15,1.29-.1.58-.15,1.03-.15,1.35,0,1.68.78,4.32,2.34,7.92,1.64,3.8,3.12,5.98,4.44,6.54.52-.76,1.66-3.06,3.42-6.9,1.92-4.24,3.42-7.28,4.5-9.12,1.8-3,3.3-4.5,4.5-4.5.88,0,1.67.27,2.37.81.7.54,1.11,1.23,1.23,2.07Z"/></svg>