<?xml version="1.0" encoding="UTF-8"?><svg id="Layer_1" xmlns="http://www.w3.org/2000/svg" width="122.36" height="123.89" viewBox="0 0 122.36 123.89"><defs><style>.cls-1,.cls-2{fill:#ff79ab;}.cls-1,.cls-3{stroke:#ff79ab;stroke-miterlimit:10;stroke-width:.5px;}.cls-4,.cls-2,.cls-5{stroke-width:0px;}.cls-4,.cls-3{fill:#f2caec;}.cls-5{fill:#fff;}</style></defs><path class="cls-2" d="M36.61,27.26v1.97c0,.38.17.79.44,1.06.14.15.3.25.48.31.18.09.37.14.58.13.39-.02.79-.14,1.06-.44s.44-.65.44-1.06v-1.97c0-.38-.17-.79-.44-1.06-.14-.15-.3-.25-.48-.31-.18-.09-.37-.14-.58-.13-.39.02-.79.14-1.06.44s-.44.65-.44,1.06h0Z"/><path class="cls-2" d="M33.83,32.36h1.37"/><path class="cls-2" d="M33.83,33.86h1.37c.21,0,.4-.04.58-.13.19-.06.35-.16.48-.31.15-.14.25-.3.31-.48.09-.18.14-.37.13-.58l-.05-.4c-.07-.25-.2-.47-.39-.66l-.3-.23c-.23-.14-.49-.2-.76-.2h-1.37c-.21,0-.4.04-.58.13-.19.06-.35.16-.48.31-.15.14-.25.3-.31.48-.09.18-.14.37-.13.58l.05.4c.07.25.2.47.39.66l.3.23c.23.14.49.2.76.2h0Z"/><path class="cls-2" d="M38.11,36v2.92"/><path class="cls-2" d="M36.61,36v2.92c0,.38.17.79.44,1.06s.69.46,1.06.44.79-.14,1.06-.44.44-.65.44-1.06v-2.92c0-.38-.17-.79-.44-1.06s-.69-.46-1.06-.44-.79.14-1.06.44-.44.65-.44,1.06h0Z"/><path class="cls-2" d="M40.85,33.98h1.37c.21,0,.4-.04.58-.13.19-.06.35-.16.48-.31.15-.14.25-.3.31-.48.09-.18.14-.37.13-.58l-.05-.4c-.07-.25-.2-.47-.39-.66l-.3-.23c-.23-.14-.49-.2-.76-.2h-1.37c-.21,0-.4.04-.58.13-.19.06-.35.16-.48.31-.15.14-.25.3-.31.48-.09.18-.14.37-.13.58l.05.4c.07.25.2.47.39.66l.3.23c.23.14.49.2.76.2h0Z"/><path class="cls-2" d="M82.38,37.08v1.97c0,.38.17.79.44,1.06.14.15.3.25.48.31.18.09.37.14.58.13.39-.02.79-.14,1.06-.44s.44-.65.44-1.06v-1.97c0-.38-.17-.79-.44-1.06-.14-.15-.3-.25-.48-.31-.18-.09-.37-.14-.58-.13-.39.02-.79.14-1.06.44s-.44.65-.44,1.06h0Z"/><path class="cls-4" d="M79.6,42.18h1.37"/><path class="cls-2" d="M79.6,43.68h1.37c.21,0,.4-.04.58-.13.19-.06.35-.16.48-.31.15-.14.25-.3.31-.48.09-.18.14-.37.13-.58l-.05-.4c-.07-.25-.2-.47-.39-.66l-.3-.23c-.23-.14-.49-.2-.76-.2h-1.37c-.21,0-.4.04-.58.13-.19.06-.35.16-.48.31-.15.14-.25.3-.31.48-.09.18-.14.37-.13.58l.05.4c.07.25.2.47.39.66l.3.23c.23.14.49.2.76.2h0Z"/><path class="cls-4" d="M83.88,45.82v2.92"/><path class="cls-2" d="M82.38,45.82v2.92c0,.38.17.79.44,1.06s.69.46,1.06.44.79-.14,1.06-.44.44-.65.44-1.06v-2.92c0-.38-.17-.79-.44-1.06s-.69-.46-1.06-.44-.79.14-1.06.44-.44.65-.44,1.06h0Z"/><path class="cls-2" d="M86.62,43.8h1.37c.21,0,.4-.04.58-.13.19-.06.35-.16.48-.31.15-.14.25-.3.31-.48.09-.18.14-.37.13-.58l-.05-.4c-.07-.25-.2-.47-.39-.66l-.3-.23c-.23-.14-.49-.2-.76-.2h-1.37c-.21,0-.4.04-.58.13-.19.06-.35.16-.48.31-.15.14-.25.3-.31.48-.09.18-.14.37-.13.58l.05.4c.07.25.2.47.39.66l.3.23c.23.14.49.2.76.2h0Z"/><path class="cls-2" d="M86.97,6.1v1.97c0,.38.17.79.44,1.06.14.15.3.25.48.31.18.09.37.14.58.13.39-.02.79-.14,1.06-.44s.44-.65.44-1.06v-1.97c0-.38-.17-.79-.44-1.06-.14-.15-.3-.25-.48-.31-.18-.09-.37-.14-.58-.13-.39.02-.79.14-1.06.44s-.44.65-.44,1.06h0Z"/><path class="cls-4" d="M84.19,11.19h1.37"/><path class="cls-2" d="M84.19,12.69h1.37c.21,0,.4-.04.58-.13.19-.06.35-.16.48-.31.15-.14.25-.3.31-.48.09-.18.14-.37.13-.58l-.05-.4c-.07-.25-.2-.47-.39-.66l-.3-.23c-.23-.14-.49-.2-.76-.2h-1.37c-.21,0-.4.04-.58.13-.19.06-.35.16-.48.31-.15.14-.25.3-.31.48-.09.18-.14.37-.13.58l.05.4c.07.25.2.47.39.66l.3.23c.23.14.49.2.76.2h0Z"/><path class="cls-4" d="M88.47,14.83v2.92"/><path class="cls-2" d="M86.97,14.83v2.92c0,.38.17.79.44,1.06s.69.46,1.06.44.79-.14,1.06-.44.44-.65.44-1.06v-2.92c0-.38-.17-.79-.44-1.06s-.69-.46-1.06-.44-.79.14-1.06.44-.44.65-.44,1.06h0Z"/><path class="cls-4" d="M91.21,11.31h1.37"/><path class="cls-2" d="M91.21,12.81h1.37c.21,0,.4-.04.58-.13.19-.06.35-.16.48-.31.15-.14.25-.3.31-.48.09-.18.14-.37.13-.58l-.05-.4c-.07-.25-.2-.47-.39-.66l-.3-.23c-.23-.14-.49-.2-.76-.2h-1.37c-.21,0-.4.04-.58.13-.19.06-.35.16-.48.31-.15.14-.25.3-.31.48-.09.18-.14.37-.13.58l.05.4c.07.25.2.47.39.66l.3.23c.23.14.49.2.76.2h0Z"/><path class="cls-3" d="M1.53,62.53L.26,111.37s-2.29,9.67,55.05,12.02c57.34,2.35,66.59-12.66,66.59-12.66l-.02-41.45s6.91-4.95-55.06-18.22V17.11c0-1.53-1.24-2.78-2.78-2.78h-4.57c-1.5,0-2.71,1.24-2.67,2.74l-.31,33.99s-37.55-.09-54.96,11.48Z"/><path class="cls-1" d="M60.6.27c-1.15.28-2.3,3.95-2.3,5.74s1.15,5.46,2.3,5.74c1.12.27,3.44-2.66,3.44-5.74S61.72,0,60.6.27Z"/><path class="cls-5" d="M30.95,100.1v.18c-.36.53-.8.79-1.33.79-.41,0-.75-.18-1.04-.54-.22-.86-1.8-2.26-4.75-4.2s-4.91-2.91-5.86-2.91h-.65c-.33.02-.56.04-.68.04v1.4c0,.48.06,1.11.18,1.9.12.96.25,1.54.39,1.76.43.57.65.93.65,1.08,0,.43-.17.78-.5,1.06-.33.27-.72.41-1.15.41-.91,0-1.61-.32-2.12-.97-.48-.57-.72-2.94-.72-7.1-.5,0-1.03-.16-1.58-.47-.62-.38-.93-.79-.93-1.22,0-.88.8-1.52,2.4-1.9.1-.74.18-1.76.25-3.05.05-1.46.11-2.47.18-3.05.14-.76.32-1.91.54-3.44h-.29c-.96.02-1.43-.39-1.43-1.26,0-.74.29-1.21.86-1.4.41-.12.81-.24,1.22-.36.48-.43.85-.71,1.13-.84.27-.13.71-.2,1.31-.2.43,0,.65.19.65.57,0,.12.3.18.9.18,2.8,0,5.18.56,7.14,1.69,2.41,1.36,3.62,3.33,3.62,5.92,0,1.99-.62,3.62-1.86,4.91-.84.88-2.32,1.88-4.45,2.98,1.7,1.08,3.38,2.15,5.06,3.23,1.94,1.46,2.89,3.06,2.87,4.81ZM26.07,84.03c0-1.53-.78-2.69-2.34-3.48-1.25-.65-2.71-.97-4.39-.97-.22,0-.73.04-1.55.11.02.86-.2,2.34-.68,4.45-.26,1.27-.44,3.12-.54,5.56,1.39.48,2.26.72,2.59.72.29,0,.71-.08,1.26-.25,1.58-.48,2.88-1.21,3.89-2.19,1.18-1.12,1.76-2.44,1.76-3.95Z"/><path class="cls-5" d="M50.35,98.04c0,.4-.08.76-.25,1.06-.21.4-.5.6-.86.6-.1,0-.23-.02-.41-.05-.18-.04-.32-.05-.41-.05-1.03,0-2.52.31-4.46.93-1.95.62-3.44.93-4.46.93-3.85,0-5.77-2.92-5.77-8.75,0-4.59.12-8.22.36-10.9.02-.36.04-.55.04-.57,0-.17-.02-.41-.07-.74-.05-.32-.07-.56-.07-.7,0-1.1.6-1.75,1.79-1.94,1.84-.33,3.68-.68,5.52-1.04,2.41-.45,4.22-.68,5.42-.68.69,0,1.3.12,1.83.36.72.33,1.08.8,1.08,1.4,0,.88-.59,1.33-1.76,1.33-.14,0-.36-.02-.66-.05-.3-.04-.52-.05-.66-.05-1.94,0-4.58.43-7.93,1.29-.19.02-.37.06-.54.11-.17.05-.29.23-.36.54-.26,1.15-.39,3.4-.39,6.74,0,.5.23.75.68.75.62,0,1.52-.16,2.69-.47,1.17-.31,2.07-.47,2.69-.47.69,0,1.49.21,2.4.65.24.76.36,1.23.36,1.4,0,.6-.18.92-.54.97-.36.05-.74.1-1.15.14-.19-.12-.45-.18-.79-.18-.84,0-1.84.11-3.01.32-.98.21-1.97.42-2.98.61-.14.02-.27.05-.38.07s-.19.17-.23.43c-.05.43-.07.78-.07,1.04,0,1.84.04,2.94.11,3.3.24,1.39.9,2.08,1.97,2.08.91,0,2.23-.28,3.98-.83,1.74-.55,3.13-.83,4.16-.83,1.63,0,2.68.41,3.16,1.24Z"/><path class="cls-5" d="M69.71,78.9c0,.41-.13.76-.38,1.06-.25.3-.57.45-.95.45-.22,0-.62-.1-1.2-.31-.59-.2-1.07-.3-1.45-.3h-2.47c-.36,0-.56.03-.59.09-.04.06-.08.29-.13.7-.1.6-.24,1.49-.43,2.69-.45,3.25-.68,6.92-.68,11.01,0,2.77.32,4.67.97,5.7v.97c-.45.24-.81.36-1.08.36-1.53,0-2.52-.74-2.98-2.22-.22-.72-.32-2.09-.32-4.12,0-2.37.05-4.21.14-5.52.02-.57.16-1.95.39-4.12.19-1.7.29-3.07.29-4.12v-1.04c-.34.02-.99.11-1.95.25-.79.12-1.44.18-1.95.18-1.66,0-2.49-.49-2.49-1.47,0-.41.12-.65.36-.72.36-.53,2.24-.98,5.63-1.36,2.63-.29,4.76-.43,6.38-.43,1.15,0,2.15.14,3.01.43,1.24.41,1.86,1.03,1.86,1.86Z"/><path class="cls-5" d="M91.84,100.1v.18c-.36.53-.8.79-1.33.79-.41,0-.75-.18-1.04-.54-.22-.86-1.8-2.26-4.75-4.2s-4.91-2.91-5.86-2.91h-.65c-.33.02-.56.04-.68.04v1.4c0,.48.06,1.11.18,1.9.12.96.25,1.54.39,1.76.43.57.65.93.65,1.08,0,.43-.17.78-.5,1.06-.33.27-.72.41-1.15.41-.91,0-1.61-.32-2.12-.97-.48-.57-.72-2.94-.72-7.1-.5,0-1.03-.16-1.58-.47-.62-.38-.93-.79-.93-1.22,0-.88.8-1.52,2.4-1.9.1-.74.18-1.76.25-3.05.05-1.46.11-2.47.18-3.05.14-.76.32-1.91.54-3.44h-.29c-.96.02-1.43-.39-1.43-1.26,0-.74.29-1.21.86-1.4.41-.12.81-.24,1.22-.36.48-.43.85-.71,1.13-.84.27-.13.71-.2,1.31-.2.43,0,.65.19.65.57,0,.12.3.18.9.18,2.8,0,5.18.56,7.14,1.69,2.41,1.36,3.62,3.33,3.62,5.92,0,1.99-.62,3.62-1.86,4.91-.84.88-2.32,1.88-4.45,2.98,1.7,1.08,3.38,2.15,5.06,3.23,1.94,1.46,2.89,3.06,2.87,4.81ZM86.96,84.03c0-1.53-.78-2.69-2.34-3.48-1.25-.65-2.71-.97-4.39-.97-.22,0-.73.04-1.55.11.02.86-.2,2.34-.68,4.45-.26,1.27-.44,3.12-.54,5.56,1.39.48,2.26.72,2.59.72.29,0,.71-.08,1.26-.25,1.58-.48,2.88-1.21,3.89-2.19,1.18-1.12,1.76-2.44,1.76-3.95Z"/><path class="cls-5" d="M112.03,78.43c-.26.45-.72,1.06-1.38,1.81s-1.1,1.33-1.33,1.74c-.23.41-1.67,4.1-4.32,11.08-2.25,5.95-3.74,8.93-4.48,8.93-.65,0-1.21-.18-1.69-.54-.55-.38-.82-.88-.82-1.51,0-.38.21-.86.65-1.43.43-.57.91-1.59,1.43-3.05.38-1.1.77-2.2,1.15-3.3-1.43-1.15-2.7-2.9-3.8-5.27-1.91-4.04-2.87-6.88-2.87-8.54,0-1.39.62-2.08,1.86-2.08,1.43,0,2.15.82,2.15,2.47,0,.17-.03.42-.09.77-.06.35-.09.62-.09.81,0,1,.47,2.58,1.4,4.73.98,2.27,1.86,3.57,2.65,3.91.31-.45.99-1.83,2.04-4.12,1.15-2.53,2.04-4.35,2.69-5.45,1.08-1.79,1.97-2.69,2.69-2.69.53,0,1,.16,1.42.48.42.32.66.74.74,1.24Z"/></svg>