<?xml version="1.0" encoding="UTF-8"?><svg id="Layer_1" xmlns="http://www.w3.org/2000/svg" width="257.53" height="58.39" viewBox="0 0 257.53 58.39"><defs><style>.cls-1{fill:#f3abe5;stroke:#fff;stroke-miterlimit:10;}.cls-2{fill:#fff;stroke-width:0px;}</style></defs><rect class="cls-1" x=".5" y=".5" width="256.53" height="49.15" rx="17.66" ry="17.66"/><path class="cls-2" d="M85.88,33.8c0,1.46-.85,2.59-2.55,3.39-1.34.65-2.84.97-4.5.97-1.51,0-3.29-.34-5.32-1.01-2.52-.86-3.78-1.87-3.78-3.02,0-.43.16-.8.47-1.11s.68-.47,1.12-.47c.65,0,1.25.26,1.8.79.94.79,1.44,1.22,1.51,1.29.84.48,2.35.72,4.53.72,1.94,0,2.91-.44,2.91-1.33,0-.74-.91-1.77-2.73-3.09-1.27-.81-2.54-1.63-3.81-2.45-1.63-1.1-2.82-2.15-3.56-3.13-.98-1.29-1.47-2.78-1.47-4.46,0-2.11.65-3.99,1.94-5.65,1.39-1.82,3.12-2.73,5.18-2.73,1.77,0,3.27.49,4.5,1.46,1.22.97,2,2.33,2.34,4.08.07.67.22,1.67.43,2.99.1.38.14.67.14.86,0,.86-.14,1.59-.43,2.19-.36.82-.92,1.22-1.69,1.22-.43,0-.85-.2-1.24-.6-.4-.4-.59-.81-.59-1.25,0-.31.07-.78.22-1.39.14-.61.22-1.08.22-1.39,0-3.25-1.08-4.87-3.24-4.87-1.2,0-2.21.51-3.02,1.53-.82,1.02-1.22,2.14-1.22,3.37,0,1.73,1.03,3.41,3.09,5.04,1.89,1.27,3.8,2.55,5.72,3.82,2.04,1.47,3.06,2.87,3.06,4.21Z"/><path class="cls-2" d="M105.66,22.44c0,.53-.04,1-.11,1.4-.94,5.54-3.56,8.31-7.88,8.31-2.21,0-4.18-.56-5.93-1.69v.75c-.02,1.61.12,2.71.43,3.31.46.84.68,1.32.68,1.44,0,.48-.19.9-.56,1.26-.37.36-.8.54-1.28.54-1.08,0-1.81-.38-2.19-1.15-.22-.46-.36-1.31-.43-2.55-.05-.82-.07-1.75-.07-2.81,0-.41.05-1.02.16-1.83.11-.81.16-1.44.16-1.87v-2.45c-.02-.72.02-1.78.14-3.18s.18-2.44.18-3.11v-3.24s-.11-.7-.32-1.94c.62-.58,1.2-.86,1.75-.86.64,0,1.15.23,1.53.7.38.47.57,1.04.57,1.71v.5c1.58-2.09,3.58-3.13,6.01-3.13,2.28,0,4.08.85,5.39,2.55,1.17,1.54,1.76,3.48,1.76,5.83v1.51ZM102.39,21.87c0-1.65-.25-3.07-.75-4.24-.7-1.58-1.76-2.37-3.2-2.37-1.85,0-3.43,1.13-4.75,3.38-1.17,1.97-1.76,3.94-1.76,5.93,0,3.33,1.68,5,5.04,5,1.8,0,3.12-.78,3.96-2.34.48-.86.94-2.43,1.37-4.71.07-.46.11-.67.11-.65Z"/><path class="cls-2" d="M113.87,14.92c0,.12-.11.38-.32.79-.1.19-.19.73-.29,1.62-.5,5.37-.75,10.08-.75,14.13,0,1.06.1,1.91.29,2.55.17.55.52,1.31,1.04,2.27.02.05.04.12.04.22,0,.5-.59.75-1.76.75h-.32c-1.22-.02-1.97-1.01-2.23-2.95-.34-2.37-.5-5.65-.5-9.82,0-.98.02-2.46.05-4.44.04-1.98.05-3.47.05-4.48,0-.55.29-1.08.86-1.58.58-.5,1.14-.76,1.69-.76.43,0,.9.18,1.4.54.5.36.75.74.75,1.15Z"/><path class="cls-2" d="M131.28,36.39c-2.59.93-5.32,1.4-8.2,1.4-2.25,0-3.84-.79-4.75-2.37-.7-1.22-1.04-3.04-1.04-5.47,0-1.42.11-3.51.32-6.29s.32-4.88.32-6.29c0-.26-.02-.68-.05-1.26-.04-.58-.05-1.01-.05-1.29s.02-.61.07-.97c.48-.58,1.07-.86,1.76-.86s1.19.43,1.55,1.29c.29.67.43,1.39.43,2.16,0,1.63-.16,4.05-.47,7.26-.31,3.21-.47,5.62-.47,7.23,0,2.83.8,4.24,2.41,4.24.72,0,1.75-.25,3.09-.74,1.34-.49,2.37-.74,3.09-.74.67,0,1.19.3,1.55.9.29.48.43,1.08.43,1.8Z"/><path class="cls-2" d="M148.19,36.39c-2.59.93-5.32,1.4-8.2,1.4-2.25,0-3.84-.79-4.75-2.37-.7-1.22-1.04-3.04-1.04-5.47,0-1.42.11-3.51.32-6.29s.32-4.88.32-6.29c0-.26-.02-.68-.05-1.26-.04-.58-.05-1.01-.05-1.29s.02-.61.07-.97c.48-.58,1.07-.86,1.76-.86s1.19.43,1.55,1.29c.29.67.43,1.39.43,2.16,0,1.63-.16,4.05-.47,7.26-.31,3.21-.47,5.62-.47,7.23,0,2.83.8,4.24,2.41,4.24.72,0,1.75-.25,3.09-.74,1.34-.49,2.37-.74,3.09-.74.67,0,1.19.3,1.55.9.29.48.43,1.08.43,1.8Z"/><path class="cls-2" d="M167.8,34.65c0,.4-.08.76-.25,1.07-.22.4-.5.6-.86.6-.1,0-.23-.02-.41-.05-.18-.04-.32-.05-.41-.05-1.03,0-2.52.31-4.48.94s-3.45.93-4.48.93c-3.86,0-5.79-2.92-5.79-8.77,0-4.6.12-8.25.36-10.93.02-.36.04-.55.04-.58,0-.17-.02-.41-.07-.74-.05-.32-.07-.56-.07-.7,0-1.1.6-1.75,1.8-1.94,1.85-.33,3.69-.68,5.54-1.04,2.42-.46,4.23-.68,5.43-.68.69,0,1.31.12,1.83.36.72.34,1.08.8,1.08,1.4,0,.89-.59,1.33-1.76,1.33-.14,0-.37-.02-.67-.05-.3-.04-.52-.05-.67-.05-1.94,0-4.59.43-7.95,1.29-.19.02-.37.06-.54.11-.17.05-.29.23-.36.54-.26,1.15-.4,3.4-.4,6.76,0,.5.23.76.68.76.62,0,1.52-.16,2.7-.47,1.17-.31,2.07-.47,2.7-.47.7,0,1.5.22,2.41.65.24.77.36,1.24.36,1.4,0,.6-.18.92-.54.97s-.74.1-1.15.14c-.19-.12-.46-.18-.79-.18-.84,0-1.85.11-3.02.32-.98.22-1.98.42-2.99.61-.14.02-.27.05-.38.07-.11.02-.19.17-.23.43-.05.43-.07.78-.07,1.04,0,1.85.04,2.95.11,3.31.24,1.39.9,2.09,1.98,2.09.91,0,2.24-.28,3.99-.83s3.14-.83,4.17-.83c1.63,0,2.69.42,3.17,1.24Z"/><path class="cls-2" d="M187.62,15.46c0,.41-.13.76-.38,1.06s-.57.45-.95.45c-.22,0-.62-.1-1.21-.31-.59-.2-1.07-.31-1.46-.31h-2.48c-.36,0-.56.03-.59.09-.04.06-.08.29-.13.7-.1.6-.24,1.5-.43,2.7-.46,3.26-.68,6.94-.68,11.04,0,2.78.32,4.69.97,5.72v.97c-.46.24-.82.36-1.08.36-1.53,0-2.53-.74-2.98-2.23-.22-.72-.32-2.1-.32-4.14,0-2.37.05-4.22.14-5.54.02-.58.16-1.95.4-4.14.19-1.7.29-3.08.29-4.14v-1.04c-.34.02-.99.11-1.95.25-.8.12-1.45.18-1.95.18-1.66,0-2.5-.49-2.5-1.47,0-.41.12-.65.36-.72.36-.53,2.24-.98,5.65-1.37,2.64-.29,4.77-.43,6.4-.43,1.15,0,2.16.14,3.02.43,1.25.41,1.87,1.03,1.87,1.87Z"/></svg>