<?xml version="1.0" encoding="UTF-8"?><svg id="Layer_1" xmlns="http://www.w3.org/2000/svg" width="148.02" height="49.66" viewBox="0 0 148.02 49.66"><defs><style>.cls-1{fill:#fff;stroke:#f3abe5;stroke-miterlimit:10;}.cls-2{fill:#ff7bac;stroke-width:0px;}</style></defs><rect class="cls-1" x=".5" y=".5" width="147.02" height="41" rx="17.66" ry="17.66"/><path class="cls-2" d="M55.67,9.98c0,.34-.1.64-.31.88-.21.25-.48.38-.79.38-.18,0-.52-.08-1-.25-.49-.17-.9-.25-1.21-.25h-2.07c-.3,0-.46.03-.49.08-.03.05-.07.25-.11.58-.08.5-.2,1.25-.36,2.25-.38,2.72-.57,5.79-.57,9.21,0,2.32.27,3.91.81,4.77v.81c-.38.2-.68.3-.9.3-1.28,0-2.11-.62-2.49-1.86-.18-.6-.27-1.75-.27-3.45,0-1.98.04-3.52.12-4.62.02-.48.13-1.63.33-3.45.16-1.42.24-2.57.24-3.45v-.87c-.28.02-.82.09-1.63.21-.66.1-1.21.15-1.63.15-1.39,0-2.08-.41-2.08-1.23,0-.34.1-.54.3-.6.3-.44,1.87-.82,4.71-1.14,2.2-.24,3.98-.36,5.34-.36.96,0,1.8.12,2.52.36,1.04.34,1.56.86,1.56,1.56Z"/><path class="cls-2" d="M63,25.58c0,1-.68,1.78-2.04,2.34-1.06.44-2.17.66-3.33.66-3.08,0-4.62-1.75-4.62-5.25,0-1.44.35-3.04,1.05-4.8.86-2.16,1.9-3.24,3.12-3.24,1.1,0,2.28.49,3.56,1.47,1.27.98,1.9,2,1.9,3.06,0,1.32-.59,2.37-1.77,3.15-1.04.7-2.28,1.05-3.72,1.05-.28,0-.73-.17-1.35-.51.08,1.9.64,2.85,1.68,2.85.88,0,1.74-.25,2.59-.75.85-.5,1.4-.75,1.64-.75.86,0,1.29.24,1.29.72ZM59.73,19.91c0-.5-.15-.98-.44-1.43-.29-.45-.68-.67-1.16-.67-.66,0-1.17.29-1.53.87-.3.5-.45,1.09-.45,1.77,0,.38.13.69.39.93.26.24.59.36.99.36,1.46,0,2.19-.61,2.19-1.83Z"/><path class="cls-2" d="M76.59,29.15c-.76.56-1.36.84-1.8.84-.58,0-1.42-.6-2.52-1.8-.78-.84-1.55-1.69-2.31-2.55-.44-.52-1.14-1.25-2.1-2.19l-.09.06v2.64c0,.16.06.4.2.71.13.31.19.56.19.74,0,.28-.15.52-.44.74-.29.21-.58.31-.88.31-.52,0-.95-.17-1.29-.51-.34-.34-.51-.77-.51-1.29v-3.96c0-.24.03-.6.09-1.09s.09-.86.09-1.1v-8.07c0-1.22-.08-2.2-.25-2.94-.07-.34-.11-.6-.11-.78,0-.38.23-.72.69-1.02.4-.28.8-.42,1.2-.42.3,0,.62.12.97.34.35.23.53.49.53.76,0,.08-.06.36-.19.84-.13.48-.19,1.22-.19,2.22,0,.32-.03,2.99-.1,8.01.08-.08,1.16-1.07,3.25-2.97,1.73-1.6,2.74-2.4,3.04-2.4,1.06,0,1.58.65,1.54,1.95v.3c-.86.5-1.98,1.29-3.35,2.37-1.73,1.34-2.59,2.23-2.59,2.67,0,.04.54.67,1.63,1.89,1.02,1.16,1.67,1.88,1.93,2.16,1.21,1.26,2.33,2.12,3.37,2.58v.96Z"/><path class="cls-2" d="M88.18,28.01c-.3.46-.67.69-1.11.69-.34,0-.9-.2-1.68-.6v-.36c0-.44,0-1.09.03-1.95.02-.86.03-1.49.03-1.89,0-4.28-.64-6.42-1.91-6.42-.36,0-.77.28-1.22.84-1.41,1.72-2.12,3.79-2.12,6.21,0,.34.06.85.2,1.52.13.67.19,1.17.19,1.51,0,.28-.13.51-.39.69-.26.18-.54.27-.84.27-1.2,0-1.8-.76-1.8-2.28v-6.27c0-.16.02-.39.06-.71.04-.31.06-.54.06-.71,0-.24-.04-.59-.11-1.05s-.1-.8-.1-1.02c0-.32.19-.62.56-.91s.71-.44,1-.44c.44,0,.89.25,1.35.75l-.09,1.2c.74-1.18,1.65-1.77,2.73-1.77.7,0,1.44.24,2.22.72.78.48,1.35,1.02,1.71,1.62.82,1.52,1.23,3.52,1.23,6v4.35Z"/><path class="cls-2" d="M94.28,16.67c0,.36-.08.87-.24,1.53-.16.66-.24,1.17-.24,1.53v6.18c0,.38.12.98.36,1.8-.3.46-.64.69-1,.69-1.27,0-1.97-.63-2.09-1.89-.2-2.34-.3-4.1-.3-5.28,0-1.98.08-3.64.24-4.98v-.3c0-.36.28-.54.83-.54.49,0,.99.1,1.49.3.63.22.95.54.95.96ZM94.55,12.47c0,.44-.15.8-.45,1.08-.3.28-.67.42-1.11.42-.52,0-1.01-.18-1.46-.54-.45-.36-.68-.8-.68-1.32,0-.44.15-.8.47-1.08.31-.28.69-.42,1.15-.42.54,0,1.02.18,1.44.53.42.35.63.79.63,1.33Z"/><path class="cls-2" d="M107.84,29.15c-.76.56-1.36.84-1.8.84-.58,0-1.42-.6-2.52-1.8-.78-.84-1.55-1.69-2.31-2.55-.44-.52-1.14-1.25-2.1-2.19l-.09.06v2.64c0,.16.06.4.2.71.13.31.19.56.19.74,0,.28-.15.52-.44.74-.29.21-.58.31-.88.31-.52,0-.95-.17-1.29-.51-.34-.34-.51-.77-.51-1.29v-3.96c0-.24.03-.6.09-1.09s.09-.86.09-1.1v-8.07c0-1.22-.08-2.2-.25-2.94-.07-.34-.11-.6-.11-.78,0-.38.23-.72.69-1.02.4-.28.8-.42,1.2-.42.3,0,.62.12.97.34.35.23.53.49.53.76,0,.08-.06.36-.19.84-.13.48-.19,1.22-.19,2.22,0,.32-.03,2.99-.1,8.01.08-.08,1.16-1.07,3.25-2.97,1.73-1.6,2.74-2.4,3.04-2.4,1.06,0,1.58.65,1.54,1.95v.3c-.86.5-1.98,1.29-3.35,2.37-1.73,1.34-2.59,2.23-2.59,2.67,0,.04.54.67,1.63,1.89,1.02,1.16,1.67,1.88,1.93,2.16,1.21,1.26,2.33,2.12,3.37,2.58v.96Z"/></svg>