<?xml version="1.0" encoding="UTF-8"?><svg id="Layer_1" xmlns="http://www.w3.org/2000/svg" width="41.77" height="38.42" viewBox="0 0 41.77 38.42"><defs><style>.cls-1{fill:#f2ccec;stroke-width:0px;}</style></defs><path class="cls-1" d="M20.27,8.05C18.07,3.5,12.03,1.26,7.38,3.27S.25,11.23,2.07,15.95c1.74,4.52,6.32,7.21,10.61,9.45,4.3,2.24,7.13,7.83,9.8,11.56"/><path class="cls-1" d="M21.57,7.3c-1.87-3.69-5.78-6-9.87-6.25S3.76,2.99,1.67,6.52s-2.26,8.19-.09,11.84c2.34,3.94,6.44,6.22,10.34,8.34,4.3,2.33,6.54,7.18,9.26,11.02,1.11,1.56,3.71.07,2.59-1.51-2.18-3.08-4.01-6.44-6.62-9.19s-6.47-4.06-9.53-6.44c-2.88-2.23-5.15-5.42-4.56-9.22.52-3.35,2.9-6.38,6.28-7.15,3.8-.87,7.9,1.18,9.64,4.6.87,1.72,3.46.21,2.59-1.51h0Z"/><path class="cls-1" d="M20.96,8.47c1.34-4.57,7.09-8,12-6.72,4.9,1.27,8.28,6.76,7.22,11.71-1.02,4.73-5.21,7.99-9.02,10.98-3.8,2.99-7.4,7.59-8.67,12.53"/><path class="cls-1" d="M22.4,8.87c.99-3.11,4.11-5.37,7.28-5.82,3.38-.48,6.47,1.46,8.08,4.36,1.78,3.22,1.21,6.76-.9,9.67-2.3,3.17-5.73,5.18-8.54,7.82-3.36,3.16-6.07,7.18-7.28,11.66-.51,1.87,2.39,2.66,2.89.8,1.25-4.63,4.3-8.63,7.99-11.63,3.38-2.75,7.1-5.44,8.92-9.56C44.23,8.45,37.91-1.14,29.22.11c-4.36.63-8.36,3.72-9.71,7.96-.59,1.84,2.31,2.63,2.89.8h0Z"/><path class="cls-1" d="M25.1,26.72c1.93,0,1.93-3,0-3s-1.93,3,0,3h0Z"/><path class="cls-1" d="M26.96,10.22c-.12-1.4,1.22-2.65,2.63-2.69s2.7.91,3.38,2.14c.54.98.74,2.17.47,3.26s-1.02,2.07-2.04,2.54c-1.64.76-3.55.15-5.29-.36-3.27-.97-6.63-1.55-9.99-2.14"/><path class="cls-1" d="M32.96,10.22c-.01-.15,0-.31.01-.46l-.21,1.6c.05-.23.1-.43.2-.65l-.6,1.43c.07-.14.14-.27.23-.39l-.94,1.21c.2-.25.41-.46.66-.65l-1.21.94c.2-.13.39-.24.62-.34l-1.43.6c.23-.08.44-.14.68-.18l-1.6.21c.25-.02.47-.02.72,0l-1.6-.21c.33.06.63.14.93.27l-1.43-.6c.3.15.57.32.84.52l-1.21-.94c.26.22.49.45.7.71l-.94-1.21c.27.36.47.72.65,1.13l-.6-1.43c.13.36.23.71.3,1.08l-.21-1.6c.04.38.05.74.03,1.12l.21-1.6c-.05.36-.13.7-.25,1.05l.6-1.43c-.14.32-.3.62-.5.91l.94-1.21c-.22.28-.45.51-.72.74l1.21-.94c-.22.16-.42.28-.66.4l1.43-.6c-.37.15-.73.26-1.13.32l1.6-.21c-.5.05-.98.03-1.48-.02l1.6.21c-2.09-.32-4.12-1.1-6.19-1.56s-4.31-.86-6.48-1.24c-1.63-.28-3.15-.26-4.62.6-1.24.73-2.43,2.16-2.76,3.59-.35,1.54-.27,3.26.6,4.62.8,1.24,2.07,2.49,3.59,2.76,3.46.6,6.91,1.24,10.28,2.23,2.39.7,4.88,1.14,7.35.55,2.6-.62,4.98-2.45,6.21-4.84,2.53-4.92.73-11.48-4.31-14.04-2.83-1.44-6.02-1.45-8.81.11-2.61,1.46-4.35,4.48-4.27,7.46.09,3.13,2.69,6.15,6,6s6.1-2.64,6-6h0Z"/><path class="cls-1" d="M10.29,11.77c.9-.75,1.94-1.34,3.05-1.71-1,.18-2-.14-3.01-.22s-2.19.18-2.64,1.08c-.39.78-.07,1.76.51,2.42s1.36,1.1,2.06,1.62c1.34.98,2.54,2.32,4.16,2.66-1.75-.06-3.49-.44-5.11-1.11.32-.26.8-.09,1.17.09,1.06.52,2.1,1.06,3.14,1.61,1.04.55,2.1,1.13,3.26,1.32.78.13,1.58.07,2.38.13,1.41.1,2.78.57,4.19.58,1.47,0,2.89-.48,4.27-.97"/><path class="cls-1" d="M14.54,16.01c-1.48,1.21-.31.25.09.02.37-.22.75-.4,1.14-.57l-1.43.6c.2-.08.4-.16.6-.22,2.84-1,4.71-3.5,4.3-6.58-.36-2.67-2.93-5.55-5.89-5.2-.51.06-.99.04-1.5-.01l1.6.21c-2.84-.41-5.51-.75-8.11.78C1.86,7.08.72,11.31,2.24,14.91c.55,1.3,1.35,2.44,2.43,3.35.65.54,1.33,1.03,2.02,1.51.18.12.36.25.54.38-.75-.59-.95-.75-.59-.46,1.89,1.58,3.75,3.11,6.19,3.73l1.6-11.79c-.47-.02-.93-.06-1.4-.11l1.6.21c-1.28-.18-2.51-.51-3.71-.99l1.43,10.97.21-.11-3.03.82.23-.02-1.6-.21c.17.01.33.05.49.12l-1.43-.6c1.93.87,3.73,1.99,5.67,2.82,1.46.62,2.7.94,4.32,1.08.91.08,1.83.04,2.74.16l-1.6-.21c1.8.28,3.62.79,5.45.71,1.92-.09,3.71-.55,5.5-1.17,2.96-1.03,5.23-4.15,4.19-7.38-.95-2.92-4.21-5.3-7.38-4.19-1.05.36-2.09.71-3.18.89l1.6-.21c-.73.09-1.42.09-2.14,0l1.6.21c-1.41-.21-2.79-.5-4.21-.66-.97-.11-1.94-.06-2.9-.18l1.6.21c-.58-.11-1.13-.29-1.67-.52l1.43.6c-1.31-.6-2.56-1.32-3.85-1.97-.9-.45-1.83-.95-2.79-1.23-1.81-.54-3.68-.15-5.31.7-2.12,1.1-3.17,3.73-2.86,5.98.34,2.53,2.01,4.07,4.3,4.99,2.12.85,4.42,1.22,6.7,1.32,2.98.14,5.51-2.39,5.89-5.2s-1.39-5.85-4.3-6.58c-.31-.08-.58-.17-.87-.29l1.43.6c-.28-.14-.54-.28-.8-.45-.2-.13-.98-.71-.15-.08s.05.02-.13-.13c-.24-.2-.49-.4-.74-.59-.74-.58-1.49-1.17-2.28-1.69-1.02-.66,1.1.91.19.12-.8-.69.71,1.17.24.23l.6,1.43c-.08-.18-.14-.37-.17-.56l.21,1.6c-.03-.19-.04-.38-.02-.57l-.21,1.6c.02-.19.07-.37.16-.55l-.6,1.43c-.27.47-.63.85-1.07,1.13-.5.34-.56.41-.2.2l-1.43.6c.33-.13.64-.21.99-.26l-1.6.21c.39-.03.76,0,1.15.03l-1.6-.21c1.4.2,2.82.56,4.23.4l-1.6-11.79c-2.22.78-3.88,1.78-5.69,3.25-1.12.91-1.76,2.86-1.76,4.24,0,1.47.65,3.23,1.76,4.24s2.64,1.83,4.24,1.76c1.68-.08,2.94-.7,4.24-1.76h0Z"/><path class="cls-1" d="M17.37,24.79c1.21.03,2.44.4,3.36,1.18s1.51,2.01,1.35,3.21c-.07.58-.3,1.21-.03,1.73,1.38-1.95,2.97-3.77,4.71-5.41-1.62.89-3.4,1.5-5.23,1.78-.76.12-1.54.18-2.28,0"/><path class="cls-1" d="M17.37,27.79c.25,0,.5.03.76.06l-.8-.11c.5.08.98.21,1.45.41l-.72-.3c.37.17.71.37,1.03.61l-.61-.47c.27.22.5.46.72.73l-.47-.61c.2.28.37.56.51.88l-.3-.72c.11.27.18.54.23.83l-.11-.8c.04.29.04.57.01.86l.11-.8c-.09.59-.23,1.17-.26,1.77-.05.84.21,1.52.53,2.28.4.94,1.64,1.49,2.59,1.49,1.13,0,1.96-.6,2.59-1.49.3-.42.6-.83.92-1.24l-.47.61c1.16-1.49,2.42-2.88,3.79-4.17,1.09-1.03,1.12-2.8.23-3.94s-2.54-1.49-3.87-.77c-.49.27-1,.51-1.51.73l.72-.3c-1.3.54-2.66.91-4.06,1.1l.8-.11c-.53.06-1.06.08-1.59.02l.8.11c-.12-.02-.23-.04-.35-.07-1.53-.34-3.32.46-3.69,2.1-.35,1.52.46,3.32,2.1,3.69,1.81.41,3.67.14,5.44-.32,1.52-.4,3-1.01,4.38-1.76l-3.64-4.71c-1.93,1.82-3.64,3.85-5.18,6.01h5.18l-.06-.15.3.72c-.03-.1-.05-.2-.06-.3l.11.8c0-.16,0-.31.02-.48l-.11.8c.1-.63.25-1.26.26-1.89.02-.55-.07-1.12-.2-1.65-.27-1.14-.91-2.18-1.69-3.03-1.48-1.62-3.71-2.33-5.85-2.41-1.57-.06-3.07,1.42-3,3,.08,1.68,1.32,2.94,3,3h0Z"/></svg>