<?xml version="1.0" encoding="UTF-8"?><svg id="Layer_1" xmlns="http://www.w3.org/2000/svg" width="387.16" height="61" viewBox="0 0 387.16 61"><defs><style>.cls-1{fill:#ff7bac;}.cls-1,.cls-2{stroke-width:0px;}.cls-3{fill:#f2ccec;stroke:#f2ccec;stroke-miterlimit:10;}.cls-2{fill:#fff;}</style></defs><path class="cls-2" d="M33.49,2.93c5.7,15.38,12.72,30.27,21.02,44.42,2.36,4.02,4.82,7.98,7.38,11.87,1.05,1.61,3.65.11,2.59-1.51-8.88-13.55-16.59-27.85-22.98-42.74-1.82-4.23-3.52-8.52-5.12-12.84-.67-1.79-3.57-1.02-2.89.8h0Z"/><rect class="cls-1" x="0" y="0" width="387.16" height="61" rx="30.5" ry="30.5"/><path class="cls-2" d="M44.46,35.44c-2.05.74-4.21,1.11-6.49,1.11-1.78,0-3.04-.63-3.76-1.88-.55-.97-.83-2.41-.83-4.33,0-1.12.09-2.78.26-4.98.17-2.2.26-3.86.26-4.98,0-.21-.01-.54-.04-1-.03-.46-.04-.8-.04-1.02s.02-.48.06-.77c.38-.46.84-.68,1.39-.68s.94.34,1.22,1.02c.23.53.34,1.1.34,1.71,0,1.29-.12,3.21-.37,5.75-.25,2.54-.37,4.45-.37,5.72,0,2.24.64,3.36,1.91,3.36.57,0,1.38-.19,2.45-.58,1.06-.39,1.88-.58,2.45-.58.53,0,.94.24,1.22.71.23.38.34.85.34,1.42Z"/><path class="cls-2" d="M50.52,18.45c0,.1-.09.3-.26.63-.08.15-.15.58-.23,1.28-.4,4.25-.6,7.98-.6,11.18,0,.83.08,1.51.23,2.02.13.44.41,1.03.83,1.79.02.04.03.1.03.17,0,.4-.46.6-1.39.6h-.26c-.97-.02-1.56-.8-1.76-2.33-.27-1.88-.4-4.47-.4-7.77,0-.78.01-1.95.04-3.51s.04-2.75.04-3.54c0-.44.23-.85.68-1.25s.9-.6,1.34-.6c.34,0,.71.14,1.11.43.4.28.6.59.6.91Z"/><path class="cls-2" d="M64.83,18.36c0,.68-.46,1.02-1.37,1.02-.11,0-.29-.01-.53-.04-.24-.03-.41-.04-.53-.04-.76,0-1.73.14-2.9.43-1.54.38-2.49.6-2.87.65-.13.93-.27,1.85-.4,2.76-.15,1.12-.23,2.05-.23,2.79,0,.61.15.9.46.88l.2-.03c1.54-.13,2.6-.2,3.19-.2,1.35,0,2.31.42,2.9,1.25,0,.8-.29,1.2-.88,1.2-.11,0-.28-.03-.5-.09-.22-.06-.38-.09-.5-.09-.25,0-.6,0-1.05-.03h-1.05c-1.01,0-1.8.06-2.39.17-.3.08-.48.17-.54.27-.06.1-.1.34-.13.71-.03.37-.04.74-.04,1.1,0,2.23.08,3.44.23,3.63.28.42.43.69.43.83,0,.27-.16.53-.47.79-.31.26-.6.39-.87.39-.66,0-1.1-.2-1.31-.6-.4-.72-.6-2.12-.6-4.19,0-1.14.11-2.84.33-5.1s.33-3.96.33-5.1c0-.84-.07-1.25-.2-1.25-.04,0-.1,0-.19.03-.09.02-.15.03-.19.03-.23,0-.44-.15-.64-.46-.2-.3-.3-.59-.3-.85,0-.3.19-.53.56-.68.06-.04.37-.13.95-.28-.06-.17-.09-.3-.09-.4,0-.65.32-.97.97-.97.36,0,.92.29,1.68.88,3-.51,5.07-.77,6.23-.77.55,0,1.04.1,1.48.28.55.25.83.61.83,1.08Z"/><path class="cls-2" d="M79.66,34.06c0,.32-.07.6-.2.84-.17.32-.4.48-.68.48-.08,0-.19-.01-.33-.04s-.25-.04-.33-.04c-.82,0-2,.25-3.54.74-1.55.49-2.73.74-3.54.74-3.05,0-4.58-2.31-4.58-6.94,0-3.64.09-6.52.28-8.65.02-.28.03-.44.03-.46,0-.13-.02-.33-.06-.58-.04-.26-.06-.44-.06-.56,0-.87.47-1.38,1.42-1.54,1.46-.27,2.92-.54,4.38-.82,1.92-.36,3.35-.54,4.3-.54.55,0,1.03.1,1.45.28.57.27.85.64.85,1.11,0,.7-.47,1.05-1.39,1.05-.11,0-.29-.01-.53-.04-.24-.03-.41-.04-.53-.04-1.54,0-3.63.34-6.29,1.02-.15.02-.29.05-.43.09-.13.04-.23.18-.28.43-.21.91-.31,2.69-.31,5.35,0,.4.18.6.54.6.49,0,1.2-.12,2.13-.37.93-.25,1.64-.37,2.13-.37.55,0,1.19.17,1.91.51.19.61.28.98.28,1.11,0,.47-.14.73-.43.77-.28.04-.59.08-.91.11-.15-.09-.36-.14-.63-.14-.66,0-1.46.09-2.39.26-.78.17-1.56.33-2.36.48-.11.02-.21.04-.3.06-.09.02-.15.13-.19.34-.04.34-.06.62-.06.83,0,1.46.03,2.33.09,2.62.19,1.1.71,1.65,1.56,1.65.72,0,1.77-.22,3.16-.65,1.38-.44,2.48-.65,3.3-.65,1.29,0,2.12.33,2.5.98Z"/><path class="cls-2" d="M219.01,24.4c0,.42-.03.79-.08,1.11-.74,4.38-2.82,6.57-6.23,6.57-1.75,0-3.31-.45-4.69-1.34v.6c-.02,1.27.09,2.14.34,2.62.36.66.54,1.04.54,1.14,0,.38-.15.71-.44,1-.29.28-.63.43-1.01.43-.85,0-1.43-.3-1.74-.91-.17-.36-.28-1.03-.34-2.02-.04-.64-.06-1.38-.06-2.22,0-.32.04-.81.13-1.45.09-.64.13-1.14.13-1.48v-1.94c-.02-.57.02-1.41.11-2.52.09-1.11.14-1.93.14-2.46v-2.56s-.09-.55-.26-1.54c.49-.46.95-.68,1.38-.68.51,0,.91.19,1.21.55.3.37.45.82.45,1.35v.4c1.25-1.65,2.84-2.48,4.75-2.48,1.8,0,3.22.67,4.27,2.02.93,1.21,1.39,2.75,1.39,4.61v1.19ZM216.43,23.94c0-1.31-.2-2.43-.6-3.36-.55-1.25-1.39-1.88-2.53-1.88-1.46,0-2.71.89-3.76,2.67-.93,1.56-1.39,3.12-1.39,4.69,0,2.64,1.33,3.96,3.98,3.96,1.42,0,2.47-.62,3.13-1.85.38-.68.74-1.92,1.08-3.73.06-.36.09-.53.09-.51Z"/><path class="cls-2" d="M236.83,26.56c0,2.73-.67,5.05-2.02,6.94-1.5,2.14-3.56,3.22-6.17,3.22-.74,0-1.54-.14-2.39-.43-1.9-.61-3.25-1.66-4.07-3.16-.7-1.29-1.05-3.02-1.05-5.18,0-2.81.67-5.28,2.02-7.43,1.56-2.52,3.66-3.78,6.32-3.78,2.33,0,4.19,1.09,5.58,3.27,1.2,1.88,1.79,4.06,1.79,6.54ZM234.09,26.3c0-3.94-1.27-6.31-3.81-7.08-.27-.08-.57-.11-.91-.11-1.06,0-2.12.47-3.19,1.42-1.69,1.54-2.53,4.28-2.53,8.22,0,.36.08.86.23,1.51.32,1.46.81,2.51,1.45,3.16.74.76,1.82,1.14,3.24,1.14,1.94,0,3.4-.94,4.38-2.82.76-1.48,1.14-3.29,1.14-5.44Z"/><path class="cls-2" d="M243.09,18.45c0,.1-.09.3-.26.63-.08.15-.15.58-.23,1.28-.4,4.25-.6,7.98-.6,11.18,0,.83.08,1.51.23,2.02.13.44.41,1.03.83,1.79.02.04.03.1.03.17,0,.4-.46.6-1.39.6h-.26c-.97-.02-1.56-.8-1.76-2.33-.27-1.88-.4-4.47-.4-7.77,0-.78.01-1.95.04-3.51s.04-2.75.04-3.54c0-.44.23-.85.68-1.25s.9-.6,1.34-.6c.34,0,.71.14,1.11.43.4.28.6.59.6.91Z"/><path class="cls-2" d="M258.48,17.51c0,.21-.09.47-.26.8-.21.42-.33.67-.37.77-.55,1.73-.83,3.14-.83,4.25l-.09,8.18c-.02.84-.21,1.69-.57,2.56-.47,1.1-1.06,1.65-1.76,1.65-1.04,0-2.08-.87-3.1-2.62-.74-1.29-1.49-3.07-2.25-5.35-.44-1.48-.88-2.96-1.34-4.44-.4,3.23-.6,5.39-.6,6.49,0,2.43.15,3.82.44,4.18.29.36.44.63.44.8,0,.36-.19.68-.57.95s-.76.41-1.14.41c-.53,0-.97-.56-1.31-1.68-.27-.87-.4-1.67-.4-2.39,0-.32,0-.8.03-1.44.02-.64.03-1.11.03-1.44,0-.78.09-1.93.28-3.47s.28-2.69.28-3.47v-3.47s-.01-.09-.04-.17c-.03-.08-.04-.13-.04-.17,0-.38.26-.69.77-.94.42-.21.83-.31,1.25-.31.97,0,1.66.31,2.08.94.11.21.22.65.31,1.31.06.46.11.92.17,1.39.23,1.35.83,3.51,1.79,6.49,1.16,3.51,2.02,5.26,2.59,5.26.21,0,.31-.27.31-.8,0-.15-.02-.4-.07-.74s-.07-.61-.07-.8l.28-7.73c.06-1.16.26-2.3.6-3.42.49-1.58,1.16-2.37,1.99-2.37.27,0,.64.17,1.11.51.02.1.03.18.03.26Z"/><path class="cls-2" d="M273.84,18.88c0,.32-.1.6-.3.84-.2.24-.45.36-.75.36-.17,0-.49-.08-.95-.24-.47-.16-.85-.24-1.15-.24h-1.96c-.28,0-.44.02-.47.07-.03.05-.06.23-.1.55-.08.47-.19,1.19-.34,2.13-.36,2.58-.54,5.49-.54,8.73,0,2.2.26,3.71.77,4.52v.77c-.36.19-.65.28-.85.28-1.21,0-2-.59-2.36-1.76-.17-.57-.26-1.66-.26-3.27,0-1.88.04-3.34.11-4.38.02-.46.12-1.55.31-3.27.15-1.35.23-2.44.23-3.27v-.83c-.27.02-.78.09-1.54.2-.63.1-1.14.14-1.54.14-1.32,0-1.97-.39-1.97-1.17,0-.32.09-.51.28-.57.28-.42,1.77-.78,4.47-1.08,2.09-.23,3.77-.34,5.06-.34.91,0,1.71.11,2.39.34.99.32,1.48.82,1.48,1.48Z"/><path class="cls-2" d="M287.56,33.38c0,1.16-.67,2.05-2.02,2.68-1.06.51-2.25.77-3.56.77-1.19,0-2.6-.27-4.21-.8-1.99-.68-2.99-1.48-2.99-2.39,0-.34.12-.64.37-.88s.54-.37.88-.37c.51,0,.99.21,1.42.63.74.63,1.14.97,1.19,1.02.66.38,1.86.57,3.58.57,1.54,0,2.31-.35,2.31-1.05,0-.59-.72-1.4-2.16-2.45-1.01-.65-2.01-1.29-3.02-1.94-1.29-.87-2.23-1.7-2.82-2.48-.78-1.02-1.17-2.2-1.17-3.53,0-1.67.51-3.16,1.54-4.47,1.1-1.44,2.47-2.16,4.1-2.16,1.4,0,2.59.38,3.56,1.15s1.58,1.85,1.85,3.23c.06.53.17,1.32.34,2.36.08.3.11.53.11.68,0,.68-.11,1.26-.34,1.74-.28.65-.73.97-1.34.97-.34,0-.67-.16-.98-.47-.31-.31-.47-.64-.47-.99,0-.25.06-.61.17-1.1.11-.49.17-.85.17-1.1,0-2.57-.85-3.86-2.56-3.86-.95,0-1.75.4-2.39,1.21-.65.81-.97,1.7-.97,2.66,0,1.37.82,2.7,2.45,3.99,1.5,1.01,3.01,2.01,4.52,3.02,1.61,1.16,2.42,2.27,2.42,3.33Z"/><path class="cls-3" d="M345.15,15.79s-.94,1.69-4.51,1.88c0,0-7.1.33-10.34.19,0,0-6.58.19-2.44-1.69,0,0,1.32-.56,2.26-.75.37-.07,2.82.19,3.57-.36s.75-1.33.38-1.71-6.02-.75,0-2.63c0,0,4.17-.3,4.51.38.38.75.45,1.39-.75,3.01-.18.25.07.74.38.75,2.1.08,7.14-.38,6.96.94Z"/><path class="cls-3" d="M326.92,17.85s-7.52,6.39-7.52,9.4c0,0-11.28-11.66-11.28-7.9l.38,1.13s-7.52-1.88,0,1.88c0,0,8.27,18.05,11.66,16.17,0,0-.38,6.02,7.9,8.65,0,0,.7,7.14,2.79,0,0,0,8.86.75,11.12-.38,0,0,4.89,7.14,1.88-.75,0,0,6.02-.75,8.27-9.02s-1.88-19.55-7.9-19.55c-6.4,0-10.15,1.13-17.3.38Z"/><path class="cls-3" d="M350.23,20.86s1.67-4.14,9.48,0c6.59,3.49,2.54,11.8,1.11,14.31-.27.47-.73.8-1.27.89-1.48.26-4.41.68-4.42-.16,0,0-1.14-.38-.76,1.88s-2.22-.5-1.88-1.5c.38-1.13-.38-3.01,3.38-2.63s5.26-2.63,5.26-2.63c0,0,2.63-11.66-8.27-8.65,0,0-1.13,0,.38,2.26s-3.76.75-2.63-.75l-.38-3.01Z"/></svg>